<?xml version="1.0" encoding="UTF-8"?>
<svg version="1.1" xmlns="http://www.w3.org/2000/svg" width="512" height="512">
<path d="M0 0 C0.82221356 -0.00205263 1.64442713 -0.00410527 2.49155626 -0.0062201 C5.2705198 -0.01191342 8.04943414 -0.01042999 10.82840252 -0.00901413 C12.83136909 -0.01159643 14.83433514 -0.0146092 16.83730048 -0.01801753 C22.36010619 -0.02610663 27.88289893 -0.02787816 33.40570986 -0.028615 C39.35470628 -0.03046222 45.3036959 -0.03800785 51.25268841 -0.04475021 C64.94802787 -0.05905661 78.64336637 -0.06486168 92.33871159 -0.06944216 C99.10424267 -0.07177709 105.86977291 -0.07537961 112.63530333 -0.07913754 C135.78776439 -0.09197339 158.94022497 -0.10269289 182.09268951 -0.10614014 C183.54637066 -0.10636177 185.0000518 -0.10658355 186.45373295 -0.10680549 C187.91095281 -0.10702613 189.36817268 -0.10724661 190.82539254 -0.10746694 C193.74889648 -0.10790949 196.67240042 -0.10835661 199.59590435 -0.10880661 C200.68319485 -0.1089707 200.68319485 -0.1089707 201.79245082 -0.1091381 C225.30235659 -0.11276969 248.81223154 -0.12869342 272.3221255 -0.15199697 C297.16976473 -0.17658157 322.01738635 -0.19031232 346.8650381 -0.19150805 C349.59158242 -0.19167951 352.31812674 -0.19189494 355.04467106 -0.19214249 C356.0517217 -0.19222614 356.0517217 -0.19222614 357.0791168 -0.19231148 C367.89267019 -0.19346308 378.706192 -0.20449426 389.51973472 -0.21902954 C400.38437644 -0.23338122 411.24897565 -0.23638611 422.11362413 -0.22858956 C428.00187789 -0.22467246 433.89002518 -0.22566423 439.77826595 -0.23964691 C445.16510383 -0.25232229 450.55175454 -0.25124457 455.93859192 -0.2390562 C457.89081858 -0.23708813 459.84305821 -0.24022843 461.79526661 -0.24890056 C464.44294884 -0.25992057 467.08996206 -0.2525566 469.73762512 -0.24050903 C470.88226351 -0.25190182 470.88226351 -0.25190182 472.05002591 -0.26352477 C478.29238208 -0.2019412 482.17569287 1.46339652 486.80757427 5.56892776 C490.60794987 9.89713331 491.30769599 12.70866085 491.31484318 18.47340393 C491.32129207 19.78619127 491.32774096 21.09897861 491.33438528 22.45154738 C491.33144286 23.91204094 491.32830742 25.37253411 491.32499981 26.83302689 C491.32873511 28.38170476 491.33333615 29.93038075 491.33873045 31.47905374 C491.35099091 35.74158472 491.35069641 40.0040374 491.3483417 44.26658201 C491.3479343 48.86113037 491.35896542 53.45565337 491.36845684 58.05018997 C491.38508492 67.05474104 491.39056722 76.05926593 491.3916816 85.06383106 C491.3926313 92.38251221 491.39673768 99.70118471 491.40308285 107.01986313 C491.42070085 127.7626203 491.42992094 148.50535676 491.4284219 169.24812147 C491.42830203 170.92624188 491.42830203 170.92624188 491.42817974 172.6382637 C491.42809798 173.75837437 491.42801622 174.87848503 491.42793198 176.03253844 C491.42711911 194.18492157 491.44625559 212.33722172 491.47445647 230.48958084 C491.50317413 249.12139649 491.51699736 267.75317166 491.51526892 286.38501 C491.51460459 296.84810275 491.52011557 307.31110853 491.54162502 317.77418137 C491.55982218 326.68326321 491.56419627 335.59221867 491.55060618 344.50131103 C491.54406888 349.04711655 491.54398669 353.59267951 491.56131268 358.13846207 C491.57701509 362.30108777 491.5742089 366.46327801 491.55674441 370.62589291 C491.55366823 372.13061828 491.5573302 373.63537593 491.56846456 375.14006326 C491.63542791 384.832491 491.10908887 392.59672451 483.93257427 399.88142776 C476.87381128 406.2927631 468.81973846 407.73063262 459.55903912 407.58552933 C458.56271465 407.58611343 457.56639019 407.58669754 456.53987408 407.58729935 C453.28238527 407.58453687 450.02583856 407.55353185 446.76851177 407.52205276 C444.49594402 407.51458385 442.22336979 407.50889399 439.95079327 407.50490189 C433.99621288 407.48969692 428.0420285 407.45045933 422.08760357 407.40608597 C416.00082536 407.36502227 409.9139826 407.34686721 403.82710552 407.32674026 C391.90375534 407.28396014 379.98069786 407.21577122 368.05757427 407.13142776 C368.07328472 408.3472554 368.08899517 409.56308304 368.10518169 410.81575394 C368.15956228 415.3350548 368.19395399 419.85432683 368.22236919 424.37385941 C368.23743728 426.328336 368.25789552 428.28277888 368.28389263 430.23714066 C368.32036293 433.049644 368.33732049 435.8616995 368.35054302 438.67439651 C368.36602688 439.54541504 368.38151073 440.41643356 368.3974638 441.31384659 C368.39877408 446.05826373 368.2292426 449.32755472 365.05757427 453.13142776 C361.86748076 454.7590265 359.57573052 455.47330265 356.01069927 454.67049026 C351.72091736 453.05812396 347.70587613 450.95475456 343.65913677 448.81892776 C342.87192242 448.40940872 342.08470806 447.99988968 341.27363873 447.57796097 C339.69480278 446.75093639 338.12511936 445.90615154 336.56611919 445.04231644 C331.61885924 442.43409466 328.6289443 441.44150524 323.05757427 443.13142776 C319.2619492 444.80593586 315.5992657 446.69311019 311.93257427 448.63142776 C309.99536148 449.64737688 308.05534437 450.65800068 306.11226177 451.66267776 C305.26131939 452.11191605 304.41037701 452.56115433 303.53364849 453.02400589 C299.93743605 454.63240854 297.26487906 455.47637199 293.43257427 454.38142776 C291.09267216 453.14990034 289.66308316 452.21858932 288.05757427 450.13142776 C287.21412163 447.39968969 286.9347944 444.94762913 286.94404888 442.09724808 C286.94412441 441.31674088 286.94419994 440.53623367 286.94427776 439.73207474 C286.94943905 438.89964249 286.95460033 438.06721024 286.95991802 437.20955276 C286.96204044 435.91957382 286.96204044 435.91957382 286.96420574 434.6035347 C286.9697933 431.86279668 286.98234353 429.12214101 286.99507427 426.38142776 C287.00009088 424.52075186 287.00465351 422.66007468 287.00874615 420.79939651 C287.01975867 416.24337531 287.03701476 411.68741549 287.05757427 407.13142776 C286.43640099 407.13294665 285.8152277 407.13446553 285.17523098 407.13603044 C248.35761986 407.22554712 211.54002484 407.2941762 174.72232717 407.33568908 C170.30136118 407.3406919 165.88039541 407.34586919 161.45942974 407.35115433 C160.13923043 407.35272819 160.13923043 407.35272819 158.79236042 407.35433385 C144.54227309 407.37173801 130.29225032 407.40327577 116.04220128 407.44003895 C101.41980622 407.47744805 86.79744496 407.49966355 72.17500401 407.50778174 C63.15250677 407.51326958 54.13019202 407.53060103 45.10775095 407.56309363 C38.92031266 407.58424113 32.73296869 407.59062728 26.54549688 407.58543327 C22.97586093 407.58287184 19.40654383 407.58679202 15.83696461 407.60824966 C11.96417589 407.6313596 8.09180134 407.62337148 4.21895123 407.61244583 C3.09442421 407.6240972 1.96989719 407.63574856 0.8112936 407.647753 C-6.53985898 407.5916492 -12.06697591 406.82653767 -17.51736683 401.62977487 C-22.46783154 395.2625173 -21.63482744 387.32777245 -21.57061481 379.67633438 C-21.57566328 378.09461207 -21.58289442 376.51289548 -21.59211296 374.93119198 C-21.61101952 370.59578519 -21.59881066 366.26094347 -21.58139002 361.92555106 C-21.56801061 357.24586567 -21.58345513 352.56626265 -21.59521198 347.88658524 C-21.61358819 338.72376249 -21.60507655 329.56115303 -21.58712376 320.39833694 C-21.57309729 312.95196626 -21.56920506 305.50565348 -21.57256603 298.05927086 C-21.57304347 296.99941248 -21.57352092 295.93955411 -21.57401283 294.84757881 C-21.57503916 292.69450019 -21.57609452 290.54142158 -21.57717859 288.38834298 C-21.58574551 269.35124588 -21.56907043 250.31425176 -21.53934956 231.27717972 C-21.51050813 212.80317739 -21.50343056 194.32932339 -21.51884174 175.85530472 C-21.53560055 155.73828241 -21.53964169 135.62133052 -21.52213138 115.50430638 C-21.52028699 113.35946056 -21.51845226 111.21461474 -21.51662731 109.06976891 C-21.51571522 108.01445956 -21.51480313 106.95915021 -21.5138634 105.8718618 C-21.50825633 98.43358063 -21.51156675 90.99533383 -21.51817226 83.55705452 C-21.5259015 74.49357845 -21.51916748 65.43024842 -21.49399722 56.36680179 C-21.48149317 51.74212254 -21.47536668 47.11767077 -21.48653889 42.49298286 C-21.49657271 38.25961527 -21.48814008 34.02670152 -21.46495771 29.79338921 C-21.45979446 28.26189304 -21.46136742 26.73035627 -21.47035236 25.19887774 C-21.54742904 10.86930004 -21.54742904 10.86930004 -16.94242573 5.13142776 C-11.26731122 0.73031855 -6.98911147 -0.01605867 0 0 Z " fill="#EBEFF0" transform="translate(20.94242572784424,25.868572235107422)"/>
<path d="M0 0 C0.82221356 -0.00205263 1.64442713 -0.00410527 2.49155626 -0.0062201 C5.2705198 -0.01191342 8.04943414 -0.01042999 10.82840252 -0.00901413 C12.83136909 -0.01159643 14.83433514 -0.0146092 16.83730048 -0.01801753 C22.36010619 -0.02610663 27.88289893 -0.02787816 33.40570986 -0.028615 C39.35470628 -0.03046222 45.3036959 -0.03800785 51.25268841 -0.04475021 C64.94802787 -0.05905661 78.64336637 -0.06486168 92.33871159 -0.06944216 C99.10424267 -0.07177709 105.86977291 -0.07537961 112.63530333 -0.07913754 C135.78776439 -0.09197339 158.94022497 -0.10269289 182.09268951 -0.10614014 C183.54637066 -0.10636177 185.0000518 -0.10658355 186.45373295 -0.10680549 C187.91095281 -0.10702613 189.36817268 -0.10724661 190.82539254 -0.10746694 C193.74889648 -0.10790949 196.67240042 -0.10835661 199.59590435 -0.10880661 C200.68319485 -0.1089707 200.68319485 -0.1089707 201.79245082 -0.1091381 C225.30235659 -0.11276969 248.81223154 -0.12869342 272.3221255 -0.15199697 C297.16976473 -0.17658157 322.01738635 -0.19031232 346.8650381 -0.19150805 C349.59158242 -0.19167951 352.31812674 -0.19189494 355.04467106 -0.19214249 C356.0517217 -0.19222614 356.0517217 -0.19222614 357.0791168 -0.19231148 C367.89267019 -0.19346308 378.706192 -0.20449426 389.51973472 -0.21902954 C400.38437644 -0.23338122 411.24897565 -0.23638611 422.11362413 -0.22858956 C428.00187789 -0.22467246 433.89002518 -0.22566423 439.77826595 -0.23964691 C445.16510383 -0.25232229 450.55175454 -0.25124457 455.93859192 -0.2390562 C457.89081858 -0.23708813 459.84305821 -0.24022843 461.79526661 -0.24890056 C464.44294884 -0.25992057 467.08996206 -0.2525566 469.73762512 -0.24050903 C470.88226351 -0.25190182 470.88226351 -0.25190182 472.05002591 -0.26352477 C478.29238208 -0.2019412 482.17569287 1.46339652 486.80757427 5.56892776 C490.60794987 9.89713331 491.30769599 12.70866085 491.31484318 18.47340393 C491.32129207 19.78619127 491.32774096 21.09897861 491.33438528 22.45154738 C491.33144286 23.91204094 491.32830742 25.37253411 491.32499981 26.83302689 C491.32873511 28.38170476 491.33333615 29.93038075 491.33873045 31.47905374 C491.35099091 35.74158472 491.35069641 40.0040374 491.3483417 44.26658201 C491.3479343 48.86113037 491.35896542 53.45565337 491.36845684 58.05018997 C491.38508492 67.05474104 491.39056722 76.05926593 491.3916816 85.06383106 C491.3926313 92.38251221 491.39673768 99.70118471 491.40308285 107.01986313 C491.42070085 127.7626203 491.42992094 148.50535676 491.4284219 169.24812147 C491.42830203 170.92624188 491.42830203 170.92624188 491.42817974 172.6382637 C491.42809798 173.75837437 491.42801622 174.87848503 491.42793198 176.03253844 C491.42711911 194.18492157 491.44625559 212.33722172 491.47445647 230.48958084 C491.50317413 249.12139649 491.51699736 267.75317166 491.51526892 286.38501 C491.51460459 296.84810275 491.52011557 307.31110853 491.54162502 317.77418137 C491.55982218 326.68326321 491.56419627 335.59221867 491.55060618 344.50131103 C491.54406888 349.04711655 491.54398669 353.59267951 491.56131268 358.13846207 C491.57701509 362.30108777 491.5742089 366.46327801 491.55674441 370.62589291 C491.55366823 372.13061828 491.5573302 373.63537593 491.56846456 375.14006326 C491.63542791 384.832491 491.10908887 392.59672451 483.93257427 399.88142776 C476.87381128 406.2927631 468.81973846 407.73063262 459.55903912 407.58552933 C458.56271465 407.58611343 457.56639019 407.58669754 456.53987408 407.58729935 C453.28238527 407.58453687 450.02583856 407.55353185 446.76851177 407.52205276 C444.49594402 407.51458385 442.22336979 407.50889399 439.95079327 407.50490189 C433.99621288 407.48969692 428.0420285 407.45045933 422.08760357 407.40608597 C416.00082536 407.36502227 409.9139826 407.34686721 403.82710552 407.32674026 C391.90375534 407.28396014 379.98069786 407.21577122 368.05757427 407.13142776 C368.07328472 408.3472554 368.08899517 409.56308304 368.10518169 410.81575394 C368.15956228 415.3350548 368.19395399 419.85432683 368.22236919 424.37385941 C368.23743728 426.328336 368.25789552 428.28277888 368.28389263 430.23714066 C368.32036293 433.049644 368.33732049 435.8616995 368.35054302 438.67439651 C368.36602688 439.54541504 368.38151073 440.41643356 368.3974638 441.31384659 C368.39877408 446.05826373 368.2292426 449.32755472 365.05757427 453.13142776 C361.86748076 454.7590265 359.57573052 455.47330265 356.01069927 454.67049026 C351.72091736 453.05812396 347.70587613 450.95475456 343.65913677 448.81892776 C342.87192242 448.40940872 342.08470806 447.99988968 341.27363873 447.57796097 C339.69480278 446.75093639 338.12511936 445.90615154 336.56611919 445.04231644 C331.61885924 442.43409466 328.6289443 441.44150524 323.05757427 443.13142776 C319.2619492 444.80593586 315.5992657 446.69311019 311.93257427 448.63142776 C309.99536148 449.64737688 308.05534437 450.65800068 306.11226177 451.66267776 C305.26131939 452.11191605 304.41037701 452.56115433 303.53364849 453.02400589 C299.93743605 454.63240854 297.26487906 455.47637199 293.43257427 454.38142776 C291.09267216 453.14990034 289.66308316 452.21858932 288.05757427 450.13142776 C287.21412163 447.39968969 286.9347944 444.94762913 286.94404888 442.09724808 C286.94412441 441.31674088 286.94419994 440.53623367 286.94427776 439.73207474 C286.94943905 438.89964249 286.95460033 438.06721024 286.95991802 437.20955276 C286.96204044 435.91957382 286.96204044 435.91957382 286.96420574 434.6035347 C286.9697933 431.86279668 286.98234353 429.12214101 286.99507427 426.38142776 C287.00009088 424.52075186 287.00465351 422.66007468 287.00874615 420.79939651 C287.01975867 416.24337531 287.03701476 411.68741549 287.05757427 407.13142776 C286.43640099 407.13294665 285.8152277 407.13446553 285.17523098 407.13603044 C248.35761986 407.22554712 211.54002484 407.2941762 174.72232717 407.33568908 C170.30136118 407.3406919 165.88039541 407.34586919 161.45942974 407.35115433 C160.13923043 407.35272819 160.13923043 407.35272819 158.79236042 407.35433385 C144.54227309 407.37173801 130.29225032 407.40327577 116.04220128 407.44003895 C101.41980622 407.47744805 86.79744496 407.49966355 72.17500401 407.50778174 C63.15250677 407.51326958 54.13019202 407.53060103 45.10775095 407.56309363 C38.92031266 407.58424113 32.73296869 407.59062728 26.54549688 407.58543327 C22.97586093 407.58287184 19.40654383 407.58679202 15.83696461 407.60824966 C11.96417589 407.6313596 8.09180134 407.62337148 4.21895123 407.61244583 C3.09442421 407.6240972 1.96989719 407.63574856 0.8112936 407.647753 C-6.53985898 407.5916492 -12.06697591 406.82653767 -17.51736683 401.62977487 C-22.46783154 395.2625173 -21.63482744 387.32777245 -21.57061481 379.67633438 C-21.57566328 378.09461207 -21.58289442 376.51289548 -21.59211296 374.93119198 C-21.61101952 370.59578519 -21.59881066 366.26094347 -21.58139002 361.92555106 C-21.56801061 357.24586567 -21.58345513 352.56626265 -21.59521198 347.88658524 C-21.61358819 338.72376249 -21.60507655 329.56115303 -21.58712376 320.39833694 C-21.57309729 312.95196626 -21.56920506 305.50565348 -21.57256603 298.05927086 C-21.57304347 296.99941248 -21.57352092 295.93955411 -21.57401283 294.84757881 C-21.57503916 292.69450019 -21.57609452 290.54142158 -21.57717859 288.38834298 C-21.58574551 269.35124588 -21.56907043 250.31425176 -21.53934956 231.27717972 C-21.51050813 212.80317739 -21.50343056 194.32932339 -21.51884174 175.85530472 C-21.53560055 155.73828241 -21.53964169 135.62133052 -21.52213138 115.50430638 C-21.52028699 113.35946056 -21.51845226 111.21461474 -21.51662731 109.06976891 C-21.51571522 108.01445956 -21.51480313 106.95915021 -21.5138634 105.8718618 C-21.50825633 98.43358063 -21.51156675 90.99533383 -21.51817226 83.55705452 C-21.5259015 74.49357845 -21.51916748 65.43024842 -21.49399722 56.36680179 C-21.48149317 51.74212254 -21.47536668 47.11767077 -21.48653889 42.49298286 C-21.49657271 38.25961527 -21.48814008 34.02670152 -21.46495771 29.79338921 C-21.45979446 28.26189304 -21.46136742 26.73035627 -21.47035236 25.19887774 C-21.54742904 10.86930004 -21.54742904 10.86930004 -16.94242573 5.13142776 C-11.26731122 0.73031855 -6.98911147 -0.01605867 0 0 Z M23.05757427 44.13142776 C23.05757427 149.07142776 23.05757427 254.01142776 23.05757427 362.13142776 C110.50757427 362.13142776 197.95757427 362.13142776 288.05757427 362.13142776 C288.05757427 351.90142776 288.05757427 341.67142776 288.05757427 331.13142776 C283.10757427 331.13142776 278.15757427 331.13142776 273.05757427 331.13142776 C268.05757427 328.13142776 268.05757427 328.13142776 267.05757427 326.13142776 C267.05572418 323.89910928 267.11625674 321.66662939 267.20601177 319.43611526 C267.24305085 318.06637322 267.27814303 316.6965774 267.31148052 315.32674026 C267.3667192 313.17292068 267.43185913 311.0219973 267.5307188 308.86970901 C268.15929473 298.9718645 268.15929473 298.9718645 263.85444927 290.39705276 C261.97559358 288.61611014 261.97559358 288.61611014 260.05757427 287.13142776 C259.16812115 286.36572464 258.27866802 285.60002151 257.36226177 284.81111526 C256.5604649 284.21556839 255.75866802 283.62002151 254.93257427 283.00642776 C245.56791941 275.68315346 245.56791941 275.68315346 244.37007427 269.69392776 C245.92532801 261.63488566 253.16916142 257.27604445 259.47432232 252.77083206 C262.98875399 250.20579908 265.19194506 248.06009819 267.05757427 244.13142776 C267.40510935 240.71344484 267.40510935 240.71344484 267.20991802 237.00252151 C267.18173476 235.62427015 267.1537458 234.2460148 267.12593365 232.86775589 C267.06368383 230.71263276 266.99469528 228.55790467 266.92061138 226.40315628 C266.85417735 224.31131772 266.81228197 222.22000971 266.77241802 220.12752151 C266.73237652 218.88156204 266.69233501 217.63560257 266.65108013 216.35188675 C267.05757427 213.13142776 267.05757427 213.13142776 268.64033794 210.70979691 C271.93357441 208.55943091 274.10703446 208.73499523 278.01851177 208.88142776 C278.68669933 208.89657425 279.35488689 208.91172073 280.04332256 208.9273262 C282.89013401 208.99243129 285.73460773 209.10476601 288.58003521 209.21345901 C290.66358394 209.28619659 292.74675059 209.33431661 294.83101177 209.38142776 C296.07286236 209.42783401 297.31471294 209.47424026 298.59419537 209.52205276 C303.4231027 208.97741356 306.33729902 206.920243 309.66914654 203.45564651 C310.06674175 202.91552933 310.46433697 202.37541214 310.87398052 201.81892776 C311.32837505 201.21822464 311.78276958 200.61752151 312.25093365 199.99861526 C312.70275005 199.38244339 313.15456646 198.76627151 313.62007427 198.13142776 C321.38077648 187.63746551 321.38077648 187.63746551 326.26851177 186.71345901 C331.814956 187.30414531 334.67044996 188.87301572 338.37398052 193.02986526 C340.71024394 195.94612911 342.99538495 198.89339065 345.18648052 201.92049026 C348.64371004 206.00565082 351.18099083 208.85826092 356.52095318 209.63557816 C357.76280376 209.58393509 359.00465435 209.53229202 360.28413677 209.47908401 C360.95423779 209.46252258 361.6243388 209.44596115 362.3147459 209.42889786 C364.4389515 209.37480922 366.55978126 209.28780754 368.68257427 209.19392776 C370.81234743 209.10550845 372.9409234 209.02500636 375.07182598 208.96966934 C376.99952389 208.91913006 378.92636915 208.83869017 380.85298443 208.75667191 C384.05757427 209.13142776 384.05757427 209.13142776 386.43013287 211.0198555 C388.74325454 214.02108402 389.19525083 215.65451965 389.18257427 219.38142776 C389.1851524 220.12908401 389.18773052 220.87674026 389.19038677 221.64705276 C389.05757427 224.13142776 389.05757427 224.13142776 388.56538677 227.01814651 C388.03306154 230.28170966 387.85440282 233.3886125 387.80757427 236.69392776 C387.78179302 237.78834183 387.75601177 238.88275589 387.72944927 240.01033401 C388.3099924 245.53240491 391.1457608 248.50931432 395.24507427 252.00642776 C396.03398052 252.68834183 396.82288677 253.37025589 397.63569927 254.07283401 C398.43491802 254.75216995 399.23413677 255.43150589 400.05757427 256.13142776 C401.53945709 257.39909283 403.01881844 258.66971424 404.49507427 259.94392776 C405.13316021 260.48662308 405.77124615 261.02931839 406.42866802 261.58845901 C409.82087445 264.80170012 410.33464709 267.35121742 410.61616802 271.90095901 C408.95200304 278.54598143 402.05451451 282.60931011 396.7860899 286.34236526 C392.92250868 289.18017696 390.28394452 291.87228467 388.05757427 296.13142776 C387.54136276 299.35184357 387.54136276 299.35184357 387.74507427 302.63142776 C387.76956646 303.71424026 387.79405865 304.79705276 387.81929302 305.91267776 C388.05082128 309.04020708 388.52691048 312.04279864 389.05757427 315.13142776 C389.51356728 320.1024991 389.84282484 323.84885184 387.18257427 328.19392776 C381.06316684 333.77338749 379.44256297 331.13142776 368.05757427 331.13142776 C368.05757427 341.36142776 368.05757427 351.59142776 368.05757427 362.13142776 C394.12757427 362.13142776 420.19757427 362.13142776 447.05757427 362.13142776 C447.05757427 257.19142776 447.05757427 152.25142776 447.05757427 44.13142776 C307.13757427 44.13142776 167.21757427 44.13142776 23.05757427 44.13142776 Z " fill="#F3D55A" transform="translate(20.94242572784424,25.868572235107422)"/>
<path d="M0 0 C0.41494738 0.37226512 0.82989476 0.74453025 1.25741631 1.12807614 C4.31317589 3.81537486 7.36720924 6.32281723 10.77283382 8.55541134 C24.64914922 17.70745595 38.2781968 29.34985921 41.86720657 46.25764847 C44.80716216 65.25828279 43.9533066 84.81118879 43.41675315 103.96353582 C43.17713175 112.75518032 43.13097353 121.5450574 43.09348815 130.33950334 C43.02174391 146.01387885 42.80350236 161.68249927 42.48950195 177.35375977 C42.18530687 192.55171915 41.95275022 207.74809225 41.81274414 222.94848633 C41.80390023 223.89920838 41.79505631 224.84993042 41.7859444 225.82946223 C41.71729965 233.26776895 41.6527295 240.70610961 41.5894438 248.14446366 C41.27964617 284.43492983 40.61549027 320.71094236 40 357 C127.45 357 214.9 357 305 357 C305 371.85 305 386.7 305 402 C267.42754298 402.09042981 229.85511458 402.16204077 192.28257063 402.20426132 C187.84658336 402.20926413 183.41059631 402.21444142 178.97460938 402.21972656 C178.09148589 402.2207758 177.2083624 402.22182505 176.29847759 402.22290608 C161.99989142 402.24031034 147.7013696 402.27184815 133.4028216 402.30861118 C118.73070598 402.34602003 104.05862405 402.36823573 89.38646269 402.37635398 C80.33325626 402.38184187 71.28023169 402.3991736 62.22708124 402.43166587 C56.01861823 402.45281305 49.81024922 402.45919959 43.60175282 402.45400551 C40.0199657 402.45144403 36.43849634 402.45536482 32.85676575 402.4768219 C28.97084024 402.49993095 25.08532752 402.49194394 21.19934082 402.48101807 C20.07092286 402.49266943 18.94250489 402.5043208 17.77989244 402.51632524 C10.41814659 402.46032751 4.88351909 401.70315237 -0.5747928 396.4983471 C-5.52558234 390.13135309 -4.69240104 382.19626414 -4.62818909 374.54490662 C-4.63323755 372.96318431 -4.6404687 371.38146772 -4.64968723 369.79976422 C-4.6685938 365.46435743 -4.65638493 361.1295157 -4.6389643 356.79412329 C-4.62558488 352.11443791 -4.6410294 347.43483489 -4.65278625 342.75515747 C-4.67116247 333.59233472 -4.66265082 324.42972527 -4.64469803 315.26690917 C-4.63067156 307.8205385 -4.62677933 300.37422571 -4.6301403 292.92784309 C-4.63061775 291.86798472 -4.63109519 290.80812634 -4.6315871 289.71615105 C-4.63261343 287.56307242 -4.63366879 285.40999381 -4.63475286 283.25691522 C-4.64331978 264.21981812 -4.6266447 245.182824 -4.59692383 226.14575195 C-4.5680824 207.67174963 -4.56100484 189.19789562 -4.57641602 170.72387695 C-4.59317482 150.60685464 -4.59721596 130.48990275 -4.57970566 110.37287861 C-4.57786126 108.2280328 -4.57602654 106.08318697 -4.57420158 103.93834114 C-4.57328949 102.88303179 -4.5723774 101.82772245 -4.57143768 100.74043403 C-4.5658306 93.30215287 -4.56914102 85.86390606 -4.57574654 78.42562675 C-4.58347577 69.36215068 -4.57674175 60.29882065 -4.5515715 51.23537403 C-4.53906745 46.61069478 -4.53294096 41.986243 -4.54411316 37.3615551 C-4.55414699 33.12818751 -4.54571436 28.89527376 -4.52253198 24.66196144 C-4.51736874 23.13046527 -4.51894169 21.5989285 -4.52792663 20.06744998 C-4.60387757 5.94716224 -4.60387757 5.94716224 0 0 Z " fill="#EFC41A" transform="translate(4,31)"/>
<path d="M0 0 C8.31688549 1.49313213 13.23696433 9.8193292 17.88671875 16.234375 C20.90981587 19.84850459 23.14070612 22.14565824 27.95898438 22.68725586 C29.82006836 22.60809937 29.82006836 22.60809937 31.71875 22.52734375 C33.09244384 22.49138053 34.4661419 22.45557813 35.83984375 22.41992188 C37.9862281 22.33906998 40.13201352 22.2496906 42.27783203 22.1550293 C44.36221928 22.07030781 46.44581972 22.01645849 48.53125 21.96484375 C50.39233398 21.88737915 50.39233398 21.88737915 52.29101562 21.80834961 C56.56124903 22.45407544 57.9430781 24.01787636 60.625 27.3125 C61.78152302 29.62554604 61.75874293 30.99207918 61.75 33.5625 C61.75257813 34.31015625 61.75515625 35.0578125 61.7578125 35.828125 C61.625 38.3125 61.625 38.3125 61.1328125 41.19921875 C60.60048727 44.4627819 60.42182855 47.56968473 60.375 50.875 C60.34921875 51.96941406 60.3234375 53.06382812 60.296875 54.19140625 C60.84693584 59.42353253 63.36920981 62.40809031 67.3125 65.6875 C68.01117188 66.27917969 68.70984375 66.87085938 69.4296875 67.48046875 C70.51636719 68.38732422 70.51636719 68.38732422 71.625 69.3125 C73.06699036 70.53639573 74.5046467 71.76541976 75.9375 73 C76.57300781 73.54011719 77.20851563 74.08023438 77.86328125 74.63671875 C81.13351507 77.74742897 82.51622367 79.57523819 83.1875 84.125 C82.97391887 88.26694839 81.6379152 90.42937253 78.8125 93.390625 C75.43751414 96.35579115 71.86284176 99.06151807 68.20825195 101.67333984 C64.74665245 104.19930301 62.33430693 106.35191077 60.625 110.3125 C60.2267496 113.46054713 60.2267496 113.46054713 60.375 116.75 C60.39820313 118.38775391 60.39820313 118.38775391 60.421875 120.05859375 C60.61857178 123.20952482 61.08136604 126.20542284 61.625 129.3125 C62.51579668 137.66053749 62.51579668 137.66053749 60.578125 141.25390625 C58.81700723 143.40350588 57.12180285 145.06409858 54.625 146.3125 C52.64775939 146.40922832 50.6670994 146.44229903 48.6875 146.4375 C47.62660156 146.44007813 46.56570313 146.44265625 45.47265625 146.4453125 C42.625 146.3125 42.625 146.3125 39.625 145.3125 C39.625 155.5425 39.625 165.7725 39.625 176.3125 C65.695 176.3125 91.765 176.3125 118.625 176.3125 C118.625 176.6425 118.625 176.9725 118.625 177.3125 C92.225 177.3125 65.825 177.3125 38.625 177.3125 C38.79 183.726875 38.955 190.14125 39.125 196.75 C39.47017895 211.68519388 39.77315304 226.62184095 39.85717773 241.56106567 C39.86901907 243.34762754 39.88607338 245.13416277 39.90844727 246.92062378 C39.93816061 249.41470187 39.94832224 251.90810965 39.953125 254.40234375 C39.96543152 255.13376587 39.97773804 255.86518799 39.99041748 256.61877441 C39.97124436 261.02233066 39.38365411 263.83999779 36.625 267.3125 C33.43490649 268.94009873 31.14315625 269.65437488 27.578125 268.8515625 C23.28834309 267.23919619 19.27330186 265.1358268 15.2265625 263 C14.43934814 262.59048096 13.65213379 262.18096191 12.84106445 261.7590332 C11.26222851 260.93200863 9.69254509 260.08722377 8.13354492 259.22338867 C3.18628497 256.6151669 0.19637003 255.62257747 -5.375 257.3125 C-9.17062507 258.98700809 -12.83330858 260.87418243 -16.5 262.8125 C-18.4372128 263.82844911 -20.3772299 264.83907291 -22.3203125 265.84375 C-23.17125488 266.29298828 -24.02219727 266.74222656 -24.89892578 267.20507812 C-28.49513822 268.81348077 -31.16769521 269.65744422 -35 268.5625 C-37.91342195 267.02912003 -39.87804196 265.80465164 -40.94482422 262.6015625 C-41.48677936 259.71769678 -41.50487924 256.99911527 -41.5078125 254.0625 C-41.50979141 253.08157127 -41.50979141 253.08157127 -41.5118103 252.08082581 C-41.51377906 249.82467447 -41.50721471 247.56863972 -41.5 245.3125 C-41.49867065 244.12610428 -41.49867065 244.12610428 -41.49731445 242.91574097 C-41.45610648 210.38085605 -40.84586738 177.84341766 -40.375 145.3125 C-41.31593506 145.47331055 -42.25687012 145.63412109 -43.22631836 145.79980469 C-48.49573236 146.65781581 -53.35880698 147.2133522 -58.3125 145 C-60.375 143.3125 -60.375 143.3125 -62.375 140.3125 C-62.4909668 137.25317383 -62.4909668 137.25317383 -62.32421875 133.51953125 C-62.28428074 132.15303855 -62.24592051 130.78649901 -62.20898438 129.41992188 C-62.14123864 127.27724906 -62.06309459 125.13697558 -61.95678711 122.99584961 C-61.29691577 113.10880296 -61.29691577 113.10880296 -65.609375 104.546875 C-67.48362982 102.76856391 -67.48362982 102.76856391 -69.375 101.3125 C-70.18066406 100.63058594 -70.98632812 99.94867188 -71.81640625 99.24609375 C-72.51636719 98.75238281 -73.21632813 98.25867188 -73.9375 97.75 C-79.12061002 93.83604192 -83.64747893 90.39047376 -85.1875 83.875 C-83.26636799 75.45157503 -75.50636361 70.60609856 -68.81958008 65.81323242 C-65.71255182 63.54852343 -63.68282242 61.94126303 -62.375 58.3125 C-62.18021748 55.00006532 -62.18021748 55.00006532 -62.35546875 51.31640625 C-62.38562981 49.93947178 -62.41489918 48.56251755 -62.44335938 47.18554688 C-62.49910976 45.02798251 -62.56263235 42.87141856 -62.64233398 40.71459961 C-62.71515121 38.62343208 -62.75615018 36.53347571 -62.79296875 34.44140625 C-62.83188232 33.19431885 -62.8707959 31.94723145 -62.91088867 30.66235352 C-62.375 27.3125 -62.375 27.3125 -60.29003906 24.38867188 C-56.64335447 21.79140171 -54.75499561 21.77914205 -50.31640625 21.96484375 C-49.64963364 21.98140518 -48.98286102 21.99796661 -48.29588318 22.01502991 C-46.17483912 22.06923194 -44.05713497 22.15616388 -41.9375 22.25 C-39.82157462 22.33859608 -37.70690548 22.41916271 -35.58982849 22.47425842 C-33.66674001 22.52471145 -31.74450753 22.60516205 -29.82250977 22.68725586 C-24.27234873 22.08393476 -21.31745993 19.43741787 -17.8125 15.25390625 C-16.99037432 14.13461094 -16.17791914 13.00815201 -15.375 11.875 C-6.38602323 -0.72406583 -6.38602323 -0.72406583 0 0 Z " fill="#FA7C76" transform="translate(349.375,211.6875)"/>
<path d="M0 0 C132.99 0 265.98 0 403 0 C403 0.33 403 0.66 403 1 C401.87134521 1.08975098 400.74269043 1.17950195 399.57983398 1.27197266 C372.84424615 3.4265645 346.42906879 6.41028235 320 11 C318.96253632 11.17822296 318.96253632 11.17822296 317.90411377 11.36004639 C286.27483505 16.80238684 253.03772315 23.77917542 223.38012695 36.33081055 C207.11537065 43.06178933 192.77146623 44.16803913 175.3125 43.8125 C171.61888882 43.76589825 167.92611543 43.73262687 164.23222351 43.72160339 C161.96265742 43.71213774 159.69304282 43.68122212 157.42414856 43.62519836 C151.3109991 43.56927722 147.59574503 43.78876919 143 48 C141.93575878 51.09994364 142.26000055 53.83023857 143 57 C144.63031977 59.7755983 144.63031977 59.7755983 148 61 C151.99706994 61.60293903 155.96178864 61.87118943 160 62 C157.09821787 64.2668594 154.12326338 66.15240917 150.921875 67.96875 C149.93356689 68.53432617 148.94525879 69.09990234 147.92700195 69.68261719 C146.87859131 70.28235352 145.83018066 70.88208984 144.75 71.5 C130.03065442 80.01042997 116.30620117 89.43432472 103 100 C102.06671875 100.73863281 101.1334375 101.47726563 100.171875 102.23828125 C85.09766195 114.36225546 70.91024515 127.73207936 59 143 C58.21109375 143.98355469 57.4221875 144.96710938 56.609375 145.98046875 C38.84190027 168.31119392 24.99905547 193.92797514 16 221 C15.72752441 221.81452637 15.45504883 222.62905273 15.17431641 223.46826172 C7.37032452 247.19032976 3.76607921 271.27890024 1 296 C0.67 296 0.34 296 0 296 C0 198.32 0 100.64 0 0 Z " fill="#FEFEFE" transform="translate(44,71)"/>
<path d="M0 0 C3.93080133 4.81840162 5.12443285 6.87290992 5.13422108 13.09588051 C5.13867892 14.40468575 5.14313676 15.71349099 5.14772969 17.061957 C5.14764039 18.52833471 5.14745052 19.99471241 5.14717102 21.46109009 C5.15046857 23.00804054 5.1541939 24.55499012 5.1583125 26.10193861 C5.16835326 30.36896805 5.17205263 34.63598342 5.17470181 38.903023 C5.17859878 43.49896359 5.1881776 48.09489297 5.19691467 52.69082642 C5.21669742 63.79876541 5.22674809 74.90670534 5.23564246 86.01465756 C5.24002285 91.24266594 5.24539034 96.4706733 5.25063133 101.69868088 C5.26764626 119.07335258 5.28214068 136.44802365 5.28938007 153.82270241 C5.29129005 158.33378729 5.29321036 162.84487217 5.29516602 167.35595703 C5.29564976 168.4771987 5.2961335 169.59844037 5.2966319 170.75365905 C5.30493306 188.91909825 5.33027027 207.08447161 5.36274669 225.24988206 C5.39580184 243.89066989 5.41382748 262.53142426 5.41702431 281.17224157 C5.41919096 291.6420769 5.42796212 302.11181627 5.45348549 312.58162308 C5.47517147 321.49806631 5.4832533 330.41439027 5.47351871 339.33085687 C5.46896776 343.88070378 5.47090628 348.43030451 5.49028015 352.9801178 C5.50786819 357.14651617 5.50694971 361.31248796 5.49138286 365.47889058 C5.48900013 366.98502487 5.49336483 368.49118835 5.50521151 369.99727793 C5.57676063 379.69527139 5.05602733 387.46071598 -2.125 394.75 C-9.21545141 401.18879649 -17.29252835 402.59831697 -26.59033203 402.45410156 C-27.59641006 402.45468567 -28.6024881 402.45526978 -29.63905334 402.45587158 C-32.92900398 402.45310872 -36.21802225 402.42210176 -39.5078125 402.390625 C-41.80280055 402.38315622 -44.09779502 402.3774663 -46.39279175 402.37347412 C-52.40655404 402.35826806 -58.41992433 402.31902949 -64.43353271 402.2746582 C-70.58063455 402.23359689 -76.72780028 402.21543995 -82.875 402.1953125 C-94.9168658 402.15253034 -106.95833884 402.08222154 -119 402 C-119 387.48 -119 372.96 -119 358 C-92.6 358 -66.2 358 -39 358 C-39.20423584 348.54077881 -39.40847168 339.08155762 -39.61889648 329.33569336 C-40.24755014 298.91721972 -40.67978954 268.49870789 -40.99154785 238.07540363 C-41.04031356 233.33386275 -41.09079327 228.59234157 -41.14233398 223.85083008 C-41.15256409 222.90705407 -41.1627942 221.96327807 -41.17333431 220.99090279 C-41.34211819 205.79516811 -41.64905326 190.60530696 -42.00895905 175.4130339 C-42.37633181 159.77271257 -42.59083168 144.13542098 -42.6694513 128.490964 C-42.71774739 119.72208602 -42.83272352 110.96544727 -43.12347221 102.2009716 C-45.04555674 42.60812681 -45.04555674 42.60812681 -27.45608121 22.85213596 C-19.15204846 14.22097375 -9.90768561 6.71013169 0 0 Z " fill="#F0C419" transform="translate(507,31)"/>
<path d="M0 0 C7.32306147 0.27002741 14.64354926 0.32052093 21.97087929 0.36244496 C35.02683917 0.44267113 48.07405981 0.68671584 61.1252944 1.03964161 C73.77362397 1.38130812 86.41954772 1.64216386 99.07158346 1.79843067 C99.85640352 1.80815144 100.64122357 1.81787221 101.44982605 1.82788755 C105.38856081 1.87618745 109.32731211 1.92294139 113.26607449 1.96892797 C145.74618528 2.35013233 178.21451326 3.01005862 210.6865737 3.83090137 C210.6865737 18.35090137 210.6865737 32.87090137 210.6865737 47.83090137 C173.0800646 47.8987036 135.47357157 47.95242108 97.86701367 47.98409736 C93.42844894 47.98784954 88.98988433 47.9917325 84.55131979 47.9956963 C83.66767168 47.99648323 82.78402357 47.99727016 81.87359824 47.99808094 C67.56074289 48.01113921 53.24792363 48.03479537 38.9350897 48.06235976 C24.25168185 48.09040224 9.56829293 48.10707518 -5.11514061 48.11316686 C-14.17753089 48.1172857 -23.23981912 48.13030049 -32.302178 48.15465077 C-38.51435545 48.17049367 -44.72648005 48.17530502 -50.93867624 48.17140551 C-54.52421137 48.1694817 -58.10956802 48.17245614 -61.69507151 48.1885178 C-65.58164547 48.20580109 -69.46798627 48.19987218 -73.35459452 48.19166492 C-75.05595999 48.20477271 -75.05595999 48.20477271 -76.79169648 48.2181453 C-86.85116065 48.1605376 -86.85116065 48.1605376 -91.3134263 44.83090137 C-92.10200797 42.9600135 -92.10200797 42.9600135 -92.3134263 40.83090137 C-74.3224007 2.27450583 -37.10658793 -1.40688268 0 0 Z " fill="#F29C1F" transform="translate(98.31342630460858,385.16909862682223)"/>
<path d="M0 0 C2.40690712 -0.0795905 4.8111596 -0.13769104 7.21875 -0.18359375 C8.23533691 -0.22051331 8.23533691 -0.22051331 9.27246094 -0.25817871 C13.60757628 -0.3201466 16.16307712 0.13198404 19.5 2.9375 C21.3046875 4.86328125 21.3046875 4.86328125 23 7 C23.60070312 7.75667969 24.20140625 8.51335937 24.8203125 9.29296875 C26.0066242 10.82592997 27.18527004 12.36485998 28.35546875 13.91015625 C31.03735881 17.31825881 33.53094526 20.39888205 37.94140625 21.47265625 C41.69122025 21.75015672 43.67317766 21.19470267 46.9375 19.25 C50.76963598 15.61680004 53.71654032 11.13330397 56.75390625 6.83984375 C59.06150229 3.92223972 60.87482951 2.01709461 64 0 C66.76133953 -0.28614917 69.08145612 -0.38589883 71.8125 -0.25 C72.50537109 -0.23195313 73.19824219 -0.21390625 73.91210938 -0.1953125 C75.60867664 -0.14851064 77.30452476 -0.07677624 79 0 C79.34664899 23.82612726 79.66471358 47.65250089 79.94604492 71.47949219 C79.99366398 75.50068075 80.04454978 79.52182353 80.09570312 83.54296875 C80.15690525 88.49687757 80.20332397 93.45061355 80.23217773 98.40481567 C80.24397996 100.08200559 80.26099852 101.75916758 80.28344727 103.43624878 C80.31264758 105.69596775 80.32322726 107.95496125 80.328125 110.21484375 C80.3374707 111.42261475 80.34681641 112.63038574 80.35644531 113.87475586 C79.95756197 117.3720885 79.13498251 119.22271342 77 122 C73.80990649 123.62759873 71.51815625 124.34187488 67.953125 123.5390625 C63.66334309 121.92669619 59.64830186 119.8233268 55.6015625 117.6875 C54.42074097 117.07322144 54.42074097 117.07322144 53.21606445 116.4465332 C51.63722851 115.61950863 50.06754509 114.77472377 48.50854492 113.91088867 C43.56128497 111.3026669 40.57137003 110.31007747 35 112 C31.20437493 113.67450809 27.54169142 115.56168243 23.875 117.5 C21.9377872 118.51594911 19.9977701 119.52657291 18.0546875 120.53125 C17.20374512 120.98048828 16.35280273 121.42972656 15.47607422 121.89257812 C11.87986178 123.50098077 9.20730479 124.34494422 5.375 123.25 C2.46157805 121.71662003 0.49695804 120.49215164 -0.56982422 117.2890625 C-1.11177936 114.40519678 -1.12987924 111.68661527 -1.1328125 108.75 C-1.13413177 108.09604752 -1.13545105 107.44209503 -1.1368103 106.76832581 C-1.13877906 104.51217447 -1.13221471 102.25613972 -1.125 100 C-1.12411377 99.20906952 -1.12322754 98.41813904 -1.12231445 97.60324097 C-1.08110648 65.06835605 -0.47086738 32.53091766 0 0 Z " fill="#FE5364" transform="translate(309,357)"/>
<path d="M0 0 C5.72308183 4.79714432 8.38377126 9.68639882 9.4375 17.0625 C8.16119099 28.54928111 2.38224434 38.26254368 -6 46 C6.49583517 53.14047724 21.70615689 55.70555158 35.9375 56.3125 C40.09329046 56.60649477 41.7329272 56.82867028 45.3125 59.125 C47.48160037 62.82050433 47.75334938 64.78124348 47 69 C44.30836392 72.4991269 42.88252297 73.86039736 38.46875 74.55859375 C37.1590625 74.51863281 35.849375 74.47867188 34.5 74.4375 C33.79512451 74.41792236 33.09024902 74.39834473 32.36401367 74.37817383 C25.81390837 74.13218476 19.43060647 73.25868834 13 72 C12.02417969 71.84015625 11.04835938 71.6803125 10.04296875 71.515625 C-0.21041986 69.56761279 -9.47280815 65.16498721 -18.93798828 60.89208984 C-21.12848174 59.90914075 -21.12848174 59.90914075 -24 59 C-26.24336702 59.94378209 -28.34363619 60.94825661 -30.5 62.0625 C-46.36847813 69.839742 -62.85302372 73.92291962 -80.5 74.5 C-81.26642822 74.54302246 -82.03285645 74.58604492 -82.82250977 74.63037109 C-88.11297984 74.69235737 -88.11297984 74.69235737 -90.61865234 72.73657227 C-92.81647842 70.21411173 -93.95481838 68.22138995 -94.625 64.9375 C-93.75733694 60.85948363 -92.26367439 59.57724997 -89 57 C-86.00180282 56.16509147 -83.03638364 55.9871366 -79.9375 55.8125 C-78.21987439 55.67009606 -76.50242339 55.52556979 -74.78515625 55.37890625 C-73.54403076 55.28246826 -73.54403076 55.28246826 -72.27783203 55.18408203 C-64.04960939 54.5191217 -56.58534964 52.69252414 -48.8125 50 C-48.05630371 49.73864258 -47.30010742 49.47728516 -46.52099609 49.20800781 C-42.53221563 48.01843904 -42.53221563 48.01843904 -40 45 C-40.59941406 44.74089844 -41.19882813 44.48179687 -41.81640625 44.21484375 C-48.58892641 40.44694792 -52.8155802 31.10862037 -55 24 C-55.88981115 17.91483987 -56.08219731 12.07581496 -53.0625 6.5625 C-41.79954225 -8.52922525 -15.17427139 -9.41303831 0 0 Z " fill="#96A5A5" transform="translate(191,217)"/>
<path d="M0 0 C12.79060217 -0.95452255 25.50392226 -1.77865292 38.3125 -2.1875 C39.24459667 -2.21746063 40.17669334 -2.24742126 41.13703537 -2.27828979 C81.53112072 -3.42738334 81.53112072 -3.42738334 96.78971863 10.11665344 C104.28508794 17.54322803 110.58152335 25.96806172 116 35 C114.56185517 38.06999102 113.6460706 39.57142512 110.625 41.1875 C110.03976562 41.51105469 109.45453125 41.83460938 108.8515625 42.16796875 C105.44635823 43.69815548 102.32232668 44.12478333 98.60870361 44.12025452 C97.73654709 44.12162918 96.86439056 44.12300385 95.96580505 44.12442017 C95.01706009 44.12082489 94.06831512 44.11722961 93.09082031 44.11352539 C92.08561844 44.11367142 91.08041656 44.11381744 90.04475403 44.1139679 C86.72252239 44.11327128 83.40034684 44.10549058 80.078125 44.09765625 C77.77455679 44.09579118 75.47098818 44.0943677 73.16741943 44.09336853 C67.10442001 44.08955037 61.04144455 44.07972604 54.97845459 44.06866455 C48.79162927 44.05843538 42.60480009 44.05386768 36.41796875 44.04882812 C24.27863362 44.03810317 12.13932255 44.02051201 0 44 C0 29.48 0 14.96 0 0 Z " fill="#F29C1F" transform="translate(388,389)"/>
<path d="M0 0 C0.74732881 -0.00779995 1.49465762 -0.01559991 2.26463276 -0.02363622 C4.76457743 -0.04355312 7.26299922 -0.02779408 9.76295471 -0.01205444 C11.55689888 -0.0188308 13.3508361 -0.02773404 15.14476013 -0.03860474 C20.01471971 -0.06140419 24.88414982 -0.05255863 29.75411868 -0.03670931 C34.85091502 -0.02405173 39.94766599 -0.03579021 45.04446411 -0.04364014 C53.60484455 -0.05273793 62.16500935 -0.04074621 70.72535706 -0.01693726 C80.62015847 0.01026554 90.51444462 0.00146647 100.40923351 -0.02606928 C108.90536864 -0.04876597 117.40134873 -0.05195742 125.89750439 -0.03887594 C130.97152434 -0.03108341 136.0453022 -0.03003427 141.11930656 -0.04655838 C145.89080646 -0.06101167 150.66164286 -0.05096568 155.43307114 -0.0220871 C157.18339372 -0.0154805 158.93377222 -0.0173667 160.68407249 -0.02840042 C163.07561489 -0.04208542 165.46503766 -0.02490739 167.85644531 0 C168.5476012 -0.01115361 169.23875709 -0.02230722 169.9508571 -0.03379881 C173.66588158 0.0411469 176.04327328 0.70947775 178.92595005 2.9558506 C181.49171448 5.63491821 181.49171448 5.63491821 182.17921448 9.13491821 C181.33203588 13.44782744 179.86380358 14.9051318 176.49171448 17.63491821 C173.56498391 19.0982835 170.62178213 18.78294029 167.41339111 18.78208923 C166.67608712 18.78576592 165.93878312 18.78944261 165.17913657 18.79323071 C162.69567578 18.80428961 160.21225679 18.8081151 157.72877502 18.81192017 C155.95336269 18.81818311 154.17795168 18.82482976 152.40254211 18.83183289 C147.56983889 18.84925739 142.73714557 18.85979843 137.90441871 18.86803842 C134.88684717 18.87318511 131.86927872 18.87926097 128.85170937 18.88554955 C119.41545797 18.90460499 109.97921442 18.91883582 100.54294747 18.92716151 C89.64089822 18.93693862 78.73905175 18.96326904 67.83707398 19.00366241 C59.41664126 19.03379356 50.99626677 19.0486275 42.57578117 19.05194253 C37.54366145 19.0542963 32.51175829 19.06329917 27.47969627 19.0884037 C22.74613409 19.11163722 18.01293176 19.11593674 13.27932739 19.10564232 C11.54146441 19.10514571 9.803584 19.11150295 8.06577492 19.12519836 C5.69374579 19.1428468 3.323018 19.13584696 0.95098877 19.12266541 C-0.08151102 19.13911927 -0.08151102 19.13911927 -1.1348694 19.15590554 C-5.83455979 19.09281652 -8.21316488 17.95688487 -11.50828552 14.63491821 C-12.39109802 12.45132446 -12.39109802 12.45132446 -12.63328552 10.19741821 C-12.73898865 9.45620728 -12.84469177 8.71499634 -12.95359802 7.95132446 C-11.65154177 1.17834766 -5.99266809 -0.09639626 0 0 Z " fill="#BEC4C8" transform="translate(171.50828552246094,158.36508178710938)"/>
<path d="M0 0 C8.09733178 4.62704673 13.44393534 10.76369257 16.5625 19.5625 C17.77173275 30.24950296 16.86813742 40.05266761 10.3125 48.875 C2.57510346 56.43654662 -5.61988961 59.01471255 -16.32006836 58.99633789 C-24.41833149 58.77254688 -30.18601368 55.78655217 -36.25 50.5 C-41.87208313 44.345018 -44.69470445 36.65116144 -44.9375 28.375 C-44.49185997 19.38010775 -41.78089178 12.07029934 -35.4375 5.5625 C-24.91587938 -2.8065492 -12.65194493 -5.81088056 0 0 Z " fill="#DF4D60" transform="translate(362.4375,267.4375)"/>
<path d="M0 0 C1.0809494 -0.00571014 2.1618988 -0.01142029 3.27560425 -0.01730347 C4.46680374 -0.01842133 5.65800323 -0.01953918 6.88529968 -0.02069092 C8.76100647 -0.02813828 8.76100647 -0.02813828 10.67460632 -0.03573608 C14.11068005 -0.04785878 17.54669281 -0.05530667 20.98278069 -0.05974674 C23.12930264 -0.06267659 25.27581923 -0.06678125 27.42233849 -0.07125092 C34.13765447 -0.08492867 40.85295824 -0.09459363 47.56828719 -0.09845281 C55.32117339 -0.10293262 63.0738832 -0.12047563 70.82671577 -0.1494534 C76.81829576 -0.17107089 82.80982613 -0.18115714 88.80144471 -0.18249393 C92.38036671 -0.18354203 95.95912297 -0.18945065 99.53800392 -0.20731354 C103.53148215 -0.22685743 107.52459144 -0.22250502 111.51811218 -0.21600342 C113.29580238 -0.22982559 113.29580238 -0.22982559 115.10940552 -0.243927 C116.19881439 -0.23835785 117.28822327 -0.2327887 118.41064453 -0.22705078 C119.82677017 -0.22925062 119.82677017 -0.22925062 121.2715044 -0.2314949 C124.43179859 0.21640842 126.3217265 1.28263015 128.89579773 3.14044189 C130.44604237 6.24093118 130.18571788 8.71938407 129.89579773 12.14044189 C128.10017368 14.89373211 126.84324851 16.6667165 123.89579773 18.14044189 C122.21163364 18.24188439 120.52348723 18.27989551 118.83628845 18.28761292 C117.76519836 18.29476822 116.69410828 18.30192352 115.59056091 18.30929565 C114.4102832 18.31198456 113.23000549 18.31467346 112.01396179 18.31744385 C110.1552948 18.32730064 110.1552948 18.32730064 108.25907898 18.33735657 C104.14319114 18.35712768 100.02734232 18.3687607 95.91142273 18.37872314 C94.49440745 18.38277062 93.07739238 18.38688754 91.6603775 18.39107323 C85.00219399 18.41012786 78.34402159 18.42435745 71.68581605 18.4326852 C64.0019372 18.44245451 56.31834667 18.46876458 48.63456941 18.50918609 C42.69477923 18.53935975 36.75507162 18.5541553 30.81520629 18.55746621 C27.26804936 18.55981562 23.72120033 18.56876099 20.17412567 18.59392738 C16.21439419 18.621567 12.25504096 18.61737308 8.29521179 18.6104126 C7.12303101 18.62322266 5.95085022 18.63603271 4.7431488 18.64923096 C-1.47638418 18.60933025 -5.42678276 18.42736818 -10.10420227 14.14044189 C-11.38226883 11.4839647 -11.46844516 9.05438499 -11.10420227 6.14044189 C-7.96400134 1.05115073 -5.77156013 0.01820711 0 0 Z " fill="#96A6A6" transform="translate(108.10420227050781,308.85955810546875)"/>
<path d="M0 0 C1.26066284 -0.00700928 2.52132568 -0.01401855 3.82019043 -0.02124023 C7.27069032 -0.03944656 10.72071081 -0.03241763 14.17121887 -0.01972389 C17.78570833 -0.00958207 21.40015733 -0.01899284 25.01464844 -0.02526855 C31.08405918 -0.03254156 37.1532751 -0.02296653 43.22265625 -0.00390625 C50.23523955 0.01786203 57.24735763 0.0108104 64.25992966 -0.01121187 C70.2855769 -0.02937592 76.31108425 -0.03191935 82.33675003 -0.0214572 C85.93352125 -0.01522771 89.53007395 -0.01437139 93.12683105 -0.02760315 C97.13691669 -0.04132554 101.14620296 -0.02229584 105.15625 0 C106.3460144 -0.00809692 107.53577881 -0.01619385 108.76159668 -0.02453613 C116.79304647 0.05830807 116.79304647 0.05830807 120.81518555 2.41125488 C122.8361638 4.8258775 123.23138201 5.89980798 123.140625 9.01757812 C123.14191406 9.77039063 123.14320313 10.52320312 123.14453125 11.29882812 C122.36110891 14.36768253 121.01108379 15.52043766 118.578125 17.51757812 C116.03561401 18.02094269 116.03561401 18.02094269 113.11279297 18.0255127 C112.00240662 18.03679199 110.89202026 18.04807129 109.74798584 18.05969238 C108.53435364 18.05159546 107.32072144 18.04349854 106.0703125 18.03515625 C104.14786713 18.04567017 104.14786713 18.04567017 102.18658447 18.05639648 C98.67411411 18.0746267 95.16211386 18.06756397 91.64963531 18.05488014 C87.97327917 18.04475072 84.2969632 18.05414565 80.62060547 18.0604248 C74.44686661 18.06770142 68.27331917 18.05811329 62.09960938 18.0390625 C54.96262967 18.01729354 47.82610704 18.02434491 40.68913841 18.04636812 C34.56076839 18.06452187 28.43253594 18.06708063 22.30414772 18.05661345 C18.6442376 18.0503783 14.9845423 18.04954323 11.324646 18.0627594 C7.24480127 18.07646302 3.1657441 18.05746884 -0.9140625 18.03515625 C-2.1276947 18.04325317 -3.3413269 18.0513501 -4.59173584 18.05969238 C-6.25731537 18.04277344 -6.25731537 18.04277344 -7.95654297 18.0255127 C-8.92107391 18.02400459 -9.88560486 18.02249649 -10.87936401 18.02094269 C-14.15978254 17.3714877 -15.35398922 16.08980516 -17.421875 13.51757812 C-17.98828125 11.29882812 -17.98828125 11.29882812 -17.984375 9.01757812 C-18.00628906 8.26476562 -18.02820313 7.51195313 -18.05078125 6.73632812 C-15.74531427 -1.39724481 -6.7389862 -0.04586207 0 0 Z " fill="#BDC3C7" transform="translate(203.421875,114.482421875)"/>
<path d="M0 0 C0.7940625 -0.00322266 1.588125 -0.00644531 2.40625 -0.00976562 C11.76350925 0.07600925 11.76350925 0.07600925 15 3.3125 C14.86731221 9.81420151 12.3222842 13.57902504 8 18.3125 C5.75205627 20.430063 3.4334238 22.41183762 1 24.3125 C-6.162141 19.67710418 -11.78665209 14.25255936 -13.875 5.75 C-13.91625 4.945625 -13.9575 4.14125 -14 3.3125 C-9.41265222 -0.19275163 -5.52478448 -0.11211007 0 0 Z " fill="#EAEEEF" transform="translate(167,229.6875)"/>
</svg>
