<?xml version="1.0" encoding="UTF-8"?>
<svg version="1.1" xmlns="http://www.w3.org/2000/svg" width="512" height="512">
<path d="M0 0 C0.99046485 -0.00445784 1.9809297 -0.00891569 3.00140864 -0.01350862 C4.63022059 -0.01323207 4.63022059 -0.01323207 6.29193783 -0.01294994 C7.44732317 -0.01662663 8.60270852 -0.02030332 9.79310554 -0.02409142 C13.00088478 -0.03320917 16.20863395 -0.03782597 19.41642392 -0.04048073 C22.87604542 -0.04438798 26.33565217 -0.05396609 29.79526424 -0.0626936 C38.15115326 -0.08244712 46.50704347 -0.09252324 54.86295 -0.10142139 C58.79999314 -0.1058065 62.73703495 -0.11117276 66.67407703 -0.11641026 C79.76564823 -0.13342215 92.85721859 -0.14791536 105.94879913 -0.155159 C109.34540019 -0.15706883 112.74200123 -0.15898917 116.13860226 -0.16094494 C117.40488302 -0.16167055 117.40488302 -0.16167055 118.69674521 -0.16241082 C132.3658051 -0.17070751 146.03477737 -0.19603849 159.70379902 -0.22852562 C173.7443846 -0.26162315 187.7849257 -0.27961023 201.8255505 -0.28280324 C209.706019 -0.28496595 217.58635977 -0.29367937 225.4667902 -0.31926441 C232.17955605 -0.34100834 238.89216314 -0.34900378 245.60496021 -0.33929763 C249.0271502 -0.33476342 252.44901289 -0.33658715 255.87115765 -0.35605907 C259.58957309 -0.37377505 263.30716401 -0.36667192 267.02558041 -0.35352612 C268.09583999 -0.36449536 269.16609957 -0.37546461 270.26879126 -0.38676625 C281.63114517 -0.29010987 290.86300655 3.25229512 299.10320187 11.13422108 C307.6241009 20.21193134 311.2638796 30.27115433 311.23742294 42.61602497 C311.23977517 43.36416061 311.2421274 44.11229624 311.24455091 44.88310266 C311.25122496 47.39809779 311.25078317 49.91304108 311.25037289 52.42804432 C311.25367251 54.24625715 311.25739828 56.06446925 311.26151437 57.88268042 C311.27153136 62.88578242 311.27525068 67.88887242 311.27790368 72.89198303 C311.28180762 78.28551906 311.29138591 83.6790456 311.30011654 89.07257557 C311.31987853 102.10144143 311.32994689 115.13030807 311.33884433 128.15918517 C311.34322772 134.29507514 311.3485944 140.43096424 311.3538332 146.56685352 C311.37084532 166.96465087 311.38533939 187.36244769 311.39258194 207.76025105 C311.39449183 213.05352752 311.39641216 218.34680399 311.39836788 223.64008045 C311.39885162 224.95569464 311.39933536 226.27130882 311.39983376 227.62679011 C311.40813369 248.93785894 311.43347006 270.2488562 311.46594856 291.55990261 C311.49902322 313.44055492 311.51703108 335.3211787 311.52022618 357.20185614 C311.52239091 369.48659242 311.53113421 381.77124683 311.55668736 394.05595875 C311.57839987 404.51843871 311.58644201 414.98081694 311.57672057 425.44331688 C311.57217751 430.77959385 311.57406273 436.11566091 311.59348202 441.45190907 C311.61112568 446.34256043 311.61010605 451.23284894 311.59458473 456.12350422 C311.5922105 457.88737424 311.59652252 459.65126946 311.60841338 461.41510099 C311.70708851 477.02626906 309.51587298 490.05555909 298.44695187 501.90765858 C291.79950867 508.08476381 283.32012343 512.24938262 274.20640373 512.26844215 C273.21593888 512.2729 272.22547403 512.27735784 271.2049951 512.28195077 C269.57618315 512.28167423 269.57618315 512.28167423 267.9144659 512.2813921 C266.18138789 512.28690713 266.18138789 512.28690713 264.41329819 512.29253358 C261.20551895 512.30165133 257.99776978 512.30626812 254.78997982 512.30892289 C251.33035831 512.31283014 247.87075156 512.32240825 244.41113949 512.33113575 C236.05525047 512.35088927 227.69936026 512.36096539 219.34345374 512.36986354 C215.40641059 512.37424865 211.46936878 512.37961492 207.5323267 512.38485241 C194.44075551 512.4018643 181.34918515 512.41635751 168.2576046 512.42360115 C164.86100355 512.42551098 161.4644025 512.42743132 158.06780148 512.42938709 C157.2236143 512.42987083 156.37942713 512.43035457 155.50965852 512.43085297 C141.84059864 512.43914966 128.17162636 512.46448064 114.50260472 512.49696777 C100.46201913 512.5300653 86.42147803 512.54805238 72.38085324 512.55124539 C64.50038473 512.5534081 56.62004396 512.56212152 48.73961353 512.58770657 C42.02684768 512.60945049 35.31424059 512.61744594 28.60144352 512.60773978 C25.17925353 512.60320557 21.75739084 512.6050293 18.33524609 512.62450123 C14.61683065 512.6422172 10.89923972 512.63511407 7.18082333 512.62196827 C6.11056374 512.63293752 5.04030416 512.64390676 3.93761247 512.65520841 C-7.42474144 512.55855202 -16.65660281 509.01614703 -24.89679813 501.13422108 C-33.41769717 492.05651081 -37.05747587 481.99728783 -37.03101921 469.65241718 C-37.03337144 468.90428155 -37.03572367 468.15614591 -37.03814718 467.3853395 C-37.04482122 464.87034436 -37.04437944 462.35540108 -37.04396915 459.84039783 C-37.04726877 458.022185 -37.05099455 456.2039729 -37.05511063 454.38576174 C-37.06512763 449.38265974 -37.06884695 444.37956973 -37.07149994 439.37645912 C-37.07540389 433.98292309 -37.08498218 428.58939655 -37.09371281 423.19586658 C-37.11347479 410.16700072 -37.12354316 397.13813409 -37.1324406 384.10925698 C-37.13682399 377.97336702 -37.14219067 371.83747791 -37.14742947 365.70158863 C-37.16444158 345.30379128 -37.17893566 324.90599447 -37.18617821 304.50819111 C-37.18808809 299.21491463 -37.19000843 293.92163816 -37.19196415 288.6283617 C-37.19244789 287.31274752 -37.19293163 285.99713333 -37.19343003 284.64165205 C-37.20172995 263.33058321 -37.22706632 242.01958596 -37.25954483 220.70853955 C-37.29261949 198.82788724 -37.31062735 176.94726346 -37.31382245 155.06658602 C-37.31598718 142.78184974 -37.32473047 130.49719532 -37.35028362 118.21248341 C-37.37199614 107.75000344 -37.38003828 97.28762522 -37.37031684 86.82512528 C-37.36577377 81.4888483 -37.36765899 76.15278124 -37.38707829 70.81653309 C-37.40472195 65.92588172 -37.40370232 61.03559322 -37.38818099 56.14493793 C-37.38580677 54.38106792 -37.39011879 52.61717269 -37.40200964 50.85334116 C-37.50068478 35.24217309 -35.30946924 22.21288307 -24.24054813 10.36078358 C-17.59310494 4.18367835 -9.1137197 0.01905953 0 0 Z " fill="#D1DBFC" transform="translate(118.8967981338501,-0.13422107696533203)"/>
<path d="M0 0 C19.12399526 -0.14036543 38.2478855 -0.24606646 57.37228966 -0.31087303 C66.25276316 -0.34176812 75.13291597 -0.38386494 84.01318359 -0.45263672 C91.75620389 -0.51257252 99.49899185 -0.55118074 107.24223769 -0.56453097 C111.33968544 -0.57233094 115.43646875 -0.5905702 119.53370285 -0.63438034 C123.39655057 -0.67534655 127.25846522 -0.68762141 131.12150955 -0.67864609 C132.53318619 -0.68028611 133.94489658 -0.69207884 135.35638428 -0.71523285 C144.38825406 -0.85602538 150.90641029 0.11246407 158 6 C162.56184128 10.94850918 163.12521466 15.85515831 163.12304783 22.36432266 C163.12503888 23.68204359 163.12702993 24.99976452 163.12908131 26.35741639 C163.12622822 27.82342181 163.12328263 29.28942706 163.12025452 30.75543213 C163.12069044 32.30980947 163.12156574 33.86418673 163.12284368 35.4185636 C163.12508444 39.69652732 163.12107305 43.97446609 163.11606562 48.25242662 C163.11175533 52.86316967 163.11320796 57.47391127 163.1139679 62.08465576 C163.11449276 70.07530298 163.11134984 78.06594205 163.10573006 86.05658722 C163.09761003 97.60978149 163.09499932 109.1629718 163.09374207 120.71616861 C163.09155234 139.45954433 163.0848944 158.2029157 163.07543945 176.94628906 C163.06626329 195.15592426 163.05918345 213.36555827 163.05493164 231.57519531 C163.05466892 232.69725476 163.05440619 233.8193142 163.05413551 234.97537544 C163.05283049 240.60430369 163.05156678 246.23323195 163.05032361 251.86216021 C163.03995346 298.57477733 163.02151648 345.28738642 163 392 C113.5 392 64 392 13 392 C3.57908895 373.15817791 3.57908895 373.15817791 1.125 367.25 C0.80748779 366.49106445 0.48997559 365.73212891 0.1628418 364.95019531 C-4.27419108 354.13791955 -8.09607492 343.08589196 -11.93701172 332.05126953 C-12.79379861 329.59189364 -13.66111601 327.1368589 -14.53515625 324.68359375 C-16.44473683 319.18817698 -18.05051805 313.90262653 -19.20703125 308.203125 C-20.88210615 297.01914413 -20.88210615 297.01914413 -27.05078125 288.1953125 C-30.04679948 286.72370777 -32.73873762 285.68074894 -36 285 C-36 284.01 -36 283.02 -36 282 C-35.28714844 281.6596875 -34.57429687 281.319375 -33.83984375 280.96875 C-23.03487912 275.50082712 -17.87346887 268.95969037 -13 258 C-12.46632812 258.18175781 -11.93265625 258.36351562 -11.3828125 258.55078125 C-9.79919351 259.08504717 -8.2130111 259.61174636 -6.625 260.1328125 C-4.93124787 260.69235561 -3.24309395 261.26928388 -1.5625 261.8671875 C10.16942986 265.81543313 18.84708564 264.04864436 30 259 C30.72316406 258.61585938 31.44632812 258.23171875 32.19140625 257.8359375 C34 257 34 257 37 257 C37.4125 257.92941406 37.825 258.85882813 38.25 259.81640625 C43.2343501 270.64533475 48.75098546 277.3070149 60 282 C60.969375 282.4125 61.93875 282.825 62.9375 283.25 C68.56833404 284.62897976 73.1220779 284.80482376 78.5 282.5 C81.03773684 279.96226316 81.45116595 279.34289827 82 276 C82.06662931 271.59606604 82.06662931 271.59606604 80 268 C76.86840642 265.91227095 75.32901885 265.61859453 71.6875 265.125 C65.27696818 264.01711126 61.72053863 262.17331196 57.625 257 C55.06501341 251.80245147 54.51654457 246.59573189 56 241 C58.01795113 238.2745025 60.10931645 236.00474256 62.51049805 233.63305664 C74.91904889 221.32756356 79.14592619 204.76912411 82 188 C82.79172607 187.99589111 83.58345215 187.99178223 84.39916992 187.98754883 C87.99603252 187.95459846 91.59120475 187.88394957 95.1875 187.8125 C97.05631836 187.80379883 97.05631836 187.80379883 98.96289062 187.79492188 C106.18236222 187.91838782 106.18236222 187.91838782 112.33203125 184.73828125 C114.02791542 181.95417164 114.6326717 180.59228864 114.5 177.375 C114.48453125 176.24191406 114.48453125 176.24191406 114.46875 175.0859375 C113.88971019 172.50921036 113.06690843 171.60867873 111 170 C107.88856433 168.96285478 105.50531904 168.79968139 102.23828125 168.68359375 C101.12001953 168.64169922 100.00175781 168.59980469 98.84960938 168.55664062 C97.68236328 168.51732422 96.51511719 168.47800781 95.3125 168.4375 C94.13365234 168.39431641 92.95480469 168.35113281 91.74023438 168.30664062 C88.82694117 168.20048824 85.91356243 168.09843758 83 168 C82.90203125 166.70707031 82.8040625 165.41414062 82.703125 164.08203125 C80.92578377 142.61530801 74.97977903 123.12840289 58.109375 108.4921875 C48.09675766 100.71315403 38.16892471 96.36376781 26 93 C25.36795654 92.823479 24.73591309 92.64695801 24.0847168 92.46508789 C5.15991236 88.24307683 -12.67169847 95.15997342 -29 104 C-26.543175 70.87248873 -15.16407411 36.13193409 -2.36401367 5.6328125 C-1.9195842 4.5720752 -1.47515472 3.51133789 -1.01725769 2.41845703 C-0.68156265 1.62036621 -0.34586761 0.82227539 0 0 Z " fill="#FEFEFE" transform="translate(246,20)"/>
<path d="M0 0 C0.99046485 -0.00445784 1.9809297 -0.00891569 3.00140864 -0.01350862 C4.63022059 -0.01323207 4.63022059 -0.01323207 6.29193783 -0.01294994 C7.44732317 -0.01662663 8.60270852 -0.02030332 9.79310554 -0.02409142 C13.00088478 -0.03320917 16.20863395 -0.03782597 19.41642392 -0.04048073 C22.87604542 -0.04438798 26.33565217 -0.05396609 29.79526424 -0.0626936 C38.15115326 -0.08244712 46.50704347 -0.09252324 54.86295 -0.10142139 C58.79999314 -0.1058065 62.73703495 -0.11117276 66.67407703 -0.11641026 C79.76564823 -0.13342215 92.85721859 -0.14791536 105.94879913 -0.155159 C109.34540019 -0.15706883 112.74200123 -0.15898917 116.13860226 -0.16094494 C117.40488302 -0.16167055 117.40488302 -0.16167055 118.69674521 -0.16241082 C132.3658051 -0.17070751 146.03477737 -0.19603849 159.70379902 -0.22852562 C173.7443846 -0.26162315 187.7849257 -0.27961023 201.8255505 -0.28280324 C209.706019 -0.28496595 217.58635977 -0.29367937 225.4667902 -0.31926441 C232.17955605 -0.34100834 238.89216314 -0.34900378 245.60496021 -0.33929763 C249.0271502 -0.33476342 252.44901289 -0.33658715 255.87115765 -0.35605907 C259.58957309 -0.37377505 263.30716401 -0.36667192 267.02558041 -0.35352612 C268.09583999 -0.36449536 269.16609957 -0.37546461 270.26879126 -0.38676625 C281.63114517 -0.29010987 290.86300655 3.25229512 299.10320187 11.13422108 C307.6241009 20.21193134 311.2638796 30.27115433 311.23742294 42.61602497 C311.23977517 43.36416061 311.2421274 44.11229624 311.24455091 44.88310266 C311.25122496 47.39809779 311.25078317 49.91304108 311.25037289 52.42804432 C311.25367251 54.24625715 311.25739828 56.06446925 311.26151437 57.88268042 C311.27153136 62.88578242 311.27525068 67.88887242 311.27790368 72.89198303 C311.28180762 78.28551906 311.29138591 83.6790456 311.30011654 89.07257557 C311.31987853 102.10144143 311.32994689 115.13030807 311.33884433 128.15918517 C311.34322772 134.29507514 311.3485944 140.43096424 311.3538332 146.56685352 C311.37084532 166.96465087 311.38533939 187.36244769 311.39258194 207.76025105 C311.39449183 213.05352752 311.39641216 218.34680399 311.39836788 223.64008045 C311.39885162 224.95569464 311.39933536 226.27130882 311.39983376 227.62679011 C311.40813369 248.93785894 311.43347006 270.2488562 311.46594856 291.55990261 C311.49902322 313.44055492 311.51703108 335.3211787 311.52022618 357.20185614 C311.52239091 369.48659242 311.53113421 381.77124683 311.55668736 394.05595875 C311.57839987 404.51843871 311.58644201 414.98081694 311.57672057 425.44331688 C311.57217751 430.77959385 311.57406273 436.11566091 311.59348202 441.45190907 C311.61112568 446.34256043 311.61010605 451.23284894 311.59458473 456.12350422 C311.5922105 457.88737424 311.59652252 459.65126946 311.60841338 461.41510099 C311.70708851 477.02626906 309.51587298 490.05555909 298.44695187 501.90765858 C291.79950867 508.08476381 283.32012343 512.24938262 274.20640373 512.26844215 C273.21593888 512.2729 272.22547403 512.27735784 271.2049951 512.28195077 C269.57618315 512.28167423 269.57618315 512.28167423 267.9144659 512.2813921 C266.18138789 512.28690713 266.18138789 512.28690713 264.41329819 512.29253358 C261.20551895 512.30165133 257.99776978 512.30626812 254.78997982 512.30892289 C251.33035831 512.31283014 247.87075156 512.32240825 244.41113949 512.33113575 C236.05525047 512.35088927 227.69936026 512.36096539 219.34345374 512.36986354 C215.40641059 512.37424865 211.46936878 512.37961492 207.5323267 512.38485241 C194.44075551 512.4018643 181.34918515 512.41635751 168.2576046 512.42360115 C164.86100355 512.42551098 161.4644025 512.42743132 158.06780148 512.42938709 C157.2236143 512.42987083 156.37942713 512.43035457 155.50965852 512.43085297 C141.84059864 512.43914966 128.17162636 512.46448064 114.50260472 512.49696777 C100.46201913 512.5300653 86.42147803 512.54805238 72.38085324 512.55124539 C64.50038473 512.5534081 56.62004396 512.56212152 48.73961353 512.58770657 C42.02684768 512.60945049 35.31424059 512.61744594 28.60144352 512.60773978 C25.17925353 512.60320557 21.75739084 512.6050293 18.33524609 512.62450123 C14.61683065 512.6422172 10.89923972 512.63511407 7.18082333 512.62196827 C6.11056374 512.63293752 5.04030416 512.64390676 3.93761247 512.65520841 C-7.42474144 512.55855202 -16.65660281 509.01614703 -24.89679813 501.13422108 C-33.41769717 492.05651081 -37.05747587 481.99728783 -37.03101921 469.65241718 C-37.03337144 468.90428155 -37.03572367 468.15614591 -37.03814718 467.3853395 C-37.04482122 464.87034436 -37.04437944 462.35540108 -37.04396915 459.84039783 C-37.04726877 458.022185 -37.05099455 456.2039729 -37.05511063 454.38576174 C-37.06512763 449.38265974 -37.06884695 444.37956973 -37.07149994 439.37645912 C-37.07540389 433.98292309 -37.08498218 428.58939655 -37.09371281 423.19586658 C-37.11347479 410.16700072 -37.12354316 397.13813409 -37.1324406 384.10925698 C-37.13682399 377.97336702 -37.14219067 371.83747791 -37.14742947 365.70158863 C-37.16444158 345.30379128 -37.17893566 324.90599447 -37.18617821 304.50819111 C-37.18808809 299.21491463 -37.19000843 293.92163816 -37.19196415 288.6283617 C-37.19244789 287.31274752 -37.19293163 285.99713333 -37.19343003 284.64165205 C-37.20172995 263.33058321 -37.22706632 242.01958596 -37.25954483 220.70853955 C-37.29261949 198.82788724 -37.31062735 176.94726346 -37.31382245 155.06658602 C-37.31598718 142.78184974 -37.32473047 130.49719532 -37.35028362 118.21248341 C-37.37199614 107.75000344 -37.38003828 97.28762522 -37.37031684 86.82512528 C-37.36577377 81.4888483 -37.36765899 76.15278124 -37.38707829 70.81653309 C-37.40472195 65.92588172 -37.40370232 61.03559322 -37.38818099 56.14493793 C-37.38580677 54.38106792 -37.39011879 52.61717269 -37.40200964 50.85334116 C-37.50068478 35.24217309 -35.30946924 22.21288307 -24.24054813 10.36078358 C-17.59310494 4.18367835 -9.1137197 0.01905953 0 0 Z M-13.45929813 29.25922108 C-15.84984038 34.04030556 -16.04172474 38.18871041 -16.0282259 43.47850227 C-16.03027853 44.2239049 -16.03233117 44.96930752 -16.034446 45.7372981 C-16.0401255 48.2489608 -16.03865758 50.76056882 -16.03724003 53.27223682 C-16.03982311 55.085613 -16.04283611 56.89898861 -16.04624343 58.71236342 C-16.05432322 63.70650705 -16.05610354 68.70063632 -16.0568409 73.69478571 C-16.05868973 79.07663492 -16.06623616 84.45847665 -16.07297611 89.84032154 C-16.08656646 101.61290549 -16.09258512 113.38548604 -16.09698677 125.15807652 C-16.09974775 132.50579955 -16.10398482 139.85352126 -16.10849094 147.2012434 C-16.12068404 167.53639137 -16.13098359 187.87153829 -16.13436604 208.20668983 C-16.1345856 209.50853737 -16.13480517 210.8103849 -16.13503139 212.15168236 C-16.13524966 213.45667886 -16.13546794 214.76167536 -16.13569283 216.10621721 C-16.1361363 218.75072436 -16.13658287 221.39523151 -16.13703251 224.03973866 C-16.13725394 225.35151098 -16.13747537 226.6632833 -16.13770351 228.01480629 C-16.14165295 249.27824437 -16.15911124 270.54164821 -16.18239203 291.80507306 C-16.20608936 313.6246443 -16.21856713 335.44419835 -16.21973395 357.26378268 C-16.22065157 369.51926264 -16.22642585 381.77469798 -16.24455357 394.03016567 C-16.25993264 404.46428431 -16.26508796 414.89834454 -16.25681546 425.33247236 C-16.25290132 430.6578371 -16.25387586 435.98308413 -16.26787281 441.30843449 C-16.28056569 446.18210736 -16.2794549 451.05557351 -16.2672821 455.92924591 C-16.26531709 457.69370955 -16.26844042 459.4581876 -16.27712646 461.22263096 C-16.28818003 463.61947785 -16.28075843 466.01559015 -16.26873493 468.41241646 C-16.28012772 469.44198572 -16.28012772 469.44198572 -16.29175067 470.49235436 C-16.22528631 476.6221201 -14.59711945 481.10328172 -10.64679813 485.82172108 C-3.57674218 491.7669954 1.28669615 492.7211056 10.35571957 492.6556139 C11.48170533 492.66326499 12.6076911 492.67091609 13.76779765 492.67879903 C17.53709749 492.69942046 21.30578582 492.6914824 25.07512569 492.68353748 C27.77912816 492.69004666 30.48309672 492.70247056 33.18707943 492.71451283 C39.76753275 492.73998748 46.34782278 492.7435966 52.92831711 492.7389123 C58.27896028 492.73534309 63.62955397 492.73885133 68.98019123 492.74736118 C69.74235527 492.74855156 70.50451932 492.74974194 71.28977924 492.75096839 C72.8382432 492.75339195 74.38670715 492.75582022 75.93517109 492.75825314 C90.45120353 492.77999724 104.967143 492.77568274 119.48318066 492.76348345 C132.75187611 492.75314844 146.02027774 492.77564809 159.28891508 492.81367989 C172.9239424 492.85246119 186.55883082 492.86894425 200.19391364 492.86143339 C207.84463525 492.85761262 215.49510689 492.86255193 223.14578342 492.89086246 C229.65986925 492.91472377 236.1735513 492.91746316 242.68764285 492.89328213 C246.00877371 492.88152609 249.32856364 492.88251222 252.64974117 492.90328693 C256.25708609 492.92422186 259.86245863 492.90802456 263.46973324 492.88266468 C264.50973172 492.89741325 265.54973019 492.91216182 266.62124377 492.92735732 C274.07591327 492.81738433 279.22418277 490.74574649 285.10320187 486.13422108 C289.92361536 480.94903439 290.25193443 475.57117603 290.23462963 468.78993988 C290.23668226 468.04453726 290.2387349 467.29913463 290.24084973 466.53114405 C290.24652923 464.01948136 290.24506131 461.50787333 290.24364376 458.99620533 C290.24622685 457.18282915 290.24923985 455.36945355 290.25264716 453.55607873 C290.26072695 448.5619351 290.26250728 443.56780583 290.26324463 438.57365644 C290.26509346 433.19180723 290.27263989 427.80996551 290.27937984 422.42812061 C290.29297019 410.65553666 290.29898885 398.88295612 290.3033905 387.11036563 C290.30615149 379.7626426 290.31038855 372.41492089 290.31489468 365.06719875 C290.32708778 344.73205078 290.33738732 324.39690387 290.34076977 304.06175232 C290.34098933 302.75990479 290.3412089 301.45805725 290.34143512 300.1167598 C290.3416534 298.8117633 290.34187167 297.5067668 290.34209657 296.16222495 C290.34254004 293.5177178 290.3429866 290.87321065 290.34343624 288.2287035 C290.34365767 286.91693118 290.3438791 285.60515886 290.34410724 284.25363586 C290.34805668 262.99019778 290.36551497 241.72679394 290.38879576 220.46336909 C290.41249309 198.64379785 290.42497086 176.8242438 290.42613769 155.00465947 C290.42705531 142.74917951 290.43282958 130.49374417 290.4509573 118.23827648 C290.46633638 107.80415784 290.47149169 97.37009761 290.4632192 86.93596979 C290.45930505 81.61060505 290.46027959 76.28535802 290.47427654 70.96000767 C290.48696942 66.08633479 290.48585864 61.21286864 290.47368583 56.33919624 C290.47172083 54.5747326 290.47484415 52.81025455 290.48353019 51.0458112 C290.49458376 48.64896431 290.48716216 46.252852 290.47513866 43.8560257 C290.48273386 43.16964619 290.49032905 42.48326668 290.4981544 41.77608779 C290.43169004 35.64632205 288.80352318 31.16516043 284.85320187 26.44672108 C277.78314591 20.50144675 272.91970759 19.54733655 263.85068417 19.61282825 C262.7246984 19.60517716 261.59871263 19.59752607 260.43860608 19.58964312 C256.66930624 19.56902169 252.90061791 19.57695975 249.13127804 19.58490467 C246.42727557 19.57839549 243.72330701 19.56597159 241.0193243 19.55392933 C234.43887098 19.52845468 227.85858095 19.52484556 221.27808663 19.52952985 C215.92744345 19.53309906 210.57684976 19.52959082 205.2262125 19.52108097 C204.46404846 19.51989059 203.70188441 19.51870021 202.91662449 19.51747376 C201.36816053 19.5150502 199.81969658 19.51262193 198.27123264 19.51018901 C183.75520021 19.48844491 169.23926073 19.49275942 154.72322307 19.5049587 C141.45452762 19.51529371 128.18612599 19.49279406 114.91748866 19.45476227 C101.28246133 19.41598096 87.64757292 19.3994979 74.01249009 19.40700877 C66.36176848 19.41082954 58.71129684 19.40589023 51.06062031 19.37757969 C44.54653448 19.35371839 38.03285243 19.350979 31.51876088 19.37516002 C28.19763002 19.38691607 24.87784009 19.38592993 21.55666256 19.36515522 C17.94931765 19.3442203 14.3439451 19.36041759 10.73667049 19.38577747 C9.69667202 19.3710289 8.65667354 19.35628033 7.58515996 19.34108484 C-0.70465697 19.46337811 -8.48581157 22.23375931 -13.45929813 29.25922108 Z " fill="#062B75" transform="translate(118.8967981338501,-0.13422107696533203)"/>
<path d="M0 0 C22.87499336 -0.03167431 45.74998785 -0.05132331 68.625 -0.0625 C69.48782656 -0.0629343 70.35065311 -0.06336861 71.23962593 -0.06381607 C127.74490598 -0.09147218 184.24618625 0.09235525 240.75 0.5 C241.99481565 0.50896057 241.99481565 0.50896057 243.26477909 0.51810217 C264.17659873 0.66882478 285.08833808 0.82873044 306 1 C306.06967799 9.22363598 306.12290114 17.44714748 306.15543652 25.6710062 C306.17105618 29.49016857 306.19222614 33.30912815 306.22631836 37.12817383 C306.2590448 40.81753963 306.27688081 44.50671104 306.28463173 48.19621086 C306.29015153 49.59995519 306.30093021 51.00368953 306.31719017 52.40735054 C306.48868494 67.83295966 306.48868494 67.83295966 300.75 74.6875 C293.67994405 80.63277433 288.81650572 81.58688452 279.7474823 81.52139282 C278.05850365 81.53286946 278.05850365 81.53286946 276.33540422 81.54457796 C272.56610437 81.56519939 268.79741605 81.55726133 265.02807617 81.54931641 C262.32407371 81.55582559 259.62010515 81.56824949 256.91612244 81.58029175 C250.33566912 81.6057664 243.75537909 81.60937552 237.17488476 81.60469122 C231.82424159 81.60112202 226.4736479 81.60463025 221.12301064 81.61314011 C219.97976457 81.61492567 219.97976457 81.61492567 218.81342262 81.61674731 C217.26495867 81.61917088 215.71649472 81.62159915 214.16803078 81.62403207 C199.65199834 81.64577616 185.13605886 81.64146166 170.6200212 81.62926237 C157.35132576 81.61892737 144.08292412 81.64142701 130.81428679 81.67945881 C117.17925947 81.71824011 103.54437105 81.73472318 89.90928823 81.72721231 C82.25856662 81.72339154 74.60809497 81.72833085 66.95741844 81.75664139 C60.44333262 81.78050269 53.92965057 81.78324208 47.41555902 81.75906105 C44.09442815 81.74730501 40.77463823 81.74829115 37.45346069 81.76906586 C33.84611578 81.79000078 30.24074323 81.77380348 26.63346863 81.7484436 C25.59347015 81.76319217 24.55347167 81.77794074 23.48195809 81.79313624 C16.02728859 81.68316325 10.87901909 79.61152542 5 75 C0.40592923 70.05828397 -0.12615183 65.09434218 -0.11352539 58.57910156 C-0.11344986 57.27805481 -0.11337433 55.97700806 -0.11329651 54.63653564 C-0.10819024 53.22123171 -0.10297425 51.80592816 -0.09765625 50.390625 C-0.09579035 48.93902637 -0.09436726 47.48742712 -0.09336853 46.03582764 C-0.08955688 42.22180431 -0.07973815 38.40781927 -0.06866455 34.59381104 C-0.05842135 30.69926471 -0.05386468 26.80471217 -0.04882812 22.91015625 C-0.03811465 15.27342007 -0.02105449 7.63671541 0 0 Z " fill="#6864F6" transform="translate(103,411)"/>
<path d="M0 0 C0.98097656 0.36351563 1.96195313 0.72703125 2.97265625 1.1015625 C22.40939259 8.71899394 36.11601734 21.64385062 45.0078125 40.53125 C48.63557585 49.55781077 50.05240811 58.58153544 50.01953125 68.25390625 C50.01671143 69.33099854 50.0138916 70.40809082 50.01098633 71.51782227 C50.00736084 72.33694092 50.00373535 73.15605957 50 74 C50.73114014 73.98428955 51.46228027 73.9685791 52.21557617 73.95239258 C55.5394716 73.88989649 58.8632432 73.85096248 62.1875 73.8125 C63.91323242 73.77479492 63.91323242 73.77479492 65.67382812 73.73632812 C66.78564453 73.72666016 67.89746094 73.71699219 69.04296875 73.70703125 C70.57473755 73.68346558 70.57473755 73.68346558 72.13745117 73.65942383 C76.40875265 74.16760852 79.00313919 76.00313919 82 79 C82.77200992 83.56922148 82.59362988 87.05019219 80.125 91 C76.65824871 94.26282474 74.57617273 94.11951483 69.8984375 94.09765625 C68.68671875 94.09443359 67.475 94.09121094 66.2265625 94.08789062 C64.95554687 94.07951172 63.68453125 94.07113281 62.375 94.0625 C61.09625 94.05798828 59.8175 94.05347656 58.5 94.04882812 C55.33328708 94.03701203 52.16666644 94.02053815 49 94 C48.85304688 95.41539062 48.85304688 95.41539062 48.703125 96.859375 C46.33930691 117.15560615 38.41755661 132.58244339 24 147 C23.64119137 149.72555346 23.64119137 149.72555346 23.6875 152.8125 C23.66236328 154.36904297 23.66236328 154.36904297 23.63671875 155.95703125 C24.0425465 159.35638411 25.13246683 161.17652637 27 164 C27 164.66 27 165.32 27 166 C31.33636621 168.24848618 35.09434394 169.98053831 40 170.3125 C43.26690994 170.67686236 44.1064079 171.07697593 46.9375 173.125 C49.43327484 176.60395886 50 178.72918949 50 183 C48.7331646 186.09670876 47.40825222 187.65178487 44.875 189.8125 C37.95591555 192.67038271 31.45919649 191.01564126 24.70703125 188.32421875 C16.54196617 184.33005272 9.46852492 178.00300377 5.96875 169.4921875 C5.24012727 167.34005183 4.6050485 165.18895419 4 163 C2.89140625 163.49371094 1.7828125 163.98742187 0.640625 164.49609375 C-0.82284257 165.14339671 -2.28638835 165.79052288 -3.75 166.4375 C-4.47960937 166.76298828 -5.20921875 167.08847656 -5.9609375 167.42382812 C-6.66992188 167.73642578 -7.37890625 168.04902344 -8.109375 168.37109375 C-8.75874023 168.65911865 -9.40810547 168.94714355 -10.07714844 169.24389648 C-20.30397484 173.26528823 -30.04764832 170.50057042 -40 167 C-41.99930712 166.33125829 -43.99910455 165.66397428 -46 165 C-46.32871094 165.7734375 -46.65742188 166.546875 -46.99609375 167.34375 C-51.76738349 177.7914522 -58.20981648 184.7729178 -69 189 C-74.2787531 190.91954658 -79.41732216 191.85887351 -85 191 C-88.42828835 188.95761545 -90.88688048 186.89591831 -92 183 C-91.92498227 178.87402464 -91.41267115 176.59903877 -89.0625 173.1875 C-85.46771635 170.61979739 -82.71185175 170.15397047 -78.4296875 169.4296875 C-74.98805506 168.82103868 -72.82798126 168.10454419 -70 166 C-67.20249638 161.80745478 -65.33660421 157.62182027 -64.3125 152.6875 C-65.14097018 149.44893477 -66.54892228 148.462192 -69.1640625 146.50390625 C-79.99025103 137.63564543 -87.63814986 121.63396137 -90 108 C-90.2196038 105.55726104 -90.40716644 103.1114779 -90.56640625 100.6640625 C-90.64963135 99.41318848 -90.73285645 98.16231445 -90.81860352 96.87353516 C-90.87846436 95.92526855 -90.9383252 94.97700195 -91 94 C-91.91289795 94.02094727 -92.8257959 94.04189453 -93.76635742 94.06347656 C-97.16766535 94.13182717 -100.56823899 94.18188329 -103.9699707 94.21972656 C-105.43948921 94.23978825 -106.90892841 94.26704478 -108.37817383 94.30175781 C-110.49580487 94.35052141 -112.61237687 94.37302161 -114.73046875 94.390625 C-116.00301514 94.41157227 -117.27556152 94.43251953 -118.58666992 94.45410156 C-122.57731488 93.92319536 -124.17915793 92.81071513 -127 90 C-128.12992055 87.74015891 -128.29799956 86.20273513 -128.4375 83.6875 C-128.49808594 82.92824219 -128.55867187 82.16898437 -128.62109375 81.38671875 C-127.8653784 78.48268051 -126.67569577 76.79179046 -124.28442383 74.97045898 C-118.85369123 72.66339881 -112.43340461 73.50897678 -106.625 73.6875 C-105.20707042 73.71260613 -103.78909821 73.73541525 -102.37109375 73.75585938 C-98.91317012 73.81069176 -95.45685812 73.89683389 -92 74 C-92.01812744 73.15945068 -92.03625488 72.31890137 -92.05493164 71.45288086 C-92.13607422 64.94710067 -92.03797782 58.8794719 -90.4375 52.5625 C-90.26259033 51.85222656 -90.08768066 51.14195312 -89.9074707 50.41015625 C-86.98828803 39.38787359 -81.62260055 29.49967802 -74 21 C-73.32195312 20.24074219 -72.64390625 19.48148438 -71.9453125 18.69921875 C-54.2461197 -0.03925049 -24.73584105 -9.6473639 0 0 Z " fill="#67CBD1" transform="translate(279,114)"/>
<path d="M0 0 C49.5 0 99 0 150 0 C150 67.41666667 150 67.41666667 144.75 73.6875 C138.71232593 78.76463502 134.28974447 80.5989316 126.54541016 80.62866211 C125.72979111 80.64691544 124.91417206 80.66516876 124.07383728 80.68397522 C121.39540941 80.73697411 118.71794249 80.75963638 116.0390625 80.77734375 C114.16490527 80.79783746 112.2907496 80.81847472 110.41659546 80.83924866 C106.49446944 80.87666234 102.57267635 80.89611679 98.65039062 80.90600586 C93.64008717 80.92236711 88.63354573 81.00813877 83.62436867 81.11069393 C79.75505616 81.17789726 75.88664249 81.19534392 72.01679611 81.19940376 C70.17075937 81.20961896 68.32472549 81.23796924 66.47926712 81.28529167 C52.10086973 81.62640629 52.10086973 81.62640629 46.91853333 77.61445618 C44.62386129 74.84423194 42.79098639 72.11290533 41 69 C39.99401669 67.60926608 38.97558001 66.22724895 37.93359375 64.86328125 C37.09750735 63.68254855 36.26529967 62.49905715 35.4375 61.3125 C35.00115234 60.69439453 34.56480469 60.07628906 34.11523438 59.43945312 C33.07315327 57.96221727 32.03598218 56.4815194 31 55 C31.78375 54.236875 32.5675 53.47375 33.375 52.6875 C37.00923481 48.97952635 37.00923481 48.97952635 38.375 44.125 C37.91137424 40.26145204 36.72434991 38.72434991 34 36 C31.07246357 34.82924139 31.07246357 34.82924139 28.12915039 35.10546875 C24.46674886 35.19531083 21.53044 35.00914954 18 34 C14.46310085 30.51171545 12.54630934 26.45891271 10.4375 22 C9.86193359 20.88753906 9.28636719 19.77507812 8.69335938 18.62890625 C5.56136373 12.50908047 2.79499823 6.28874603 0 0 Z " fill="#92B1F3" transform="translate(259,412)"/>
<path d="M0 0 C6.6 0 13.2 0 20 0 C20.391875 2.2275 20.78375 4.455 21.1875 6.75 C24.6124376 24.45162114 33.3943822 37.0071887 48.25 47.23828125 C59.28537671 54.36934067 59.28537671 54.36934067 72 56 C74.71097548 55.06906811 77.21005365 53.82148938 79.75 52.5 C80.45229736 52.14196289 81.15459473 51.78392578 81.87817383 51.41503906 C87.84848332 48.27457536 92.93909551 44.45284757 98 40 C99.23169922 39.06607422 99.23169922 39.06607422 100.48828125 38.11328125 C112.22581469 28.23768935 117.03618415 14.50709862 120 0 C126.6 0 133.2 0 140 0 C137.61159882 21.49561065 130.37484672 37.62515328 115 53 C114.64119137 55.72555346 114.64119137 55.72555346 114.6875 58.8125 C114.66236328 60.36904297 114.66236328 60.36904297 114.63671875 61.95703125 C115.0425465 65.35638411 116.13246683 67.17652637 118 70 C118 70.66 118 71.32 118 72 C122.33636621 74.24848618 126.09434394 75.98053831 131 76.3125 C134.26690994 76.67686236 135.1064079 77.07697593 137.9375 79.125 C140.43327484 82.60395886 141 84.72918949 141 89 C139.7331646 92.09670876 138.40825222 93.65178487 135.875 95.8125 C128.95591555 98.67038271 122.45919649 97.01564126 115.70703125 94.32421875 C107.54196617 90.33005272 100.46852492 84.00300377 96.96875 75.4921875 C96.24012727 73.34005183 95.6050485 71.18895419 95 69 C93.33710938 69.74056641 93.33710938 69.74056641 91.640625 70.49609375 C90.17715743 71.14339671 88.71361165 71.79052288 87.25 72.4375 C86.52039063 72.76298828 85.79078125 73.08847656 85.0390625 73.42382812 C84.33007812 73.73642578 83.62109375 74.04902344 82.890625 74.37109375 C82.24125977 74.65911865 81.59189453 74.94714355 80.92285156 75.24389648 C70.69602516 79.26528823 60.95235168 76.50057042 51 73 C49.00069288 72.33125829 47.00089545 71.66397428 45 71 C44.67128906 71.7734375 44.34257812 72.546875 44.00390625 73.34375 C39.23261651 83.7914522 32.79018352 90.7729178 22 95 C16.7212469 96.91954658 11.58267784 97.85887351 6 97 C2.57171165 94.95761545 0.11311952 92.89591831 -1 89 C-0.92498227 84.87402464 -0.41267115 82.59903877 1.9375 79.1875 C5.53228365 76.61979739 8.28814825 76.15397047 12.5703125 75.4296875 C16.01194494 74.82103868 18.17201874 74.10454419 21 72 C23.79750362 67.80745478 25.66339579 63.62182027 26.6875 58.6875 C25.85902982 55.44893477 24.45107772 54.462192 21.8359375 52.50390625 C10.00192873 42.81009056 2.15378517 25.18017827 0.609375 10.21484375 C0.35062708 6.81367048 0.16865491 3.40682926 0 0 Z " fill="#082B76" transform="translate(188,208)"/>
<path d="M0 0 C8.59466626 8.00483622 13.08288701 17.22760452 16.25 28.3125 C16.25 33.9225 16.25 39.5325 16.25 45.3125 C-16.75 45.3125 -49.75 45.3125 -83.75 45.3125 C-83.75 27.1253317 -81.63149808 15.88021323 -69.5 2.90625 C-50.12595799 -15.72263655 -21.21263262 -16.64301788 0 0 Z " fill="#FB7C9F" transform="translate(291.75,142.6875)"/>
<path d="M0 0 C33 0 66 0 100 0 C96.87895724 20.28677794 88.36012341 34.27255261 71.828125 46.40234375 C55.59316991 57.7271943 55.59316991 57.7271943 47.375 57.4375 C36.09304208 54.66007143 26.4336864 47.67822589 18 40 C16.99839844 39.12021484 16.99839844 39.12021484 15.9765625 38.22265625 C4.79511282 27.84685688 1.23873724 14.86484692 0 0 Z " fill="#FB7C9F" transform="translate(208,208)"/>
<path d="M0 0 C0.98097656 0.36351563 1.96195312 0.72703125 2.97265625 1.1015625 C22.3323384 8.68879571 36.28938117 21.64137154 45.00390625 40.578125 C49.63227902 51.8314235 49.24298834 61.93157916 49 74 C42.4 74 35.8 74 29 74 C28.938125 71.48375 28.87625 68.9675 28.8125 66.375 C28.12714469 52.53880745 23.53766406 41.20484564 14 31 C3.08199109 21.52172853 -9.57851984 17.44160991 -23.92578125 17.75390625 C-38.17915858 18.89490088 -50.47420831 25.38693736 -60 36 C-62.71785773 39.8387821 -64.94613243 43.77212219 -67 48 C-67.34933594 48.71542969 -67.69867188 49.43085938 -68.05859375 50.16796875 C-71.06869883 57.61401815 -70.68949581 66.11319355 -71 74 C-77.6 74 -84.2 74 -91 74 C-91.6866261 51.8563084 -86.90830118 35.50040664 -71.94140625 18.6875 C-54.20981904 -0.02390754 -24.75267493 -9.65392938 0 0 Z " fill="#082C76" transform="translate(279,114)"/>
<path d="M0 0 C0.4125 0.92941406 0.825 1.85882813 1.25 2.81640625 C6.30015913 13.78831052 11.79077396 20.03120442 23 25 C24.33612461 25.66105466 25.67021576 26.32628188 27 27 C25.47632813 27.6496875 25.47632813 27.6496875 23.921875 28.3125 C21.48510901 29.35577871 19.06130708 30.4191373 16.640625 31.5 C-6.93280726 41.92879953 -34.75171833 43.99820693 -59.21679688 34.83837891 C-64.60081975 32.71865335 -69.28535603 30.31241299 -74 27 C-71.66504547 24.41405687 -69.23339531 22.91565089 -66.1875 21.25 C-57.73254557 16.2360154 -54.00968219 9.81775243 -50 1 C-49.46632812 1.18175781 -48.93265625 1.36351562 -48.3828125 1.55078125 C-46.79919351 2.08504717 -45.2130111 2.61174636 -43.625 3.1328125 C-41.93124787 3.69235561 -40.24309395 4.26928388 -38.5625 4.8671875 C-26.83057014 8.81543313 -18.15291436 7.04864436 -7 2 C-6.27683594 1.61585938 -5.55367188 1.23171875 -4.80859375 0.8359375 C-3 0 -3 0 0 0 Z " fill="#FB7DA0" transform="translate(283,277)"/>
<path d="M0 0 C0.66554901 -0.00511093 1.33109802 -0.01022186 2.01681519 -0.01548767 C4.21125343 -0.02935842 6.40537671 -0.02842887 8.59985352 -0.02612305 C10.12915666 -0.03001136 11.65845873 -0.03434631 13.1877594 -0.03910828 C16.39132184 -0.04656505 19.59477407 -0.04628317 22.79833984 -0.04101562 C26.89853639 -0.03522152 30.99828112 -0.05215284 35.09840298 -0.0753603 C38.25631843 -0.09011013 41.41412537 -0.09096766 44.57206917 -0.08785057 C46.08350583 -0.08836315 47.59494867 -0.09358907 49.10635185 -0.10366249 C51.22223941 -0.11603439 53.3372509 -0.10923175 55.453125 -0.09765625 C56.65573471 -0.09828568 57.85834442 -0.0989151 59.09739685 -0.0995636 C63.45173548 0.41063001 66.03967011 2.02306855 69.10375977 5.0871582 C70.75416844 8.1273847 70.83854004 9.85415652 70.29125977 13.2746582 C68.46025044 16.19749161 66.42478268 18.70789674 63.29125977 20.2746582 C61.10206936 20.38199696 58.90955964 20.42356448 56.71777344 20.43579102 C56.04276291 20.44075592 55.36775238 20.44572083 54.67228699 20.45083618 C52.43459052 20.46546517 50.19696499 20.47226157 47.95922852 20.4777832 C46.4046478 20.48353479 44.85006712 20.48929252 43.29548645 20.49505615 C40.0329251 20.50556874 36.77038841 20.51140947 33.5078125 20.51489258 C29.33136273 20.52037282 25.15523972 20.54438943 20.97889233 20.57286453 C17.76608842 20.59150941 14.55336285 20.59669753 11.34050941 20.59822845 C9.80115284 20.60125219 8.26179756 20.60927135 6.72249413 20.62241364 C4.56572178 20.63951069 2.40974272 20.63758527 0.25292969 20.63110352 C-0.97347733 20.63474915 -2.19988434 20.63839478 -3.4634552 20.64215088 C-7.00267273 20.2413736 -8.86843804 19.3794949 -11.70874023 17.2746582 C-14.03700399 14.05943683 -14.10585205 11.16635396 -13.70874023 7.2746582 C-10.6956354 0.64582758 -6.92993995 0.02656729 0 0 Z " fill="#052A75" transform="translate(227.708740234375,445.725341796875)"/>
<path d="M0 0 C3.49088008 1.35232291 5.51651384 3.57325207 7.16796875 6.83984375 C7.75175944 10.32640149 7.64377079 13.69254443 7.48046875 17.21484375 C7.45791016 18.14167969 7.43535156 19.06851562 7.41210938 20.0234375 C7.35350552 22.2972671 7.27153805 24.56769261 7.16796875 26.83984375 C8.02962646 26.80056763 8.02962646 26.80056763 8.90869141 26.76049805 C11.53650046 26.65592575 14.16387106 26.59133431 16.79296875 26.52734375 C18.14841797 26.46450195 18.14841797 26.46450195 19.53125 26.40039062 C23.93406715 26.32004725 27.19295648 26.32835597 30.77734375 29.078125 C33.86077245 32.64019051 33.93646893 34.18734106 33.63671875 38.68359375 C32.94786611 41.85231591 31.4999732 43.64501603 29.16796875 45.83984375 C26.20533531 47.32116047 23.17938947 47.02312066 19.9296875 47.04296875 C19.21190628 47.04866882 18.49412506 47.0543689 17.7545929 47.0602417 C16.23395258 47.06969327 14.71329176 47.07622631 13.19262695 47.08007812 C10.87479486 47.089763 8.5578575 47.12077455 6.24023438 47.15234375 C4.76172401 47.15887612 3.2832073 47.16412567 1.8046875 47.16796875 C1.11493332 47.18031555 0.42517914 47.19266235 -0.28547668 47.2053833 C-4.64162678 47.18538911 -7.41790489 46.58915273 -10.83203125 43.83984375 C-13.44935169 40.3700728 -13.17143802 36.36723549 -13.203125 32.1875 C-13.21215347 31.45035263 -13.22118195 30.71320526 -13.23048401 29.95372009 C-13.24496036 28.3979802 -13.25386675 26.84217979 -13.25756836 25.28637695 C-13.26947688 22.91317865 -13.31869011 20.5425727 -13.36914062 18.16992188 C-13.37860456 16.65496055 -13.38583974 15.13998333 -13.390625 13.625 C-13.41015732 12.91964615 -13.42968964 12.2142923 -13.44981384 11.48756409 C-13.41409937 7.56563012 -12.95009087 5.98309165 -10.42211914 2.91577148 C-6.63205577 -0.12192376 -4.85554442 -0.23479422 0 0 Z " fill="#68CCD1" transform="translate(156.83203125,312.16015625)"/>
<path d="M0 0 C2.69792699 1.22633045 4.44163276 2.18403675 6.12402344 4.64257812 C7.33617855 7.90472131 7.28580564 11.03603359 7.265625 14.46875 C7.26849518 15.5447345 7.26849518 15.5447345 7.27142334 16.64245605 C7.27278113 18.1553584 7.26911309 19.66827255 7.26074219 21.18115234 C7.25003646 23.4921291 7.26065079 25.80232857 7.2734375 28.11328125 C7.27211583 29.58593921 7.26955329 31.05859669 7.265625 32.53125 C7.26967346 33.21989136 7.27372192 33.90853271 7.27789307 34.61804199 C7.21384768 41.19568683 7.21384768 41.19568683 5 44 C-1.223201 48.02798582 -7.72253307 47.48812446 -14.84985352 47.44604492 C-17.06034713 47.43750831 -19.26827498 47.46637732 -21.47851562 47.49804688 C-22.8932284 47.49965861 -24.30794571 47.49908188 -25.72265625 47.49609375 C-26.99890869 47.49794678 -28.27516113 47.4997998 -29.59008789 47.50170898 C-33.55242193 46.91872077 -35.18821782 45.79354289 -38 43 C-39.13624119 40.72751762 -39.26446843 39.21697236 -39.375 36.6875 C-39.44847656 35.54861328 -39.44847656 35.54861328 -39.5234375 34.38671875 C-38.68002774 30.54102202 -37.20284236 29.26223066 -34 27 C-30.37356661 26.39919061 -26.85040338 26.5276016 -23.1875 26.6875 C-21.71893555 26.72133789 -21.71893555 26.72133789 -20.22070312 26.75585938 C-17.81222545 26.81460273 -15.40690922 26.89667871 -13 27 C-13.02618408 26.42556152 -13.05236816 25.85112305 -13.0793457 25.25927734 C-13.183918 22.63146829 -13.24850944 20.00409769 -13.3125 17.375 C-13.35439453 16.47136719 -13.39628906 15.56773437 -13.43945312 14.63671875 C-13.52149425 10.14086536 -13.52013202 6.99557675 -10.60546875 3.4140625 C-6.90067395 -0.01856596 -5.01667671 -0.39346484 0 0 Z " fill="#68CCD1" transform="translate(361,312)"/>
<path d="M0 0 C1.54605192 -0.01652665 3.09202846 -0.04377379 4.63769531 -0.08203125 C6.87393568 -0.13706391 9.10838669 -0.1587133 11.34521484 -0.17333984 C12.37210419 -0.2073439 12.37210419 -0.2073439 13.41973877 -0.24203491 C19.03009306 -0.21757744 21.2812429 1.53233471 25.07958984 5.35009766 C26.56090656 8.3127311 26.26286675 11.33867693 26.28271484 14.58837891 C26.28841492 15.30616013 26.29411499 16.02394135 26.29998779 16.76347351 C26.30943937 18.28411383 26.3159724 19.80477464 26.31982422 21.32543945 C26.32950909 23.64327155 26.36052065 25.96020891 26.39208984 28.27783203 C26.39862222 29.7563424 26.40387177 31.2348591 26.40771484 32.71337891 C26.42006165 33.40313309 26.43240845 34.09288727 26.44512939 34.80354309 C26.42510188 39.1669547 25.71825057 41.86329599 23.07958984 45.35009766 C19.86405539 47.67858812 16.96937608 47.89466773 13.07958984 47.35009766 C9.65193661 45.28237181 7.37249573 43.2288153 6.07958984 39.35009766 C5.99892765 37.86886218 5.97197791 36.38427562 5.98193359 34.90087891 C5.98515625 34.05332031 5.98837891 33.20576172 5.99169922 32.33251953 C6.00007813 31.45144531 6.00845703 30.57037109 6.01708984 29.66259766 C6.02160156 28.76992187 6.02611328 27.87724609 6.03076172 26.95751953 C6.04254002 24.75497779 6.0589882 22.55257166 6.07958984 20.35009766 C5.46962158 20.37628174 4.85965332 20.40246582 4.23120117 20.42944336 C1.45176227 20.53375484 -1.32726455 20.59852748 -4.10791016 20.66259766 C-5.06761719 20.70449219 -6.02732422 20.74638672 -7.01611328 20.78955078 C-11.72689866 20.87105226 -14.13580607 20.90927445 -18.06103516 18.11181641 C-20.45537388 14.55551919 -20.58239584 12.65892832 -20.35400391 8.50634766 C-19.71326573 5.31997404 -18.2543967 3.54679087 -15.92041016 1.35009766 C-11.4454967 -0.88735907 -4.96761776 0.03889986 0 0 Z " fill="#68CCD1" transform="translate(341.92041015625,60.64990234375)"/>
<path d="M0 0 C2.23468062 -0.01716382 4.46786215 -0.06104241 6.70214844 -0.10522461 C8.13182509 -0.11535641 9.56151429 -0.12387099 10.99121094 -0.13061523 C12.93592285 -0.15248901 12.93592285 -0.15248901 14.91992188 -0.17480469 C19.10519281 0.37356494 21.25104626 1.66018369 24.50683594 4.29516602 C26.23054367 7.74258149 26.00990266 11.52551941 25.50683594 15.29516602 C23.6306298 17.79677419 22.2679229 18.91462253 19.50683594 20.29516602 C17.98535268 20.37889261 16.46027816 20.40246628 14.93652344 20.39282227 C14.040625 20.38959961 13.14472656 20.38637695 12.22167969 20.38305664 C11.28453125 20.37467773 10.34738281 20.36629883 9.38183594 20.35766602 C8.43695313 20.3531543 7.49207031 20.34864258 6.51855469 20.34399414 C4.18125207 20.33218958 1.84407532 20.3157236 -0.49316406 20.29516602 C-0.44095703 22.26549805 -0.44095703 22.26549805 -0.38769531 24.27563477 C-0.35954941 26.01129903 -0.33225011 27.74697716 -0.30566406 29.48266602 C-0.28052734 30.34698242 -0.25539062 31.21129883 -0.22949219 32.10180664 C-0.15996343 38.15080837 -0.9255277 41.63582835 -5.24316406 46.10766602 C-8.56095586 47.8587228 -10.79913681 47.81362598 -14.49316406 47.29516602 C-17.12332567 45.12242382 -18.966533 43.34842814 -20.49316406 40.29516602 C-20.77609956 35.65788894 -20.80688744 31.01984962 -20.84326172 26.37475586 C-20.85978837 24.82870394 -20.88703551 23.2827274 -20.92529297 21.73706055 C-20.98032563 19.50082018 -21.00197502 17.26636917 -21.01660156 15.02954102 C-21.03927094 14.34494812 -21.06194031 13.66035522 -21.08529663 12.95501709 C-21.06083916 7.3446628 -19.31092701 5.09351295 -15.49316406 1.29516602 C-11.02526138 -0.93878532 -4.96759919 0.02658501 0 0 Z " fill="#68CCD1" transform="translate(164.4931640625,60.704833984375)"/>
</svg>
