<?xml version="1.0" encoding="UTF-8"?>
<svg version="1.1" xmlns="http://www.w3.org/2000/svg" width="512" height="512">
<path d="M0 0 C6.81417925 3.89073115 13.68525537 7.66086509 20.59594727 11.37719727 C28.44157177 15.59864615 36.22963483 19.90491989 43.97094727 24.31469727 C53.32466001 29.64018643 62.77098865 34.77563861 72.2578125 39.85961914 C80.58225508 44.32254032 88.85339599 48.87098434 97.09692383 53.48120117 C102.19619542 56.32973917 107.30272655 59.16524031 112.40844727 62.00219727 C114.12559937 62.95642578 114.12559937 62.95642578 115.87744141 63.92993164 C127.8836469 70.59943152 139.9105382 77.23132817 151.9387207 83.86108398 C157.38855333 86.86512477 162.8369541 89.87176074 168.28546143 92.87820435 C171.30556455 94.54464193 174.32576062 96.21091106 177.34594727 97.87719727 C178.55428104 98.54386313 179.76261438 99.21052979 180.97094727 99.87719727 C181.56907227 100.20719727 182.16719727 100.53719727 182.78344727 100.87719727 C246.22094725 135.87719726 246.22094725 135.87719726 248.03338623 136.87716675 C249.24191945 137.54394159 250.45045624 138.21070998 251.65899658 138.87747192 C254.67680082 140.54243058 257.69454341 142.20750076 260.7121582 143.87280273 C267.41787851 147.57324789 274.12490696 151.27129559 280.83448792 154.96473694 C283.88000259 156.64173472 286.92400697 158.32136883 289.96484375 160.00683594 C291.15825374 160.66810565 292.35169433 161.32932015 293.54516602 161.99047852 C294.13079819 162.31495468 294.71643036 162.63943085 295.31980896 162.97373962 C299.38003767 165.21830453 303.46223681 167.41902948 307.55297852 169.60766602 C327.93495655 180.5980937 343.68684857 192.40827208 350.70922852 215.54516602 C354.56559733 231.80507143 351.64399259 248.95052387 343.34985352 263.25219727 C335.03095757 275.70274977 323.52968843 283.79761839 310.40844727 290.56469727 C308.08706545 291.78793054 305.76677195 293.01323115 303.44750977 294.24047852 C301.71549316 295.15434326 301.71549316 295.15434326 299.94848633 296.08666992 C295.01118159 298.72359047 290.14456222 301.4779877 285.28344727 304.25219727 C276.71422853 309.12906124 268.1074958 313.93345353 259.47094727 318.68969727 C258.86245941 319.02483337 258.25397156 319.35996948 257.62704468 319.70526123 C254.52429624 321.41383734 251.42106944 323.12154237 248.31762695 324.82885742 C242.84318133 327.84107364 237.37292497 330.86088123 231.90240479 333.88021851 C228.88376245 335.54619861 225.86484054 337.21167193 222.84594727 338.87719727 C221.6376126 339.54386151 220.42927926 340.21052818 219.22094727 340.87719727 C211.97094726 344.87719727 211.97094726 344.87719727 210.15852356 345.87715149 C208.94993176 346.54396321 207.74134411 347.21078247 206.53276062 347.87760925 C203.51591583 349.54211824 200.49899945 351.2064972 197.48193359 352.87060547 C191.99677627 355.89619508 186.51218993 358.92279922 181.0302124 361.95414734 C177.94830701 363.65829691 174.8659754 365.36167444 171.78344727 367.06469727 C171.17925964 367.39853424 170.57507202 367.73237122 169.95257568 368.07632446 C161.73228025 372.61652218 153.48749732 377.10916002 145.22094727 381.56469727 C136.54193435 386.24303158 127.94734556 391.05392725 119.37963867 395.93261719 C111.08784343 400.63722689 102.69834275 405.14802652 94.29223633 409.64428711 C86.17325834 413.99848462 78.14370741 418.49300769 70.13891602 423.05297852 C62.34135344 427.48414511 54.46489489 431.75747895 46.56713867 436.00683594 C39.77654099 439.67019914 33.04837312 443.43022981 26.34594727 447.25219727 C17.2512151 452.43481089 8.05843741 457.41860537 -1.18811035 462.32357788 C-7.46700373 465.65480658 -13.71531663 469.02394745 -19.87280273 472.57641602 C-20.89245117 473.16422852 -21.91209961 473.75204102 -22.96264648 474.35766602 C-24.84600962 475.45066693 -26.72416689 476.55271875 -28.59545898 477.66625977 C-45.0875243 487.24310011 -65.36713683 490.18593008 -83.96655273 485.37719727 C-100.81824139 479.59714947 -114.39028567 468.78324072 -122.94311523 453.04516602 C-128.27116429 441.9061161 -128.69695075 431.45241869 -128.67147827 419.32392883 C-128.675218 417.63496882 -128.67982081 415.94601054 -128.68520892 414.25705498 C-128.6974145 409.6297525 -128.69718133 405.00252244 -128.69482017 400.37520754 C-128.69441138 395.37912998 -128.70545706 390.38307545 -128.7149353 385.38700867 C-128.731533 375.60374613 -128.7370443 365.8205077 -128.73816006 356.03723226 C-128.73911114 348.08275755 -128.74322442 340.12829078 -128.74956131 332.17381859 C-128.76717053 309.60952053 -128.7764007 287.04524148 -128.77490036 264.4809365 C-128.77482045 263.26503508 -128.77474054 262.04913365 -128.7746582 260.79638672 C-128.77457644 259.57899652 -128.77449468 258.36160633 -128.77441044 257.10732552 C-128.77359768 237.38148404 -128.79273366 217.65571894 -128.82093494 197.92989955 C-128.8496793 177.66389919 -128.86347437 157.39793606 -128.86174738 137.13191479 C-128.86108401 125.75879673 -128.86655329 114.38575875 -128.88810349 103.01265907 C-128.90633571 93.32873163 -128.91064583 83.64492057 -128.89708464 73.96098337 C-128.89056527 69.02353027 -128.89040051 64.08630029 -128.90779114 59.14886856 C-128.92357255 54.62160763 -128.92060672 50.0947458 -128.90322287 45.5674943 C-128.9001641 43.93697139 -128.90374265 42.30641832 -128.91494302 40.67593101 C-129.02892345 22.8938141 -124.85448842 7.11407923 -112.40014648 -6.25561523 C-75.74300886 -40.54546217 -37.07664238 -21.17436566 0 0 Z " fill="#2196F2" transform="translate(144.404052734375,25.122802734375)"/>
<path d="M0 0 C3.82139295 1.23987698 7.22627555 2.52857778 10.703125 4.546875 C11.58742188 5.05476562 12.47171875 5.56265625 13.3828125 6.0859375 C14.32898438 6.63507813 15.27515625 7.18421875 16.25 7.75 C24.76612808 12.6319963 33.34096386 17.37631832 42 22 C51.3565911 27.00501158 60.64302408 32.11511237 69.85473633 37.38232422 C74.20866775 39.8703939 78.56903084 42.3218604 83.01171875 44.6484375 C100.17306008 53.68424377 113.12340308 65.30183759 120 84 C124.94786276 100.30190574 122.82726355 117.61610793 115.3125 132.6875 C107.2532037 146.58423146 94.82563819 155.46043892 80.8125 162.6875 C78.49111818 163.91073327 76.17082469 165.13603389 73.8515625 166.36328125 C72.69688477 166.97252441 71.54220703 167.58176758 70.35253906 168.20947266 C65.41523433 170.8463932 60.54861496 173.60079044 55.6875 176.375 C47.11828126 181.25186397 38.51154854 186.05625627 29.875 190.8125 C29.26651215 191.14763611 28.65802429 191.48277222 28.03109741 191.82806396 C24.92834898 193.53664008 21.82512217 195.2443451 18.72167969 196.95166016 C13.24723407 199.96387638 7.7769777 202.98368397 2.30645752 206.00302124 C-0.71218481 207.66900135 -3.73110673 209.33447467 -6.75 211 C-7.95833467 211.66666425 -9.166668 212.33333091 -10.375 213 C-17.62499997 216.99999998 -17.62499997 216.99999998 -19.43742371 217.99995422 C-20.64601551 218.66676595 -21.85460315 219.33358521 -23.06318665 220.00041199 C-26.08003144 221.66492098 -29.09694782 223.32929994 -32.11401367 224.9934082 C-37.599171 228.01899781 -43.08375734 231.04560195 -48.56573486 234.07695007 C-51.64764025 235.78109964 -54.72997186 237.48447717 -57.8125 239.1875 C-58.41668762 239.52133698 -59.02087524 239.85517395 -59.64337158 240.1991272 C-67.86366702 244.73932491 -76.10844995 249.23196275 -84.375 253.6875 C-93.05401291 258.36583432 -101.64860171 263.17672998 -110.21630859 268.05541992 C-118.50810384 272.76002963 -126.89760452 277.27082926 -135.30371094 281.76708984 C-143.42268892 286.12128735 -151.45223986 290.61581043 -159.45703125 295.17578125 C-167.25459383 299.60694784 -175.13105238 303.88028169 -183.02880859 308.12963867 C-189.81940628 311.79300188 -196.54757414 315.55303254 -203.25 319.375 C-212.34473216 324.55761363 -221.53750985 329.54140811 -230.78405762 334.44638062 C-237.062951 337.77760932 -243.3112639 341.14675019 -249.46875 344.69921875 C-250.48839844 345.28703125 -251.50804687 345.87484375 -252.55859375 346.48046875 C-254.44195688 347.57346967 -256.32011415 348.67552149 -258.19140625 349.7890625 C-274.68347157 359.36590284 -294.96308409 362.30873281 -313.5625 357.5 C-323.38339641 354.15494316 -332.18064124 348.77128206 -340 342 C-338.38379934 337.95316411 -335.51418209 335.23835407 -332.47523308 332.22913742 C-331.61576609 331.3662089 -331.61576609 331.3662089 -330.73893613 330.48584747 C-328.80658559 328.54817875 -326.86714942 326.61776013 -324.92770386 324.68719482 C-323.53136782 323.28998709 -322.13547116 321.89234013 -320.73997796 320.49429059 C-316.89525598 316.64508397 -313.04430429 312.80216245 -309.19233823 308.96020699 C-305.0428499 304.81933477 -300.89912149 300.67270589 -296.75469971 296.52676392 C-289.5705063 289.34152049 -282.38265255 282.15995554 -275.19231796 274.98085785 C-267.6501818 267.45050072 -260.11006371 259.91813455 -252.5727272 252.38297272 C-252.10427947 251.91466246 -251.63583174 251.44635221 -251.15318862 250.96385074 C-248.77424199 248.58558076 -246.3953323 246.20727385 -244.01643683 243.8289527 C-227.16160238 226.97832036 -210.30213454 210.13233084 -193.43994141 193.2890625 C-177.05738662 176.92487301 -160.67693128 160.55858665 -144.29931641 144.18945312 C-143.79458856 143.68498833 -143.28986071 143.18052354 -142.76983809 142.66077193 C-137.70120927 137.59478013 -132.63262314 132.52874563 -127.56406828 127.46267985 C-117.23860771 117.14229186 -106.91286227 106.82218892 -96.58694458 96.5022583 C-96.1121639 96.0277522 -95.63738323 95.55324611 -95.14821526 95.06436104 C-63.43691477 63.37146546 -31.71895324 31.68523631 0 0 Z " fill="#F34336" transform="translate(374,153)"/>
<path d="M0 0 C6.81417925 3.89073115 13.68525537 7.66086509 20.59594727 11.37719727 C28.44157177 15.59864615 36.22963483 19.90491989 43.97094727 24.31469727 C53.32466001 29.64018643 62.77098865 34.77563861 72.2578125 39.85961914 C80.58225508 44.32254032 88.85339599 48.87098434 97.09692383 53.48120117 C102.19619542 56.32973917 107.30272655 59.16524031 112.40844727 62.00219727 C114.12559937 62.95642578 114.12559937 62.95642578 115.87744141 63.92993164 C127.8836469 70.59943152 139.9105382 77.23132817 151.9387207 83.86108398 C155.57755562 85.86687191 159.21575779 87.87380532 162.85375977 89.88110352 C163.45198044 90.21117401 164.05020111 90.54124451 164.66654968 90.88131714 C167.67504745 92.54131251 170.68348293 94.20142073 173.69189453 95.86157227 C179.24926643 98.92818603 184.80708039 101.99398825 190.36665344 105.05661011 C203.47321044 112.27673771 216.57843533 119.4971905 229.59594727 126.87719727 C228.17061907 130.12241647 226.44188985 132.27873642 223.93869019 134.77496338 C223.17866699 135.5377359 222.4186438 136.30050842 221.6355896 137.08639526 C220.38402573 138.32717331 220.38402573 138.32717331 219.10717773 139.59301758 C218.22906433 140.47142303 217.35095093 141.34982849 216.44622803 142.25485229 C214.04091295 144.65901337 211.63124807 147.05865262 209.21954107 149.45639133 C206.69886528 151.96455855 204.18385792 154.47839653 201.66824341 156.99163818 C196.90531908 161.74834812 192.1373198 166.49993712 187.36747563 171.24970698 C181.93674339 176.65807896 176.51169393 182.07213593 171.0871141 187.48667765 C159.92970251 198.62318817 148.76517679 209.75253869 137.59594727 220.87719727 C136.47213867 219.91682309 135.34873766 218.95597196 134.22550964 217.99491882 C133.59987216 217.45989589 132.97423468 216.92487295 132.32963848 216.3736372 C130.45595269 214.7563606 128.63257304 213.09731715 126.83422852 211.39672852 C126.19654541 210.79578369 125.5588623 210.19483887 124.90185547 209.57568359 C124.24403076 208.95330811 123.58620605 208.33093262 122.90844727 207.68969727 C117.14989634 202.26593809 111.358389 196.8845089 105.51782227 191.54907227 C102.38950741 188.68842071 99.27227006 185.81609977 96.15844727 182.93969727 C95.61808838 182.44058838 95.07772949 181.94147949 94.52099609 181.42724609 C93.42629835 180.41599114 92.3316533 179.40467914 91.23706055 178.39331055 C88.52417141 175.88705623 85.81001434 173.38217582 83.09594727 170.87719727 C79.83359042 167.86616854 76.57151134 164.85484201 73.31079102 161.84204102 C68.08119601 157.01089135 62.84670349 152.18534776 57.59594727 147.37719727 C51.79491462 142.06515519 46.0142561 136.73125393 40.23706055 131.39331055 C37.5241714 128.88705622 34.80999867 126.38219281 32.09594727 123.87719727 C31.01260769 122.87720403 29.92927436 121.87720402 28.84594727 120.87719727 C28.04157227 120.13469727 28.04157227 120.13469727 27.22094727 119.37719727 C-16.65405273 78.87719727 -16.65405273 78.87719727 -18.27929688 77.37695312 C-19.36179144 76.37773988 -20.44431094 75.37855365 -21.52685547 74.37939453 C-24.24822781 71.86757891 -26.96915469 69.35528394 -29.68920898 66.84204102 C-34.91880399 62.01089135 -40.15329651 57.18534776 -45.40405273 52.37719727 C-51.20508538 47.06515519 -56.9857439 41.73125393 -62.76293945 36.39331055 C-65.4758286 33.88705622 -68.19000133 31.38219281 -70.90405273 28.87719727 C-71.98739231 27.87720403 -73.07072564 26.87720402 -74.15405273 25.87719727 C-74.69030273 25.38219727 -75.22655273 24.88719727 -75.77905273 24.37719727 C-80.65405273 19.87719727 -80.65405273 19.87719727 -82.28051758 18.37573242 C-83.35881822 17.38045283 -84.43726763 16.38533439 -85.51586914 15.39038086 C-88.30247366 12.81949172 -91.08607247 10.24545745 -93.86499023 7.66625977 C-99.29297032 2.63308384 -104.72654137 -2.36953741 -110.40405273 -7.12280273 C-77.06651876 -42.22777452 -34.39225123 -19.64131746 0 0 Z " fill="#4BAE50" transform="translate(144.404052734375,25.122802734375)"/>
<path d="M0 0 C3.82139295 1.23987698 7.22627555 2.52857778 10.703125 4.546875 C11.58742188 5.05476562 12.47171875 5.56265625 13.3828125 6.0859375 C14.32898438 6.63507813 15.27515625 7.18421875 16.25 7.75 C24.76612808 12.6319963 33.34096386 17.37631832 42 22 C51.3565911 27.00501158 60.64302408 32.11511237 69.85473633 37.38232422 C74.20866775 39.8703939 78.56903084 42.3218604 83.01171875 44.6484375 C100.17306008 53.68424377 113.12340308 65.30183759 120 84 C124.94786276 100.30190574 122.82726355 117.61610793 115.3125 132.6875 C107.25317312 146.5842842 94.82563566 155.46034034 80.8125 162.6875 C78.4989424 163.90684961 76.18646214 165.12824529 73.875 166.3515625 C72.14443359 167.26470215 72.14443359 167.26470215 70.37890625 168.19628906 C65.30941753 170.90245833 60.30772209 173.72218141 55.3125 176.5625 C54.39017578 177.08360352 53.46785156 177.60470703 52.51757812 178.14160156 C47.5156944 180.97414074 42.54417583 183.85185024 37.59375 186.7734375 C36.54276123 187.38630615 35.49177246 187.9991748 34.40893555 188.63061523 C32.38430543 189.81206186 30.36713341 191.00640769 28.35864258 192.21508789 C27.45267334 192.74094482 26.5467041 193.26680176 25.61328125 193.80859375 C24.81704346 194.28095459 24.02080566 194.75331543 23.20043945 195.23999023 C21 196 21 196 18.82788086 195.24316406 C16.69250077 193.79086603 15.02991065 192.18434818 13.25 190.3125 C10.03773001 186.94501528 6.62605282 183.90429017 3.11425781 180.8581543 C-0.2492835 177.90204426 -3.49640664 174.82599987 -6.75 171.75 C-12.48814337 166.34763096 -18.25935409 160.98740086 -24.078125 155.671875 C-27.20643985 152.81122345 -30.3236772 149.9389025 -33.4375 147.0625 C-33.97785889 146.56339111 -34.51821777 146.06428223 -35.07495117 145.55004883 C-36.16964892 144.53879388 -37.26429396 143.52748188 -38.35888672 142.51611328 C-41.07177586 140.00985896 -43.78594859 137.50499554 -46.5 135 C-47.58333957 134.00000676 -48.66667291 133.00000676 -49.75 132 C-50.554375 131.2575 -50.554375 131.2575 -51.375 130.5 C-64.91666667 118 -78.45833333 105.5 -92 93 C-87.40229877 87.48257061 -82.51275116 82.37584918 -77.42431641 77.31079102 C-76.16479156 76.05104713 -76.16479156 76.05104713 -74.87982178 74.76585388 C-72.59692854 72.48353433 -70.31184536 70.20343614 -68.02573442 67.92434049 C-65.62963865 65.53453318 -63.23641015 63.14185787 -60.84286499 60.74949646 C-56.3189109 56.22863958 -51.79241577 51.71033597 -47.26498258 47.19296354 C-42.10696712 42.04615943 -36.9518206 36.89648576 -31.79690289 31.74657929 C-21.20110519 21.16120948 -10.60174313 10.57941544 0 0 Z " fill="#FEC007" transform="translate(374,153)"/>
</svg>
