<?xml version="1.0" encoding="UTF-8"?>
<svg version="1.1" xmlns="http://www.w3.org/2000/svg" width="512" height="512">
<path d="M0 0 C24.09 0 48.18 0 73 0 C74.32 2.97 75.64 5.94 77 9 C77.99 6.03 78.98 3.06 80 0 C104.42 0 128.84 0 154 0 C154 4.62 154 9.24 154 14 C141.46 14 128.92 14 116 14 C115.505 12.02 115.505 12.02 115 10 C114.34 11.32 113.68 12.64 113 14 C89.24 14 65.48 14 41 14 C40.34 12.68 39.68 11.36 39 10 C38.67 11.32 38.34 12.64 38 14 C25.46 14 12.92 14 0 14 C0 9.38 0 4.76 0 0 Z " fill="#4A80C1" transform="translate(307,237)"/>
<path d="M0 0 C47.52 0 95.04 0 144 0 C141 12 141 12 139 14 C136.58308983 14.24609566 136.58308983 14.24609566 133.48251343 14.24050903 C132.31019669 14.24325836 131.13787994 14.24600769 129.93003845 14.24884033 C128.63747635 14.24164978 127.34491425 14.23445923 126.01318359 14.22705078 C124.64344796 14.22648686 123.27371172 14.22680285 121.90397644 14.22793579 C118.17895442 14.22851107 114.45406046 14.21672862 110.72906828 14.20278788 C106.838642 14.19030954 102.94821298 14.18911231 99.05776978 14.18673706 C91.68774518 14.18051375 84.31777972 14.16409146 76.94778121 14.14403808 C68.55854362 14.12170551 60.16930326 14.11069231 51.78004336 14.10064721 C34.51999371 14.07972594 17.26000536 14.04413197 0 14 C0 9.38 0 4.76 0 0 Z " fill="#497FC1" transform="translate(127,311)"/>
<path d="M0 0 C46.2 0 92.4 0 140 0 C143 8 143 8 143 14 C95.81 14 48.62 14 0 14 C0 9.38 0 4.76 0 0 Z " fill="#497FC1" transform="translate(127,188)"/>
<path d="M0 0 C42.9 0 85.8 0 130 0 C126.46665287 4.41668391 125.22610005 5.80006369 120.5 8.125 C119.5615625 8.60195313 118.623125 9.07890625 117.65625 9.5703125 C104.63334664 14.66260164 92.33012841 14.39358333 78.515625 14.29296875 C76.24591351 14.28736489 73.97619837 14.28309853 71.70648193 14.28010559 C65.76845056 14.26871902 59.83064364 14.23930568 53.8927002 14.20599365 C47.81912267 14.17515866 41.74550844 14.16157169 35.671875 14.14648438 C23.78115205 14.11442957 11.89059478 14.06330893 0 14 C0 9.38 0 4.76 0 0 Z " fill="#4A80C0" transform="translate(127,336)"/>
<path d="M0 0 C12.96148118 -0.06970861 25.92291727 -0.12291697 38.88454819 -0.15543652 C44.90405683 -0.17104932 50.9234366 -0.19220724 56.94287109 -0.22631836 C62.75895697 -0.25906846 68.57491938 -0.27688595 74.39109039 -0.28463173 C76.60289705 -0.29014723 78.81469744 -0.30091721 81.02645111 -0.31719017 C94.69855207 -0.41372311 107.01685401 -0.46945607 119.5 5.875 C120.4590625 6.34679687 121.418125 6.81859375 122.40625 7.3046875 C125 9 125 9 129 14 C86.43 14 43.86 14 0 14 C0 9.38 0 4.76 0 0 Z " fill="#4A80C0" transform="translate(127,163)"/>
<path d="M0 0 C36.63 0 73.26 0 111 0 C106.80480327 10.48799182 106.80480327 10.48799182 101 14 C93.57984088 15.7011383 85.67789866 15.04399785 78.125 14.87890625 C75.87201484 14.86210756 73.61899667 14.84930235 71.3659668 14.84031677 C65.45335144 14.80605237 59.54274521 14.71773121 53.63092041 14.61798096 C47.59146298 14.52569723 41.55167893 14.48476267 35.51171875 14.43945312 C23.67359934 14.34310569 11.83696713 14.18962271 0 14 C0 9.38 0 4.76 0 0 Z " fill="#497FC1" transform="translate(153,237)"/>
<path d="M0 0 C12.93466 -0.11586619 25.86919647 -0.20470183 38.80426979 -0.25906086 C44.81061767 -0.28515097 50.81661042 -0.32053939 56.82275391 -0.37719727 C62.61938338 -0.43153634 68.41567133 -0.46142494 74.21253586 -0.47438622 C76.42375439 -0.48362256 78.63495429 -0.5016591 80.84602737 -0.52865028 C83.94414871 -0.56496473 87.04086012 -0.5699442 90.13916016 -0.56762695 C91.05266235 -0.58560333 91.96616455 -0.60357971 92.90734863 -0.62210083 C97.23863731 -0.58706303 100.08673175 -0.38452436 103.51132202 2.41365051 C111 10.19623171 111 10.19623171 111 14 C74.37 14 37.74 14 0 14 C0 9.38 0 4.76 0 0 Z " fill="#4A80C1" transform="translate(153,262)"/>
<path d="M0 0 C30.03 0 60.06 0 91 0 C91 4.62 91 9.24 91 14 C60.97 14 30.94 14 0 14 C0 9.38 0 4.76 0 0 Z " fill="#497EC1" transform="translate(25,311)"/>
<path d="M0 0 C30.03 0 60.06 0 91 0 C91 4.62 91 9.24 91 14 C79.28273212 14.02312215 67.56546963 14.04091443 55.84818363 14.05181217 C50.40797688 14.05704128 44.96778569 14.06413943 39.52758789 14.07543945 C34.28214298 14.08626735 29.03671308 14.09227662 23.79125786 14.09487724 C21.78529054 14.09673167 19.77932408 14.10035262 17.77336311 14.10573006 C14.97397176 14.11293919 12.17464321 14.113991 9.37524414 14.11352539 C8.53727295 14.11712067 7.69930176 14.12071594 6.8359375 14.12442017 C1.11405216 14.11405216 1.11405216 14.11405216 0 13 C0 8.71 0 4.42 0 0 Z " fill="#497EC1" transform="translate(25,336)"/>
<path d="M0 0 C29.7 0 59.4 0 90 0 C90 4.62 90 9.24 90 14 C60.3 14 30.6 14 0 14 C0 9.38 0 4.76 0 0 Z " fill="#4980C0" transform="translate(26,188)"/>
<path d="M0 0 C29.7 0 59.4 0 90 0 C90 4.62 90 9.24 90 14 C60.3 14 30.6 14 0 14 C0 9.38 0 4.76 0 0 Z " fill="#4A80C0" transform="translate(26,163)"/>
<path d="M0 0 C27.06 0 54.12 0 82 0 C82 4.62 82 9.24 82 14 C53.29 14 24.58 14 -5 14 C-2 4 -2 4 0 0 Z " fill="#4980C0" transform="translate(405,188)"/>
<path d="M0 0 C26.73 0 53.46 0 81 0 C86 12 86 12 86 14 C57.62 14 29.24 14 0 14 C0 9.38 0 4.76 0 0 Z " fill="#4980C1" transform="translate(281,188)"/>
<path d="M0 0 C3.01187134 -0.36076355 3.01187134 -0.36076355 6.92822266 -0.34057617 C7.64052536 -0.34101425 8.35282806 -0.34145233 9.0867157 -0.34190369 C11.44610812 -0.3398101 13.80479391 -0.31645325 16.1640625 -0.29296875 C17.79787813 -0.2873748 19.43169878 -0.28310375 21.06552124 -0.28010559 C25.36960702 -0.26864094 29.67338998 -0.23916008 33.97735596 -0.20599365 C38.36767479 -0.17532751 42.75804247 -0.16160767 47.1484375 -0.14648438 C55.76577958 -0.11429165 64.38281726 -0.06151075 73 0 C73 4.62 73 9.24 73 14 C47.26 14 21.52 14 -5 14 C-2 3 -2 3 0 0 Z " fill="#4A80C0" transform="translate(414,163)"/>
<path d="M0 0 C24.09 0 48.18 0 73 0 C77 12 77 12 77 14 C51.59 14 26.18 14 0 14 C0 9.38 0 4.76 0 0 Z " fill="#4A80C0" transform="translate(281,163)"/>
<path d="M0 0 C21.45 0 42.9 0 65 0 C65 4.62 65 9.24 65 14 C41.9 14 18.8 14 -5 14 C-1 2 -1 2 0 0 Z " fill="#4A7FC1" transform="translate(396,213)"/>
<path d="M0 0 C21.12 0 42.24 0 64 0 C69 12 69 12 69 14 C46.23 14 23.46 14 0 14 C0 9.38 0 4.76 0 0 Z " fill="#497FC1" transform="translate(307,213)"/>
<path d="M0 0 C21.12 0 42.24 0 64 0 C64 4.62 64 9.24 64 14 C42.88 14 21.76 14 0 14 C0 9.38 0 4.76 0 0 Z " fill="#4A7FC1" transform="translate(423,336)"/>
<path d="M0 0 C21.12 0 42.24 0 64 0 C64 4.62 64 9.24 64 14 C42.88 14 21.76 14 0 14 C0 9.38 0 4.76 0 0 Z " fill="#4A80C0" transform="translate(281,336)"/>
<path d="M0 0 C21.12 0 42.24 0 64 0 C64 4.62 64 9.24 64 14 C42.88 14 21.76 14 0 14 C0 9.38 0 4.76 0 0 Z " fill="#4A7FC1" transform="translate(423,311)"/>
<path d="M0 0 C21.12 0 42.24 0 64 0 C64 4.62 64 9.24 64 14 C42.88 14 21.76 14 0 14 C0 9.38 0 4.76 0 0 Z " fill="#4980C0" transform="translate(281,311)"/>
<path d="M0 0 C21.12 0 42.24 0 64 0 C61 11 61 11 59 14 C56.70944214 14.36076355 56.70944214 14.36076355 53.81591797 14.34057617 C52.19446365 14.34023628 52.19446365 14.34023628 50.54025269 14.33988953 C49.36939117 14.32440567 48.19852966 14.30892181 46.9921875 14.29296875 C45.79643097 14.28872391 44.60067444 14.28447906 43.36868286 14.28010559 C39.53722929 14.26326902 35.70629547 14.22560684 31.875 14.1875 C29.28255966 14.17245964 26.69011111 14.15877011 24.09765625 14.14648438 C17.73159252 14.11334918 11.36583338 14.0631003 5 14 C4.34760842 12.60721983 3.70339448 11.21060788 3.0625 9.8125 C2.70285156 9.03519531 2.34320313 8.25789063 1.97265625 7.45703125 C1 5 1 5 0 0 Z " fill="#497FC1" transform="translate(352,262)"/>
<path d="M0 0 C15.18 0 30.36 0 46 0 C45 5 45 5 42 14 C29.46 14 16.92 14 4 14 C0 3 0 3 0 0 Z " fill="#4A7FC1" transform="translate(361,287)"/>
<path d="M0 0 C13.86 0 27.72 0 42 0 C42 10 42 10 41 14 C27.47 14 13.94 14 0 14 C0 9.38 0 4.76 0 0 Z " fill="#4A80C1" transform="translate(229,213)"/>
<path d="M0 0 C13.2 0 26.4 0 40 0 C42 5 42 5 42 14 C28.14 14 14.28 14 0 14 C0 9.38 0 4.76 0 0 Z " fill="#4A80C0" transform="translate(230,287)"/>
<path d="M0 0 C13.2 0 26.4 0 40 0 C40 4.62 40 9.24 40 14 C26.8 14 13.6 14 0 14 C0 9.38 0 4.76 0 0 Z " fill="#4A80C1" transform="translate(153,287)"/>
<path d="M0 0 C13.2 0 26.4 0 40 0 C40 4.62 40 9.24 40 14 C26.8 14 13.6 14 0 14 C0 9.38 0 4.76 0 0 Z " fill="#4980C1" transform="translate(50,237)"/>
<path d="M0 0 C13.2 0 26.4 0 40 0 C40 4.62 40 9.24 40 14 C26.8 14 13.6 14 0 14 C0 9.38 0 4.76 0 0 Z " fill="#4980C1" transform="translate(50,213)"/>
<path d="M0 0 C12.87 0 25.74 0 39 0 C39 4.62 39 9.24 39 14 C26.13 14 13.26 14 0 14 C0 9.38 0 4.76 0 0 Z " fill="#4A80C0" transform="translate(51,287)"/>
<path d="M0 0 C12.87 0 25.74 0 39 0 C39 4.62 39 9.24 39 14 C26.13 14 13.26 14 0 14 C0 9.38 0 4.76 0 0 Z " fill="#4A80C1" transform="translate(51,262)"/>
<path d="M0 0 C12.87 0 25.74 0 39 0 C39 4.62 39 9.24 39 14 C26.13 14 13.26 14 0 14 C0 9.38 0 4.76 0 0 Z " fill="#4A80C1" transform="translate(153,213)"/>
<path d="M0 0 C12.54 0 25.08 0 38 0 C38 4.62 38 9.24 38 14 C25.46 14 12.92 14 0 14 C0 9.38 0 4.76 0 0 Z " fill="#4A80C0" transform="translate(423,287)"/>
<path d="M0 0 C12.54 0 25.08 0 38 0 C38 4.62 38 9.24 38 14 C25.46 14 12.92 14 0 14 C0 9.38 0 4.76 0 0 Z " fill="#4A80C0" transform="translate(307,287)"/>
<path d="M0 0 C12.54 0 25.08 0 38 0 C38 4.62 38 9.24 38 14 C25.46 14 12.92 14 0 14 C0 9.38 0 4.76 0 0 Z " fill="#4A80C1" transform="translate(423,262)"/>
<path d="M0 0 C12.54 0 25.08 0 38 0 C38 4.62 38 9.24 38 14 C25.46 14 12.92 14 0 14 C0 9.38 0 4.76 0 0 Z " fill="#4A80C1" transform="translate(307,262)"/>
<path d="M0 0 C9.57 0 19.14 0 29 0 C28 7 28 7 25 14 C18.4 14 11.8 14 5 14 C0 2.25 0 2.25 0 0 Z " fill="#4A80C1" transform="translate(369,311)"/>
<path d="M0 0 C3.96 0 7.92 0 12 0 C9.05357143 10.17857143 9.05357143 10.17857143 7 14 C6.01 14 5.02 14 4 14 C3.32968281 12.0429132 2.66385317 10.08428887 2 8.125 C1.62875 7.03445313 1.2575 5.94390625 0.875 4.8203125 C0 2 0 2 0 0 Z " fill="#487EC2" transform="translate(378,336)"/>
</svg>
