<?xml version="1.0" encoding="UTF-8"?>
<svg version="1.1" xmlns="http://www.w3.org/2000/svg" width="512" height="512">
<path d="M0 0 C27.39 0 54.78 0 83 0 C83.99 2.64 84.98 5.28 86 8 C87.32 5.36 88.64 2.72 90 0 C117.06 0 144.12 0 172 0 C172 4.95 172 9.9 172 15 C157.48 15 142.96 15 128 15 C127.505 12.525 127.505 12.525 127 10 C126.34 11.65 125.68 13.3 125 15 C99.26 15 73.52 15 47 15 C46.34 13.02 45.68 11.04 45 9 C44.67 10.98 44.34 12.96 44 15 C29.48 15 14.96 15 0 15 C0 10.05 0 5.1 0 0 Z " fill="#000000" transform="translate(312,235)"/>
<path d="M0 0 C52.47 0 104.94 0 159 0 C156 11 156 11 154 15 C103.18 15 52.36 15 0 15 C0 10.05 0 5.1 0 0 Z " fill="#000000" transform="translate(113,316)"/>
<path d="M0 0 C50.82 0 101.64 0 154 0 C159 13 159 13 159 15 C106.53 15 54.06 15 0 15 C0 10.05 0 5.1 0 0 Z " fill="#000000" transform="translate(113,181)"/>
<path d="M0 0 C13.8569175 -0.04647585 27.71381625 -0.08194646 41.57079601 -0.10362434 C48.00612848 -0.11403208 54.44140735 -0.12813607 60.87670898 -0.15087891 C67.094791 -0.1727149 73.31282168 -0.18459123 79.5309391 -0.18975449 C81.89541748 -0.193431 84.25989326 -0.20060998 86.62434959 -0.21146011 C126.74206671 -0.38812236 126.74206671 -0.38812236 142 14 C142.33 14.66 142.66 15.32 143 16 C95.81 16 48.62 16 0 16 C0 10.72 0 5.44 0 0 Z " fill="#000000" transform="translate(113,153)"/>
<path d="M0 0 C47.19 0 94.38 0 143 0 C135.56827991 9.28965012 124.61588334 14.1908116 112.8182373 15.53952026 C108.45032261 16.00230899 104.14514978 16.14200662 99.75585938 16.12939453 C98.9851561 16.13114685 98.21445282 16.13289917 97.4203949 16.13470459 C94.89482301 16.13907118 92.3693225 16.13619881 89.84375 16.1328125 C88.05562324 16.13348812 86.26749657 16.13446028 84.47937012 16.13571167 C80.73054124 16.13718259 76.98173624 16.13505766 73.23291016 16.13037109 C68.50530049 16.12473952 63.77774796 16.12800043 59.05014038 16.13382339 C39.34251995 16.15428679 19.68504669 16.06163827 0 15 C0 10.05 0 5.1 0 0 Z " fill="#000000" transform="translate(113,343)"/>
<path d="M0 0 C14.57757407 -0.23193687 29.15475321 -0.41016964 43.73380184 -0.51812172 C50.50392073 -0.5695891 57.27286908 -0.63969346 64.04223633 -0.75439453 C70.57795849 -0.86508347 77.11292275 -0.92288192 83.64953804 -0.94877243 C86.14031652 -0.96721701 88.63103022 -1.0032372 91.12129021 -1.05730057 C111.62339815 -1.48460353 111.62339815 -1.48460353 116.51052856 2.11700439 C120.28892986 6.15177231 121.94402009 9.86005023 124 15 C83.08 15 42.16 15 0 15 C0 10.05 0 5.1 0 0 Z " fill="#000000" transform="translate(142,262)"/>
<path d="M0 0 C40.92 0 81.84 0 124 0 C119.22748957 11.93127608 119.22748957 11.93127608 113 15 C104.69644558 16.89589256 95.85335082 16.16003327 87.40234375 15.9765625 C84.88174754 15.95789712 82.3611149 15.94366919 79.84046936 15.9336853 C73.90067293 15.89949934 67.9625395 15.82082068 62.02359539 15.72019041 C55.25715324 15.60805096 48.49061773 15.55334406 41.72347629 15.50323606 C27.81459306 15.39897102 13.90746978 15.22127516 0 15 C0 10.05 0 5.1 0 0 Z " fill="#000000" transform="translate(142,235)"/>
<path d="M0 0 C33 0 66 0 100 0 C100 5.28 100 10.56 100 16 C67 16 34 16 0 16 C0 10.72 0 5.44 0 0 Z " fill="#000000" transform="translate(0,343)"/>
<path d="M0 0 C33 0 66 0 100 0 C100 5.28 100 10.56 100 16 C67 16 34 16 0 16 C0 10.72 0 5.44 0 0 Z " fill="#000000" transform="translate(0,153)"/>
<path d="M0 0 C33 0 66 0 100 0 C100 4.95 100 9.9 100 15 C67 15 34 15 0 15 C0 10.05 0 5.1 0 0 Z " fill="#000000" transform="translate(0,316)"/>
<path d="M0 0 C33 0 66 0 100 0 C100 4.95 100 9.9 100 15 C67 15 34 15 0 15 C0 10.05 0 5.1 0 0 Z " fill="#000000" transform="translate(0,181)"/>
<path d="M0 0 C30.36 0 60.72 0 92 0 C96 10 96 10 97 15 C64.99 15 32.98 15 0 15 C0 10.05 0 5.1 0 0 Z " fill="#000000" transform="translate(284,181)"/>
<path d="M0 0 C30.36 0 60.72 0 92 0 C92 4.95 92 9.9 92 15 C60.32 15 28.64 15 -4 15 C-3 9 -3 9 0 0 Z " fill="#000000" transform="translate(420,181)"/>
<path d="M0 0 C27.06 0 54.12 0 82 0 C87 12 87 12 87 16 C58.29 16 29.58 16 0 16 C0 10.72 0 5.44 0 0 Z " fill="#000000" transform="translate(284,153)"/>
<path d="M0 0 C27.06 0 54.12 0 82 0 C82 5.28 82 10.56 82 16 C53.29 16 24.58 16 -5 16 C-2 5 -2 5 0 0 Z " fill="#000000" transform="translate(430,153)"/>
<path d="M0 0 C23.76 0 47.52 0 72 0 C72 5.28 72 10.56 72 16 C48.24 16 24.48 16 0 16 C0 10.72 0 5.44 0 0 Z " fill="#000000" transform="translate(440,343)"/>
<path d="M0 0 C23.76 0 47.52 0 72 0 C72 5.28 72 10.56 72 16 C48.24 16 24.48 16 0 16 C0 10.72 0 5.44 0 0 Z " fill="#000000" transform="translate(284,343)"/>
<path d="M0 0 C24.42 0 48.84 0 74 0 C78 12 78 12 78 15 C52.26 15 26.52 15 0 15 C0 10.05 0 5.1 0 0 Z " fill="#000000" transform="translate(312,208)"/>
<path d="M0 0 C24.09 0 48.18 0 73 0 C73 4.95 73 9.9 73 15 C47.26 15 21.52 15 -5 15 C-3.48554367 9.95181223 -1.95740073 4.89350183 0 0 Z " fill="#000000" transform="translate(411,208)"/>
<path d="M0 0 C23.76 0 47.52 0 72 0 C72 4.95 72 9.9 72 15 C48.24 15 24.48 15 0 15 C0 10.05 0 5.1 0 0 Z " fill="#000000" transform="translate(440,316)"/>
<path d="M0 0 C23.76 0 47.52 0 72 0 C72 4.95 72 9.9 72 15 C48.24 15 24.48 15 0 15 C0 10.05 0 5.1 0 0 Z " fill="#000000" transform="translate(284,316)"/>
<path d="M0 0 C22.44 0 44.88 0 68 0 C66 9 66 9 63 15 C43.86 15 24.72 15 5 15 C0 2 0 2 0 0 Z " fill="#000000" transform="translate(364,262)"/>
<path d="M0 0 C15.51 0 31.02 0 47 0 C49 5 49 5 49 15 C32.83 15 16.66 15 0 15 C0 10.05 0 5.1 0 0 Z " fill="#000000" transform="translate(224,289)"/>
<path d="M0 0 C16.17 0 32.34 0 49 0 C49 10 49 10 47 15 C31.49 15 15.98 15 0 15 C0 10.05 0 5.1 0 0 Z " fill="#000000" transform="translate(224,208)"/>
<path d="M0 0 C16.17 0 32.34 0 49 0 C47.48554367 5.04818777 45.95740073 10.10649817 44 15 C30.8 15 17.6 15 4 15 C0 3 0 3 0 0 Z " fill="#000000" transform="translate(374,289)"/>
<path d="M0 0 C14.52 0 29.04 0 44 0 C44 4.95 44 9.9 44 15 C29.48 15 14.96 15 0 15 C0 10.05 0 5.1 0 0 Z " fill="#000000" transform="translate(440,289)"/>
<path d="M0 0 C14.52 0 29.04 0 44 0 C44 4.95 44 9.9 44 15 C29.48 15 14.96 15 0 15 C0 10.05 0 5.1 0 0 Z " fill="#000000" transform="translate(312,289)"/>
<path d="M0 0 C14.52 0 29.04 0 44 0 C44 4.95 44 9.9 44 15 C29.48 15 14.96 15 0 15 C0 10.05 0 5.1 0 0 Z " fill="#000000" transform="translate(28,289)"/>
<path d="M0 0 C14.52 0 29.04 0 44 0 C44 4.95 44 9.9 44 15 C29.48 15 14.96 15 0 15 C0 10.05 0 5.1 0 0 Z " fill="#000000" transform="translate(440,262)"/>
<path d="M0 0 C14.52 0 29.04 0 44 0 C44 4.95 44 9.9 44 15 C29.48 15 14.96 15 0 15 C0 10.05 0 5.1 0 0 Z " fill="#000000" transform="translate(312,262)"/>
<path d="M0 0 C14.52 0 29.04 0 44 0 C44 4.95 44 9.9 44 15 C29.48 15 14.96 15 0 15 C0 10.05 0 5.1 0 0 Z " fill="#000000" transform="translate(28,262)"/>
<path d="M0 0 C14.52 0 29.04 0 44 0 C44 4.95 44 9.9 44 15 C29.48 15 14.96 15 0 15 C0 10.05 0 5.1 0 0 Z " fill="#000000" transform="translate(28,235)"/>
<path d="M0 0 C14.52 0 29.04 0 44 0 C44 4.95 44 9.9 44 15 C29.48 15 14.96 15 0 15 C0 10.05 0 5.1 0 0 Z " fill="#000000" transform="translate(28,208)"/>
<path d="M0 0 C14.19 0 28.38 0 43 0 C43 4.95 43 9.9 43 15 C28.81 15 14.62 15 0 15 C0 10.05 0 5.1 0 0 Z " fill="#000000" transform="translate(142,289)"/>
<path d="M0 0 C14.19 0 28.38 0 43 0 C43 4.95 43 9.9 43 15 C28.81 15 14.62 15 0 15 C0 10.05 0 5.1 0 0 Z " fill="#000000" transform="translate(142,208)"/>
<path d="M0 0 C9.9 0 19.8 0 30 0 C28 9 28 9 26 15 C19.07 15 12.14 15 5 15 C0 2.25 0 2.25 0 0 Z " fill="#000000" transform="translate(383,316)"/>
<path d="M0 0 C3.63 0 7.26 0 11 0 C9.40615011 5.36113145 7.8106711 10.70726908 6 16 C4 15 4 15 2.9296875 12.3828125 C2.58164062 11.30773437 2.23359375 10.23265625 1.875 9.125 C1.52179688 8.05507813 1.16859375 6.98515625 0.8046875 5.8828125 C0 3 0 3 0 0 Z " fill="#000000" transform="translate(393,343)"/>
</svg>
