<svg xmlns="http://www.w3.org/2000/svg" width="512" height="512" viewBox="0 0 512 512">
<g>
<path d="M 442.67 474.25 L 443.31 489.00 L 69.74 489.00 L 70.30 472.75 C71.08,449.97 74.39,436.46 84.11,416.40 C92.88,398.31 108.03,379.69 123.78,367.64 C143.59,352.49 169.98,341.75 193.10,339.42 L 199.71 338.75 L 200.36 342.87 C203.91,365.05 225.30,380.00 253.50,380.00 C271.32,380.00 284.27,374.96 295.59,363.61 C303.02,356.17 307.00,348.56 307.00,341.81 L 307.00 338.70 L 316.75 339.30 C333.98,340.37 358.01,347.82 372.64,356.63 C402.66,374.70 424.92,401.88 435.49,433.37 C439.81,446.24 441.98,458.62 442.67,474.25 ZM 330.89 192.50 C329.71,197.45 328.45,201.82 328.10,202.21 C327.76,202.61 326.18,197.88 324.60,191.71 C320.79,176.79 310.76,146.44 307.57,140.14 L 305.01 135.09 L 300.76 137.02 C297.16,138.66 294.16,138.96 281.32,138.98 C264.04,139.00 254.74,137.93 241.07,134.32 C240.50,134.17 239.96,134.02 239.44,133.89 C232.67,132.09 229.89,131.36 228.01,132.34 C226.55,133.10 225.62,134.88 223.80,138.00 C218.38,147.28 212.09,153.57 204.76,157.04 C201.32,158.67 197.72,160.00 196.76,160.00 C194.34,160.00 193.66,161.33 186.58,179.95 C183.14,188.99 179.91,196.53 179.40,196.70 C178.89,196.87 175.82,186.54 172.58,173.75 C169.33,160.96 165.36,146.45 163.74,141.50 C157.97,123.80 157.72,104.80 163.05,88.74 L 165.29 81.98 L 161.91 74.74 C159.02,68.55 158.52,66.41 158.51,60.00 C158.50,50.87 160.38,46.51 167.26,39.78 C172.60,34.54 182.42,29.46 194.00,25.94 C200.08,24.09 203.87,23.66 214.00,23.65 C229.12,23.63 240.00,26.00 252.88,32.12 C258.05,34.58 264.63,36.78 269.33,37.63 C276.06,38.84 283.58,40.96 290.25,43.54 C293.03,44.61 292.34,42.62 287.45,35.48 C282.52,28.28 282.57,28.22 290.95,31.65 C300.35,35.50 310.92,46.96 316.29,59.11 C319.04,65.34 322.15,68.10 331.83,72.95 C340.34,77.20 346.38,82.99 350.02,90.39 C355.78,102.10 355.15,110.66 346.90,132.63 C344.18,139.85 341.05,149.98 339.93,155.13 C337.73,165.29 335.54,174.47 334.01,180.00 C333.48,181.93 332.08,187.55 330.89,192.50 ZM 234.66 182.94 C232.01,183.95 211.01,184.21 206.26,183.30 C203.79,182.82 201.00,179.46 201.00,176.97 C201.00,176.09 201.92,174.39 203.04,173.19 C204.96,171.13 205.94,171.00 219.82,171.00 C236.24,171.00 239.01,171.84 238.98,176.81 C238.96,180.35 238.04,181.65 234.66,182.94 ZM 303.15 181.06 C301.25,183.41 300.67,183.51 287.34,183.72 C270.04,184.01 267.05,182.99 267.02,176.81 C266.99,171.85 269.78,171.00 286.03,171.00 C301.69,171.00 303.40,171.47 304.51,176.06 C304.93,177.82 304.51,179.39 303.15,181.06 ZM 223.43 202.43 C221.32,204.54 219.41,204.41 217.00,202.00 C214.77,199.77 214.22,192.32 216.04,188.93 C217.21,186.74 221.90,186.30 223.80,188.20 C225.61,190.01 225.34,200.52 223.43,202.43 ZM 289.44 201.78 C287.55,204.48 284.88,204.63 282.65,202.17 C280.68,199.99 280.36,190.04 282.20,188.20 C284.10,186.30 288.79,186.74 289.96,188.93 C291.51,191.83 291.21,199.25 289.44,201.78 ZM 329.00 430.00 C329.00,431.90 329.67,432.00 343.00,432.00 C356.33,432.00 357.00,431.90 357.00,430.00 C357.00,428.10 356.33,428.00 343.00,428.00 C329.67,428.00 329.00,428.10 329.00,430.00 ZM 334.00 413.50 C334.00,415.98 334.07,416.00 343.00,416.00 C351.93,416.00 352.00,415.98 352.00,413.50 C352.00,411.02 351.93,411.00 343.00,411.00 C334.07,411.00 334.00,411.02 334.00,413.50 ZM 331.19 422.25 C330.89,423.83 331.94,424.00 342.37,424.00 C353.77,424.00 355.58,423.56 354.10,421.17 C353.55,420.28 350.28,420.01 342.43,420.21 C332.97,420.46 331.48,420.73 331.19,422.25 Z" fill="rgb(19,23,25)" data-index="0" style="opacity: 1;"></path>
<path d="M 354.12 347.94 C341.73,343.31 327.83,339.99 316.75,339.30 L 307.00 338.70 L 307.00 341.81 C307.00,348.56 303.02,356.17 295.59,363.61 C284.27,374.96 271.32,380.00 253.50,380.00 C225.30,380.00 203.91,365.05 200.36,342.87 L 199.71 338.75 L 199.72 338.75 L 201.85 332.63 C205.39,322.41 206.96,314.07 207.65,301.75 C208.01,295.29 208.41,290.00 208.53,290.00 C208.66,290.00 211.34,291.56 214.50,293.46 C226.78,300.85 238.03,303.94 252.80,303.98 C268.72,304.01 282.75,300.03 294.39,292.18 L 298.71 289.27 L 299.36 300.88 C300.02,312.80 301.52,320.85 305.07,331.64 L 307.09 337.79 L 317.30 339.01 C330.50,340.59 342.74,343.56 354.12,347.94 ZM 179.00 218.36 C179.00,232.63 178.71,236.99 177.75,236.95 C175.70,236.86 165.99,231.23 161.39,227.46 C149.24,217.51 144.00,209.20 144.00,199.88 C144.00,194.95 144.45,193.56 147.30,189.83 C151.96,183.72 157.14,181.04 164.32,181.02 C167.51,181.01 171.04,181.49 172.15,182.08 C173.26,182.68 174.33,183.01 174.52,182.82 C174.86,182.48 168.81,159.19 164.62,144.32 C166.53,150.75 169.82,162.87 172.58,173.75 C175.82,186.54 178.89,196.87 179.40,196.70 C179.82,196.56 182.07,191.46 184.76,184.63 L 179.00 199.73 ZM 330.89 192.50 C332.08,187.55 333.48,181.93 334.01,180.00 C334.47,178.35 334.99,176.37 335.55,174.13 C334.67,177.85 334.01,180.77 334.01,181.01 C334.00,181.29 337.49,181.38 341.75,181.22 C351.37,180.85 355.92,183.09 360.43,190.38 C366.55,200.27 363.38,211.07 350.82,223.15 C344.71,229.03 332.21,237.00 329.10,237.00 C328.35,237.00 327.99,232.20 327.98,221.75 C327.97,212.49 327.41,203.88 326.55,199.84 C325.44,194.58 323.24,186.53 320.72,178.03 C322.27,183.15 323.64,187.93 324.60,191.71 C326.18,197.88 327.76,202.61 328.10,202.21 C328.45,201.82 329.71,197.45 330.89,192.50 ZM 209.17 154.53 C214.65,150.85 219.50,145.37 223.80,138.00 C225.62,134.88 226.55,133.10 228.01,132.34 C229.89,131.36 232.67,132.09 239.44,133.89 C239.96,134.02 240.50,134.17 241.07,134.32 C254.74,137.93 264.04,139.00 281.32,138.98 C294.16,138.96 297.16,138.66 300.76,137.02 L 305.01 135.09 L 307.57 140.14 C307.76,140.52 307.98,140.99 308.23,141.55 C308.02,141.14 307.83,140.83 307.68,140.63 C306.63,139.24 305.59,139.39 298.11,142.06 C284.58,146.88 273.90,148.31 256.00,147.70 C243.89,147.29 238.44,146.63 231.10,144.69 L 221.71 142.19 L 219.12 145.35 C217.69,147.08 215.17,149.81 213.51,151.40 C212.58,152.30 211.00,153.41 209.17,154.53 ZM 262.31 234.79 C260.56,237.15 259.49,237.54 254.15,237.80 C248.64,238.06 247.73,237.82 245.37,235.46 C242.88,232.97 242.77,232.44 243.38,226.16 L 245.01 209.59 C245.56,203.96 246.64,198.68 247.50,197.36 C250.52,192.75 258.05,193.38 259.96,198.40 C260.47,199.73 261.66,207.86 262.61,216.45 C264.31,231.93 264.31,232.11 262.31,234.79 ZM 264.71 269.49 C255.36,272.47 246.81,271.86 237.70,267.55 C228.79,263.34 220.99,253.00 226.72,253.00 C227.54,253.00 230.63,255.20 233.57,257.89 C245.48,268.78 261.06,268.83 273.18,258.03 C278.91,252.92 282.00,251.72 282.00,254.60 C282.00,258.93 272.71,266.94 264.71,269.49 ZM 434.73 431.17 C429.58,416.68 421.95,403.15 412.22,391.03 C422.20,403.37 429.66,416.67 434.73,431.17 ZM 161.53 133.50 C159.77,126.40 159.01,118.77 159.25,111.17 C159.07,118.53 159.83,126.07 161.53,133.50 ZM 401.18 378.79 C394.72,372.39 387.61,366.52 379.91,361.28 C387.43,366.30 394.51,372.13 401.18,378.79 ZM 195.09 160.55 C195.62,160.09 196.13,160.00 196.76,160.00 C197.60,160.00 200.45,158.98 203.46,157.64 C200.62,159.01 198.04,160.00 196.87,160.00 C196.32,160.00 195.65,160.22 195.09,160.55 ZM 188.32 175.38 C190.46,169.80 191.88,166.23 192.95,163.95 C191.85,166.50 190.19,170.60 188.32,175.38 Z" fill="rgb(221,127,101)" data-index="1"></path>
<path d="M 179.00 218.36 L 179.00 199.73 L 184.76 184.63 C185.35,183.14 185.96,181.57 186.58,179.95 C187.21,178.29 187.79,176.77 188.32,175.38 C190.19,170.60 191.85,166.50 192.95,163.95 C193.83,162.07 194.48,161.07 195.09,160.55 C195.65,160.22 196.32,160.00 196.87,160.00 C198.04,160.00 200.62,159.01 203.46,157.64 C203.89,157.44 204.32,157.24 204.76,157.04 C206.27,156.32 207.74,155.49 209.17,154.53 C211.00,153.41 212.58,152.30 213.51,151.40 C215.17,149.81 217.69,147.08 219.12,145.35 L 221.71 142.19 L 231.10 144.69 C238.44,146.63 243.89,147.29 256.00,147.70 C273.90,148.31 284.58,146.88 298.11,142.06 C305.59,139.39 306.63,139.24 307.68,140.63 C307.83,140.83 308.02,141.14 308.23,141.55 C310.95,147.78 316.52,164.18 320.72,178.03 L 320.72 178.03 C323.24,186.53 325.44,194.58 326.55,199.84 C327.41,203.88 327.97,212.49 327.98,221.75 C327.99,232.20 328.35,237.00 329.10,237.00 C329.43,237.00 329.87,236.91 330.39,236.74 C328.70,237.84 327.74,238.77 327.56,239.50 C327.29,240.60 326.31,244.65 325.39,248.50 C324.47,252.35 323.15,256.40 322.46,257.50 C321.77,258.60 320.87,260.62 320.46,262.00 C319.22,266.16 312.11,276.12 305.62,282.78 L 299.50 289.06 L 299.59 299.78 C299.61,302.74 299.70,305.38 299.89,307.88 C299.67,305.68 299.50,303.36 299.36,300.88 L 298.71 289.27 L 294.39 292.18 C282.75,300.03 268.72,304.01 252.80,303.98 C238.03,303.94 226.78,300.85 214.50,293.46 C211.34,291.56 208.66,290.00 208.53,290.00 C208.41,290.00 208.01,295.29 207.65,301.75 C207.46,305.21 207.19,308.36 206.84,311.33 C207.17,308.01 207.33,304.53 207.35,300.63 L 207.41 288.76 L 203.95 285.59 C191.48,274.14 183.21,259.42 180.02,243.00 C179.27,239.13 178.93,237.93 177.05,236.80 C177.33,236.89 177.57,236.94 177.75,236.95 C178.71,236.99 179.00,232.63 179.00,218.36 ZM 262.31 234.79 C264.31,232.11 264.31,231.93 262.61,216.45 C261.66,207.86 260.47,199.73 259.96,198.40 C258.05,193.38 250.52,192.75 247.50,197.36 C246.64,198.68 245.56,203.96 245.01,209.59 L 243.38 226.16 C242.77,232.44 242.88,232.97 245.37,235.46 C247.73,237.82 248.64,238.06 254.15,237.80 C259.49,237.54 260.56,237.15 262.31,234.79 ZM 234.66 182.94 C238.04,181.65 238.96,180.35 238.98,176.81 C239.01,171.84 236.24,171.00 219.82,171.00 C205.94,171.00 204.96,171.13 203.04,173.19 C201.92,174.39 201.00,176.09 201.00,176.97 C201.00,179.46 203.79,182.82 206.26,183.30 C211.01,184.21 232.01,183.95 234.66,182.94 ZM 303.15 181.06 C304.51,179.39 304.93,177.82 304.51,176.06 C303.40,171.47 301.69,171.00 286.03,171.00 C269.78,171.00 266.99,171.85 267.02,176.81 C267.05,182.99 270.04,184.01 287.34,183.72 C300.67,183.51 301.25,183.41 303.15,181.06 ZM 264.71 269.49 C272.71,266.94 282.00,258.93 282.00,254.60 C282.00,251.72 278.91,252.92 273.18,258.03 C261.06,268.83 245.48,268.78 233.57,257.89 C230.63,255.20 227.54,253.00 226.72,253.00 C220.99,253.00 228.79,263.34 237.70,267.55 C246.81,271.86 255.36,272.47 264.71,269.49 ZM 223.43 202.43 C225.34,200.52 225.61,190.01 223.80,188.20 C221.90,186.30 217.21,186.74 216.04,188.93 C214.22,192.32 214.77,199.77 217.00,202.00 C219.41,204.41 221.32,204.54 223.43,202.43 ZM 289.44 201.78 C291.21,199.25 291.51,191.83 289.96,188.93 C288.79,186.74 284.10,186.30 282.20,188.20 C280.36,190.04 280.68,199.99 282.65,202.17 C284.88,204.63 287.55,204.48 289.44,201.78 ZM 339.29 231.99 C343.37,229.35 347.73,226.09 350.68,223.29 C346.83,226.99 343.26,229.73 339.29,231.99 ZM 171.54 234.17 C169.47,233.08 167.37,231.79 165.25,230.29 C167.26,231.65 169.50,233.02 171.54,234.17 ZM 305.50 332.94 L 305.07 331.64 C304.05,328.54 303.20,325.67 302.49,322.86 C303.08,325.10 303.79,327.49 304.62,330.14 ZM 147.01 211.50 C144.95,207.73 144.00,203.96 144.00,199.88 C144.00,203.87 144.96,207.68 147.01,211.50 ZM 361.74 208.45 C364.40,202.08 363.95,196.08 360.44,190.39 C363.96,196.10 364.41,202.08 361.74,208.45 ZM 379.82 361.22 C384.92,364.62 389.82,368.39 394.53,372.54 C389.85,368.42 384.98,364.66 379.91,361.28 Z" fill="rgb(247,192,159)" data-index="2"></path>

</g>
</svg>