<?xml version="1.0" encoding="UTF-8"?>
<svg version="1.1" xmlns="http://www.w3.org/2000/svg" width="512" height="512">
<path d="M0 0 C1.39887955 -0.01475876 1.39887955 -0.01475876 2.82601929 -0.02981567 C57.57088855 -0.4880434 109.12378205 11.10344388 155.04296875 42.23828125 C155.64254395 42.64256348 156.24211914 43.0468457 156.85986328 43.46337891 C165.73960159 49.50045241 173.97969134 56.15715546 182.04296875 63.23828125 C182.90535156 63.98851562 183.76773437 64.73875 184.65625 65.51171875 C195.02233699 74.67090885 204.52811934 84.32296898 213.04296875 95.23828125 C213.831875 96.22183594 214.62078125 97.20539063 215.43359375 98.21875 C240.22782769 129.38092878 256.76018156 166.39116127 265.04296875 205.23828125 C265.26742676 206.28483887 265.49188477 207.33139648 265.72314453 208.40966797 C272.12168314 239.96040516 271.78783799 275.78966266 265.04296875 307.23828125 C264.80690918 308.3454248 264.57084961 309.45256836 264.32763672 310.59326172 C253.53897122 359.34745673 229.18840437 401.28452038 195.04296875 437.23828125 C193.86541016 438.47964844 193.86541016 438.47964844 192.6640625 439.74609375 C187.16144323 445.39636828 181.2046152 450.32669544 175.04296875 455.23828125 C173.96208984 456.15480469 173.96208984 456.15480469 172.859375 457.08984375 C132.76229096 490.68276621 77.76221825 512.16589817 25.25 512.44140625 C24.3494136 512.44842056 23.44882721 512.45543488 22.52095032 512.46266174 C19.63240494 512.48005934 16.74406459 512.48651352 13.85546875 512.48828125 C12.86842957 512.48895599 11.88139038 512.48963074 10.86444092 512.49032593 C-3.60428676 512.47459617 -17.73044345 512.11839209 -31.95703125 509.23828125 C-32.87484375 509.05604004 -33.79265625 508.87379883 -34.73828125 508.68603516 C-41.18983382 507.37446783 -47.57993243 505.87183609 -53.95703125 504.23828125 C-55.07319824 503.95645996 -55.07319824 503.95645996 -56.21191406 503.66894531 C-106.76212465 490.65441198 -154.79709583 458.1841784 -186.95703125 417.23828125 C-187.74851563 416.25214844 -188.54 415.26601563 -189.35546875 414.25 C-221.27320546 373.82422307 -242.74356882 321.23087208 -243.1953125 269.28125 C-243.20506104 268.34834641 -243.21480957 267.41544281 -243.22485352 266.45426941 C-243.39694656 245.70899062 -243.22121504 225.62358404 -238.95703125 205.23828125 C-238.76979492 204.33126465 -238.58255859 203.42424805 -238.38964844 202.48974609 C-234.23023654 183.02527884 -227.65539996 164.12663439 -218.95703125 146.23828125 C-218.30541016 144.89612549 -218.30541016 144.89612549 -217.640625 143.52685547 C-201.19518064 110.0461754 -177.43261113 79.31137861 -147.95703125 56.23828125 C-146.9721875 55.44808594 -145.98734375 54.65789063 -144.97265625 53.84375 C-104.71789546 21.82407197 -51.83223408 0.45134053 0 0 Z " fill="#FA6D51" transform="translate(242.95703125,-0.23828125)"/>
<path d="M0 0 C0.86626007 -0.0071553 1.73252014 -0.01431061 2.62503052 -0.02168274 C3.57774841 -0.02437164 4.53046631 -0.02706055 5.51205444 -0.02983093 C7.01477402 -0.03968773 7.01477402 -0.03968773 8.54785156 -0.04974365 C11.87494985 -0.06950998 15.20200287 -0.08114826 18.52914429 -0.09111023 C19.66471142 -0.09518576 20.80027855 -0.09926128 21.97025681 -0.10346031 C27.98353647 -0.12433781 33.99679322 -0.13863082 40.01010132 -0.147995 C46.21753192 -0.15904746 52.42460287 -0.19342952 58.63190651 -0.23316669 C63.40694843 -0.25933631 68.18190485 -0.26768729 72.95701218 -0.27127647 C75.24469805 -0.27614351 77.53238007 -0.28776078 79.81999588 -0.30631447 C83.02753224 -0.33070661 86.23414089 -0.32974006 89.44174194 -0.32279968 C90.38231445 -0.33560974 91.32288696 -0.3484198 92.29196167 -0.36161804 C99.30244691 -0.30649951 104.74746358 1.25057799 109.95883179 6.09248352 C113.7387756 11.95139643 114.19673522 16.73771434 114.02133179 23.51435852 C114.01005249 24.3463678 113.99877319 25.17837708 113.9871521 26.03559875 C113.95790031 28.07298585 113.91306841 30.11013908 113.86508179 32.14717102 C114.96384644 32.12098694 116.06261108 32.09480286 117.19467163 32.06782532 C121.31327549 31.97658736 125.43179208 31.91965763 129.55111694 31.87251282 C131.32600988 31.84753475 133.10080171 31.81353976 134.87533569 31.76997375 C154.47099707 31.30130993 154.47099707 31.30130993 161.86508179 37.14717102 C166.27207875 42.41406983 166.9955789 46.52575942 166.96273804 53.22529602 C166.95951538 54.38545227 166.95629272 55.54560852 166.95297241 56.74092102 C166.94459351 57.94748352 166.9362146 59.15404602 166.92758179 60.39717102 C166.92307007 61.61920227 166.91855835 62.84123352 166.91390991 64.10029602 C166.90212993 67.11597048 166.88568032 70.131546 166.86508179 73.14717102 C168.10900696 73.14050919 169.35293213 73.13384735 170.634552 73.12698364 C182.34733002 73.06621485 194.06007613 73.02121869 205.77297592 72.9917345 C211.79495556 72.97606692 217.81680811 72.95480848 223.8387146 72.92085266 C229.64827985 72.88829853 235.45772272 72.87032624 241.26737213 72.86253929 C243.48579078 72.85698871 245.70420261 72.84615003 247.92256927 72.82998085 C251.02562528 72.80825932 254.12817315 72.80520192 257.23129272 72.80659485 C258.15198547 72.79580902 259.07267822 72.78502319 260.02127075 72.77391052 C260.86818481 72.77803452 261.71509888 72.78215851 262.587677 72.78640747 C263.68829782 72.7822594 263.68829782 72.7822594 264.81115341 72.77802753 C267.70762698 73.29859795 268.89467904 73.92442505 270.86508179 76.14717102 C271.26341054 79.00673992 271.40087983 81.48435243 271.36628723 84.3462677 C271.37182163 85.19200962 271.37735602 86.03775153 271.38305813 86.90912199 C271.39671234 89.75374118 271.38166977 92.59749019 271.36679077 95.4420929 C271.37057222 97.47705459 271.37607081 99.51201371 271.38316345 101.54696655 C271.39715808 107.08204664 271.38592014 112.61681727 271.36945224 118.15188026 C271.35563194 123.93607978 271.36205836 129.72026077 271.36558533 135.50447083 C271.36828984 145.21924342 271.35479107 154.93389263 271.33163452 164.64863586 C271.30502332 175.89072551 271.30327682 187.1326088 271.31502289 198.37471914 C271.32579073 209.17573285 271.3196214 219.97667169 271.30546761 230.77767944 C271.29969918 235.3805111 271.29979721 239.98328812 271.304533 244.58612061 C271.30929467 250.00338018 271.29923474 255.42041292 271.27757835 260.83762932 C271.27199924 262.82948479 271.27155543 264.821362 271.27653122 266.81321907 C271.28245758 269.5250918 271.27003017 272.2362648 271.25276184 274.94807434 C271.25877189 275.74271575 271.26478193 276.53735717 271.2709741 277.35607862 C271.23729701 280.24971884 271.18376171 282.57048216 269.76592445 285.1362257 C266.85037788 286.68683176 264.35299472 286.5218348 261.06391907 286.52139282 C260.36856302 286.52536723 259.67320698 286.52934163 258.95677954 286.53343648 C256.62123823 286.54307926 254.28629969 286.53122994 251.95077515 286.51948547 C250.27871982 286.52191277 248.60666595 286.52563149 246.93461609 286.5305481 C242.38927264 286.53996852 237.84414409 286.53052242 233.2988174 286.51721597 C228.54848994 286.50591815 223.79817333 286.51000763 219.0478363 286.51196289 C211.07078531 286.51284631 203.09381922 286.50175476 195.11679077 286.48335266 C185.88442384 286.46217706 176.65218127 286.45867641 167.41979498 286.46491462 C158.54950051 286.47060207 149.67925 286.46497041 140.80896187 286.45374107 C137.02868401 286.4490876 133.24843295 286.44822445 129.468153 286.45032692 C125.02027072 286.45220557 120.57251567 286.44413871 116.1246624 286.42826653 C114.48875963 286.42401109 112.85284397 286.42318153 111.21693802 286.42595673 C108.99090433 286.42916109 106.76525501 286.42014142 104.53926086 286.40786743 C102.66741324 286.40478813 102.66741324 286.40478813 100.75775051 286.40164661 C97.86508179 286.14717102 97.86508179 286.14717102 95.86508179 284.14717102 C95.62457275 281.13529968 95.62457275 281.13529968 95.63803101 277.21894836 C95.63773895 276.50664566 95.6374469 275.79434296 95.637146 275.06045532 C95.63854163 272.70121668 95.65411352 270.34229213 95.66976929 267.98310852 C95.67349859 266.3492907 95.67634595 264.71547064 95.67834473 263.08164978 C95.68598769 258.77764226 95.7056418 254.47376934 95.72775269 250.16981506 C95.75179021 245.00781536 95.76098895 239.84577071 95.7726593 234.68373108 C95.79206589 226.8381174 95.83038368 218.99279914 95.86508179 211.14717102 C74.74508179 211.14717102 53.62508179 211.14717102 31.86508179 211.14717102 C32.1017115 223.29350039 32.1017115 223.29350039 32.40560913 235.43818665 C32.63914407 249.30255673 32.63914407 249.30255673 29.12289429 254.16670227 C27.46517944 255.8507843 27.46517944 255.8507843 25.86508179 257.14717102 C24.73586304 258.09656555 24.73586304 258.09656555 23.58383179 259.06513977 C5.690512 269.30339493 -13.22737821 271.68086388 -33.4828186 271.5382843 C-36.19874091 271.52216317 -38.91318039 271.53825475 -41.62905884 271.55732727 C-59.68190772 271.5795364 -80.25257475 270.06974753 -94.13491821 257.14717102 C-98.41268372 252.53168718 -100.35804842 248.29109924 -100.45376587 241.98970032 C-100.47363556 240.98904037 -100.49350525 239.98838043 -100.51397705 238.95739746 C-100.52552826 237.88951492 -100.53707947 236.82163239 -100.54898071 235.72138977 C-100.56834686 234.61866226 -100.58771301 233.51593475 -100.60766602 232.37979126 C-100.66734744 228.86482936 -100.71380196 225.34983451 -100.75991821 221.83467102 C-100.79810847 219.44858919 -100.83716081 217.06252099 -100.87710571 214.6764679 C-100.97303965 208.83349012 -101.05812069 202.99042996 -101.13491821 197.14717102 C-102.06352661 196.82965881 -102.99213501 196.51214661 -103.94888306 196.18501282 C-107.39277431 195.00443807 -110.83187233 193.81041056 -114.26968384 192.61225891 C-115.75831842 192.09555216 -117.24822815 191.58250406 -118.7394104 191.07319641 C-120.88251903 190.3405158 -123.02069867 189.59480379 -125.15835571 188.84638977 C-125.8261203 188.62126205 -126.49388489 188.39613434 -127.18188477 188.16418457 C-130.72827608 186.90677637 -131.98012413 186.37936214 -134.13491821 183.14717102 C-134.50991821 180.64717102 -134.50991821 180.64717102 -134.13491821 178.14717102 C-131.24762475 175.52601101 -128.27847004 174.30182332 -124.62295532 173.03413391 C-123.51757919 172.64685623 -122.41220306 172.25957855 -121.27333069 171.86056519 C-120.08167801 171.45112167 -118.89002533 171.04167816 -117.66226196 170.61982727 C-115.77699739 169.96229246 -113.89173285 169.30475754 -112.00647068 168.64721584 C-109.36529068 167.72812436 -106.72181443 166.81573147 -104.07839966 165.90309143 C-100.12380558 164.53608166 -96.17261711 163.15926891 -92.2209177 161.78391933 C-89.137822 160.71109311 -86.05410164 159.64014964 -82.96913147 158.57272339 C-76.70689037 156.40412632 -70.46971841 154.18782085 -64.26530457 151.8583374 C-62.13491821 151.14717102 -62.13491821 151.14717102 -60.13491821 151.14717102 C-60.12580886 144.2964194 -60.16325691 137.44703763 -60.23257446 130.59663391 C-60.2507056 128.26791642 -60.25830824 125.93909156 -60.2550354 123.61030579 C-60.2521702 120.25586855 -60.28757242 116.90364478 -60.33023071 113.54951477 C-60.32113678 112.51382858 -60.31204285 111.4781424 -60.30267334 110.41107178 C-60.42613408 104.22472265 -61.25324596 101.18458353 -65.62974548 96.79916382 C-70.45996655 91.49778527 -70.59258097 84.48710118 -70.56851196 77.67842102 C-70.57375381 76.79867615 -70.57899567 75.91893127 -70.58439636 75.01252747 C-70.59078258 73.16370188 -70.58952397 71.31483547 -70.58096313 69.46601868 C-70.57244063 66.65456704 -70.6012814 63.84514199 -70.63296509 61.03388977 C-70.63457722 59.22790079 -70.63399934 57.42190825 -70.63101196 55.61592102 C-70.64224594 54.78548279 -70.65347992 53.95504456 -70.66505432 53.09944153 C-70.58504354 46.32373476 -68.82470574 41.16724603 -64.28189087 36.06660461 C-55.53514182 30.27393481 -45.56518795 31.49143566 -35.50991821 31.77217102 C-33.62845055 31.8023134 -31.74693629 31.82968165 -29.86538696 31.85420227 C-25.2874001 31.91984849 -20.71167995 32.02313092 -16.13491821 32.14717102 C-16.16633911 31.28551331 -16.16633911 31.28551331 -16.19839478 30.40644836 C-16.28205586 27.77853728 -16.33373281 25.15090712 -16.38491821 22.52217102 C-16.41843384 21.61853821 -16.45194946 20.7149054 -16.48648071 19.78388977 C-16.57293344 13.86187796 -16.00034861 10.69423068 -12.13491821 6.14717102 C-8.44157688 2.42732245 -5.29895533 0.03000538 0 0 Z " fill="#2B2A2A" transform="translate(173.13491821289063,110.85282897949219)"/>
<path d="M0 0 C40.26 0 80.52 0 122 0 C122 62.7 122 125.4 122 190 C71.51 190 21.02 190 -31 190 C-31 137.2 -31 84.4 -31 30 C-22.09 29.67 -13.18 29.34 -4 29 C2.03921859 23.64018944 2.03921859 23.64018944 0 0 Z " fill="#E8F4FD" transform="translate(311,196)"/>
<path d="M0 0 C0.83787253 -0.00779995 1.67574506 -0.01559991 2.53900766 -0.02363622 C5.34525998 -0.04357253 8.15015863 -0.02778557 10.9564209 -0.01205444 C12.96873262 -0.01882984 14.98103815 -0.02773253 16.99333191 -0.03860474 C22.45822771 -0.06141376 27.92265195 -0.05255494 33.38755608 -0.03670931 C39.10408686 -0.02405873 44.82057702 -0.03578809 50.53710938 -0.04364014 C60.13740292 -0.05273913 69.7375042 -0.04074213 79.33776855 -0.01693726 C90.44021783 0.01027437 101.54220802 0.00146039 112.64464617 -0.02606928 C122.17344867 -0.04875213 131.70211289 -0.05196443 141.23093367 -0.03887594 C146.92362971 -0.03107694 152.6161099 -0.0300523 158.30879211 -0.04655838 C163.66055119 -0.06099175 169.01171785 -0.05100173 174.36341286 -0.0220871 C176.32862679 -0.01547028 178.2938905 -0.01738409 180.2590847 -0.02840042 C182.9399185 -0.04204399 185.61884844 -0.02495538 188.29956055 0 C189.46906494 -0.01673041 189.46906494 -0.01673041 190.66219568 -0.03379881 C194.65827733 0.03847051 196.46184112 0.48635141 199.63619232 2.9956913 C202.04622872 6.15454657 202.23882959 7.66199468 202.13806152 11.59194946 C202.12194824 12.70376587 202.10583496 13.81558228 202.0892334 14.96109009 C202.04733887 16.11157837 202.00544434 17.26206665 201.96228027 18.44741821 C201.92844238 20.20215454 201.92844238 20.20215454 201.8939209 21.99234009 C201.83510119 24.87450591 201.75295168 27.75405502 201.64978027 30.63491821 C200.91453125 30.61807983 200.17928223 30.60124146 199.42175293 30.58389282 C196.03828947 30.53312758 192.65853602 30.55234199 189.27478027 30.57241821 C187.54034668 30.53084595 187.54034668 30.53084595 185.77087402 30.48843384 C177.75313523 30.60167874 173.71329733 32.20462011 168.12438965 37.95010376 C167.30776855 38.83609253 166.49114746 39.7220813 165.64978027 40.63491821 C164.22581866 42.03383961 162.80164619 43.43258645 161.36853027 44.8221283 C159.40945439 46.72962498 157.48009552 48.66577763 155.55090332 50.60342407 C154.06093681 52.09885835 152.56555384 53.58873239 151.06970215 55.07827759 C150.11560447 56.0330344 149.16181613 56.98810047 148.20837402 57.94351196 C147.35557861 58.7974353 146.5027832 59.65135864 145.62414551 60.53115845 C142.73217426 63.61266163 142.45758609 65.63365339 142.08728027 69.75991821 C142.00349121 70.66999634 141.91970215 71.58007446 141.83337402 72.51773071 C141.77278809 73.21640259 141.71220215 73.91507446 141.64978027 74.63491821 C123.4853555 79.81488726 123.4853555 79.81488726 115.64978027 79.63491821 C115.58919434 78.70808228 115.5286084 77.78124634 115.46618652 76.82632446 C115.38239746 75.6287854 115.2986084 74.43124634 115.21228027 73.19741821 C115.13106934 72.00245728 115.0498584 70.80749634 114.96618652 69.57632446 C114.97321913 66.74921577 114.97321913 66.74921577 113.64978027 65.63491821 C110.77713971 65.53384947 107.92904399 65.49522149 105.05603027 65.50210571 C104.19417114 65.50114899 103.33231201 65.50019226 102.44433594 65.49920654 C100.61844815 65.49852472 98.79255796 65.50037917 96.9666748 65.50454712 C94.16176949 65.50989535 91.35702432 65.50460222 88.55212402 65.49819946 C86.78259242 65.49886024 85.01306091 65.50014141 83.24353027 65.50210571 C82.39875122 65.50008148 81.55397217 65.49805725 80.68359375 65.49597168 C76.85791167 65.13567311 76.85791167 65.13567311 73.64978027 66.63491821 C73.41496335 68.81784595 73.23614705 71.00694996 73.08728027 73.19741821 C72.96159668 74.99372681 72.96159668 74.99372681 72.83337402 76.82632446 C72.77278809 77.7531604 72.71220215 78.67999634 72.64978027 79.63491821 C46.89955088 78.98525646 10.47961821 66.93467664 -9.35021973 50.63491821 C-13.08060808 45.22407423 -13.95798638 41.31394159 -13.91662598 34.81460571 C-13.92282455 33.99291901 -13.92902313 33.1712323 -13.93540955 32.324646 C-13.94247462 30.59849221 -13.93939192 28.8722698 -13.92663574 27.14614868 C-13.91271817 24.50962322 -13.9469463 21.87661616 -13.98498535 19.24038696 C-13.98593622 17.55679235 -13.98407947 15.87319331 -13.97912598 14.18960571 C-13.99238419 13.40616791 -14.0056424 12.6227301 -14.01930237 11.81555176 C-13.95566069 8.0690025 -13.59091291 5.95784614 -11.33266449 2.92804909 C-7.54432922 0.01528816 -4.59058263 -0.06567085 0 0 Z " fill="#E5A64D" transform="translate(127.3502197265625,153.36508178710938)"/>
<path d="M0 0 C3.3825 1.505625 6.765 3.01125 10.25 4.5625 C29.84963111 13.12915236 50.44555143 21.12197063 71.96435547 22.75830078 C74 23 74 23 76 24 C76.26008985 26.5033648 76.42120408 28.92761831 76.5 31.4375 C76.38992942 36.7034915 76.38992942 36.7034915 79 41 C81.77335427 41.19982025 84.44469643 41.279792 87.21875 41.265625 C88.03243042 41.26753845 88.84611084 41.2694519 89.68444824 41.27142334 C91.406009 41.27278527 93.12758003 41.26908828 94.84912109 41.26074219 C97.4894917 41.25004258 100.12918189 41.260637 102.76953125 41.2734375 C104.44010567 41.27211591 106.11067967 41.26955352 107.78125 41.265625 C108.57398315 41.26967346 109.36671631 41.27372192 110.18347168 41.27789307 C114.55927427 41.41104123 114.55927427 41.41104123 118 39 C118.30599063 36.43083343 118.51087087 33.95241616 118.625 31.375 C118.66367188 30.66859375 118.70234375 29.9621875 118.7421875 29.234375 C118.83647724 27.49001476 118.91932891 25.74504309 119 24 C122.20800907 23.35254908 125.41646339 22.70733107 128.625 22.0625 C129.52863281 21.88009766 130.43226563 21.69769531 131.36328125 21.50976562 C132.24628906 21.33251953 133.12929688 21.15527344 134.0390625 20.97265625 C134.84553223 20.81031494 135.65200195 20.64797363 136.48291016 20.48071289 C139.31336917 19.94015287 142.15759276 19.47373454 145 19 C145 43.09 145 67.18 145 92 C123.88 92 102.76 92 81 92 C81.33 90.35 81.66 88.7 82 87 C84.35557139 85.75031233 86.33462336 84.93356455 88.84375 84.140625 C89.52804077 83.90591492 90.21233154 83.67120483 90.9173584 83.42938232 C93.10548886 82.68322747 95.30185942 81.96606458 97.5 81.25 C99.69571323 80.51361813 101.88941961 79.77153595 104.0826416 79.027771 C105.44850567 78.56692153 106.81624068 78.11157486 108.18591309 77.66217041 C111.34568035 76.78511021 111.34568035 76.78511021 114 75 C114.04080783 73.00041636 114.04254356 70.99954746 114 69 C107.29971954 65.87389511 100.48454032 63.30123105 93.50390625 60.875 C92.40888794 60.49083923 91.31386963 60.10667847 90.18566895 59.71087646 C86.64596922 58.47000041 83.10441319 57.23454263 79.5625 56 C74.68713208 54.29792699 69.81222331 52.59454319 64.9375 50.890625 C63.73706558 50.47145813 62.53663116 50.05229126 61.29981995 49.62042236 C54.22317065 47.14464753 47.16548622 44.62355155 40.125 42.046875 C38.5514492 41.47498991 36.97780428 40.90336369 35.40405273 40.33203125 C33.25799082 39.55290606 31.11429329 38.76940837 28.97634888 37.96826172 C27.06348897 37.25170477 25.14323191 36.55498698 23.22265625 35.859375 C21.65656616 35.27881348 21.65656616 35.27881348 20.05883789 34.68652344 C12.97984515 33.09771926 6.86761981 35.93971406 0 38 C0 25.46 0 12.92 0 0 Z " fill="#F9B655" transform="translate(124,220)"/>
<path d="M0 0 C2.75173503 0.65555786 5.41425155 1.43711162 8.09082031 2.35107422 C9.28291107 2.7568721 9.28291107 2.7568721 10.49908447 3.17086792 C11.35016785 3.46252838 12.20125122 3.75418884 13.078125 4.0546875 C13.96352966 4.35690216 14.84893433 4.65911682 15.76116943 4.9704895 C17.63418117 5.6102329 19.50691644 6.25078619 21.37939453 6.89208984 C24.22486142 7.86639242 27.07133973 8.83769257 29.91796875 9.80859375 C31.74224904 10.43211163 33.56646971 11.055804 35.390625 11.6796875 C36.23361145 11.9672995 37.0765979 12.2549115 37.94512939 12.55123901 C41.79234968 13.87045462 45.60678682 15.22859128 49.39428711 16.71118164 C57.02990786 19.44044171 63.99572215 15.69696943 71.1875 12.9375 C73.13703837 12.19062381 75.08878821 11.4494881 77.04296875 10.71484375 C77.89914795 10.38605225 78.75532715 10.05726074 79.63745117 9.71850586 C82 9 82 9 86 9 C86.029729 9.93851807 86.029729 9.93851807 86.06005859 10.89599609 C86.15514226 13.72276519 86.26488746 16.54877815 86.375 19.375 C86.4059375 20.35984375 86.436875 21.3446875 86.46875 22.359375 C86.50742188 23.30039062 86.54609375 24.24140625 86.5859375 25.2109375 C86.6173584 26.08024902 86.6487793 26.94956055 86.68115234 27.84521484 C86.81229433 30.20961794 86.81229433 30.20961794 89 32 C92.06991681 31.83557723 92.06991681 31.83557723 95 31 C96.31361698 28.37276604 96.21253909 26.27389439 96.31640625 23.3359375 C96.35830078 22.21445312 96.40019531 21.09296875 96.44335938 19.9375 C96.48267578 18.761875 96.52199219 17.58625 96.5625 16.375 C96.62727539 14.59996094 96.62727539 14.59996094 96.69335938 12.7890625 C96.79967426 9.85949672 96.90170642 6.92984412 97 4 C98.7902061 3.32942113 100.58221489 2.6636531 102.375 2 C103.37273437 1.62875 104.37046875 1.2575 105.3984375 0.875 C108 0 108 0 110 0 C110.17786517 6.29839736 110.30022795 12.59614484 110.38452148 18.89648438 C110.41966826 21.03833211 110.46739686 23.18001256 110.52807617 25.32128906 C110.61324978 28.40471677 110.65274576 31.48592088 110.68359375 34.5703125 C110.71972275 35.52366486 110.75585175 36.47701721 110.79307556 37.45925903 C110.79690195 43.97614931 110.79690195 43.97614931 108.50202942 46.92457581 C93.56507187 60.04389485 69.35679537 59.27255267 50.6875 59.375 C49.54326569 59.38691879 49.54326569 59.38691879 48.37591553 59.39907837 C32.87979077 59.5229824 15.53678563 58.45170595 2.86889648 48.5534668 C-0.5094616 45.08717782 -0.68215042 42.1711609 -0.67977905 37.45925903 C-0.64881134 36.50590668 -0.61784363 35.55255432 -0.5859375 34.5703125 C-0.57744781 33.57998016 -0.56895813 32.58964783 -0.56021118 31.56930542 C-0.52674345 28.42007606 -0.45147471 25.27344946 -0.375 22.125 C-0.34489191 19.9844121 -0.31751759 17.84378388 -0.29296875 15.703125 C-0.22697486 10.46786867 -0.1266945 5.2341203 0 0 Z " fill="#575F6C" transform="translate(84,312)"/>
<path d="M0 0 C5.17754471 2.14713712 10.51151551 3.86459192 15.81640625 5.66796875 C18.36236611 6.53925798 20.90803261 7.41134205 23.453125 8.28515625 C24.44804207 8.62660172 24.44804207 8.62660172 25.46305847 8.97494507 C33.86879939 11.8654644 42.24871686 14.82936216 50.62890625 17.79296875 C51.7729895 18.19745239 51.7729895 18.19745239 52.94018555 18.61010742 C57.232771 20.12795078 61.5248304 21.64727273 65.81640625 23.16796875 C65.81640625 23.82796875 65.81640625 24.48796875 65.81640625 25.16796875 C61.79837895 26.58004892 57.77816423 27.98566297 53.75585938 29.38549805 C52.38969021 29.8619447 51.02411893 30.34010955 49.65917969 30.82006836 C47.68972464 31.51225274 45.71815548 32.19809533 43.74609375 32.8828125 C42.56257324 33.296521 41.37905273 33.71022949 40.15966797 34.13647461 C37.03890848 35.0993203 34.04677162 35.71847051 30.81640625 36.16796875 C30.59597656 35.21921875 30.37554687 34.27046875 30.1484375 33.29296875 C29.14277997 30.03680002 29.14277997 30.03680002 26.515625 28.91796875 C25.52175781 28.67046875 24.52789062 28.42296875 23.50390625 28.16796875 C22.34761719 27.86375 21.19132812 27.55953125 20 27.24609375 C19.34499512 27.08173828 18.68999023 26.91738281 18.01513672 26.74804688 C15.52286331 26.09052504 13.06564421 25.34609738 10.6015625 24.58984375 C8.7565785 24.03232674 6.91152633 23.47503525 5.06640625 22.91796875 C3.75482544 22.51191406 3.75482544 22.51191406 2.41674805 22.09765625 C-3.31075662 20.41841053 -8.21066359 19.81102073 -14.18359375 20.16796875 C-14.67859375 20.66296875 -14.67859375 20.66296875 -15.18359375 21.16796875 C-14.8962932 23.50741611 -14.56422596 25.84188305 -14.18359375 28.16796875 C-13.61552002 28.3287793 -13.04744629 28.48958984 -12.4621582 28.65527344 C-1.6668369 31.71502083 9.11465755 34.79264912 19.81640625 38.16796875 C19.81640625 39.15796875 19.81640625 40.14796875 19.81640625 41.16796875 C15.65436764 42.66038515 11.48606205 44.13448204 7.31640625 45.60546875 C6.14335937 46.02634766 4.9703125 46.44722656 3.76171875 46.88085938 C-12.18247152 52.47924079 -12.18247152 52.47924079 -20.99609375 48.98046875 C-22.20652344 48.51382813 -23.41695313 48.0471875 -24.6640625 47.56640625 C-25.82550781 47.10492188 -26.98695312 46.6434375 -28.18359375 46.16796875 C-30.05585904 45.47305586 -31.93065382 44.78489709 -33.80859375 44.10546875 C-35.12150391 43.6259375 -35.12150391 43.6259375 -36.4609375 43.13671875 C-40.34028935 41.75640417 -44.24923827 40.47105242 -48.1640625 39.1953125 C-51.86974327 37.93451814 -55.52329802 36.55396215 -59.18359375 35.16796875 C-73.54060206 29.74326908 -73.54060206 29.74326908 -88.18359375 25.16796875 C-88.18359375 24.50796875 -88.18359375 23.84796875 -88.18359375 23.16796875 C-84.2885326 21.81157425 -80.39253341 20.45789814 -76.49609375 19.10546875 C-75.32393311 18.6986084 -74.15177246 18.29174805 -72.9440918 17.87255859 C-64.63588731 14.99679317 -56.30949109 12.18322818 -47.94848633 9.46459961 C-43.24012928 7.91812186 -38.74131204 6.12340902 -34.18359375 4.16796875 C-30.68379694 2.87497351 -27.1564656 1.67219508 -23.62109375 0.48046875 C-22.70134766 0.16013672 -21.78160156 -0.16019531 -20.83398438 -0.49023438 C-12.66736626 -3.24375263 -7.9503475 -3.3768242 0 0 Z " fill="#4A4F5A" transform="translate(150.18359375,267.83203125)"/>
<path d="M0 0 C1.24897316 -0.02114868 1.24897316 -0.02114868 2.5231781 -0.04272461 C3.42306961 -0.03260345 4.32296112 -0.0224823 5.25012207 -0.01205444 C6.20842422 -0.02081604 7.16672638 -0.02957764 8.15406799 -0.03860474 C11.31740785 -0.06058654 14.47934647 -0.04604974 17.6427002 -0.02914429 C19.84318307 -0.03251275 22.04366412 -0.03736563 24.24414062 -0.04364014 C28.85422493 -0.05100985 33.4638246 -0.04030231 38.07385254 -0.01693726 C43.98241501 0.01155 49.88984193 -0.00485336 55.79836273 -0.03479958 C60.34174146 -0.05286954 64.88485107 -0.04711577 69.42823792 -0.03416061 C71.6067366 -0.0308258 73.78525973 -0.03491629 75.96372986 -0.04655838 C79.00907073 -0.05926162 82.05257427 -0.03989624 85.09777832 -0.01205444 C86.44761559 -0.02723618 86.44761559 -0.02723618 87.82472229 -0.04272461 C88.65737106 -0.02862549 89.49001984 -0.01452637 90.34790039 0 C91.06685738 0.00188513 91.78581436 0.00377026 92.52655792 0.00571251 C94.6739502 0.63491821 94.6739502 0.63491821 99.6739502 5.63491821 C99.6739502 10.91491821 99.6739502 16.19491821 99.6739502 21.63491821 C63.7039502 21.63491821 27.7339502 21.63491821 -9.3260498 21.63491821 C-9.3260498 0.0244532 -9.3260498 0.0244532 0 0 Z " fill="#F76C51" transform="translate(176.3260498046875,121.36508178710938)"/>
<path d="M0 0 C1.04671875 -0.02449219 2.0934375 -0.04898438 3.171875 -0.07421875 C11.30598913 -0.10472168 17.52944868 1.19975086 23.80859375 6.55859375 C24.42863281 7.30238281 25.04867187 8.04617187 25.6875 8.8125 C26.32558594 9.55371094 26.96367187 10.29492188 27.62109375 11.05859375 C31.39765423 16.42909822 31.58807243 21.12735112 31.5625 27.5 C31.57861328 28.31082031 31.59472656 29.12164062 31.61132812 29.95703125 C31.61197266 30.73691406 31.61261719 31.51679688 31.61328125 32.3203125 C31.61626221 33.02687988 31.61924316 33.73344727 31.62231445 34.46142578 C31.12358332 37.02474027 30.30625148 37.77975408 28.25 39.375 C25.82141113 39.75595093 25.82141113 39.75595093 22.90820312 39.76318359 C21.81697144 39.77264008 20.72573975 39.78209656 19.60144043 39.7918396 C18.42327759 39.78576691 17.24511475 39.77969421 16.03125 39.7734375 C14.21711609 39.77774277 14.21711609 39.77774277 12.36633301 39.78213501 C9.80753105 39.78417786 7.24871355 39.77863268 4.68994141 39.76611328 C0.76559646 39.75006379 -3.15771847 39.76595562 -7.08203125 39.78515625 C-9.56510645 39.78317386 -12.048181 39.77933027 -14.53125 39.7734375 C-16.29849426 39.78254654 -16.29849426 39.78254654 -18.10144043 39.7918396 C-19.19267212 39.78238312 -20.28390381 39.77292664 -21.40820312 39.76318359 C-22.36956177 39.76079681 -23.33092041 39.75841003 -24.32141113 39.75595093 C-26.75 39.375 -26.75 39.375 -28.55456543 38.09317017 C-30.67807397 35.04110098 -30.27914251 31.40139978 -30.25 27.8125 C-30.24355469 27.00200195 -30.23710937 26.19150391 -30.23046875 25.35644531 C-29.99849493 17.73488444 -28.45037367 11.92616505 -22.8125 6.515625 C-15.48155258 0.68418955 -9.14695483 0.01110067 0 0 Z " fill="#2A2A2A" transform="translate(355.75,243.625)"/>
<path d="M0 0 C1.06669922 0.01611328 2.13339844 0.03222656 3.23242188 0.04882812 C4.33521484 0.09072266 5.43800781 0.13261719 6.57421875 0.17578125 C8.25741211 0.20961914 8.25741211 0.20961914 9.97460938 0.24414062 C12.73834411 0.30294349 15.49934429 0.38507724 18.26171875 0.48828125 C18.1016333 1.14731445 17.94154785 1.80634766 17.77661133 2.48535156 C17.14407273 6.17441024 17.06102371 9.80338612 17.0234375 13.53515625 C17.01536575 14.30579407 17.00729401 15.07643188 16.99897766 15.87042236 C16.98518944 17.49757676 16.97444392 19.12475944 16.96655273 20.75195312 C16.95504606 22.40243105 16.93461485 24.05287215 16.9050293 25.703125 C16.7152477 36.30544892 16.57739855 44.63701909 23.47265625 53.25 C27.05739111 56.12682503 30.80242066 58.21469487 34.88671875 60.30078125 C35.71486084 60.7294751 36.54300293 61.15816895 37.39624023 61.59985352 C49.20384383 67.61336656 61.41767155 73.11935084 74.26171875 76.48828125 C74.26171875 73.84828125 74.26171875 71.20828125 74.26171875 68.48828125 C74.59171875 68.48828125 74.92171875 68.48828125 75.26171875 68.48828125 C75.26171875 72.11828125 75.26171875 75.74828125 75.26171875 79.48828125 C49.24760765 78.34059988 13.41940089 67.05752152 -6.73828125 50.48828125 C-10.46866961 45.07743726 -11.3460479 41.16730462 -11.3046875 34.66796875 C-11.31088608 33.84628204 -11.31708466 33.02459534 -11.32347107 32.17800903 C-11.33053614 30.45185524 -11.32745345 28.72563283 -11.31469727 26.99951172 C-11.30077969 24.36298625 -11.33500782 21.72997919 -11.37304688 19.09375 C-11.37399774 17.41015539 -11.37214099 15.72655635 -11.3671875 14.04296875 C-11.38044571 13.25953094 -11.39370392 12.47609314 -11.40736389 11.66891479 C-11.34057548 7.73711933 -10.88777656 5.69423062 -8.55761719 2.48413086 C-5.34213902 0.2078463 -3.88982656 -0.10400606 0 0 Z " fill="#CC9445" transform="translate(124.73828125,153.51171875)"/>
<path d="M0 0 C4.38657936 2.57144307 7.03407188 5.67686636 8.6875 10.5 C9.64026041 17.25363796 9.57205213 23.79768421 6.03515625 29.78125 C3.02334243 33.62240386 -1.17178177 38.0438791 -6.1953125 38.7734375 C-11.50591391 39.01398739 -15.1658906 38.29285199 -19.515625 35.15234375 C-25.20429783 29.92123808 -26.65829391 24.56893595 -27 16.9375 C-26.79433957 11.07911575 -26.04636286 7.27343469 -22.0078125 2.953125 C-15.62282055 -2.51972524 -7.71819011 -3.28278407 0 0 Z " fill="#2C2C2C" transform="translate(365.3125,203.5)"/>
<path d="M0 0 C0.84127441 -0.00563965 1.68254883 -0.0112793 2.54931641 -0.01708984 C3.93642822 -0.01101715 3.93642822 -0.01101715 5.3515625 -0.00482178 C6.32399902 -0.00832642 7.29643555 -0.01183105 8.29833984 -0.01544189 C11.5244859 -0.02427073 14.75041407 -0.01840596 17.9765625 -0.01165771 C20.21093793 -0.01300403 22.44531308 -0.01494428 24.6796875 -0.01745605 C29.36721581 -0.02040888 34.05466802 -0.01610455 38.7421875 -0.0067749 C44.76178038 0.00461968 50.78119492 -0.00193894 56.80078125 -0.01391983 C61.41602938 -0.02113413 66.03123499 -0.01885248 70.64648438 -0.01366425 C72.86653667 -0.01232656 75.08659278 -0.0139796 77.30664062 -0.01862335 C80.40505254 -0.0236815 83.50317243 -0.0159883 86.6015625 -0.00482178 C87.52630371 -0.00887024 88.45104492 -0.0129187 89.40380859 -0.01708984 C90.66572021 -0.00863037 90.66572021 -0.00863037 91.953125 0 C92.68611816 0.00075405 93.41911133 0.0015081 94.17431641 0.002285 C95.9765625 0.25396729 95.9765625 0.25396729 97.9765625 2.25396729 C98.53639392 7.51638264 98.53639392 7.51638264 96.71084595 9.9215641 C94.59748764 11.54520028 93.55727489 11.63074514 90.91552734 11.63491821 C90.09115173 11.64337769 89.26677612 11.65183716 88.41741943 11.66055298 C87.51654602 11.65448029 86.61567261 11.64840759 85.6875 11.64215088 C84.73603088 11.64740784 83.78456177 11.65266479 82.80426025 11.65808105 C79.65319494 11.67130537 76.50263312 11.66253424 73.3515625 11.65240479 C71.16585188 11.65442482 68.98014191 11.65733566 66.79443359 11.66110229 C62.21119782 11.66552895 57.6281373 11.65908351 53.04492188 11.64508057 C47.16325938 11.62798863 41.28200753 11.63782796 35.40036011 11.65579796 C30.88628024 11.6666265 26.3722981 11.6631937 21.85821533 11.65541458 C19.68922884 11.65341001 17.52023354 11.65588083 15.35125732 11.66285324 C12.32247332 11.67045232 9.29435899 11.65888492 6.265625 11.64215088 C5.36475159 11.64822357 4.46387817 11.65429626 3.53570557 11.66055298 C2.71132996 11.65209351 1.88695435 11.64363403 1.03759766 11.63491821 C-0.03643814 11.6332216 -0.03643814 11.6332216 -1.13217163 11.63149071 C-3.61469618 11.13594369 -4.50702179 10.25186326 -6.0234375 8.25396729 C-6.3359375 5.19146729 -6.3359375 5.19146729 -6.0234375 2.25396729 C-3.65539257 -0.11407764 -3.21114107 0.00330339 0 0 Z " fill="#2B2C2C" transform="translate(322.0234375,360.74603271484375)"/>
<path d="M0 0 C0.91381943 0.00404846 1.82763885 0.00809692 2.76914978 0.01226807 C3.73022644 0.00876343 4.6913031 0.00525879 5.6815033 0.00164795 C8.87037805 -0.0071815 12.05903238 -0.00131544 15.24790955 0.00543213 C17.4574691 0.00408572 19.66702837 0.00214539 21.87658691 -0.00036621 C26.51284092 -0.00331921 31.14901798 0.00098543 35.78526306 0.01031494 C41.73525597 0.02170288 47.68506833 0.01515522 53.63505459 0.00317001 C58.19973109 -0.0040495 62.76436465 -0.00176011 67.32904243 0.0034256 C69.52314843 0.00476219 71.7172583 0.00311407 73.91135979 -0.00153351 C76.97604099 -0.00659944 80.04042804 0.00111289 83.10508728 0.01226807 C84.47278008 0.00619537 84.47278008 0.00619537 85.86810303 0 C86.70233795 0.00563965 87.53657288 0.0112793 88.39608765 0.01708984 C89.48313319 0.01822092 89.48313319 0.01822092 90.59213924 0.01937485 C92.5018158 0.27105713 92.5018158 0.27105713 95.5018158 2.27105713 C96.1577835 7.4094708 96.1577835 7.4094708 94.23219299 9.93865395 C92.12150476 11.56389942 91.08142016 11.64783673 88.44078064 11.65200806 C87.61640503 11.66046753 86.79202942 11.668927 85.94267273 11.67764282 C85.04179932 11.67157013 84.1409259 11.66549744 83.2127533 11.65924072 C82.26128418 11.66449768 81.30981506 11.66975464 80.32951355 11.6751709 C77.17844824 11.68839521 74.02788641 11.67962408 70.8768158 11.66949463 C68.69110517 11.67151466 66.5053952 11.67442551 64.31968689 11.67819214 C59.73645111 11.68261879 55.1533906 11.67617335 50.57017517 11.66217041 C44.68851267 11.64507847 38.80726083 11.65491781 32.9256134 11.6728878 C28.41153354 11.68371634 23.8975514 11.68028355 19.38346863 11.67250443 C17.21448213 11.67049985 15.04548683 11.67297068 12.87651062 11.67994308 C9.84772661 11.68754216 6.81961229 11.67597477 3.7908783 11.65924072 C2.89000488 11.66531342 1.98913147 11.67138611 1.06095886 11.67764282 C0.23658325 11.66918335 -0.58779236 11.66072388 -1.43714905 11.65200806 C-2.51118484 11.65031144 -2.51118484 11.65031144 -3.60691833 11.64858055 C-6.08944288 11.15303353 -6.9817685 10.2689531 -8.4981842 8.27105713 C-8.8106842 5.20855713 -8.8106842 5.20855713 -8.4981842 2.27105713 C-5.79303611 -0.43409096 -3.67474795 0.02492652 0 0 Z " fill="#292929" transform="translate(324.49818420410156,338.72894287109375)"/>
<path d="M0 0 C0.82437561 -0.00708481 1.64875122 -0.01416962 2.49810791 -0.02146912 C3.39898132 -0.0189917 4.29985474 -0.01651428 5.22802734 -0.01396179 C6.17949646 -0.01907272 7.13096558 -0.02418365 8.11126709 -0.02944946 C11.26222998 -0.04337101 14.41297482 -0.04238693 17.56396484 -0.04008484 C19.74967531 -0.04397001 21.93538502 -0.0483043 24.12109375 -0.05307007 C28.70428921 -0.06053754 33.28740765 -0.06023691 37.87060547 -0.05497742 C43.75224821 -0.04917839 49.63357651 -0.06612186 55.51516724 -0.08932209 C60.02923434 -0.10403175 64.54322519 -0.10493497 69.05731201 -0.10181236 C71.22630436 -0.10232685 73.39530083 -0.10758827 75.56427002 -0.11762428 C78.59302401 -0.12991936 81.62115875 -0.12323894 84.64990234 -0.11161804 C85.55077576 -0.11926178 86.45164917 -0.12690552 87.37982178 -0.13478088 C88.61638519 -0.12425941 88.61638519 -0.12425941 89.87792969 -0.11352539 C90.59395355 -0.11369313 91.30997742 -0.11386087 92.04769897 -0.1140337 C94.548618 0.38149138 95.45304323 1.21059428 96.93896484 3.26069641 C96.75146484 6.88569641 96.75146484 6.88569641 95.93896484 10.26069641 C92.50170427 11.9793267 88.54629593 11.4078555 84.76342773 11.40596008 C83.3364431 11.410998 83.3364431 11.410998 81.88063049 11.4161377 C78.72428088 11.42566544 75.56798421 11.42759169 72.41162109 11.42866516 C70.22448199 11.43187635 68.03734311 11.43524031 65.85020447 11.43875122 C61.26105247 11.44474697 56.67191931 11.44659065 52.08276367 11.44599915 C46.19331766 11.44589747 40.30399207 11.45955348 34.41457462 11.47677135 C29.89622947 11.48787248 25.3779136 11.48991894 20.8595562 11.48938942 C18.68777488 11.49057224 16.51599288 11.49501085 14.34422493 11.50272179 C11.31069552 11.51248412 8.27742986 11.50965856 5.24389648 11.50361633 C4.34145203 11.50923584 3.43900757 11.51485535 2.50921631 11.52064514 C1.68339554 11.51645065 0.85757477 11.51225616 0.00672913 11.50793457 C-0.71059356 11.50847934 -1.42791624 11.50902411 -2.16697598 11.50958538 C-4.06103516 11.26069641 -4.06103516 11.26069641 -7.06103516 9.26069641 C-7.43603516 5.76069641 -7.43603516 5.76069641 -7.06103516 2.26069641 C-4.01321687 0.22881755 -3.42244729 0.0098123 0 0 Z " fill="#282828" transform="translate(323.06103515625,316.7393035888672)"/>
<path d="M0 0 C0.82437561 -0.00845947 1.64875122 -0.01691895 2.49810791 -0.02563477 C3.39898132 -0.01956207 4.29985474 -0.01348938 5.22802734 -0.00723267 C6.17949646 -0.01248962 7.13096558 -0.01774658 8.11126709 -0.02316284 C11.2623324 -0.03638716 14.41289423 -0.02761603 17.56396484 -0.01748657 C19.74967547 -0.0195066 21.93538544 -0.02241745 24.12109375 -0.02618408 C28.70432953 -0.03061074 33.28739004 -0.02416529 37.87060547 -0.01016235 C43.75226797 0.00692959 49.63351981 -0.00290975 55.51516724 -0.02087975 C60.0292471 -0.03170829 64.54322924 -0.02827549 69.05731201 -0.02049637 C71.22629851 -0.01849179 73.39529381 -0.02096262 75.56427002 -0.02793503 C78.59305403 -0.0355341 81.62116835 -0.02396671 84.64990234 -0.00723267 C85.55077576 -0.01330536 86.45164917 -0.01937805 87.37982178 -0.02563477 C88.20419739 -0.01717529 89.028573 -0.00871582 89.87792969 0 C90.59395355 0.00113108 91.30997742 0.00226215 92.04769897 0.00342751 C94.53022352 0.49897452 95.42254914 1.38305495 96.93896484 3.38095093 C97.25146484 6.44345093 97.25146484 6.44345093 96.93896484 9.38095093 C94.57091992 11.74899586 94.12666841 11.63161482 90.91552734 11.63491821 C90.07425293 11.64055786 89.23297852 11.64619751 88.36621094 11.65200806 C87.44146973 11.64795959 86.51672852 11.64391113 85.56396484 11.63973999 C84.59152832 11.64324463 83.6190918 11.64674927 82.6171875 11.65036011 C79.39104144 11.65918894 76.16511327 11.65332417 72.93896484 11.64657593 C70.70458941 11.64792225 68.47021427 11.6498625 66.23583984 11.65237427 C61.54831153 11.6553271 56.86085933 11.65102277 52.17333984 11.64169312 C46.15374697 11.63029854 40.13433242 11.63685716 34.11474609 11.64883804 C29.49949796 11.65605234 24.88429236 11.65377069 20.26904297 11.64858246 C18.04899067 11.64724477 15.82893456 11.64889782 13.60888672 11.65354156 C10.51047481 11.65859972 7.41235491 11.65090652 4.31396484 11.63973999 C2.92685303 11.64581268 2.92685303 11.64581268 1.51171875 11.65200806 C0.67044434 11.64636841 -0.17083008 11.64072876 -1.03759766 11.63491821 C-2.1370874 11.63378714 -2.1370874 11.63378714 -3.25878906 11.63263321 C-5.06103516 11.38095093 -5.06103516 11.38095093 -7.06103516 9.38095093 C-7.62086658 4.11853557 -7.62086658 4.11853557 -5.7953186 1.71335411 C-3.68196029 0.08971794 -2.64174755 0.00417307 0 0 Z " fill="#2B2C2C" transform="translate(323.06103515625,294.6190490722656)"/>
<path d="M0 0 C8.58 0 17.16 0 26 0 C26 0.33 26 0.66 26 1 C18.74 1 11.48 1 4 1 C4 53.47 4 105.94 4 160 C2.68 160 1.36 160 0 160 C0 107.2 0 54.4 0 0 Z " fill="#D4DEE7" transform="translate(280,226)"/>
<path d="M0 0 C1.30904297 -0.0299707 1.30904297 -0.0299707 2.64453125 -0.06054688 C8.6629257 -0.05602177 12.19656236 0.95216044 17.125 4.4375 C21.01256611 8.9520929 20.125 10.7849423 20.125 17.4375 C7.255 17.4375 -5.615 17.4375 -18.875 17.4375 C-18.875 8.08614865 -18.875 8.08614865 -14.875 3.4375 C-10.24587298 -0.30861435 -5.6873521 -0.04579859 0 0 Z " fill="#F54554" transform="translate(355.875,254.5625)"/>
<path d="M0 0 C5.28 2.31 10.56 4.62 16 7 C16 15.58 16 24.16 16 33 C8.08 35.475 8.08 35.475 0 38 C0 25.46 0 12.92 0 0 Z " fill="#E5A64D" transform="translate(124,220)"/>
<path d="M0 0 C6.93 0 13.86 0 21 0 C21 7.26 21 14.52 21 22 C14.07 22 7.14 22 0 22 C0 14.74 0 7.48 0 0 Z " fill="#58606D" transform="translate(211,229)"/>
<path d="M0 0 C3.3 0 6.6 0 10 0 C10 6.93 10 13.86 10 21 C13.63 21 17.26 21 21 21 C21 21.33 21 21.66 21 22 C14.07 22 7.14 22 0 22 C0 14.74 0 7.48 0 0 Z " fill="#4F5662" transform="translate(211,229)"/>
<path d="M0 0 C2.375 1.5 2.375 1.5 4 4 C4.4827109 8.34439813 4.42711218 10.88476263 2.875 14.9375 C1 17 1 17 -2 18 C-5 18 -5 18 -6.8125 16.75 C-8.84655455 13.75244592 -9.17945238 11.02738088 -9.25 7.5 C-9.27578125 6.7265625 -9.3015625 5.953125 -9.328125 5.15625 C-8.52016924 -0.15317359 -4.74457218 -0.67779603 0 0 Z " fill="#F5C09A" transform="translate(359,213)"/>
<path d="M0 0 C1.051875 -0.00515625 2.10375 -0.0103125 3.1875 -0.015625 C6 0.25 6 0.25 9 2.25 C9.375 5.75 9.375 5.75 9 9.25 C5.41717765 11.63854824 3.68606967 11.51898802 -0.5625 11.5 C-2.29693359 11.50773437 -2.29693359 11.50773437 -4.06640625 11.515625 C-7 11.25 -7 11.25 -9 9.25 C-9.3125 5.75 -9.3125 5.75 -9 2.25 C-5.53767506 -0.05821663 -4.08201684 -0.02000989 0 0 Z " fill="#2C2D2D" transform="translate(302,316.75)"/>
<path d="M0 0 C1.15628906 0.00515625 2.31257813 0.0103125 3.50390625 0.015625 C4.65761719 0.01046875 5.81132812 0.0053125 7 0 C10.06640625 0.265625 10.06640625 0.265625 13.06640625 2.265625 C13.45562643 5.31451637 13.69959927 7.3438338 11.91796875 9.9375 C9.27597437 11.83260146 7.28376759 11.62938198 4.06640625 11.578125 C2.48859375 11.57232422 2.48859375 11.57232422 0.87890625 11.56640625 C-1.93359375 11.265625 -1.93359375 11.265625 -4.93359375 9.265625 C-5.24609375 5.765625 -5.24609375 5.765625 -4.93359375 2.265625 C-2.93359375 0.265625 -2.93359375 0.265625 0 0 Z " fill="#2C2D2D" transform="translate(297.93359375,338.734375)"/>
<path d="M0 0 C1.051875 -0.01675781 2.10375 -0.03351563 3.1875 -0.05078125 C6 0.3125 6 0.3125 7.85546875 1.640625 C9.61286826 4.20774783 9.32126298 6.29262797 9 9.3125 C7 11.3125 7 11.3125 3.8125 11.578125 C1.9253125 11.57039063 1.9253125 11.57039063 0 11.5625 C-1.258125 11.56765625 -2.51625 11.5728125 -3.8125 11.578125 C-7 11.3125 -7 11.3125 -9 9.3125 C-9.3125 5.8125 -9.3125 5.8125 -9 2.3125 C-5.55324591 0.01466394 -4.06671888 0.01495117 0 0 Z " fill="#2E2E2E" transform="translate(302,294.6875)"/>
<path d="M0 0 C1.8871875 0.00773437 1.8871875 0.00773437 3.8125 0.015625 C5.070625 0.01046875 6.32875 0.0053125 7.625 0 C10.8125 0.265625 10.8125 0.265625 12.8125 2.265625 C13.36512165 7.46026853 13.36512165 7.46026853 11.66796875 9.93359375 C9.02772301 11.82901227 7.03093304 11.66428995 3.8125 11.640625 C2.760625 11.64835937 1.70875 11.65609375 0.625 11.6640625 C-2.1875 11.265625 -2.1875 11.265625 -4.04296875 9.93359375 C-5.80239853 7.36951007 -5.5085598 5.2835871 -5.1875 2.265625 C-3.1875 0.265625 -3.1875 0.265625 0 0 Z " fill="#2D2D2D" transform="translate(298.1875,360.734375)"/>
<path d="M0 0 C0 3.63 0 7.26 0 11 C-3.63 11 -7.26 11 -11 11 C-1.69230769 0 -1.69230769 0 0 0 Z " fill="#CCD6DF" transform="translate(299,204)"/>
<path d="M0 0 C1.125 3.75 1.125 3.75 0 6 C-0.22467831 7.53668865 -0.40796805 9.07968054 -0.5625 10.625 C-0.64628906 11.44226563 -0.73007812 12.25953125 -0.81640625 13.1015625 C-0.87699219 13.72804688 -0.93757813 14.35453125 -1 15 C-2.32 15 -3.64 15 -5 15 C-5.42277492 8.86976372 -4.99795398 5.96715495 -1 1 C-0.67 0.67 -0.34 0.34 0 0 Z " fill="#D63F4B" transform="translate(342,257)"/>
</svg>
