<?xml version="1.0" encoding="UTF-8"?>
<svg version="1.1" xmlns="http://www.w3.org/2000/svg" width="242" height="268">
<path d="M0 0 C79.86 0 159.72 0 242 0 C242 88.44 242 176.88 242 268 C162.14 268 82.28 268 0 268 C0 179.56 0 91.12 0 0 Z " fill="#6F44E1" transform="translate(0,0)"/>
<path d="M0 0 C79.86 0 159.72 0 242 0 C242 88.44 242 176.88 242 268 C162.14 268 82.28 268 0 268 C0 179.56 0 91.12 0 0 Z M4 5 C3.89680638 6.92101267 3.86477658 8.84586277 3.85955811 10.76963806 C3.85384796 12.02395126 3.84813782 13.27826447 3.84225464 14.57058716 C3.84100904 15.97405996 3.839884 17.37753287 3.83886719 18.78100586 C3.83424078 20.24946722 3.82921637 21.71792737 3.82382202 23.18638611 C3.81066173 27.19153952 3.80424373 31.19667612 3.79981136 35.20184779 C3.79688091 37.70978378 3.79277572 40.21771519 3.78830719 42.72564888 C3.77461052 50.5873557 3.76495969 58.44905205 3.7611053 66.31076998 C3.75664658 75.35453723 3.7392105 84.39815169 3.7101047 93.44187254 C3.68835623 100.44594083 3.67839373 107.44996661 3.67706418 114.45406824 C3.67602369 118.62865318 3.67028164 122.80309492 3.65224457 126.97764397 C3.49126857 166.49547257 10.10992319 197.85903331 37 228 C37.59554687 228.66902344 38.19109375 229.33804688 38.8046875 230.02734375 C56.28637281 248.50922499 83.44253159 262.07238277 109.02783203 263.12451172 C129.74279738 263.70478834 129.74279738 263.70478834 150 260 C151.17304688 259.68289063 152.34609375 259.36578125 153.5546875 259.0390625 C183.77103927 250.03165109 209.03812333 228.89351617 224.0234375 201.33203125 C227.64727531 194.44552618 230.70825064 187.43363841 233 180 C233.51394318 178.40504196 233.51394318 178.40504196 234.03826904 176.77786255 C238.54262942 161.04102703 237.51512235 144.47548281 237.40557575 128.27011251 C237.38029568 123.88999033 237.37819941 119.50985308 237.37347412 115.12966919 C237.36112152 106.86407854 237.32840628 98.5987036 237.28807616 90.33320725 C237.24311586 80.91099246 237.22131088 71.48876649 237.20129442 62.06647086 C237.15966526 42.7108556 237.08864495 23.35545319 237 4 C228.75 4 220.5 4 212 4 C211.855625 6.289375 211.71125 8.57875 211.5625 10.9375 C211.125 17.875 211.125 17.875 210 19 C208.19490627 19.09899561 206.38593072 19.12799151 204.578125 19.12939453 C203.42022461 19.13254669 202.26232422 19.13569885 201.06933594 19.13894653 C199.17876465 19.13591019 199.17876465 19.13591019 197.25 19.1328125 C195.96641602 19.13376923 194.68283203 19.13472595 193.36035156 19.13571167 C190.63996176 19.13718831 187.91960475 19.13503519 185.19921875 19.13037109 C181.70515331 19.12467381 178.21116467 19.12795299 174.71710205 19.13394356 C171.39472847 19.13841754 168.07237577 19.13528885 164.75 19.1328125 C163.48961914 19.13483673 162.22923828 19.13686096 160.93066406 19.13894653 C159.77276367 19.13579437 158.61486328 19.13264221 157.421875 19.12939453 C156.39674805 19.12859894 155.37162109 19.12780334 154.31542969 19.12698364 C152 19 152 19 151 18 C150.67 13.38 150.34 8.76 150 4 C130.86 4 111.72 4 92 4 C91.67 8.62 91.34 13.24 91 18 C87.91065826 19.02978058 85.78775407 19.12677219 82.55053711 19.12939453 C80.87881691 19.13412277 80.87881691 19.13412277 79.17332458 19.13894653 C77.97015091 19.1369223 76.76697723 19.13489807 75.52734375 19.1328125 C74.29335342 19.13376923 73.0593631 19.13472595 71.78797913 19.13571167 C68.50900518 19.13656711 65.23007851 19.13253825 61.95111084 19.12695312 C59.93801366 19.1250005 57.92496002 19.12694798 55.91186523 19.13037109 C52.05450398 19.13652885 48.19720764 19.13580548 44.33984375 19.1328125 C43.13464584 19.13483673 41.92944794 19.13686096 40.68772888 19.13894653 C39.57640091 19.13579437 38.46507294 19.13264221 37.32006836 19.12939453 C36.33872421 19.12859894 35.35738007 19.12780334 34.34629822 19.12698364 C32 19 32 19 30 18 C29.5859375 14.83984375 29.5859375 14.83984375 29.375 10.9375 C29.30023437 9.64714844 29.22546875 8.35679688 29.1484375 7.02734375 C29.09945313 6.02832031 29.05046875 5.02929688 29 4 C25.02084841 3.97113016 21.04172347 3.95324594 17.0625 3.9375 C15.92619141 3.92912109 14.78988281 3.92074219 13.61914062 3.91210938 C12.53955078 3.90888672 11.45996094 3.90566406 10.34765625 3.90234375 C9.34742432 3.89710693 8.34719238 3.89187012 7.31665039 3.88647461 C5.03792772 3.73818905 5.03792772 3.73818905 4 5 Z " fill="#F5F4F7" transform="translate(0,0)"/>
<path d="M0 0 C8.25 0 16.5 0 25 0 C25.01417969 3.20460938 25.02835938 6.40921875 25.04296875 9.7109375 C25.07365234 12.84206396 25.1127248 15.97298242 25.15258789 19.10400391 C25.17567073 21.26668857 25.19014061 23.42948409 25.19555664 25.59228516 C25.2049173 28.71586424 25.24606383 31.83772278 25.29296875 34.9609375 C25.2890361 35.91551849 25.28510345 36.87009949 25.28105164 37.85360718 C25.46648537 46.54042415 28.39532142 53.37947128 34.25 59.8125 C42.11637193 67.10959501 50.39930042 69.63141481 60.98046875 69.4296875 C67.06796121 69.03055543 71.84839168 66.03877549 77 63 C77.99 62.67 78.98 62.34 80 62 C81.08453808 60.1492838 81.08453808 60.1492838 82 58 C83.23531812 56.07971382 84.50214589 54.18432695 85.78125 52.29296875 C89.10897725 46.03214857 89.32541091 39.85145213 89.4140625 32.91015625 C89.43342865 31.96563095 89.4527948 31.02110565 89.4727478 30.04795837 C89.53217692 27.05289533 89.57878154 24.05779309 89.625 21.0625 C89.66321356 19.02277038 89.70226723 16.98305631 89.7421875 14.94335938 C89.83941796 9.96232389 89.91927732 4.98143938 90 0 C98.25 0 106.5 0 115 0 C115.09094234 10.39785697 115.1640822 20.79544295 115.20724869 31.19361019 C115.22798296 36.02367556 115.25603632 40.85345102 115.30175781 45.68334961 C115.34572768 50.35831549 115.36924307 55.03300535 115.37950897 59.70816231 C115.38680981 61.4776601 115.40106157 63.24714552 115.42292023 65.01652336 C115.738614 91.66946975 107.69327569 115.26818108 88.9375 134.6875 C79.37051607 144.16513914 68.07144521 150.7839557 55.37890625 155.16015625 C53.07505691 155.78115042 53.07505691 155.78115042 52 157 C49.35557873 157.57539268 46.72537882 158.08884751 44.0625 158.5625 C42.9787207 158.77036133 42.9787207 158.77036133 41.87304688 158.98242188 C36.01209888 160.03252994 31.15345773 160 25 160 C25 151.75 25 143.5 25 135 C28.2175 134.443125 31.435 133.88625 34.75 133.3125 C48.15147309 130.81965728 58.36473055 126.71079212 69 118 C69.64710938 117.47921875 70.29421875 116.9584375 70.9609375 116.421875 C78.48401493 109.68174228 83.37805073 99.30080801 87 90 C87 89.01 87 88.02 87 87 C86.41734375 87.32613281 85.8346875 87.65226562 85.234375 87.98828125 C72.13539397 94.97028529 57.36272258 97.40507769 42.73046875 93.94921875 C32.9356564 90.54415523 23.05731828 85.72792318 16 78 C15.32710937 77.27296875 14.65421875 76.5459375 13.9609375 75.796875 C3.41035759 63.54713802 -0.37081772 50.03765392 -0.1953125 34.1796875 C-0.1924826 33.19501495 -0.18965271 32.21034241 -0.18673706 31.1958313 C-0.17565195 28.08875739 -0.15056991 24.98198496 -0.125 21.875 C-0.11495509 19.75260837 -0.1058319 17.63021216 -0.09765625 15.5078125 C-0.07746298 10.33833555 -0.03829259 5.16950032 0 0 Z " fill="#F5F4F7" transform="translate(95,79)"/>
<path d="M0 0 C59.07 0 118.14 0 179 0 C179 7.92 179 15.84 179 24 C119.93 24 60.86 24 0 24 C0 16.08 0 8.16 0 0 Z " fill="#F6F4F8" transform="translate(31,37)"/>
<path d="M0 0 C8.25 0 16.5 0 25 0 C25.00410889 2.26858887 25.00821777 4.53717773 25.01245117 6.87451172 C25.02979144 14.44225039 25.07452749 22.00965834 25.13209057 29.57719231 C25.16611343 34.15715723 25.19143154 38.73679736 25.19555664 43.31689453 C25.19989337 47.75225367 25.22879121 52.18688319 25.27343178 56.62201309 C25.28623767 58.29849085 25.29077593 59.9750567 25.28615379 61.651577 C25.24193796 82.59540141 30.41750054 101.34722535 45 117 C50.93102452 122.50201732 56.53289634 125.26644817 64 129 C64 137.91 64 146.82 64 156 C40.78794505 149.66943956 25.09218444 135.63827665 12 116 C11.48179688 115.22785156 10.96359375 114.45570313 10.4296875 113.66015625 C7.64977724 109.10564919 5.94125716 104.24957951 4.3125 99.1875 C4.00832153 98.24608154 4.00832153 98.24608154 3.69799805 97.28564453 C0.00804391 85.10494416 -0.27498226 73.14734421 -0.1953125 60.546875 C-0.19157407 58.79282799 -0.18873103 57.03877887 -0.18673706 55.284729 C-0.17916592 50.70796766 -0.15957484 46.13133686 -0.1373291 41.55462646 C-0.1167288 36.86846685 -0.10770526 32.18228577 -0.09765625 27.49609375 C-0.07632162 18.3306631 -0.04119407 9.16536292 0 0 Z " fill="#F4F3F7" transform="translate(31,79)"/>
<path d="M0 0 C89.595 0.495 89.595 0.495 181 1 C182.35700647 3.71401294 182.1123861 5.84846316 182.09765625 8.8828125 C182.09443359 10.04941406 182.09121094 11.21601562 182.08789062 12.41796875 C182.07951172 13.64128906 182.07113281 14.86460938 182.0625 16.125 C182.05798828 17.35605469 182.05347656 18.58710937 182.04882812 19.85546875 C182.0370133 22.90369392 182.02054028 25.95182314 182 29 C178.27136377 30.18495127 174.74381686 30.11573913 170.85079956 30.10247803 C170.13008778 30.1013656 169.40937599 30.10025317 168.66682446 30.09910703 C166.25163811 30.09406767 163.83654579 30.08171543 161.42138672 30.06933594 C159.6900748 30.0641029 157.95876161 30.05927583 156.22744751 30.05482483 C151.52519119 30.04117842 146.82298874 30.02073395 142.12076712 29.99825954 C139.185293 29.98440146 136.2498161 29.97176382 133.31433487 29.9595108 C124.13595855 29.92091251 114.95761447 29.878291 105.77928531 29.82973552 C95.17164564 29.77363286 84.56406012 29.73064742 73.95631969 29.69905448 C65.76258237 29.67388467 57.56894611 29.63731134 49.37529576 29.59196877 C44.47808225 29.56511429 39.58096045 29.54314299 34.68368149 29.53295135 C30.08221417 29.52304797 25.4810384 29.49905378 20.87969589 29.46401787 C19.18737159 29.45358861 17.49500688 29.44831031 15.80265045 29.44845009 C13.49984372 29.44786242 11.19790186 29.42904952 8.89523315 29.40545654 C7.60438749 29.39954876 6.31354183 29.39364098 4.98357964 29.38755417 C3.99899836 29.25966129 3.01441708 29.13176842 2 29 C-0.16876827 25.7468476 -0.2949551 24.57304391 -0.44921875 20.78125 C-0.49240234 19.76675781 -0.53558594 18.75226562 -0.58007812 17.70703125 C-0.61552734 16.64871094 -0.65097656 15.59039062 -0.6875 14.5 C-0.73455078 13.44167969 -0.78160156 12.38335937 -0.83007812 11.29296875 C-1.13569383 3.4070815 -1.13569383 3.4070815 0 0 Z M2 3 C2 10.92 2 18.84 2 27 C61.07 27 120.14 27 181 27 C181 19.08 181 11.16 181 3 C121.93 3 62.86 3 2 3 Z " fill="#6E53B9" transform="translate(29,34)"/>
<path d="M0 0 C1.00023193 0.00523682 2.00046387 0.01047363 3.03100586 0.01586914 C4.1105957 0.0190918 5.19018555 0.02231445 6.30249023 0.02563477 C8.00695312 0.03820312 8.00695312 0.03820312 9.74584961 0.05102539 C11.45611328 0.05779297 11.45611328 0.05779297 13.20092773 0.06469727 C16.02845312 0.07652792 18.85587601 0.09301129 21.68334961 0.11352539 C21.73233398 1.11254883 21.78131836 2.11157227 21.83178711 3.14086914 C21.90655273 4.4312207 21.98131836 5.72157227 22.05834961 7.05102539 C22.12795898 8.33879883 22.19756836 9.62657227 22.26928711 10.95336914 C22.40592773 11.9962207 22.54256836 13.03907227 22.68334961 14.11352539 C25.26021371 15.40195744 27.1655372 15.27355972 30.05102539 15.31884766 C31.73254196 15.34876549 31.73254196 15.34876549 33.44802856 15.37928772 C35.26994217 15.40435646 35.26994217 15.40435646 37.12866211 15.42993164 C38.36881073 15.45071274 39.60895935 15.47149384 40.88668823 15.49290466 C44.18446784 15.54730245 47.48227681 15.59752634 50.78015137 15.64575195 C54.14507614 15.69597773 57.50991011 15.75165817 60.87475586 15.80688477 C67.47754815 15.91414096 74.08040832 16.01589728 80.68334961 16.11352539 C80.68334961 16.44352539 80.68334961 16.77352539 80.68334961 17.11352539 C73.15566181 17.15981829 65.62798873 17.19537904 58.10019112 17.21714973 C54.60491034 17.22759737 51.10972677 17.24177422 47.61450195 17.2644043 C43.59837905 17.29024492 39.58235864 17.29999005 35.56616211 17.30883789 C33.67862717 17.32432175 33.67862717 17.32432175 31.75296021 17.34011841 C30.59190765 17.34026947 29.4308551 17.34042053 28.23461914 17.34057617 C27.20869659 17.3450174 26.18277405 17.34945862 25.12576294 17.35403442 C22.68334961 17.11352539 22.68334961 17.11352539 20.68334961 15.11352539 C20.4041754 10.76957468 20.59792823 6.47001572 20.68334961 2.11352539 C13.42334961 2.11352539 6.16334961 2.11352539 -1.31665039 2.11352539 C-1.1014992 22.93274061 -0.87632701 43.75182036 -0.63797188 64.57078362 C-0.52754338 74.23797791 -0.42061912 83.90518697 -0.32202148 93.57250977 C-0.2360477 102.00120608 -0.14342035 110.4297989 -0.04289329 118.85833466 C0.01007605 123.31874966 0.05977439 127.77914569 0.10149765 132.23968124 C0.14092822 136.4438499 0.18929994 140.6478237 0.24433136 144.85181618 C0.26291589 146.38918422 0.27832119 147.92659474 0.29018784 149.46402931 C0.34837397 156.78134035 0.47271655 163.85840907 2.26028633 170.99724007 C2.74252921 173.40955894 2.7503524 175.65974403 2.68334961 178.11352539 C0.82405812 174.79738646 -0.04198041 171.56285242 -0.87915039 167.86352539 C-1.12793945 166.78586914 -1.37672852 165.70821289 -1.63305664 164.59790039 C-3.36185885 155.78594857 -3.45970362 147.22658032 -3.44604492 138.26806641 C-3.44740163 136.77099058 -3.44918308 135.27391508 -3.45135498 133.77684021 C-3.45589445 129.73191287 -3.45415488 125.68701117 -3.45097589 121.64208341 C-3.44843753 117.40648408 -3.45079364 113.17088689 -3.45236206 108.93528748 C-3.45417805 101.83136603 -3.45179096 94.72745501 -3.44702148 87.62353516 C-3.44156529 79.40160879 -3.44335363 71.17970716 -3.44884789 62.95778137 C-3.45337781 55.89693888 -3.45403061 48.83610386 -3.45140922 41.77526039 C-3.44984766 37.55834067 -3.44964969 33.34143261 -3.45294571 29.12451363 C-3.45582315 25.16743235 -3.45385113 21.21038322 -3.44805145 17.25330544 C-3.44672379 15.79757999 -3.44711807 14.34185186 -3.44931412 12.88612747 C-3.45202499 10.90757084 -3.44803136 8.92900832 -3.44363403 6.95045471 C-3.44325701 5.84086679 -3.44287998 4.73127886 -3.44249153 3.58806705 C-3.27804073 0.35430461 -3.22521614 0.15804885 0 0 Z " fill="#876BD5" transform="translate(7.316650390625,3.886474609375)"/>
<path d="M0 0 C8.25 0 16.5 0 25 0 C25.11629174 20.22062906 25.20525067 40.44116207 25.25906086 60.66205788 C25.2847222 70.05330494 25.31963847 79.44433899 25.37719727 88.83544922 C25.4274055 97.03124984 25.45937842 105.22689603 25.47044247 113.4228462 C25.4768987 117.75308659 25.49181251 122.08288561 25.52865028 126.41298294 C25.82759268 162.96850996 25.82759268 162.96850996 20 180 C19.01 180.99 19.01 180.99 18 182 C17.81783881 177.35488965 18.19706209 174.24220684 20 170 C20.3813074 167.67402489 20.72460254 165.34087842 21 163 C21.66 163 22.32 163 23 163 C23 109.87 23 56.74 23 2 C16.07 2 9.14 2 2 2 C2 5.63 2 9.26 2 13 C1.01 13.495 1.01 13.495 0 14 C0 9.38 0 4.76 0 0 Z " fill="#6F4DC6" transform="translate(212,4)"/>
<path d="M0 0 C1.12591553 0.00523682 2.25183105 0.01047363 3.41186523 0.01586914 C4.62680664 0.0190918 5.84174805 0.02231445 7.09350586 0.02563477 C8.37290039 0.03401367 9.65229492 0.04239258 10.97045898 0.05102539 C12.2537207 0.05553711 13.53698242 0.06004883 14.85913086 0.06469727 C18.04211921 0.07652994 21.22501661 0.09301471 24.40795898 0.11352539 C27.18736079 5.13076657 26.39012457 10.03290262 26.02905273 15.54711914 C25.52147245 25.00759524 25.32700077 34.42487461 25.38061523 43.89868164 C25.3862851 45.14894135 25.39195496 46.39920105 25.39779663 47.68734741 C25.42470308 52.83282376 25.46030958 57.97817324 25.50390625 63.12353516 C25.53405553 66.94442189 25.55183152 70.76521431 25.56811523 74.58618164 C25.58830467 76.32207298 25.58830467 76.32207298 25.60890198 78.09303284 C25.62690752 83.86551473 25.33083982 88.66327445 23.40795898 94.11352539 C23.19971443 95.56650443 23.02363182 97.02526407 22.90795898 98.48852539 C22.74295898 99.68477539 22.57795898 100.88102539 22.40795898 102.11352539 C21.41795898 102.60852539 21.41795898 102.60852539 20.40795898 103.11352539 C19.75582607 105.13815794 19.75582607 105.13815794 19.40795898 107.11352539 C18.74795898 107.11352539 18.08795898 107.11352539 17.40795898 107.11352539 C16.91295898 109.09352539 16.91295898 109.09352539 16.40795898 111.11352539 C15.40795898 109.11352539 15.40795898 109.11352539 16.33374023 105.98852539 C16.78872555 104.69428563 17.2513206 103.40270241 17.72045898 102.11352539 C22.20286324 89.77733591 22.73726091 78.20438763 22.82202148 65.19946289 C22.84075912 63.37528635 22.86033441 61.55111824 22.88070679 59.72695923 C22.93176006 54.95628865 22.97152823 50.18559005 23.0088501 45.41479492 C23.04905896 40.53435488 23.10007379 35.65402868 23.15014648 30.77368164 C23.24658794 21.22036874 23.33009282 11.66700777 23.40795898 2.11352539 C15.15795898 2.11352539 6.90795898 2.11352539 -1.59204102 2.11352539 C-1.54563477 5.0899707 -1.49922852 8.06641602 -1.45141602 11.13305664 C-1.4201286 14.04897358 -1.39589324 16.96487108 -1.37231445 19.88085938 C-1.35232709 21.89136264 -1.32512776 23.90180872 -1.2902832 25.91210938 C-1.06352374 39.34093797 -0.89407149 51.3515059 -9.75219727 62.32836914 C-16.50197262 68.87751423 -24.72476769 72.40100685 -34.02954102 72.36352539 C-35.30700195 72.36868164 -36.58446289 72.37383789 -37.90063477 72.37915039 C-41.47754857 72.121764 -44.26520506 71.40929457 -47.59204102 70.11352539 C-44.58172358 69.17928894 -43.72553834 69.06902628 -40.59204102 70.11352539 C-38.59462366 70.23281559 -36.59297978 70.28876474 -34.59204102 70.30102539 C-33.54016602 70.31520508 -32.48829102 70.32938477 -31.40454102 70.34399414 C-28.38445414 70.32533465 -28.38445414 70.32533465 -25.59204102 68.11352539 C-24.27204102 68.11352539 -22.95204102 68.11352539 -21.59204102 68.11352539 C-21.59204102 67.45352539 -21.59204102 66.79352539 -21.59204102 66.11352539 C-20.82891602 65.88665039 -20.06579102 65.65977539 -19.27954102 65.42602539 C-16.03299649 63.84050364 -15.30401308 62.2113796 -13.59204102 59.11352539 C-12.93204102 59.11352539 -12.27204102 59.11352539 -11.59204102 59.11352539 C-11.09704102 58.12352539 -11.09704102 58.12352539 -10.59204102 57.11352539 C-9.60204102 57.11352539 -8.61204102 57.11352539 -7.59204102 57.11352539 C-7.26204102 55.46352539 -6.93204102 53.81352539 -6.59204102 52.11352539 C-7.58204102 51.61852539 -7.58204102 51.61852539 -8.59204102 51.11352539 C-7.60204102 51.11352539 -6.61204102 51.11352539 -5.59204102 51.11352539 C-5.59204102 50.12352539 -5.59204102 49.13352539 -5.59204102 48.11352539 C-4.93204102 48.11352539 -4.27204102 48.11352539 -3.59204102 48.11352539 C-3.59426163 47.52692642 -3.59648224 46.94032745 -3.59877014 46.33595276 C-3.62082311 40.25327155 -3.63594766 34.17060162 -3.64697266 28.08789062 C-3.65201427 25.81509948 -3.65884739 23.54231159 -3.66748047 21.26953125 C-3.67955362 18.01048988 -3.68527089 14.75149122 -3.68969727 11.49243164 C-3.69485855 10.4695253 -3.70001984 9.44661896 -3.70533752 8.39271545 C-3.70541306 7.45181564 -3.70548859 6.51091583 -3.70556641 5.54150391 C-3.70778702 4.70877457 -3.71000763 3.87604523 -3.71229553 3.01808167 C-3.52302352 0.02044629 -3.01863788 0.13220934 0 0 Z " fill="#6A4CC0" transform="translate(186.592041015625,76.886474609375)"/>
<path d="M0 0 C0.66 0 1.32 0 2 0 C2.00808685 0.96307068 2.01617371 1.92614136 2.02450562 2.918396 C2.10232665 12.03877953 2.19015344 21.15902045 2.28752708 30.27921677 C2.33726101 34.96687672 2.38359116 39.6545166 2.421875 44.34228516 C2.45901952 48.87466563 2.50545439 53.40686814 2.55806351 57.93909454 C2.57645381 59.65961809 2.59161703 61.38017955 2.60334396 63.10076141 C2.75917533 85.19408922 6.76280966 103.44426039 19 122 C17.02 122.495 17.02 122.495 15 123 C14.34 122.01 13.68 121.02 13 120 C12.67 119.67 12.34 119.34 12 119 C11 116 11 116 10.125 112.375 C9.75375 111.26125 9.3825 110.1475 9 109 C8.01 108.67 7.02 108.34 6 108 C6.99 107.505 6.99 107.505 8 107 C7.37609375 106.01902344 6.7521875 105.03804688 6.109375 104.02734375 C3.79924916 99.98462353 2.95966809 96.12524839 2.25 91.5625 C2.12496094 90.83095703 1.99992187 90.09941406 1.87109375 89.34570312 C1.56862927 87.56581601 1.2825647 85.78315454 1 84 C0.67 84 0.34 84 0 84 C0 56.28 0 28.56 0 0 Z " fill="#7254C6" transform="translate(29,79)"/>
<path d="M0 0 C1.30594584 3.92702291 0.38596001 5.95004267 -1.45141602 9.63500977 C-1.81807373 10.33295654 -2.18473145 11.03090332 -2.5625 11.75 C-3.11732056 12.82689087 -3.11732056 12.82689087 -3.68334961 13.92553711 C-6.35202207 19.00380443 -9.16924641 23.70307005 -13 28 C-13.50789063 28.5878125 -14.01578125 29.175625 -14.5390625 29.78125 C-21.56368938 37.37184208 -31.0504433 43.14460138 -41 46 C-42.32 46 -43.64 46 -45 46 C-45 45.34 -45 44.68 -45 44 C-43.865625 43.87625 -42.73125 43.7525 -41.5625 43.625 C-40.386875 43.41875 -39.21125 43.2125 -38 43 C-37.67 42.34 -37.34 41.68 -37 41 C-36.67 40.34 -36.34 39.68 -36 39 C-33.69 39 -31.38 39 -29 39 C-29 38.34 -29 37.68 -29 37 C-29.66 36.67 -30.32 36.34 -31 36 C-27.7 35.34 -24.4 34.68 -21 34 C-20.01 31.03 -19.02 28.06 -18 25 C-17.34 25 -16.68 25 -16 25 C-16 25.66 -16 26.32 -16 27 C-15.34 27 -14.68 27 -14 27 C-13.67 25.68 -13.34 24.36 -13 23 C-12.34 23 -11.68 23 -11 23 C-11 21.35 -11 19.7 -11 18 C-10.01 18 -9.02 18 -8 18 C-8 17.34 -8 16.68 -8 16 C-7.34 16 -6.68 16 -6 16 C-5.896875 15.29875 -5.79375 14.5975 -5.6875 13.875 C-4.90640997 10.60862353 -3.57941257 7.9528148 -2 5 C-2.61875 5.7115625 -2.61875 5.7115625 -3.25 6.4375 C-5.23469 8.20954464 -6.4154463 8.53008115 -9 9 C-9.59941406 9.16113281 -10.19882813 9.32226562 -10.81640625 9.48828125 C-21.28686545 11.94200246 -34.76600823 12.71727952 -45 9 C-45.66 8.34 -46.32 7.68 -47 7 C-46.45214844 7.0721875 -45.90429688 7.144375 -45.33984375 7.21875 C-28.78518401 9.15685651 -14.69543599 8.22554271 0 0 Z " fill="#6E4DC8" transform="translate(182,165)"/>
<path d="M0 0 C3.96930989 -0.02465881 7.93859034 -0.04284023 11.90795898 -0.05493164 C13.25920386 -0.05997057 14.61044326 -0.06680177 15.96166992 -0.07543945 C17.90020434 -0.08752419 19.838778 -0.09269828 21.77734375 -0.09765625 C23.52905884 -0.10551147 23.52905884 -0.10551147 25.31616211 -0.11352539 C28 0 28 0 29 1 C29.09498646 3.43396019 29.12558417 5.83942952 29.11352539 8.27368164 C29.11367142 9.03460617 29.11381744 9.7955307 29.1139679 10.57951355 C29.11326862 13.10642298 29.10547555 15.63325962 29.09765625 18.16015625 C29.09579212 19.9075059 29.0943682 21.65485607 29.09336853 23.40220642 C29.08954293 28.01031934 29.07971229 32.61840095 29.06866455 37.22650146 C29.05845134 41.92508521 29.0538711 46.62367399 29.04882812 51.32226562 C29.03809005 60.54819087 29.02101313 69.77409284 29 79 C27.515 79.495 27.515 79.495 26 80 C26 54.26 26 28.52 26 2 C17.75 2 9.5 2 1 2 C0.67 1.34 0.34 0.68 0 0 Z " fill="#7D5FD1" transform="translate(30,77)"/>
<path d="M0 0 C19.14 0 38.28 0 58 0 C58.495 6.93 58.495 6.93 59 14 C59.495 14.99 59.495 14.99 60 16 C59.01 16 58.02 16 57 16 C54.90768602 11.81537205 56 6.67855628 56 2 C37.85 2 19.7 2 1 2 C1 6.29 1 10.58 1 15 C-0.65 15.33 -2.3 15.66 -4 16 C-3.01 15.34 -2.02 14.68 -1 14 C-0.67 9.38 -0.34 4.76 0 0 Z " fill="#8469D0" transform="translate(92,4)"/>
<path d="M0 0 C0.33 0 0.66 0 1 0 C1.17726349 10.96156377 1.34319788 21.92323539 1.49477577 32.8851862 C1.56551744 37.97556295 1.64012181 43.06582131 1.72363281 48.15600586 C1.80412122 53.07069947 1.87435979 57.98544361 1.93757248 62.90038872 C1.96344368 64.77305919 1.99297269 66.64568291 2.02626419 68.51823616 C2.07235572 71.14632207 2.1052954 73.77427525 2.13525391 76.40258789 C2.1517952 77.17223373 2.16833649 77.94187958 2.18537903 78.73484802 C2.223062 83.55645966 1.49259672 87.41395781 0 92 C-0.20824455 93.45297904 -0.38432717 94.91173868 -0.5 96.375 C-0.665 97.57125 -0.83 98.7675 -1 100 C-1.99 100.495 -1.99 100.495 -3 101 C-3.65213292 103.02463255 -3.65213292 103.02463255 -4 105 C-4.66 105 -5.32 105 -6 105 C-6.33 106.32 -6.66 107.64 -7 109 C-8 107 -8 107 -7.07421875 103.875 C-6.61923343 102.58076024 -6.15663838 101.28917702 -5.6875 100 C-1.20509575 87.66381052 -0.67069807 76.09086224 -0.5859375 63.0859375 C-0.56719987 61.26176096 -0.54762458 59.43759285 -0.5272522 57.61343384 C-0.47619893 52.84276326 -0.43643075 48.07206466 -0.39910889 43.30126953 C-0.35890002 38.42082949 -0.30788519 33.54050329 -0.2578125 28.66015625 C-0.16137113 19.10685112 -0.07686588 9.5534813 0 0 Z " fill="#927FCC" transform="translate(210,79)"/>
<path d="M0 0 C8.58 0 17.16 0 26 0 C26 14.19 26 28.38 26 43 C26.66 43 27.32 43 28 43 C28.33 43.99 28.66 44.98 29 46 C29.66 46.33 30.32 46.66 31 47 C31.4757779 48.56658576 31.88185097 50.15468754 32.25 51.75 C33.71362618 57.0660723 35.64180647 58.80399141 40 62 C40 62.99 40 63.98 40 65 C36.7844579 63.60377777 34.8054472 62.00530567 32.5 59.375 C31.9328125 58.74335938 31.365625 58.11171875 30.78125 57.4609375 C25.6846515 50.41958431 24.42420519 44.8106352 24.609375 36.15625 C24.61503479 35.14655151 24.62069458 34.13685303 24.62652588 33.09655762 C24.648772 29.89720623 24.69894687 26.69900825 24.75 23.5 C24.77008018 21.32032877 24.78832828 19.14063984 24.8046875 16.9609375 C24.84518298 11.6398319 24.9234972 6.32119456 25 1 C16.75 1 8.5 1 0 1 C0 0.67 0 0.34 0 0 Z " fill="#7C64C3" transform="translate(95,78)"/>
<path d="M0 0 C-0.33 0.66 -0.66 1.32 -1 2 C2.91694071 1.86100313 6.83347102 1.71261867 10.75 1.5625 C12.41675781 1.50352539 12.41675781 1.50352539 14.1171875 1.44335938 C15.72207031 1.38051758 15.72207031 1.38051758 17.359375 1.31640625 C18.34389648 1.27974854 19.32841797 1.24309082 20.34277344 1.20532227 C22.93345436 1.08299831 22.93345436 1.08299831 25.11816406 0.45288086 C28.15200291 -0.27723993 30.96631719 0.47493951 34 1 C20.82468324 8.90519006 -4.4698022 5.17049342 -18.73828125 1.65625 C-19.48464844 1.4396875 -20.23101562 1.223125 -21 1 C-21 0.67 -21 0.34 -21 0 C-19.41058594 0.01740234 -19.41058594 0.01740234 -17.7890625 0.03515625 C-16.40104342 0.04453476 -15.01302245 0.05363489 -13.625 0.0625 C-12.57699219 0.07506836 -12.57699219 0.07506836 -11.5078125 0.08789062 C-7.20335464 0.10858513 -4.07721992 -1.22316597 0 0 Z " fill="#836BCE" transform="translate(112,259)"/>
<path d="M0 0 C0.33 0 0.66 0 1 0 C1.33 26.4 1.66 52.8 2 80 C2.66 80 3.32 80 4 80 C4.92844389 84.33273814 4.92844389 87.66726186 4 92 C0.03680782 86.05521174 -0.29549344 79.59182063 -0.22705078 72.65625 C-0.22734283 71.86504257 -0.22763489 71.07383514 -0.22793579 70.25865173 C-0.2265548 67.67231856 -0.21105231 65.08628215 -0.1953125 62.5 C-0.19157798 60.69539548 -0.18873308 58.89078892 -0.18673706 57.08618164 C-0.17913514 52.35811676 -0.15951651 47.63017658 -0.1373291 42.90216064 C-0.11679623 38.0689055 -0.10771949 33.23563003 -0.09765625 28.40234375 C-0.07626712 18.93484133 -0.0421731 9.46743107 0 0 Z " fill="#6748C2" transform="translate(57,80)"/>
<path d="M0 0 C0 4.24645065 -1.81750806 6.38524772 -4 10 C-4.66 10 -5.32 10 -6 10 C-6.33 10.66 -6.66 11.32 -7 12 C-7.99 12.33 -8.98 12.66 -10 13 C-11.40882539 14.6109098 -11.40882539 14.6109098 -12.75 16.5 C-15.18494057 19.48613358 -15.63540926 19.93085348 -19.625 20.6875 C-20.73875 20.790625 -21.8525 20.89375 -23 21 C-25.420113 22.91621575 -25.420113 22.91621575 -27 25 C-27 24.34 -27 23.68 -27 23 C-27.99 23.33 -28.98 23.66 -30 24 C-30.66 23.34 -31.32 22.68 -32 22 C-31.11699219 21.5875 -30.23398438 21.175 -29.32421875 20.75 C-18.17946205 15.43272003 -8.4088266 9.18370141 0 0 Z " fill="#704FD4" transform="translate(186,210)"/>
<path d="M0 0 C0.33 0 0.66 0 1 0 C1.08636719 0.680625 1.17273437 1.36125 1.26171875 2.0625 C3.51757176 17.62581618 8.39833827 29.95695738 17 43 C15.02 43.495 15.02 43.495 13 44 C12.34 43.01 11.68 42.02 11 41 C10.67 40.67 10.34 40.34 10 40 C9 37 9 37 8.125 33.375 C7.75375 32.26125 7.3825 31.1475 7 30 C6.01 29.67 5.02 29.34 4 29 C4.66 28.67 5.32 28.34 6 28 C5.38125 27.01 4.7625 26.02 4.125 25 C-0.43463408 16.88320458 -0.24981598 9.10440448 0 0 Z " fill="#7E63C9" transform="translate(31,158)"/>
<path d="M0 0 C1.39459297 2.60628849 2.11776234 4.5495576 2.75 7.5 C5.08118047 17.20421636 10.59970503 25.50142956 17 33 C13.71023192 34.09658936 12.28696233 33.79953138 9 33 C9 31.35 9 29.7 9 28 C8.34 27.67 7.68 27.34 7 27 C6.375 23.9375 6.375 23.9375 6 21 C5.34 21 4.68 21 4 21 C4 19.68 4 18.36 4 17 C3.01 16.67 2.02 16.34 1 16 C-0.14077657 12.57767028 -0.09815117 9.91326783 -0.0625 6.3125 C-0.05347656 5.13300781 -0.04445313 3.95351562 -0.03515625 2.73828125 C-0.02355469 1.83464844 -0.01195313 0.93101563 0 0 Z " fill="#785DC9" transform="translate(95,124)"/>
<path d="M0 0 C0 0.33 0 0.66 0 1 C-1.89492006 1.33848652 -3.79098466 1.67056911 -5.6875 2 C-6.74324219 2.185625 -7.79898438 2.37125 -8.88671875 2.5625 C-12 3 -12 3 -17 3 C-17 11.25 -17 19.5 -17 28 C-17.66 28.33 -18.32 28.66 -19 29 C-20.20484722 23.36473035 -20.1129643 17.85463885 -20.0625 12.125 C-20.05798828 11.15046875 -20.05347656 10.1759375 -20.04882812 9.171875 C-20.03710906 6.78118566 -20.02070219 4.3906256 -20 2 C-13.25846717 0.74158054 -6.86515862 -0.26404456 0 0 Z " fill="#7254CB" transform="translate(137,211)"/>
<path d="M0 0 C-0.33 0.66 -0.66 1.32 -1 2 C-2.8125 2.5625 -2.8125 2.5625 -5 3 C-5.60199219 3.16242188 -6.20398438 3.32484375 -6.82421875 3.4921875 C-17.2975103 5.9365823 -30.76461741 6.71778471 -41 3 C-41.66 2.34 -42.32 1.68 -43 1 C-42.45214844 1.0721875 -41.90429688 1.144375 -41.33984375 1.21875 C-29.52639399 2.60178802 -18.48557743 2.55854086 -6.92578125 -0.44140625 C-4.11351693 -0.97832721 -2.64731352 -0.97261397 0 0 Z " fill="#6C4DC8" transform="translate(178,171)"/>
<path d="M0 0 C1.15605905 3.45912312 1.00820641 3.97974449 -0.4765625 7.64453125 C-1.18035002 9.04015518 -1.89702134 10.42934054 -2.625 11.8125 C-2.96917969 12.49892578 -3.31335938 13.18535156 -3.66796875 13.89257812 C-6.07317372 18.58317159 -8.85124698 22.774042 -12 27 C-12.33 25.68 -12.66 24.36 -13 23 C-12.34 23 -11.68 23 -11 23 C-11 21.35 -11 19.7 -11 18 C-10.01 18 -9.02 18 -8 18 C-8 17.34 -8 16.68 -8 16 C-7.34 16 -6.68 16 -6 16 C-5.896875 15.29875 -5.79375 14.5975 -5.6875 13.875 C-4.90640997 10.60862353 -3.57941257 7.9528148 -2 5 C-4.64 5.33 -7.28 5.66 -10 6 C-8.64695791 3.29391583 -7.19033456 3.03816953 -4.4375 1.875 C-3.61121094 1.52179688 -2.78492188 1.16859375 -1.93359375 0.8046875 C-1.29550781 0.53914062 -0.65742188 0.27359375 0 0 Z " fill="#7254C3" transform="translate(182,165)"/>
<path d="M0 0 C8.25 0 16.5 0 25 0 C24.34 1.32 23.68 2.64 23 4 C23 3.34 23 2.68 23 2 C16.07 2 9.14 2 2 2 C2 5.63 2 9.26 2 13 C1.01 13.495 1.01 13.495 0 14 C0 9.38 0 4.76 0 0 Z " fill="#876DD2" transform="translate(212,4)"/>
<path d="M0 0 C2.18496481 2.80189606 3.99900156 5.66116005 5.75 8.75 C9.53798262 15.10071655 13.69475662 20.59192214 19.875 24.75 C23.1261251 27.09081007 23.40309841 27.35736976 24 31 C12.85200489 25.88945842 4.68634431 14.09019701 0 3 C0 2.01 0 1.02 0 0 Z " fill="#765ACA" transform="translate(61,172)"/>
<path d="M0 0 C-24.81930815 13.91070205 -24.81930815 13.91070205 -32.35546875 12.5859375 C-32.89816406 12.39257812 -33.44085938 12.19921875 -34 12 C-28.4174808 8.67424388 -24.50313209 7.53549057 -18 8 C-18 7.01 -18 6.02 -18 5 C-15.36 4.67 -12.72 4.34 -10 4 C-10 3.01 -10 2.02 -10 1 C-3.375 -1.125 -3.375 -1.125 0 0 Z " fill="#7759CF" transform="translate(180,247)"/>
<path d="M0 0 C1.32 0 2.64 0 4 0 C3.67 0.99 3.34 1.98 3 3 C2.34 3 1.68 3 1 3 C1 21.48 1 39.96 1 59 C0.67 59 0.34 59 0 59 C0 39.53 0 20.06 0 0 Z " fill="#6C46D6" transform="translate(6,6)"/>
<path d="M0 0 C0.33 0 0.66 0 1 0 C0.85962479 1.81293089 0.71255111 3.6253443 0.5625 5.4375 C0.48128906 6.44683594 0.40007812 7.45617187 0.31640625 8.49609375 C0 11 0 11 -1 12 C-1.27953219 14.0587768 -1.44734351 16.11728432 -1.62109375 18.1875 C-1.74613281 18.785625 -1.87117187 19.38375 -2 20 C-2.66 20.33 -3.32 20.66 -4 21 C-4.65213292 23.02463255 -4.65213292 23.02463255 -5 25 C-5.66 25 -6.32 25 -7 25 C-7.33 26.32 -7.66 27.64 -8 29 C-9 27 -9 27 -8.07421875 23.875 C-7.61746078 22.58138477 -7.15487537 21.28981722 -6.6875 20 C-4.6104802 14.06045215 -2.98229939 8.23100358 -2 2 C-1.34 2 -0.68 2 0 2 C0 1.34 0 0.68 0 0 Z " fill="#7B61CB" transform="translate(211,159)"/>
<path d="M0 0 C0.99 1.485 0.99 1.485 2 3 C2.66 3.33 3.32 3.66 4 4 C4.4757779 5.56658576 4.88185097 7.15468754 5.25 8.75 C6.71362618 14.0660723 8.64180647 15.80399141 13 19 C13 19.99 13 20.98 13 22 C9.63951428 20.57142347 7.72274139 18.83945402 5.375 16.0625 C4.48941406 15.02802734 4.48941406 15.02802734 3.5859375 13.97265625 C0.82853477 10.54288192 -0.25158044 8.67952525 -0.125 4.3125 C-0.10695313 3.50425781 -0.08890625 2.69601563 -0.0703125 1.86328125 C-0.04710938 1.24839844 -0.02390625 0.63351563 0 0 Z " fill="#6E4CCE" transform="translate(122,121)"/>
<path d="M0 0 C0.66 0 1.32 0 2 0 C0.08533544 5.09101558 -3.72620386 6.55196228 -8.42578125 8.796875 C-16.53161018 11.52539446 -25.05932139 11.01114418 -33 8 C-29.98968256 7.06576355 -29.13349732 6.95550089 -26 8 C-24.00258264 8.1192902 -22.00093876 8.17523935 -20 8.1875 C-18.4221875 8.20876953 -18.4221875 8.20876953 -16.8125 8.23046875 C-13.79241312 8.21180926 -13.79241312 8.21180926 -11 6 C-9.68 6 -8.36 6 -7 6 C-7 5.34 -7 4.68 -7 4 C-6.21625 3.71125 -5.4325 3.4225 -4.625 3.125 C-1.90328368 2.15087746 -1.90328368 2.15087746 0 0 Z " fill="#846EC9" transform="translate(172,139)"/>
<path d="M0 0 C0.66 0.33 1.32 0.66 2 1 C1.78771196 11.92318485 -0.84096815 21.61366282 -4 32 C-4.33 32 -4.66 32 -5 32 C-5.18216119 27.35488965 -4.80293791 24.24220684 -3 20 C-2.6186926 17.67402489 -2.27539746 15.34087842 -2 13 C-1.34 13 -0.68 13 0 13 C0 8.71 0 4.42 0 0 Z " fill="#8C73D4" transform="translate(235,154)"/>
<path d="M0 0 C4.94382807 1.37328557 6.32513644 3.77198986 9 8 C10.31558703 9.02323436 11.64377755 10.03126968 13 11 C13 11.66 13 12.32 13 13 C13.639375 13.12375 14.27875 13.2475 14.9375 13.375 C15.618125 13.58125 16.29875 13.7875 17 14 C17.33 14.66 17.66 15.32 18 16 C20.01669827 17.13350534 20.01669827 17.13350534 22 18 C21.67 18.99 21.34 19.98 21 21 C3.92 7.84 3.92 7.84 0 0 Z " fill="#7658C9" transform="translate(30,219)"/>
<path d="M0 0 C0.99 0 1.98 0 3 0 C1.60411827 4.04224085 -0.30564036 6.94148485 -3 10.25 C-4.051875 11.55710938 -4.051875 11.55710938 -5.125 12.890625 C-7 15 -7 15 -9 16 C-9 14.68 -9 13.36 -9 12 C-8.01 11.34 -7.02 10.68 -6 10 C-5.42251197 8.03638136 -5.42251197 8.03638136 -5.3125 5.875 C-5.209375 4.59625 -5.10625 3.3175 -5 2 C-4.01 1.67 -3.02 1.34 -2 1 C-1.67 1.33 -1.34 1.66 -1 2 C-0.67 1.34 -0.34 0.68 0 0 Z " fill="#7350D3" transform="translate(216,208)"/>
<path d="M0 0 C1.64288553 3.15824113 2.98705304 6.38467615 4.3125 9.6875 C6.51503892 15.02996791 9.05287249 20.03377662 12 25 C11.34 25 10.68 25 10 25 C10 24.34 10 23.68 10 23 C9.01 23 8.02 23 7 23 C6.67 21.02 6.34 19.04 6 17 C5.01 16.67 4.02 16.34 3 16 C2.0859375 13.890625 2.0859375 13.890625 1.375 11.25 C1.13523438 10.38890625 0.89546875 9.5278125 0.6484375 8.640625 C-0.59369137 3.58231707 -0.59369137 3.58231707 -1 1 C-0.67 0.67 -0.34 0.34 0 0 Z " fill="#DFD5F8" transform="translate(58,165)"/>
<path d="M0 0 C2.30078125 0.16796875 2.30078125 0.16796875 5 1 C6.73046875 3.36328125 6.73046875 3.36328125 8.1875 6.3125 C8.67605469 7.27800781 9.16460937 8.24351562 9.66796875 9.23828125 C10.10753906 10.14964844 10.54710937 11.06101563 11 12 C11.66578176 13.33377542 12.33206741 14.66730038 13 16 C11.35 15.67 9.7 15.34 8 15 C7.67 13.68 7.34 12.36 7 11 C6.01 11.495 6.01 11.495 5 12 C5.04125 11.278125 5.0825 10.55625 5.125 9.8125 C4.98813659 6.73307332 4.43591406 4.72067927 3 2 C2.01 1.67 1.02 1.34 0 1 C0 0.67 0 0.34 0 0 Z " fill="#7659CB" transform="translate(35,186)"/>
<path d="M0 0 C-1.70220378 1.44475303 -3.41206507 2.8804864 -5.125 4.3125 C-6.07632813 5.11300781 -7.02765625 5.91351563 -8.0078125 6.73828125 C-10.89898751 8.92364722 -13.71334866 10.49321178 -17 12 C-17 11.34 -17 10.68 -17 10 C-16.34 10 -15.68 10 -15 10 C-15.33 8.68 -15.66 7.36 -16 6 C-14.68 6 -13.36 6 -12 6 C-11.67 5.34 -11.34 4.68 -11 4 C-8.4375 3.375 -8.4375 3.375 -6 3 C-6 2.01 -6 1.02 -6 0 C-3 -1 -3 -1 0 0 Z " fill="#7756D2" transform="translate(198,234)"/>
<path d="M0 0 C0.99 0.33 1.98 0.66 3 1 C2.67 2.32 2.34 3.64 2 5 C2.99 5.33 3.98 5.66 5 6 C5.9140625 7.9609375 5.9140625 7.9609375 6.625 10.375 C6.86476563 11.16648438 7.10453125 11.95796875 7.3515625 12.7734375 C7.56554687 13.50820312 7.77953125 14.24296875 8 15 C8.33 15.99 8.66 16.98 9 18 C9.66 18.33 10.32 18.66 11 19 C11 20.32 11 21.64 11 23 C11.66 23.33 12.32 23.66 13 24 C12.34 24.66 11.68 25.32 11 26 C9.72660518 23.48043257 8.45623358 20.95941351 7.1875 18.4375 C6.83107422 17.73302734 6.47464844 17.02855469 6.10742188 16.30273438 C0 4.14392202 0 4.14392202 0 0 Z " fill="#8267D2" transform="translate(10,182)"/>
<path d="M0 0 C0.99 0 1.98 0 3 0 C3.268125 0.61875 3.53625 1.2375 3.8125 1.875 C4.95556848 4.2995233 4.95556848 4.2995233 8 6 C9.1875 8.625 9.1875 8.625 10 11 C10.99 11 11.98 11 13 11 C12.67 12.32 12.34 13.64 12 15 C8.94433539 12.03693129 6.02864172 8.98279839 3.1875 5.8125 C2.58292969 5.13832031 1.97835937 4.46414062 1.35546875 3.76953125 C0 2 0 2 0 0 Z " fill="#ECE5FA" transform="translate(103,145)"/>
<path d="M0 0 C0 4.24645065 -1.81750806 6.38524772 -4 10 C-4.66 10 -5.32 10 -6 10 C-6.33 10.66 -6.66 11.32 -7 12 C-8.84765625 12.6328125 -8.84765625 12.6328125 -11.0625 13.125 C-11.79597656 13.29257813 -12.52945313 13.46015625 -13.28515625 13.6328125 C-13.85105469 13.75398437 -14.41695312 13.87515625 -15 14 C-11.8122776 10.67945583 -8.38557792 7.68545967 -4.90234375 4.68359375 C-3.2005794 3.17751483 -1.58645745 1.62599533 0 0 Z " fill="#7456CC" transform="translate(186,210)"/>
<path d="M0 0 C3.59569602 0.44028931 6.91341395 0.97274143 10.375 2.0625 C14.688823 3.17814388 18.57641826 3.18055436 23 3 C23.33 3.66 23.66 4.32 24 5 C16.01093937 5.33809504 8.39285639 5.44368097 1 2 C0.67 1.34 0.34 0.68 0 0 Z " fill="#6B4DC6" transform="translate(135,143)"/>
<path d="M0 0 C-0.33 0.99 -0.66 1.98 -1 3 C-8.65083958 4.24911667 -16.27440986 4.09053426 -24 4 C-24 3.67 -24 3.34 -24 3 C-22.97519531 2.86722656 -21.95039062 2.73445312 -20.89453125 2.59765625 C-19.5338426 2.41935912 -18.17316615 2.24096877 -16.8125 2.0625 C-16.13896484 1.97548828 -15.46542969 1.88847656 -14.77148438 1.79882812 C-11.91308218 1.42235564 -9.08576539 1.01774034 -6.26171875 0.43359375 C-4 0 -4 0 0 0 Z " fill="#836ACB" transform="translate(144,236)"/>
<path d="M0 0 C4.72065967 1.54269924 9.41664092 3.07794619 14 5 C14 5.66 14 6.32 14 7 C12.02 7.99 12.02 7.99 10 9 C9.67 7.68 9.34 6.36 9 5 C6.36 4.67 3.72 4.34 1 4 C0.67 2.68 0.34 1.36 0 0 Z " fill="#7A56D2" transform="translate(81,230)"/>
<path d="M0 0 C1.051875 0.70576172 1.051875 0.70576172 2.125 1.42578125 C7.63320451 5.04054046 12.72189521 7.98626827 19 10 C19 10.33 19 10.66 19 11 C11.71515235 10.768735 6.38539081 9.13295061 1 4 C0.25 1.80078125 0.25 1.80078125 0 0 Z " fill="#7359C3" transform="translate(115,160)"/>
<path d="M0 0 C-0.33 0.66 -0.66 1.32 -1 2 C-3.58361518 2.05407567 -6.16609255 2.093707 -8.75 2.125 C-9.47960937 2.14175781 -10.20921875 2.15851563 -10.9609375 2.17578125 C-14.8044624 2.21072239 -17.74606772 2.17499684 -21 0 C-19.41058594 0.01740234 -19.41058594 0.01740234 -17.7890625 0.03515625 C-16.40104342 0.04453476 -15.01302245 0.05363489 -13.625 0.0625 C-12.57699219 0.07506836 -12.57699219 0.07506836 -11.5078125 0.08789062 C-7.20335464 0.10858513 -4.07721992 -1.22316597 0 0 Z " fill="#795AD5" transform="translate(112,259)"/>
<path d="M0 0 C-2.41267325 0.867242 -4.82904469 1.71896936 -7.25 2.5625 C-8.27287109 2.9327832 -8.27287109 2.9327832 -9.31640625 3.31054688 C-15.58342161 5.47053761 -15.58342161 5.47053761 -19 4 C-12.96014924 0.54636193 -6.9908272 -2.33027573 0 0 Z " fill="#856AD3" transform="translate(165,255)"/>
<path d="M0 0 C1.29315061 0.95632999 2.58446853 1.91513851 3.875 2.875 C4.59429687 3.40867188 5.31359375 3.94234375 6.0546875 4.4921875 C8 6 8 6 10 8 C9.4225 7.79375 8.845 7.5875 8.25 7.375 C5.46120465 6.91020077 4.43530833 7.70116889 2 9 C1.34 8.67 0.68 8.34 0 8 C0 5.36 0 2.72 0 0 Z " fill="#EBE5F7" transform="translate(128,138)"/>
<path d="M0 0 C0.33 1.32 0.66 2.64 1 4 C-1.04262595 6.83698049 -4.04633806 8.22780284 -7 10 C-8.75149165 11.58245275 -8.75149165 11.58245275 -10 13 C-10.66 12.67 -11.32 12.34 -12 12 C-8.04 8.04 -4.08 4.08 0 0 Z " fill="#E6DEFA" transform="translate(210,221)"/>
<path d="M0 0 C0.66 0 1.32 0 2 0 C2.33 1.32 2.66 2.64 3 4 C2.34 4 1.68 4 1 4 C0.7525 4.804375 0.505 5.60875 0.25 6.4375 C-1 9 -1 9 -3.125 9.8125 C-3.74375 9.874375 -4.3625 9.93625 -5 10 C-4.39816251 7.97954558 -3.72693904 5.97888961 -3 4 C-2.34 3.67 -1.68 3.34 -1 3 C-0.67 2.01 -0.34 1.02 0 0 Z " fill="#6F4ECD" transform="translate(204,184)"/>
<path d="M0 0 C0.33 0 0.66 0 1 0 C1.3125 2.6875 1.3125 2.6875 1 6 C-1.375 8.875 -1.375 8.875 -4 11 C-4.66 11 -5.32 11 -6 11 C-6.33 11.99 -6.66 12.98 -7 14 C-7.66 13.67 -8.32 13.34 -9 13 C-7.52485505 10.8304939 -6.0451561 8.66436293 -4.5625 6.5 C-4.14162109 5.87996094 -3.72074219 5.25992188 -3.28710938 4.62109375 C-2.21691863 3.06289602 -1.11120482 1.52921949 0 0 Z " fill="#7458C9" transform="translate(198,194)"/>
<path d="M0 0 C2.90043992 3.72295274 5.22402979 7.68701292 7.59765625 11.7578125 C8.93829854 14.08800146 8.93829854 14.08800146 11 16 C10.67 16.99 10.34 17.98 10 19 C0 5.1369863 0 5.1369863 0 0 Z " fill="#6B50BD" transform="translate(61,172)"/>
<path d="M0 0 C2.14576637 -0.02685938 4.29162645 -0.04633088 6.4375 -0.0625 C7.63246094 -0.07410156 8.82742187 -0.08570313 10.05859375 -0.09765625 C13 0 13 0 14 1 C15.84891946 1.23363881 17.70488031 1.41303635 19.5625 1.5625 C20.57441406 1.64628906 21.58632812 1.73007813 22.62890625 1.81640625 C23.80259766 1.90728516 23.80259766 1.90728516 25 2 C25 2.33 25 2.66 25 3 C16.3725342 3.20705918 8.40371809 3.21462689 0 1 C0 0.67 0 0.34 0 0 Z " fill="#CABCED" transform="translate(135,171)"/>
<path d="M0 0 C4.21814817 3.9700218 7.61227103 8.30840284 11 13 C8.525 12.01 8.525 12.01 6 11 C6 10.34 6 9.68 6 9 C5.38125 8.9175 4.7625 8.835 4.125 8.75 C2 8 2 8 0.75 6.1875 C0 4 0 4 0 0 Z " fill="#795EC5" transform="translate(48,202)"/>
<path d="M0 0 C0.66 0 1.32 0 2 0 C2 0.66 2 1.32 2 2 C2.8353125 2.37125 2.8353125 2.37125 3.6875 2.75 C6.44160479 4.23870529 8.69174514 5.88409972 11 8 C11 8.99 11 9.98 11 11 C7.584241 9.55661511 5.63973737 7.75105832 3.25 4.9375 C2.63640625 4.22464844 2.0228125 3.51179687 1.390625 2.77734375 C0 1 0 1 0 0 Z " fill="#7156C1" transform="translate(124,132)"/>
<path d="M0 0 C1.89783243 3.24245055 2.32629089 5.89591152 2.5625 9.625 C2.74338455 13.45721155 2.74338455 13.45721155 4 17 C3.01 16.67 2.02 16.34 1 16 C-0.14077657 12.57767028 -0.09815117 9.91326783 -0.0625 6.3125 C-0.05347656 5.13300781 -0.04445313 3.95351562 -0.03515625 2.73828125 C-0.02355469 1.83464844 -0.01195313 0.93101563 0 0 Z " fill="#7D5FCE" transform="translate(95,124)"/>
<path d="M0 0 C0.58984375 1.859375 0.58984375 1.859375 1 4 C-0.4375 6.25 -0.4375 6.25 -2 8 C-2 7.01 -2 6.02 -2 5 C-4.64 5.33 -7.28 5.66 -10 6 C-8.64695791 3.29391583 -7.19033456 3.03816953 -4.4375 1.875 C-3.61121094 1.52179688 -2.78492188 1.16859375 -1.93359375 0.8046875 C-1.29550781 0.53914062 -0.65742188 0.27359375 0 0 Z " fill="#7D6ABF" transform="translate(182,165)"/>
<path d="M0 0 C7 9.1 7 9.1 7 12 C5.35 11.67 3.7 11.34 2 11 C0.98617037 7.3791799 0.50102309 3.72188582 0 0 Z " fill="#EEE6FC" transform="translate(18,202)"/>
<path d="M0 0 C0.103125 0.598125 0.20625 1.19625 0.3125 1.8125 C0.94177772 4.40434372 0.94177772 4.40434372 4 7 C-0.455 8.485 -0.455 8.485 -5 10 C-3.66511872 6.40608886 -2.03977277 3.24509304 0 0 Z " fill="#6F48D3" transform="translate(188,208)"/>
<path d="M0 0 C0.66 0 1.32 0 2 0 C2.65234375 1.734375 2.65234375 1.734375 3 4 C2.00390625 6.140625 2.00390625 6.140625 0.5625 8.25 C0.08941406 8.95640625 -0.38367188 9.6628125 -0.87109375 10.390625 C-1.24363281 10.92171875 -1.61617187 11.4528125 -2 12 C-3.53640826 7.39077523 -1.82174585 4.37219003 0 0 Z " fill="#7656D3" transform="translate(222,196)"/>
<path d="M0 0 C-1.22934015 3.68802044 -2.93859378 4.72356973 -6 7 C-6 6.34 -6 5.68 -6 5 C-6.99 5.33 -7.98 5.66 -9 6 C-9.66 5.34 -10.32 4.68 -11 4 C-9.5437455 3.32880451 -8.08492133 2.66318193 -6.625 2 C-5.81289062 1.62875 -5.00078125 1.2575 -4.1640625 0.875 C-2 0 -2 0 0 0 Z " fill="#7457CB" transform="translate(165,228)"/>
<path d="M0 0 C0.66 0 1.32 0 2 0 C0.55613418 3.71279784 -1.12236392 4.9486443 -4.625 6.75 C-5.44226563 7.17796875 -6.25953125 7.6059375 -7.1015625 8.046875 C-7.72804687 8.36140625 -8.35453125 8.6759375 -9 9 C-7.63016497 5.83884224 -7.0109362 5.0072908 -4 3 C-3.01 3 -2.02 3 -1 3 C-0.67 2.01 -0.34 1.02 0 0 Z " fill="#ECE3FC" transform="translate(177,216)"/>
<path d="M0 0 C0.99 0.33 1.98 0.66 3 1 C0.69 3.64 -1.62 6.28 -4 9 C-4.33 7.68 -4.66 6.36 -5 5 C-4.34 5 -3.68 5 -3 5 C-3 4.34 -3 3.68 -3 3 C-2.34 3 -1.68 3 -1 3 C-0.67 2.01 -0.34 1.02 0 0 Z " fill="#EEE6FA" transform="translate(189,203)"/>
<path d="M0 0 C1.27310312 0.93441535 2.543388 1.87267111 3.8125 2.8125 C4.52019531 3.33457031 5.22789063 3.85664063 5.95703125 4.39453125 C7.78531393 5.83128877 9.39896688 7.31815763 11 9 C8 9 8 9 5 7 C5 6.34 5 5.68 5 5 C3.68 4.67 2.36 4.34 1 4 C0.67 2.68 0.34 1.36 0 0 Z " fill="#7157C4" transform="translate(59,215)"/>
<path d="M0 0 C0.66 0 1.32 0 2 0 C2.92844389 4.33273814 2.92844389 7.66726186 2 12 C-0.13586678 8.79619983 -0.23132175 7.98060033 -0.125 4.3125 C-0.10695312 3.50425781 -0.08890625 2.69601563 -0.0703125 1.86328125 C-0.04710937 1.24839844 -0.02390625 0.63351563 0 0 Z " fill="#6A46D0" transform="translate(59,160)"/>
<path d="M0 0 C0.99 0.33 1.98 0.66 3 1 C2.67 1.99 2.34 2.98 2 4 C-0.06640625 4.94921875 -0.06640625 4.94921875 -2.5625 5.6875 C-3.38878906 5.93886719 -4.21507812 6.19023437 -5.06640625 6.44921875 C-5.70449219 6.63097656 -6.34257812 6.81273437 -7 7 C-4.66666667 4.66666667 -2.33333333 2.33333333 0 0 Z " fill="#EEE5FC" transform="translate(197,234)"/>
<path d="M0 0 C1.32 0 2.64 0 4 0 C4 0.66 4 1.32 4 2 C5.98 1.67 7.96 1.34 10 1 C10.33 2.32 10.66 3.64 11 5 C6.87248551 4.39301257 3.6678852 2.96189209 0 1 C0 0.67 0 0.34 0 0 Z " fill="#7355C8" transform="translate(85,203)"/>
<path d="M0 0 C-0.33 0.66 -0.66 1.32 -1 2 C-3.06640625 2.4140625 -3.06640625 2.4140625 -5.5625 2.625 C-6.38878906 2.69976562 -7.21507812 2.77453125 -8.06640625 2.8515625 C-9.02353516 2.92503906 -9.02353516 2.92503906 -10 3 C-9.01 2.67 -8.02 2.34 -7 2 C-7 1.34 -7 0.68 -7 0 C-3.86650268 -1.04449911 -3.01031744 -0.93423645 0 0 Z " fill="#E9E2F9" transform="translate(148,210)"/>
<path d="M0 0 C0.33 0 0.66 0 1 0 C0.88601335 1.62580966 0.75844341 3.25067157 0.625 4.875 C0.52058594 6.23238281 0.52058594 6.23238281 0.4140625 7.6171875 C0 10 0 10 -2 12 C-2.17835515 7.45194365 -1.99785435 4.1205746 0 0 Z " fill="#8367D1" transform="translate(232,174)"/>
<path d="M0 0 C2.9375 0.8125 2.9375 0.8125 6 2 C6.33 2.99 6.66 3.98 7 5 C4.36 4.67 1.72 4.34 -1 4 C-0.67 2.68 -0.34 1.36 0 0 Z " fill="#724FCB" transform="translate(105,153)"/>
<path d="M0 0 C3.63 0.33 7.26 0.66 11 1 C6.78370866 3.10814567 4.60209225 3.17700355 0 3 C0 2.01 0 1.02 0 0 Z " fill="#8A70D6" transform="translate(135,259)"/>
<path d="M0 0 C0.0825 0.61875 0.165 1.2375 0.25 1.875 C0.81258459 4.18437567 0.81258459 4.18437567 3.0625 5.25 C3.701875 5.4975 4.34125 5.745 5 6 C0.78087253 5.5205537 -1.79663178 4.83374881 -5 2 C-3.35 1.34 -1.7 0.68 0 0 Z " fill="#886ED7" transform="translate(79,251)"/>
<path d="M0 0 C0.66 0 1.32 0 2 0 C2.66 0.99 3.32 1.98 4 3 C4.99 3.66 5.98 4.32 7 5 C7.1875 7.625 7.1875 7.625 7 10 C3.66442368 7.0094833 1.84916079 4.06815373 0 0 Z " fill="#7A5DD2" transform="translate(22,208)"/>
<path d="M0 0 C0.99 0.33 1.98 0.66 3 1 C0.42215154 3.64752004 -1.91648098 5.94432065 -5 8 C-5 7.01 -5 6.02 -5 5 C-3.68 4.67 -2.36 4.34 -1 4 C-0.67 2.68 -0.34 1.36 0 0 Z " fill="#7659C9" transform="translate(162,195)"/>
<path d="M0 0 C0.66 0 1.32 0 2 0 C2.33 1.65 2.66 3.3 3 5 C1.68 5.99 0.36 6.98 -1 8 C-0.67 5.36 -0.34 2.72 0 0 Z " fill="#F0EDFA" transform="translate(233,176)"/>
<path d="M0 0 C0 3.57575896 -1.08840607 5.05295935 -3 8 C-4.32 7.67 -5.64 7.34 -7 7 C-4.69 4.69 -2.38 2.38 0 0 Z " fill="#7F62CC" transform="translate(186,210)"/>
<path d="M0 0 C0.99 0 1.98 0 3 0 C1.68775452 3.93673644 0.08089673 6.22719294 -3 9 C-2.67 7.35 -2.34 5.7 -2 4 C-1.34 4 -0.68 4 0 4 C0 2.68 0 1.36 0 0 Z " fill="#7A5BD1" transform="translate(216,208)"/>
<path d="M0 0 C2.375 0.6875 2.375 0.6875 5 2 C6.3125 4.625 6.3125 4.625 7 7 C3.17053157 5.54744301 1.87949705 3.57104439 0 0 Z " fill="#F4ECFD" transform="translate(48,201)"/>
<path d="M0 0 C1.98 0 3.96 0 6 0 C6 0.99 6 1.98 6 3 C2.98968256 3.93423645 2.13349732 4.04449911 -1 3 C-0.67 2.01 -0.34 1.02 0 0 Z " fill="#6A46D2" transform="translate(153,233)"/>
<path d="M0 0 C4.75 1.875 4.75 1.875 7 3 C7 3.66 7 4.32 7 5 C4.69 4.34 2.38 3.68 0 3 C0 2.01 0 1.02 0 0 Z " fill="#7253C9" transform="translate(81,230)"/>
<path d="M0 0 C3 1 3 1 4.6875 4.0625 C5.120625 5.031875 5.55375 6.00125 6 7 C5.34 7 4.68 7 4 7 C4 6.34 4 5.68 4 5 C3.01 5 2.02 5 1 5 C0.67 3.35 0.34 1.7 0 0 Z " fill="#E2D9F6" transform="translate(64,183)"/>
<path d="M0 0 C-2.5654594 2.5654594 -4.47686668 2.54046087 -8 3 C-7.67 2.01 -7.34 1.02 -7 0 C-3.86650268 -1.04449911 -3.01031744 -0.93423645 0 0 Z " fill="#6B4BC8" transform="translate(151,236)"/>
<path d="M0 0 C1.64826111 2.96687001 2.44271087 5.65626525 3 9 C0.9375 7.3125 0.9375 7.3125 -1 5 C-0.75 2.25 -0.75 2.25 0 0 Z " fill="#D1C6EF" transform="translate(58,165)"/>
</svg>
