<?xml version="1.0" encoding="UTF-8"?>
<svg version="1.1" xmlns="http://www.w3.org/2000/svg" width="512" height="512">
<path d="M0 0 C0.88450836 0.00054382 1.76901672 0.00108765 2.68032837 0.00164795 C16.68408288 0.04119273 30.00066575 0.91760811 43.625 4.375 C44.5109082 4.58930664 45.39681641 4.80361328 46.30957031 5.02441406 C59.04448886 8.15460692 70.87365998 12.58123007 82.625 18.375 C83.35203125 18.72965332 84.0790625 19.08430664 84.828125 19.44970703 C99.49783004 26.67726783 112.18634342 35.78195553 124.625 46.375 C125.82962891 47.39400391 125.82962891 47.39400391 127.05859375 48.43359375 C132.0507764 52.75229476 136.38506588 57.32827679 140.625 62.375 C141.44742187 63.29796875 142.26984375 64.2209375 143.1171875 65.171875 C176.90176533 103.37027387 190.38828523 153.90215784 187.38671875 204.12109375 C183.60847685 251.10965151 160.59497274 291.27947515 128.0625 324.0625 C127.29317139 324.83895874 127.29317139 324.83895874 126.50830078 325.63110352 C122.87072862 329.25213569 122.87072862 329.25213569 120.625 330.375 C121.27052798 335.29679011 122.69339435 339.76343654 124.3828125 344.40625 C124.93150652 345.95424395 125.47966757 347.5024269 126.02734375 349.05078125 C126.88844397 351.46884509 127.75368685 353.88517111 128.62841797 356.29833984 C129.47562916 358.64259276 130.30535379 360.99246484 131.1328125 363.34375 C131.39732208 364.05954224 131.66183167 364.77533447 131.93435669 365.51281738 C133.44359891 369.84713692 133.92119033 372.93903723 132.625 377.375 C132.08875 377.87 131.5525 378.365 131 378.875 C130.319375 379.6175 130.319375 379.6175 129.625 380.375 C129.93001248 384.84851641 131.3408971 389.09465699 132.625 393.375 C133.718125 393.478125 134.81125 393.58125 135.9375 393.6875 C139.72432046 394.39351737 140.37029422 394.53283183 142.625 397.375 C143.59077454 399.4815979 143.59077454 399.4815979 144.4309082 401.94384766 C144.75166824 402.86976715 145.07242828 403.79568665 145.40290833 404.74966431 C145.74045639 405.75266571 146.07800446 406.75566711 146.42578125 407.7890625 C146.96406807 409.35362686 146.96406807 409.35362686 147.51322937 410.94979858 C148.66290088 414.29710608 149.80046423 417.64838176 150.9375 421 C152.06331099 424.29109257 153.19155732 427.58134297 154.32003784 430.871521 C155.05483461 433.01797201 155.78705055 435.16530832 156.51663208 437.3135376 C158.13168003 442.06346141 159.76496086 446.80122653 161.50537109 451.50683594 C161.78857712 452.27869232 162.07178314 453.05054871 162.36357117 453.84579468 C162.87728084 455.23649525 163.39986409 456.62397146 163.93391418 458.00698853 C165.49929828 462.25856713 165.98638021 465.85792035 165.625 470.375 C163.59298233 473.34487197 162.33611997 474.20963139 158.83106995 475.02471924 C155.60082168 475.37764161 153.13898402 475.17960871 149.95288086 474.60449219 C148.85931778 474.41742203 147.7657547 474.23035187 146.63905334 474.03761292 C145.46781418 473.8344194 144.29657501 473.63122589 143.08984375 473.421875 C116.41379053 467.57967624 116.41379053 467.57967624 91.08161926 472.15237427 C85.5224892 476.29031523 81.74493986 481.81535651 78.2902832 487.76293945 C76.16900923 491.090239 73.65797562 493.25523544 70.61132812 495.71459961 C68.51982162 497.46292013 66.71860877 499.32978943 64.87890625 501.33984375 C64.26853516 501.99404297 63.65816406 502.64824219 63.02929688 503.32226562 C61.78951791 504.66196315 60.5656988 506.01658865 59.35742188 507.38476562 C56.02698249 510.89769484 53.80402408 512.82815639 48.83984375 513.00390625 C46.2923682 512.90328531 45.06975951 512.74760161 43.10420227 511.10093689 C41.45203302 509.1731817 40.7786308 507.61608362 39.96191406 505.21875 C39.52350189 503.95333374 39.52350189 503.95333374 39.07623291 502.66235352 C38.7674823 501.74252686 38.45873169 500.8227002 38.140625 499.875 C37.80818787 498.90812256 37.47575073 497.94124512 37.13323975 496.94506836 C36.03920632 493.75770795 34.95727061 490.56637152 33.875 487.375 C33.11555344 485.15721965 32.35512587 482.939775 31.59375 480.72265625 C30.03110986 476.17042451 28.47223432 471.61693075 26.91601562 467.0625 C23.52591873 457.15265667 20.07773227 447.26315629 16.625 437.375 C16.31557465 436.48767181 16.00614929 435.60034363 15.68734741 434.68612671 C10.75730966 420.54897057 5.73948001 406.44656549 0.625 392.375 C-1.75613448 399.03948926 -4.13011722 405.70650148 -6.5 412.375 C-6.86804749 413.41033875 -7.23609497 414.44567749 -7.61529541 415.51239014 C-12.58785131 429.5156383 -17.48231868 443.54334348 -22.296875 457.6015625 C-22.54478161 458.32506645 -22.79268822 459.0485704 -23.04810715 459.79399872 C-25.51777952 467.00236384 -27.9830756 474.21218517 -30.43637085 481.42614174 C-31.35899369 484.1366822 -32.28490934 486.84609058 -33.21149445 489.55527878 C-33.84914937 491.42370796 -34.48222866 493.29369674 -35.11517334 495.16372681 C-35.50110657 496.29128387 -35.88703979 497.41884094 -36.28466797 498.58056641 C-36.61755829 499.55941803 -36.95044861 500.53826965 -37.29342651 501.54678345 C-38.83540578 505.57891935 -40.29811956 509.29811956 -43.375 512.375 C-46.55235807 513.34815515 -49.17630535 513.23292206 -52.375 512.375 C-56.37897653 509.47661608 -59.60388948 505.94543544 -62.9375 502.3125 C-64.72822578 500.42365226 -66.52115856 498.53689418 -68.31640625 496.65234375 C-69.18539551 495.73179199 -70.05438477 494.81124023 -70.94970703 493.86279297 C-73.52771978 491.21834462 -76.18672388 488.84389 -79.07983398 486.5534668 C-81.12056193 484.616501 -82.5432062 482.81122477 -84.16821289 480.53833008 C-88.34513169 475.06684474 -92.40395358 470.05600455 -99.48632812 468.84143066 C-107.70809586 468.60518984 -115.7883756 469.86542418 -123.88354492 471.18469238 C-127.20647962 471.71081353 -130.54034378 472.15301299 -133.875 472.59765625 C-137.63033778 473.09879384 -141.37955456 473.60933705 -145.12365723 474.18875122 C-150.80910128 475.05064856 -155.75493695 475.79169989 -161.375 474.375 C-163.98846036 472.1830655 -164.32515269 470.84722102 -164.68188477 467.46777344 C-164.57992549 461.86987462 -162.38251804 456.73129447 -160.52734375 451.515625 C-160.123983 450.35437103 -159.72062225 449.19311707 -159.30503845 447.99667358 C-158.21122853 444.85416205 -157.10801788 441.71526888 -156.00032806 438.57764435 C-154.84613386 435.30105402 -153.70416527 432.02020913 -152.56103516 428.73974609 C-150.71512249 423.4469959 -148.86244643 418.15666432 -147.00439453 412.86816406 C-144.67500839 406.23730452 -142.36268034 399.60062711 -140.05859375 392.9609375 C-130.53615218 365.54163033 -130.53615218 365.54163033 -126.23046875 353.65234375 C-125.98846741 352.98251465 -125.74646606 352.31268555 -125.49713135 351.62255859 C-124.39538612 348.57463372 -123.28701762 345.52949344 -122.16552734 342.48876953 C-121.79250488 341.46251465 -121.41948242 340.43625977 -121.03515625 339.37890625 C-120.54994507 338.06128296 -120.54994507 338.06128296 -120.05493164 336.71704102 C-119.18913051 334.14122505 -119.18913051 334.14122505 -119.375 330.375 C-120.64178648 328.84411373 -120.64178648 328.84411373 -122.5 327.5 C-139.34171704 313.4800874 -152.88953696 296.58749439 -163.375 277.375 C-163.89054443 276.43454834 -163.89054443 276.43454834 -164.41650391 275.47509766 C-187.20811674 233.32505252 -193.3245492 182.10802018 -179.81640625 135.9609375 C-169.34452055 102.00553885 -150.94898528 69.37738214 -123.375 46.375 C-122.50230469 45.61445312 -121.62960938 44.85390625 -120.73046875 44.0703125 C-95.32376078 22.23482854 -65.11882382 8.81006253 -32.375 2.375 C-31.43817383 2.18808594 -30.50134766 2.00117187 -29.53613281 1.80859375 C-19.70683956 0.06282647 -9.95125936 -0.0230103 0 0 Z " fill="#CC732F" transform="translate(255.375,-0.375)"/>
<path d="M0 0 C0.88450836 0.00054382 1.76901672 0.00108765 2.68032837 0.00164795 C16.68408288 0.04119273 30.00066575 0.91760811 43.625 4.375 C44.5109082 4.58930664 45.39681641 4.80361328 46.30957031 5.02441406 C59.04448886 8.15460692 70.87365998 12.58123007 82.625 18.375 C83.35203125 18.72965332 84.0790625 19.08430664 84.828125 19.44970703 C99.49783004 26.67726783 112.18634342 35.78195553 124.625 46.375 C125.82962891 47.39400391 125.82962891 47.39400391 127.05859375 48.43359375 C132.0507764 52.75229476 136.38506588 57.32827679 140.625 62.375 C141.44742187 63.29796875 142.26984375 64.2209375 143.1171875 65.171875 C176.90176533 103.37027387 190.38828523 153.90215784 187.38671875 204.12109375 C183.60847685 251.10965151 160.59497274 291.27947515 128.0625 324.0625 C127.29317139 324.83895874 127.29317139 324.83895874 126.50830078 325.63110352 C122.87072862 329.25213569 122.87072862 329.25213569 120.625 330.375 C121.27052798 335.29679011 122.69339435 339.76343654 124.3828125 344.40625 C124.93150652 345.95424395 125.47966757 347.5024269 126.02734375 349.05078125 C126.88844397 351.46884509 127.75368685 353.88517111 128.62841797 356.29833984 C129.47562916 358.64259276 130.30535379 360.99246484 131.1328125 363.34375 C131.39732208 364.05954224 131.66183167 364.77533447 131.93435669 365.51281738 C133.44359891 369.84713692 133.92119033 372.93903723 132.625 377.375 C132.08875 377.87 131.5525 378.365 131 378.875 C130.319375 379.6175 130.319375 379.6175 129.625 380.375 C129.93001248 384.84851641 131.3408971 389.09465699 132.625 393.375 C133.718125 393.478125 134.81125 393.58125 135.9375 393.6875 C139.72432046 394.39351737 140.37029422 394.53283183 142.625 397.375 C143.59077454 399.4815979 143.59077454 399.4815979 144.4309082 401.94384766 C144.75166824 402.86976715 145.07242828 403.79568665 145.40290833 404.74966431 C145.74045639 405.75266571 146.07800446 406.75566711 146.42578125 407.7890625 C146.96406807 409.35362686 146.96406807 409.35362686 147.51322937 410.94979858 C148.66290088 414.29710608 149.80046423 417.64838176 150.9375 421 C152.06331099 424.29109257 153.19155732 427.58134297 154.32003784 430.871521 C155.05483461 433.01797201 155.78705055 435.16530832 156.51663208 437.3135376 C158.13168003 442.06346141 159.76496086 446.80122653 161.50537109 451.50683594 C161.78857712 452.27869232 162.07178314 453.05054871 162.36357117 453.84579468 C162.87728084 455.23649525 163.39986409 456.62397146 163.93391418 458.00698853 C165.49929828 462.25856713 165.98638021 465.85792035 165.625 470.375 C163.59298233 473.34487197 162.33611997 474.20963139 158.83106995 475.02471924 C155.60082168 475.37764161 153.13898402 475.17960871 149.95288086 474.60449219 C148.85931778 474.41742203 147.7657547 474.23035187 146.63905334 474.03761292 C145.46781418 473.8344194 144.29657501 473.63122589 143.08984375 473.421875 C116.41379053 467.57967624 116.41379053 467.57967624 91.08161926 472.15237427 C85.5224892 476.29031523 81.74493986 481.81535651 78.2902832 487.76293945 C76.16900923 491.090239 73.65797562 493.25523544 70.61132812 495.71459961 C68.51982162 497.46292013 66.71860877 499.32978943 64.87890625 501.33984375 C64.26853516 501.99404297 63.65816406 502.64824219 63.02929688 503.32226562 C61.78951791 504.66196315 60.5656988 506.01658865 59.35742188 507.38476562 C56.02698249 510.89769484 53.80402408 512.82815639 48.83984375 513.00390625 C46.2923682 512.90328531 45.06975951 512.74760161 43.10420227 511.10093689 C41.45203302 509.1731817 40.7786308 507.61608362 39.96191406 505.21875 C39.52350189 503.95333374 39.52350189 503.95333374 39.07623291 502.66235352 C38.7674823 501.74252686 38.45873169 500.8227002 38.140625 499.875 C37.80818787 498.90812256 37.47575073 497.94124512 37.13323975 496.94506836 C36.03920632 493.75770795 34.95727061 490.56637152 33.875 487.375 C33.11555344 485.15721965 32.35512587 482.939775 31.59375 480.72265625 C30.03110986 476.17042451 28.47223432 471.61693075 26.91601562 467.0625 C23.52591873 457.15265667 20.07773227 447.26315629 16.625 437.375 C16.31557465 436.48767181 16.00614929 435.60034363 15.68734741 434.68612671 C10.75730966 420.54897057 5.73948001 406.44656549 0.625 392.375 C-1.75613448 399.03948926 -4.13011722 405.70650148 -6.5 412.375 C-6.86804749 413.41033875 -7.23609497 414.44567749 -7.61529541 415.51239014 C-12.58785131 429.5156383 -17.48231868 443.54334348 -22.296875 457.6015625 C-22.54478161 458.32506645 -22.79268822 459.0485704 -23.04810715 459.79399872 C-25.51777952 467.00236384 -27.9830756 474.21218517 -30.43637085 481.42614174 C-31.35899369 484.1366822 -32.28490934 486.84609058 -33.21149445 489.55527878 C-33.84914937 491.42370796 -34.48222866 493.29369674 -35.11517334 495.16372681 C-35.50110657 496.29128387 -35.88703979 497.41884094 -36.28466797 498.58056641 C-36.61755829 499.55941803 -36.95044861 500.53826965 -37.29342651 501.54678345 C-38.83540578 505.57891935 -40.29811956 509.29811956 -43.375 512.375 C-46.55235807 513.34815515 -49.17630535 513.23292206 -52.375 512.375 C-56.37897653 509.47661608 -59.60388948 505.94543544 -62.9375 502.3125 C-64.72822578 500.42365226 -66.52115856 498.53689418 -68.31640625 496.65234375 C-69.18539551 495.73179199 -70.05438477 494.81124023 -70.94970703 493.86279297 C-73.52771978 491.21834462 -76.18672388 488.84389 -79.07983398 486.5534668 C-81.12056193 484.616501 -82.5432062 482.81122477 -84.16821289 480.53833008 C-88.34513169 475.06684474 -92.40395358 470.05600455 -99.48632812 468.84143066 C-107.70809586 468.60518984 -115.7883756 469.86542418 -123.88354492 471.18469238 C-127.20647962 471.71081353 -130.54034378 472.15301299 -133.875 472.59765625 C-137.63033778 473.09879384 -141.37955456 473.60933705 -145.12365723 474.18875122 C-150.80910128 475.05064856 -155.75493695 475.79169989 -161.375 474.375 C-163.98846036 472.1830655 -164.32515269 470.84722102 -164.68188477 467.46777344 C-164.57992549 461.86987462 -162.38251804 456.73129447 -160.52734375 451.515625 C-160.123983 450.35437103 -159.72062225 449.19311707 -159.30503845 447.99667358 C-158.21122853 444.85416205 -157.10801788 441.71526888 -156.00032806 438.57764435 C-154.84613386 435.30105402 -153.70416527 432.02020913 -152.56103516 428.73974609 C-150.71512249 423.4469959 -148.86244643 418.15666432 -147.00439453 412.86816406 C-144.67500839 406.23730452 -142.36268034 399.60062711 -140.05859375 392.9609375 C-130.53615218 365.54163033 -130.53615218 365.54163033 -126.23046875 353.65234375 C-125.98846741 352.98251465 -125.74646606 352.31268555 -125.49713135 351.62255859 C-124.39538612 348.57463372 -123.28701762 345.52949344 -122.16552734 342.48876953 C-121.79250488 341.46251465 -121.41948242 340.43625977 -121.03515625 339.37890625 C-120.54994507 338.06128296 -120.54994507 338.06128296 -120.05493164 336.71704102 C-119.18913051 334.14122505 -119.18913051 334.14122505 -119.375 330.375 C-120.64178648 328.84411373 -120.64178648 328.84411373 -122.5 327.5 C-139.34171704 313.4800874 -152.88953696 296.58749439 -163.375 277.375 C-163.89054443 276.43454834 -163.89054443 276.43454834 -164.41650391 275.47509766 C-187.20811674 233.32505252 -193.3245492 182.10802018 -179.81640625 135.9609375 C-169.34452055 102.00553885 -150.94898528 69.37738214 -123.375 46.375 C-122.50230469 45.61445312 -121.62960938 44.85390625 -120.73046875 44.0703125 C-95.32376078 22.23482854 -65.11882382 8.81006253 -32.375 2.375 C-31.43817383 2.18808594 -30.50134766 2.00117187 -29.53613281 1.80859375 C-19.70683956 0.06282647 -9.95125936 -0.0230103 0 0 Z M-31.37451172 17.92626953 C-33.42173676 18.38548354 -35.47493993 18.78712105 -37.53515625 19.18359375 C-67.63524917 25.2685841 -96.10696539 41.53677987 -117.90478516 62.93994141 C-119.31642302 64.31782374 -120.75731394 65.66554206 -122.19921875 67.01171875 C-142.90818003 86.77533515 -157.86840021 113.85284172 -165.375 141.375 C-165.60348633 142.18565918 -165.83197266 142.99631836 -166.06738281 143.83154297 C-175.43618645 178.42258589 -172.0676055 216.17579682 -159.375 249.375 C-159.10316895 250.09236328 -158.83133789 250.80972656 -158.55126953 251.54882812 C-150.35149844 272.7386836 -136.94576983 291.02797478 -121.375 307.375 C-120.68148437 308.13296875 -119.98796875 308.8909375 -119.2734375 309.671875 C-98.83752498 331.29133457 -70.71518776 345.47200984 -42.375 353.375 C-41.23417969 353.69339844 -40.09335938 354.01179688 -38.91796875 354.33984375 C3.05046627 364.95073109 50.60094773 356.96411629 87.74804688 335.12695312 C99.6630887 327.75530189 110.39972902 318.92923757 120.625 309.375 C121.8625 308.21871094 121.8625 308.21871094 123.125 307.0390625 C154.08627821 277.14207823 171.34475413 233.73041146 172.14208984 191.13085938 C172.60178494 153.12577164 162.56253898 118.54292003 140.625 87.375 C140.20412109 86.77623047 139.78324219 86.17746094 139.34960938 85.56054688 C120.28494783 58.93006688 94.33124751 40.40349433 64.625 27.375 C63.614375 26.92253906 62.60375 26.47007813 61.5625 26.00390625 C51.30638138 21.71716917 40.48625441 19.54389476 29.625 17.375 C28.40554688 17.12492187 27.18609375 16.87484375 25.9296875 16.6171875 C7.45244721 13.51580674 -13.08872345 13.78600697 -31.37451172 17.92626953 Z " fill="#010101" transform="translate(255.375,-0.375)"/>
<path d="M0 0 C1.30340332 0.00418945 2.60680664 0.00837891 3.94970703 0.01269531 C14.99188191 0.14041334 25.61368941 1.16426278 36.4375 3.3125 C37.46641357 3.50537598 37.46641357 3.50537598 38.51611328 3.70214844 C69.14638092 9.61602472 98.3143093 26.67889582 120.4375 48.3125 C121.42993754 49.24461098 122.42344328 50.17558582 123.41796875 51.10546875 C145.74726295 72.29661931 160.62354647 100.72467773 168.4375 130.3125 C168.73164795 131.35543213 168.73164795 131.35543213 169.03173828 132.41943359 C180.36234544 173.89705275 170.96398903 220.44946506 150.4375 257.3125 C142.94969894 270.21844025 133.69097349 281.54785627 123.4375 292.3125 C122.74398438 293.07046875 122.05046875 293.8284375 121.3359375 294.609375 C110.30226317 306.28206522 96.54438745 315.73159401 82.4375 323.3125 C81.81004883 323.65087891 81.18259766 323.98925781 80.53613281 324.33789062 C63.25299244 333.46366792 43.81030727 339.72350732 24.4375 342.3125 C23.50421875 342.44140625 22.5709375 342.5703125 21.609375 342.703125 C-24.36662302 347.69480479 -69.82408433 334.51614712 -105.85546875 305.6953125 C-139.9742878 277.86488083 -161.74853965 239.83908179 -168.5625 196.3125 C-168.73612061 195.40153564 -168.90974121 194.49057129 -169.08862305 193.55200195 C-169.64903825 189.72091011 -169.77996169 185.93804294 -169.8359375 182.07421875 C-169.85479759 180.88972641 -169.85479759 180.88972641 -169.8740387 179.68130493 C-170.50846817 130.1740019 -155.27729137 86.88379515 -120.60839844 51.0065918 C-88.92539564 18.96441415 -45.21019523 -0.20117087 0 0 Z M-110.25 73.1875 C-129.88445751 95.72943659 -145.53101033 125.94544399 -146.5625 156.3125 C-146.59359863 157.03824219 -146.62469727 157.76398438 -146.65673828 158.51171875 C-146.7566499 161.07025963 -146.82038141 163.62761278 -146.875 166.1875 C-146.9049707 167.0213623 -146.93494141 167.85522461 -146.96582031 168.71435547 C-147.02126103 173.62576186 -147.02126103 173.62576186 -144.73046875 177.8828125 C-142.57791485 179.58776392 -142.57791485 179.58776392 -139.5625 179.3125 C-138.9025 184.2625 -138.2425 189.2125 -137.5625 194.3125 C-139.5425 195.3025 -139.5425 195.3025 -141.5625 196.3125 C-143.96177317 198.27415901 -143.96177317 198.27415901 -143.81640625 201.96875 C-143.02677631 231.43057282 -119.02844596 262.0406201 -99.1015625 281.74609375 C-69.78222541 309.12029683 -30.93614766 321.42601275 8.671875 320.56640625 C47.84978316 318.9488951 84.86380934 300.50836979 111.5625 272.125 C136.08803638 245.20672836 149.62715838 210.5752039 149.62280273 174.28833008 C149.62496899 172.27876705 149.64342114 170.26924292 149.66210938 168.25976562 C149.68093019 155.46788425 148.3942728 143.09814415 144.75 130.8125 C144.36026001 129.47832031 144.36026001 129.47832031 143.96264648 128.1171875 C141.52706392 120.08490095 138.31170314 112.75504813 134.4375 105.3125 C133.8703125 104.18328125 133.303125 103.0540625 132.71875 101.890625 C126.26911026 89.40177714 117.68239154 78.80558906 108.4375 68.3125 C107.81617188 67.60480469 107.19484375 66.89710937 106.5546875 66.16796875 C91.39092467 50.01822135 71.1399564 38.6528614 50.4375 31.3125 C49.22320312 30.86132812 48.00890625 30.41015625 46.7578125 29.9453125 C-9.48255357 9.98623794 -70.71634151 30.96306894 -110.25 73.1875 Z " fill="#FC9637" transform="translate(254.5625,14.6875)"/>
<path d="M0 0 C1.21429688 0.43054687 2.42859375 0.86109375 3.6796875 1.3046875 C39.41283132 14.67628677 69.94705286 42.53258184 86.03955078 77.2421875 C95.14535517 97.748106 99.23004896 117.55682703 99.25 139.9375 C99.25067474 140.62119659 99.25134949 141.30489319 99.25204468 142.00930786 C99.18889935 182.43589248 82.7996993 218.74129976 54.56201172 247.45654297 C28.23247016 273.47332349 -9.43604354 289.23105025 -46.4375 289.3125 C-49.62894364 289.26911279 -52.81201757 289.15244654 -56 289 C-56.83112305 288.96277832 -57.66224609 288.92555664 -58.51855469 288.88720703 C-98.25970705 286.82381133 -133.67046995 268.08427211 -160.625 239.1875 C-175.78340731 221.7389736 -193.87150096 194.71655454 -194.375 170.75 C-194 167 -194 167 -192.375 164.5 C-189.23686002 162.51801686 -187.65126535 162.32935942 -184 163 C-178.84558006 167.01788635 -177.72246958 171.13566522 -176.1875 177.1875 C-170.78267026 196.62636029 -161.99313525 212.53076628 -149 228 C-148.37480469 228.76054687 -147.74960938 229.52109375 -147.10546875 230.3046875 C-130.67663959 249.64453119 -106.43807336 263.01453279 -82 269 C-80.82050781 269.33902344 -79.64101562 269.67804688 -78.42578125 270.02734375 C-47.45393351 278.82094704 -10.72115053 271.43433861 17 256 C46.1493684 239.00975906 66.48075593 212.65748562 77.3125 181 C77.65031494 180.02756348 77.98812988 179.05512695 78.33618164 178.05322266 C82.46073511 165.53236862 83.39394872 152.99410799 83.375 139.875 C83.37412384 139.20190796 83.37324768 138.52881592 83.37234497 137.83532715 C83.22088117 102.34143534 68.78962566 71.27332511 44.68359375 45.5859375 C19.90462824 21.70868107 -13.92081637 7.31539888 -48.39086914 7.71679688 C-63.91646836 8.1127739 -78.31147808 9.84269675 -93 15 C-94.24007812 15.42023437 -95.48015625 15.84046875 -96.7578125 16.2734375 C-111.14452043 21.55772725 -124.49893799 29.89718354 -136 40 C-136.8765625 40.73347656 -137.753125 41.46695313 -138.65625 42.22265625 C-163.35290735 63.5547409 -178.45333532 95.91670723 -181.19042969 128.24951172 C-181.41623552 131.73586282 -181.57581767 135.21485511 -181.69140625 138.70703125 C-181.97932468 141.77937603 -182.26383507 143.49220621 -184 146 C-187.49124017 148.32749345 -188.89222251 148.50299316 -193 148 C-195.16796875 146.52734375 -195.16796875 146.52734375 -197 144 C-197.55283601 141.05205496 -197.47135952 138.17700973 -197.375 135.1875 C-197.34913818 133.91108643 -197.34913818 133.91108643 -197.32275391 132.60888672 C-196.22124128 93.16882048 -177.96798278 57.8618388 -149.7578125 30.84741211 C-136.56231208 18.50867912 -120.6703056 8.89805749 -104 2 C-103.21238281 1.66484375 -102.42476563 1.3296875 -101.61328125 0.984375 C-69.86806961 -11.57417026 -31.95997244 -11.87472437 0 0 Z " fill="#040200" transform="translate(305,46)"/>
<path d="M0 0 C4.75003686 3.14321846 4.75003686 3.14321846 5.59375 6.03515625 C5.46101607 8.90552745 5.29652635 11.40694729 4 14 C0.68080276 15.65959862 -2.42603857 15.56967506 -6 15 C-7.59603357 14.36433835 -9.17858314 13.69428952 -10.75 13 C-20.99248533 9.01998133 -33.90747097 9.41435809 -44.1875 13.0625 C-58.00955653 19.36295087 -66.69997085 29.90168532 -72.109375 43.86328125 C-73.71557945 49.52022061 -73.66657511 55.18325508 -73 61 C-71.2850297 64.55277877 -71.2850297 64.55277877 -68 66 C-64.96962902 66.6420786 -63.19405987 66.45629427 -60 66 C-56.82835172 63.56027055 -55.20013797 61.52394215 -54.67578125 57.53125 C-54.55589844 56.5309375 -54.43601563 55.530625 -54.3125 54.5 C-53.08848159 47.10267133 -50.59623977 41.05173868 -44.78125 36.1171875 C-37.09602031 30.81437901 -30.36522503 28.73563868 -21 30 C-11.68773705 33.15650891 -6.15251596 37.85089059 -1.125 46.0625 C1.60899766 53.37512025 1.19043708 62.38835861 -2 69.4375 C-6.13176236 76.53386021 -12.13244407 81.55834471 -20 84 C-21.70566187 84.17432079 -23.41458243 84.31858043 -25.125 84.4375 C-29.54607484 84.7605009 -31.87711089 85.67563417 -35 89 C-36.20463755 91.40927511 -36.07893471 92.70611534 -35.875 95.375 C-35.83117187 96.14585937 -35.78734375 96.91671875 -35.7421875 97.7109375 C-34.65323946 101.06948251 -32.96196545 102.15437366 -30 104 C-26.93357058 104.7211644 -26.93357058 104.7211644 -23.6875 104.9375 C-15.11277987 106.06014959 -9.59536722 109.33981882 -4.25390625 116.13671875 C0.48808755 123.18323291 0.93965853 130.65792039 0 139 C-0.91610669 142.02906245 -2.20575029 144.40698131 -4 147 C-4.66 148.03125 -5.32 149.0625 -6 150.125 C-10.60830692 155.25473615 -17.39945082 158.35980147 -24.09765625 159.55078125 C-33.18433877 159.96114756 -40.16653592 156.82305593 -46.875 150.8125 C-51.72008147 145.5446166 -53.97821258 139.26523698 -54.4375 132.1875 C-54.71682244 128.83563075 -55.05297163 127.9188872 -57 124.9375 C-60.53960366 122.65150597 -62.75398568 122.248404 -66.90625 122.5390625 C-69.21000924 122.90968128 -69.21000924 122.90968128 -71.5625 124.75 C-74.83541335 132.14963019 -73.42589024 140.7199909 -71.10546875 148.26953125 C-66.22210198 160.33127463 -57.66356809 169.3782248 -46 175 C-39.72366334 177.59710483 -34.02394052 178.55276168 -27.25 178.5 C-26.37674072 178.49355469 -25.50348145 178.48710937 -24.60375977 178.48046875 C-12.27222976 178.13467176 -2.09429556 173.29271502 7 165 C16.20620874 154.66045117 20.44295975 141.97864788 20.2734375 128.28125 C19.33657937 117.0389524 14.3166403 107.54262357 7.2890625 98.89453125 C6 97 6 97 5.9375 93.75 C7.11520505 89.59339394 8.78541309 87.34267292 11.4453125 84.02734375 C18.99028908 74.18854263 21.20816815 62.13421055 20 50 C18.78169001 44.48177238 17.33943072 39.2042088 14.390625 34.3515625 C12.43807928 31.04978575 12.52078506 28.76526024 13 25 C14.625 22.5625 14.625 22.5625 17 21 C19.9375 20.4375 19.9375 20.4375 23 21 C30.86681268 26.56433092 33.64019339 37.55690179 35.4921875 46.55078125 C37.86958863 62.69882123 34.11868528 75.98420048 26.29296875 89.94140625 C24.83254267 93.39613019 24.72101234 94.53081458 26 98 C27.07618886 100.00612642 28.20698255 101.98341174 29.375 103.9375 C37.643498 118.98039369 37.53727198 134.79808143 33 151 C28.23369528 165.99049564 18.26509906 178.50253893 4.5625 186.25 C-11.04778961 194.27377631 -29.02314076 197.28823749 -46.20703125 192.1015625 C-63.03793694 185.46335914 -76.27932788 174.67759858 -83.9375 158.0625 C-84.64426702 156.38297838 -85.33297245 154.69569654 -86 153 C-86.35191406 152.19433594 -86.70382813 151.38867188 -87.06640625 150.55859375 C-90.08278291 142.29195478 -90.70633931 129.71557314 -87.75 121.3125 C-84.21327286 114.61798076 -79.44161456 109.78395199 -72.10546875 107.37890625 C-63.97974225 105.91657699 -55.93744054 106.24632193 -49 111 C-42.97738884 116.41213206 -39.20577486 122.37785386 -38.5625 130.5625 C-38.18760238 134.95630007 -36.90903921 137.59226836 -34 141 C-30.94816636 142.94441721 -28.99230363 143.18673638 -25.4375 142.6875 C-24.67308594 142.58824219 -23.90867187 142.48898438 -23.12109375 142.38671875 C-20.82240377 142.0191013 -20.82240377 142.0191013 -18 141 C-15.79371111 136.23906083 -15.42918807 132.13730735 -16 127 C-19.93566974 122.13219795 -22.6207104 121.01003666 -28.625 120.25 C-36.99166733 118.87890739 -42.51492659 115.45733455 -47.74609375 108.80078125 C-52.32438868 102.22572217 -52.93343831 95.79939565 -52 88 C-49.65010536 80.31862397 -44.10531156 75.16110743 -37.3828125 71.05859375 C-33.65717049 69.40343148 -29.86161064 68.98774846 -25.83203125 68.5546875 C-21.86306087 67.77731675 -19.01128075 66.50308902 -16.71484375 63.08984375 C-15.44527413 59.37826044 -15.3126025 55.85629996 -16 52 C-18.52968474 48.71824682 -20.07731331 47.30756223 -24 46 C-28.55968946 45.47027214 -28.55968946 45.47027214 -32.75390625 47.046875 C-37.2477156 50.72855013 -38.05891112 53.06111949 -38.8125 58.625 C-40.18012113 66.91000916 -42.50728408 72.28682972 -49.0234375 77.67578125 C-56.26289685 82.52593287 -62.45930336 82.86091787 -71 82 C-77.08124239 80.36536204 -82.37635252 76.10062784 -86 71 C-88.74355812 65.47660792 -89.52089364 60.36619518 -89.4375 54.25 C-89.42992676 53.46359131 -89.42235352 52.67718262 -89.41455078 51.86694336 C-88.97491107 36.18271657 -80.69330006 22.11562629 -70 11 C-50.8911624 -5.81112349 -23.34252798 -10.89700324 0 0 Z " fill="#030201" transform="translate(283,92)"/>
<path d="M0 0 C0.38333496 1.08007324 0.76666992 2.16014648 1.16162109 3.27294922 C2.58346863 7.27435304 4.01276163 11.27306297 5.44433594 15.27099609 C6.06323871 17.00268995 6.68011173 18.73511062 7.29492188 20.46826172 C8.17828031 22.95733783 9.06887215 25.44372074 9.9609375 27.9296875 C10.37199234 29.09538773 10.37199234 29.09538773 10.79135132 30.28463745 C12.28136345 34.50818408 12.28136345 34.50818408 15 38 C17.32275177 38.40047444 19.65739357 38.7397104 22 39 C22.70088156 40.74468372 23.38524009 42.49601161 24.0625 44.25 C24.44535156 45.22453125 24.82820313 46.1990625 25.22265625 47.203125 C26.02880916 50.10365508 26.20216472 51.28206238 25 54 C24.22921364 54.67358551 24.22921364 54.67358551 23.44285583 55.36077881 C21.82523021 56.87752104 21.82523021 56.87752104 21.8094635 58.90631104 C22.63879584 64.92329546 24.2514929 70.40304546 26.30859375 76.109375 C26.79876732 77.50413055 26.79876732 77.50413055 27.29884338 78.92706299 C28.33610017 81.87130038 29.38667379 84.81058213 30.4375 87.75 C31.13953017 89.73797836 31.84071007 91.7262572 32.54101562 93.71484375 C35.7091871 102.87714441 35.7091871 102.87714441 39.21508789 111.91113281 C40 114 40 114 40 117 C31.62105867 116.59298275 23.32730291 115.84026713 14.99682617 114.85180664 C11.4496139 114.43891006 7.89994633 114.06556956 4.34765625 113.69921875 C0.77359266 113.32999085 -2.72902739 112.89959235 -6.25390625 112.20703125 C-11.03481278 111.55886663 -14.11446183 111.58054495 -18.08398438 114.56884766 C-22.74195568 118.68257819 -26.87432306 123.21383344 -30.99658203 127.85375977 C-33.53123882 130.56911046 -36.27506865 132.94750849 -39.10302734 135.34985352 C-42.59018061 138.38327294 -45.74948554 141.74543222 -48.94921875 145.07617188 C-50.2639718 146.41980193 -51.62816888 147.71469976 -53 149 C-53.66 149 -54.32 149 -55 149 C-55.20028305 148.41754517 -55.4005661 147.83509033 -55.60691833 147.23498535 C-65.47020978 118.55754659 -75.3887755 89.90370824 -85.56616211 61.3359375 C-95 34.84712379 -95 34.84712379 -95 31 C-94.40276123 30.93006836 -93.80552246 30.86013672 -93.19018555 30.78808594 C-61.18286868 26.98111566 -32.80582642 19.23592188 -5.57421875 1.46875 C-3 0 -3 0 0 0 Z " fill="#0082FB" transform="translate(362,341)"/>
<path d="M0 0 C3.54159438 0.74861795 6.1549649 2.21818483 9.2265625 4.13598633 C35.71238421 20.66172551 64.20304429 28.18219458 95 31 C93.62412087 37.80004304 91.69529384 44.20221205 89.39453125 50.7421875 C88.86011917 52.28060303 88.86011917 52.28060303 88.31491089 53.85009766 C87.15221276 57.19341577 85.98244023 60.53421002 84.8125 63.875 C84.00257361 66.19922911 83.19308951 68.5236124 82.3840332 70.84814453 C80.73315498 75.58856464 79.07932773 80.32793941 77.42285156 85.06640625 C75.15907562 91.54231388 72.90269765 98.02077491 70.6484375 104.5 C60.09884189 134.80674948 60.09884189 134.80674948 55 149 C51.754387 147.57925676 49.6373841 145.86237319 47.171875 143.33203125 C46.45386719 142.60306641 45.73585938 141.87410156 44.99609375 141.12304688 C44.25488281 140.36056641 43.51367188 139.59808594 42.75 138.8125 C37.90965106 133.85608585 33.02712408 129.09842956 27.76416016 124.59204102 C24.55952936 121.70006794 21.89874223 118.28163809 19.17578125 114.94140625 C9.88041283 109.25899776 -6.53833289 113.83941094 -17.0625 115 C-19.71564634 115.28732174 -22.36898573 115.57268757 -25.02256775 115.85595703 C-26.66003811 116.03129409 -28.29723328 116.20922658 -29.93409729 116.39013672 C-33.3204344 116.75732795 -36.58867723 117 -40 117 C-39.35886304 112.23799208 -38.05416061 107.89073456 -36.4375 103.38671875 C-36.17438019 102.6405278 -35.91126038 101.89433685 -35.64016724 101.12553406 C-34.76447667 98.64462218 -33.88213514 96.16612689 -33 93.6875 C-31.72448189 90.08016083 -30.45233939 86.47163243 -29.1796875 82.86328125 C-28.67717972 81.44094177 -28.67717972 81.44094177 -28.16452026 79.98986816 C-25.60739585 72.74557317 -23.08179327 65.49070395 -20.5703125 58.23046875 C-20.19976746 57.15957504 -19.82922241 56.08868134 -19.44744873 54.9853363 C-17.98748524 50.76444644 -16.52815836 46.54333956 -15.07128906 42.32138062 C-10.18438567 28.16302862 -5.16345978 14.05994561 0 0 Z " fill="#0082FB" transform="translate(150,341)"/>
<path d="M0 0 C3.98558481 1.57633665 8.16048975 1.66888855 12.22265625 0.171875 C14.26171875 -0.10546875 14.26171875 -0.10546875 16.3671875 1.22265625 C17.05425781 1.856875 17.74132812 2.49109375 18.44921875 3.14453125 C19.14402344 3.7684375 19.83882813 4.39234375 20.5546875 5.03515625 C22.26171875 6.89453125 22.26171875 6.89453125 23.26171875 9.89453125 C22.93171875 10.55453125 22.60171875 11.21453125 22.26171875 11.89453125 C21.51956794 17.8317377 23.25809796 21.22710189 26.015625 26.4375 C31.0562496 36.37653723 30.45177387 48.01746795 27.32421875 58.45703125 C24.90213342 65.20376748 21.45245408 70.34391271 16.95703125 75.89453125 C14.9607812 78.84286004 14.9607812 78.84286004 15.296875 82.49609375 C16.27573062 85.9438848 17.21451731 87.63192064 19.57421875 90.26953125 C27.78645858 100.18143547 30.06917525 111.25010612 29.26171875 123.89453125 C28.89473766 126.70633002 28.2033424 129.22248927 27.26171875 131.89453125 C26.94332031 132.82007813 26.62492187 133.745625 26.296875 134.69921875 C20.98403686 148.75945705 11.95819516 157.61104718 -1.61328125 163.83203125 C-13.46984312 168.05050066 -27.53374123 167.66317996 -38.98046875 162.4375 C-50.75221094 155.85132696 -60.45085808 145.71237131 -64.48828125 132.70703125 C-66.07844329 126.2933777 -67.38300096 119.14537689 -64.9296875 112.8046875 C-63.26024184 110.34962036 -61.46774651 109.06073853 -58.578125 108.40234375 C-54.4805912 108.16976253 -52.26259954 108.56683232 -48.73828125 110.76953125 C-45.73306273 113.96257593 -45.50428782 116.2483145 -44.92578125 120.51953125 C-43.29436389 130.34324587 -39.88431225 136.05164754 -31.73828125 141.89453125 C-25.68901854 145.50082248 -19.60327295 145.908773 -12.73828125 144.89453125 C-4.75174174 142.25810406 1.24639673 138.39076192 5.26171875 130.89453125 C8.71564743 123.65087527 8.35888605 115.02373589 5.76171875 107.51953125 C2.7934758 101.09182204 -2.17076221 96.73320187 -8.67578125 94.01953125 C-11.59443107 93.05620479 -14.30384893 92.72451834 -17.36328125 92.51953125 C-22.37207516 92.05158165 -24.48965144 90.79288702 -27.73828125 86.89453125 C-28.84996019 83.79893298 -29.1969845 81.15705811 -28.73828125 77.89453125 C-27.07518548 74.76973022 -24.94666975 72.4987255 -21.73828125 70.89453125 C-20.23955555 70.79077332 -18.73912206 70.7110242 -17.23828125 70.64453125 C-9.79149389 69.93428853 -3.38352482 67.0917242 1.69921875 61.51953125 C7.57358533 53.71477792 8.40259083 46.58118102 7.26171875 36.89453125 C4.94048352 29.39515588 1.01921129 24.76608551 -5.69921875 20.7109375 C-11.8770107 17.48822654 -17.87084571 16.85726234 -24.73828125 17.89453125 C-32.90983919 20.66378144 -38.35668269 25.0718846 -42.48828125 32.64453125 C-44.49141831 36.81204859 -45.1580188 40.27635418 -45.43359375 44.84765625 C-45.9445676 48.28035238 -47.55151382 50.24390406 -49.73828125 52.89453125 C-52.94001379 54.49539752 -56.26405184 54.39370214 -59.73828125 53.89453125 C-62.54831585 52.10089214 -64.24768593 50.8757219 -65.73828125 47.89453125 C-66.90240332 35.9705952 -64.62765204 25.80089499 -57.48828125 16.08203125 C-43.0767535 -0.83989166 -21.33886407 -9.48021748 0 0 Z " fill="#FBA75A" transform="translate(274.73828125,105.10546875)"/>
<path d="M0 0 C0.66 0.33 1.32 0.66 2 1 C-7.07841645 18.03349348 -17.49077449 33.18719639 -31 47 C-32.06734375 48.16015625 -32.06734375 48.16015625 -33.15625 49.34375 C-44.14692996 61.0107795 -57.92485219 70.43615058 -72 78 C-72.62745117 78.33837891 -73.25490234 78.67675781 -73.90136719 79.02539062 C-91.18450756 88.15116792 -110.62719273 94.41100732 -130 97 C-130.93328125 97.12890625 -131.8665625 97.2578125 -132.828125 97.390625 C-178.80412302 102.38230479 -224.26158433 89.20364712 -260.29296875 60.3828125 C-277.4500643 46.38791499 -290.58890928 30.61521535 -301.97607422 11.6953125 C-302.89597761 10.17222973 -303.83913968 8.66325233 -304.78515625 7.15625 C-306 5 -306 5 -306 3 C-305.34 3 -304.68 3 -304 3 C-302.56427041 4.90924717 -301.24323327 6.81685604 -299.9375 8.8125 C-291.24223134 21.72306834 -281.14181169 34.18187986 -269 44 C-268.06671875 44.75925781 -267.1334375 45.51851563 -266.171875 46.30078125 C-228.99417183 75.99378706 -182.88502897 90.12622792 -135.3828125 85.6171875 C-131.57093919 85.18888713 -127.78864368 84.5990951 -124 84 C-122.41832031 83.81824219 -122.41832031 83.81824219 -120.8046875 83.6328125 C-105.1499612 81.71030225 -90.12629959 75.8262706 -76 69 C-74.97592041 68.50741699 -74.97592041 68.50741699 -73.93115234 68.00488281 C-58.95768258 60.69685794 -45.32329855 51.58556529 -33.22265625 40.10546875 C-31.44831863 38.42468144 -29.66822495 36.88253449 -27.75 35.375 C-16.65192819 25.79030162 -7.48772237 12.52212956 0 0 Z " fill="#FA8409" transform="translate(409,260)"/>
<path d="M0 0 C0.99 0.495 0.99 0.495 2 1 C-7.04940596 18.02774696 -17.85292546 33.76582441 -33 46 C-33.86109375 46.69867188 -34.7221875 47.39734375 -35.609375 48.1171875 C-63.61558506 69.99230833 -99.75156938 80.61219342 -135.19775391 76.76123047 C-139.53822179 76.1209719 -143.75651976 75.09875828 -148 74 C-149.216875 73.7215625 -150.43375 73.443125 -151.6875 73.15625 C-186.27898939 64.79664006 -213.94218077 42.7840114 -233.125 13.375 C-233.50366211 12.79508301 -233.88232422 12.21516602 -234.27246094 11.61767578 C-236.05213802 8.80386202 -237.46696156 6.31129942 -238 3 C-237.34 3 -236.68 3 -236 3 C-234.58355885 4.74285148 -233.24265534 6.54732215 -231.9375 8.375 C-227.64445955 14.26721987 -222.99717153 19.68584371 -218 25 C-217.4740625 25.59039062 -216.948125 26.18078125 -216.40625 26.7890625 C-202.80887329 41.42705477 -183.59005798 51.36941039 -165 58 C-163.94554687 58.37898438 -162.89109375 58.75796875 -161.8046875 59.1484375 C-127.2205773 70.67647423 -87.72281154 66.98217463 -55.26953125 50.80615234 C-32.3626623 38.85723687 -14.22181731 21.45040058 0 0 Z " fill="#B8652D" transform="translate(375,243)"/>
<path d="M0 0 C0.67260351 1.76858691 1.33788395 3.53996016 2 5.3125 C2.37125 6.29863281 2.7425 7.28476562 3.125 8.30078125 C4 11 4 11 4 14 C1.91884923 15.54919744 -0.07343584 16.83859772 -2.3125 18.125 C-3.32195679 18.71269165 -3.32195679 18.71269165 -4.35180664 19.31225586 C-31.34634572 34.7355074 -60.13903034 43.19780921 -91 46 C-91.67220351 44.06441401 -92.33758077 42.12645628 -93 40.1875 C-93.37125 39.10855469 -93.7425 38.02960938 -94.125 36.91796875 C-95 34 -95 34 -95 31 C-94.40276123 30.93006836 -93.80552246 30.86013672 -93.19018555 30.78808594 C-61.18286868 26.98111566 -32.80582642 19.23592188 -5.57421875 1.46875 C-3 0 -3 0 0 0 Z " fill="#0070F8" transform="translate(362,341)"/>
<path d="M0 0 C3.54159438 0.74861795 6.1549649 2.21818483 9.2265625 4.13598633 C35.71238421 20.66172551 64.20304429 28.18219458 95 31 C93.9318153 36.11365014 92.76892524 41.07227969 91 46 C57.60747479 42.71265296 23.66196814 33.81651997 -4 14 C-3.00956295 9.16371695 -2.04301154 4.52381127 0 0 Z " fill="#0070F9" transform="translate(150,341)"/>
<path d="M0 0 C1 3 1 3 -0.0390625 5.26953125 C-8.09522227 18.18716674 -17.72615343 27.45484338 -33 31 C-46.82962624 32.70474393 -59.31417947 31.11064323 -70.8125 22.75 C-77.44359637 17.14282292 -83.16680322 10.82611009 -87 3 C-87 2.34 -87 1.68 -87 1 C-84.0138637 2.33726973 -82.04722214 3.81704318 -79.75 6.125 C-68.47886866 16.21192242 -54.40646943 20.51735766 -39.55078125 20.24609375 C-23.17119763 19.11087508 -11.32677423 11.32677423 0 0 Z " fill="#E59655" transform="translate(299,240)"/>
<path d="M0 0 C0.61746094 0.19335938 1.23492187 0.38671875 1.87109375 0.5859375 C2.71800781 0.84632813 3.56492188 1.10671875 4.4375 1.375 C5.35144531 1.65601563 6.26539063 1.93703125 7.20703125 2.2265625 C9.69013179 2.91419034 12.08472886 3.35100453 14.625 3.75 C19.97116588 4.89696112 23.48630899 7.91029407 27 12 C28.50649704 14.39959951 29.20079498 16.22942258 30 19 C29.67 19.99 29.34 20.98 29 22 C28.34 21.401875 27.68 20.80375 27 20.1875 C22.09554397 16.61133414 17.42159525 15.00163977 11.375 14.625 C6.36620609 14.1570504 4.24862981 12.89835577 1 9 C0.24329741 5.98832368 0.01350466 3.09932008 0 0 Z " fill="#E39454" transform="translate(246,183)"/>
<path d="M0 0 C0.99 0 1.98 0 3 0 C3.99 4.95 4.98 9.9 6 15 C4.68 15 3.36 15 2 15 C1.34 10.05 0.68 5.1 0 0 Z " fill="#BE682E" transform="translate(115,194)"/>
<path d="M0 0 C0.66 0.33 1.32 0.66 2 1 C-0.64 5.62 -3.28 10.24 -6 15 C-6.66 14.67 -7.32 14.34 -8 14 C-6.6744419 10.37723685 -5.05653045 7.36494652 -2.875 4.1875 C-2.33617187 3.39730469 -1.79734375 2.60710937 -1.2421875 1.79296875 C-0.83226562 1.20128906 -0.42234375 0.60960937 0 0 Z " fill="#EF7F0A" transform="translate(409,260)"/>
<path d="M0 0 C0.66 0.33 1.32 0.66 2 1 C-0.475 5.455 -0.475 5.455 -3 10 C-3.66 9.67 -4.32 9.34 -5 9 C-3.7508258 5.54074837 -2.32472205 2.85306797 0 0 Z " fill="#AE5F2A" transform="translate(375,243)"/>
</svg>
