<svg xmlns="http://www.w3.org/2000/svg" width="32" height="32" viewBox="0 0 32 32">
<g>
<path d="M 25.92 26.55 C20.78,29.80 18.42,30.74 19.39,29.17 C19.79,28.53 19.75,28.00 19.31,28.00 C18.86,28.00 18.50,22.15 18.50,15.00 C18.50,7.85 18.80,2.00 19.17,2.00 C20.83,2.00 22.94,3.29 22.48,4.02 C21.86,5.03 26.77,9.00 28.63,9.00 C29.67,9.00 30.00,10.83 30.00,16.49 L 30.00 23.97 ZM 14.00 29.00 L 14.00 29.00 C14.57,30.06 14.88,30.65 14.73,30.81 C14.55,31.01 13.62,30.53 11.53,29.44 L 11.53 29.44 C6.11,26.61 3.78,25.40 2.77,23.48 C2.00,22.03 2.00,20.17 2.00,16.90 L 2.00 16.86 C2.00,12.66 2.38,10.12 2.96,10.47 C3.49,10.80 5.33,13.71 7.05,16.94 C8.77,20.17 11.06,23.76 12.13,24.91 C13.20,26.06 13.82,27.00 13.50,27.00 C13.19,27.00 13.41,27.90 14.00,29.00 Z" fill="rgb(73,145,66)" data-index="0" style="opacity: 1;"></path>
<path d="M 14.00 29.00 C13.41,27.90 13.19,27.00 13.50,27.00 C13.82,27.00 13.20,26.06 12.13,24.91 C11.06,23.76 8.77,20.17 7.05,16.94 C5.33,13.71 3.49,10.80 2.96,10.47 C2.38,10.12 2.00,12.66 2.00,16.86 L 2.00 8.10 L 8.25 4.45 C11.69,2.44 14.69,0.62 14.92,0.40 C15.15,0.18 11.88,0.00 7.67,0.00 L 32.00 0.00 L 24.75 0.06 C24.25,0.06 23.79,0.07 23.36,0.07 C20.55,0.08 19.04,0.09 18.91,0.51 C18.81,0.85 19.61,1.47 21.35,2.58 C20.71,2.25 19.89,2.00 19.17,2.00 C18.80,2.00 18.50,7.85 18.50,15.00 C18.50,22.15 18.86,28.00 19.31,28.00 C19.75,28.00 19.79,28.53 19.39,29.17 C18.82,30.10 19.41,30.15 21.05,29.36 L 16.51 32.00 L 0.00 32.00 L 7.75 31.99 L 15.50 31.99 L 9.34 28.29 C10.00,28.64 10.73,29.02 11.53,29.44 L 11.53 29.44 C13.62,30.53 14.55,31.01 14.73,30.81 C14.88,30.65 14.57,30.06 14.00,29.00 ZM 29.92 12.65 C29.76,9.96 29.38,9.00 28.63,9.00 C26.77,9.00 21.86,5.03 22.48,4.02 C22.67,3.72 22.43,3.33 21.97,2.97 C22.95,3.59 24.18,4.34 25.64,5.25 L 30.08 8.01 ZM 2.00 23.89 L 2.00 16.97 C2.00,20.20 2.01,22.04 2.77,23.48 C3.11,24.13 3.60,24.70 4.32,25.28 ZM 26.27 26.33 L 29.51 24.29 L 29.50 24.45 Z" fill="rgb(93,171,74)" data-index="1" style="opacity: 1;"></path>

</g>
</svg>