<?xml version="1.0" encoding="UTF-8"?>
<svg version="1.1" xmlns="http://www.w3.org/2000/svg" width="512" height="512">
<path d="M0 0 C5.6643056 2.86245567 9.87790682 3.74579376 16.05664062 1.96484375 C18.64099036 0.88625014 20.97936118 -0.45734165 23.36914062 -1.91015625 C34.39167397 -8.12225367 43.53273998 -10.30226077 56.05664062 -7.03515625 C66.68167528 -3.96775494 73.69706367 6.72102272 79.09570312 15.7734375 C82.43272408 19.50265813 86.39970924 21.64752802 91.40136719 22.24487305 C93.90204511 22.28641673 96.37119678 22.21056577 98.86914062 22.08984375 C111.8394088 21.8126709 122.10686996 22.6851687 132.09570312 31.83203125 C138.56088392 39.12255427 139.94028128 48.34125819 141.78710938 57.64453125 C142.02042969 58.78148438 142.25375 59.9184375 142.49414062 61.08984375 C142.77064453 62.60964844 142.77064453 62.60964844 143.05273438 64.16015625 C145.10855816 69.90366396 149.54105867 72.48180078 154.77954102 74.99414062 C155.46910889 75.31447266 156.15867676 75.63480469 156.86914062 75.96484375 C158.30262861 76.66029992 159.73493758 77.35819192 161.16601562 78.05859375 C161.84341797 78.38859375 162.52082031 78.71859375 163.21875 79.05859375 C172.60762534 83.68817734 179.61948727 89.84433665 183.05664062 99.96484375 C185.20936672 108.61909159 183.39769693 117.31288721 180.93164062 125.71484375 C178.64804075 133.83887353 178.64804075 133.83887353 180.05664062 141.96484375 C181.74270366 144.91082202 183.86218366 147.38416236 186.05664062 149.96484375 C195.53885838 161.68510048 200.55009947 169.2657466 199.05664062 184.96484375 C197.45682049 193.24270094 192.08582538 198.79213788 186.69726562 204.921875 C184.6204677 207.29149852 182.65013653 209.67238135 180.86914062 212.27734375 C180.50433594 212.80972656 180.13953125 213.34210938 179.76367188 213.890625 C177.72294138 219.87751945 179.34036213 225.73781083 181.05664062 231.58984375 C183.78015569 241.69863966 185.01487301 251.98595904 180.34960938 261.73046875 C174.9390092 271.08050893 167.61032309 274.64964598 158.0925293 279.02441406 C155.96450909 280.00740169 153.84575931 281.00502721 151.73632812 282.02734375 C151.10065918 282.33285156 150.46499023 282.63835937 149.81005859 282.953125 C146.57569685 284.81934542 145.07368977 286.78646328 143.05664062 289.96484375 C141.0196481 297.56793929 143.42912474 301.8703897 147.18164062 308.52734375 C147.99665039 310.02974609 147.99665039 310.02974609 148.828125 311.5625 C150.54610887 314.71115314 152.29534633 317.84023522 154.05664062 320.96484375 C154.60288086 321.93534668 155.14912109 322.90584961 155.71191406 323.90576172 C157.8648208 327.72109704 160.02389653 331.53273972 162.19775391 335.33618164 C166.51055504 342.90573183 170.54916265 350.59544061 174.53710938 358.33984375 C178.05727646 365.13995655 181.75499759 371.81846843 185.55664062 378.46484375 C191.61746039 389.06443871 197.33913039 399.82329811 202.89331055 410.6965332 C203.87623745 412.61308596 204.88366196 414.51704516 205.89648438 416.41796875 C207.41321276 419.74762164 207.20478517 421.52041011 206.05664062 424.96484375 C203.81576599 427.45470446 202.59846255 427.92782616 199.25259399 428.15641785 C195.92933473 427.95721269 193.67354826 427.29038014 190.60888672 426.0246582 C189.5669516 425.60034012 188.52501648 425.17602203 187.45150757 424.73884583 C186.33893585 424.27330795 185.22636414 423.80777008 184.08007812 423.328125 C182.91844147 422.85167038 181.75680481 422.37521576 180.55996704 421.88432312 C177.47402106 420.61634464 174.39211058 419.33939865 171.31176758 418.05792236 C168.21555856 416.77245888 165.11436138 415.49922787 162.01367188 414.22460938 C151.34869949 409.83503261 140.70115756 405.40375406 130.05664062 400.96484375 C129.94122421 401.81952744 129.8258078 402.67421112 129.70689392 403.55479431 C128.5528831 411.89024324 127.1651237 420.14654769 125.56054688 428.40625 C125.20922951 430.22321632 125.20922951 430.22321632 124.85081482 432.07688904 C124.35944632 434.60901222 123.86610622 437.14075356 123.37084961 439.67211914 C122.61526782 443.54720585 121.87395789 447.42486414 121.1328125 451.30273438 C120.65126404 453.77490987 120.16887239 456.24692131 119.68554688 458.71875 C119.46669327 459.87395645 119.24783966 461.0291629 119.02235413 462.21937561 C118.80880783 463.29497238 118.59526154 464.37056915 118.37524414 465.47875977 C118.10116478 466.89101585 118.10116478 466.89101585 117.82154846 468.33180237 C116.96061811 471.29538196 115.88004918 473.47523083 114.05664062 475.96484375 C110.68164062 477.02734375 110.68164062 477.02734375 107.05664062 476.96484375 C102.97478398 474.29744485 100.93748412 471.51167322 98.70898438 467.22265625 C98.10908691 466.08401123 97.50918945 464.94536621 96.89111328 463.7722168 C96.2584714 462.54492281 95.62615396 461.31746153 94.99414062 460.08984375 C94.00445444 458.19451063 93.01134392 456.30099853 92.01800537 454.40757751 C91.3472628 453.12838725 90.67787392 451.84848628 90.00982666 450.56788635 C87.88256311 446.49891728 85.69104134 442.47299761 83.44335938 438.46875 C82.89107666 437.48181152 82.33879395 436.49487305 81.76977539 435.47802734 C80.73778726 433.64186583 79.6983101 431.80988625 78.65014648 429.98291016 C76.01002071 425.2503222 74.15375748 421.43807198 74.05664062 415.96484375 C74.71664063 414.97484375 75.37664062 413.98484375 76.05664062 412.96484375 C75.41427911 408.02280432 72.92942911 402.9793815 70.05664062 398.96484375 C66.57986247 398.13481132 66.57986247 398.13481132 63.05664062 397.96484375 C57.97584041 393.050771 54.97838202 386.7057046 51.69799805 380.51367188 C50.73683004 378.70105711 49.76378775 376.89519805 48.7890625 375.08984375 C44.05664062 366.23595817 44.05664062 366.23595817 44.05664062 363.96484375 C42.82042969 363.91585938 41.58421875 363.866875 40.31054688 363.81640625 C32.83518366 362.98857303 26.46149247 359.10692176 19.8515625 355.73828125 C13.61540369 352.70126795 9.82378164 350.98065117 3.05664062 352.96484375 C0.05947528 354.27608172 -2.77506269 355.81022621 -5.63085938 357.40234375 C-13.09420546 361.37581991 -19.41504306 363.49774515 -27.94335938 363.96484375 C-28.2135791 364.83737793 -28.48379883 365.70991211 -28.76220703 366.60888672 C-30.68573497 372.07412341 -33.55628332 377.00981401 -36.31835938 382.08984375 C-36.89585937 383.17394531 -37.47335938 384.25804687 -38.06835938 385.375 C-38.91527344 386.93927734 -38.91527344 386.93927734 -39.77929688 388.53515625 C-40.29024902 389.48148926 -40.80120117 390.42782227 -41.32763672 391.40283203 C-42.98273122 394.02727471 -44.54968504 395.9903382 -46.94335938 397.96484375 C-48.05710938 397.96484375 -49.17085937 397.96484375 -50.31835938 397.96484375 C-54.08058715 398.59794494 -54.08058715 398.59794494 -55.79882812 401.51171875 C-57.4838131 404.67347544 -58.96662369 407.51341899 -59.94335938 410.96484375 C-59.31895103 412.64779843 -58.6495496 414.31453542 -57.94335938 415.96484375 C-58.29236351 421.48384141 -60.01558068 425.70464016 -62.62695312 430.48828125 C-62.99835922 431.18796524 -63.36976532 431.88764923 -63.75242615 432.60853577 C-64.9509113 434.85839481 -66.16497672 437.09934592 -67.38085938 439.33984375 C-68.20760915 440.87876468 -69.03394314 442.41790905 -69.85986328 443.95727539 C-74.09138656 451.8195598 -78.35003636 459.67167496 -82.81835938 467.40234375 C-83.1914624 468.0557373 -83.56456543 468.70913086 -83.94897461 469.38232422 C-85.87356757 472.6223767 -87.61151587 475.11676356 -90.94335938 476.96484375 C-94.50585938 476.96484375 -94.50585938 476.96484375 -97.94335938 475.96484375 C-100.71713404 472.28880345 -101.61884165 468.77305377 -102.47729492 464.29443359 C-102.60452942 463.64503311 -102.73176392 462.99563263 -102.862854 462.32655334 C-103.27804833 460.19466625 -103.67924156 458.06041034 -104.08007812 455.92578125 C-104.36647852 454.43780836 -104.65366598 452.94998678 -104.94160461 451.46231079 C-105.5416372 448.35162775 -106.13530733 445.23982511 -106.72387695 442.12695312 C-107.47852456 438.13604787 -108.24411028 434.14734615 -109.01382732 430.15932274 C-109.74799738 426.35302637 -110.47675255 422.54569949 -111.20507812 418.73828125 C-111.41418099 417.64881258 -111.41418099 417.64881258 -111.62750816 416.53733444 C-112.02053238 414.48426567 -112.4097014 412.430506 -112.79760742 410.37646484 C-113.01950241 409.2079599 -113.2413974 408.03945496 -113.47001648 406.83554077 C-113.94335938 403.96484375 -113.94335938 403.96484375 -113.94335938 400.96484375 C-114.72839844 401.33738281 -115.5134375 401.70992188 -116.32226562 402.09375 C-126.89530469 406.85486084 -126.89530469 406.85486084 -132.94335938 404.96484375 C-133.53890625 404.56652344 -134.13445312 404.16820312 -134.74804688 403.7578125 C-138.08998111 402.55067255 -139.92106682 403.8783246 -143.06835938 405.33984375 C-148.80966954 407.96484375 -148.80966954 407.96484375 -150.94335938 407.96484375 C-150.86085937 408.87234375 -150.77835938 409.77984375 -150.69335938 410.71484375 C-150.94335938 413.96484375 -150.94335938 413.96484375 -152.60595703 416.00683594 C-155.18259358 418.16524675 -157.47797702 419.28891119 -160.59179688 420.54296875 C-161.67976563 420.98125 -162.76773438 421.41953125 -163.88867188 421.87109375 C-165.02046875 422.31453125 -166.15226562 422.75796875 -167.31835938 423.21484375 C-168.44242188 423.67375 -169.56648438 424.13265625 -170.72460938 424.60546875 C-171.81515625 425.03859375 -172.90570313 425.47171875 -174.02929688 425.91796875 C-175.51502197 426.50819824 -175.51502197 426.50819824 -177.03076172 427.11035156 C-181.049117 428.28924875 -184.4333499 428.69944296 -188.25585938 426.83984375 C-190.61355526 424.22018165 -190.73699446 422.4730473 -190.94335938 418.96484375 C-190.00139381 416.42901265 -189.04110388 414.31314714 -187.75585938 411.96484375 C-187.39709717 411.27970703 -187.03833496 410.59457031 -186.66870117 409.88867188 C-185.44596374 407.57001463 -184.1970051 405.26692534 -182.94335938 402.96484375 C-182.27433594 401.72541016 -182.27433594 401.72541016 -181.59179688 400.4609375 C-179.12779538 395.89771686 -176.64435738 391.34554397 -174.14648438 386.80078125 C-170.90888249 380.91008945 -167.70412506 375.0019645 -164.50585938 369.08984375 C-163.96687012 368.0942041 -163.42788086 367.09856445 -162.87255859 366.07275391 C-161.22916852 363.0369589 -159.58620247 360.00093479 -157.94335938 356.96484375 C-153.61350107 348.96295724 -149.28113057 340.96244389 -144.94335938 332.96484375 C-144.41291016 331.98644531 -143.88246094 331.00804687 -143.3359375 330 C-142.28125113 328.05586577 -141.22560385 326.11225249 -140.16894531 324.16918945 C-139.15667951 322.30710241 -138.14684632 320.44369056 -137.13964844 318.57885742 C-134.97508197 314.59063275 -132.78414136 310.64682009 -130.38085938 306.796875 C-125.3781573 298.95930209 -125.3781573 298.95930209 -124.95507812 289.9296875 C-127.88821151 284.09820097 -133.12895401 281.57876778 -138.75585938 278.96484375 C-140.18934736 278.26938758 -141.62165633 277.57149558 -143.05273438 276.87109375 C-143.73013672 276.54109375 -144.40753906 276.21109375 -145.10546875 275.87109375 C-153.37815277 271.79189568 -159.22702402 266.76370287 -163.81835938 258.65234375 C-167.16670155 247.67722218 -165.01827537 238.83294087 -162.41699219 227.99267578 C-160.8697743 221.36835013 -159.92382896 216.10312627 -163.43945312 210.02734375 C-165.94815614 206.58683676 -168.85506712 203.52868676 -171.75585938 200.41796875 C-179.06344302 192.22303567 -181.44750765 184.38464729 -181.25195312 173.43359375 C-180.46407071 164.57739649 -175.46159379 158.60223815 -169.94335938 151.96484375 C-168.48062511 150.17676824 -167.02227811 148.38509467 -165.56835938 146.58984375 C-164.900625 145.77773437 -164.23289062 144.965625 -163.54492188 144.12890625 C-160.32714809 139.78098752 -160.40657628 135.15839449 -160.94335938 129.96484375 C-161.57344549 127.36470671 -162.23589248 124.79320149 -162.94335938 122.21484375 C-165.86727239 111.29388185 -166.69338026 101.13519318 -160.94335938 90.96484375 C-154.85393201 81.41205458 -144.2983297 77.47824214 -134.14257812 73.5546875 C-130.09016332 71.54085011 -127.11389205 69.13283423 -124.93945312 65.10546875 C-124.75511719 64.4815625 -124.57078125 63.85765625 -124.38085938 63.21484375 C-124.14882812 62.44527344 -123.91679688 61.67570312 -123.67773438 60.8828125 C-123.09727324 58.57640576 -122.57502077 56.27905839 -122.08398438 53.953125 C-119.67628193 42.651948 -117.06559657 33.32620622 -107.26367188 26.21875 C-97.78854972 21.09835571 -88.97664772 21.53065304 -78.38867188 21.52539062 C-69.37611197 21.58069606 -69.37611197 21.58069606 -61.94335938 16.96484375 C-59.36674264 14.24275322 -59.36674264 14.24275322 -57.00585938 11.21484375 C-56.13238413 10.14565138 -55.25868563 9.07664137 -54.38476562 8.0078125 C-52.94140208 6.20880418 -51.50759213 4.40193933 -50.09570312 2.578125 C-36.04865782 -14.85615108 -16.96064684 -9.15513176 0 0 Z " fill="#FDDA63" transform="translate(247.943359375,22.03515625)"/>
<path d="M0 0 C5.6643056 2.86245567 9.87790682 3.74579376 16.05664062 1.96484375 C18.64099036 0.88625014 20.97936118 -0.45734165 23.36914062 -1.91015625 C34.39167397 -8.12225367 43.53273998 -10.30226077 56.05664062 -7.03515625 C66.68167528 -3.96775494 73.69706367 6.72102272 79.09570312 15.7734375 C82.43272408 19.50265813 86.39970924 21.64752802 91.40136719 22.24487305 C93.90204511 22.28641673 96.37119678 22.21056577 98.86914062 22.08984375 C111.8394088 21.8126709 122.10686996 22.6851687 132.09570312 31.83203125 C138.56088392 39.12255427 139.94028128 48.34125819 141.78710938 57.64453125 C142.02042969 58.78148438 142.25375 59.9184375 142.49414062 61.08984375 C142.77064453 62.60964844 142.77064453 62.60964844 143.05273438 64.16015625 C145.10855816 69.90366396 149.54105867 72.48180078 154.77954102 74.99414062 C155.46910889 75.31447266 156.15867676 75.63480469 156.86914062 75.96484375 C158.30262861 76.66029992 159.73493758 77.35819192 161.16601562 78.05859375 C161.84341797 78.38859375 162.52082031 78.71859375 163.21875 79.05859375 C172.60762534 83.68817734 179.61948727 89.84433665 183.05664062 99.96484375 C185.20936672 108.61909159 183.39769693 117.31288721 180.93164062 125.71484375 C178.64804075 133.83887353 178.64804075 133.83887353 180.05664062 141.96484375 C181.74270366 144.91082202 183.86218366 147.38416236 186.05664062 149.96484375 C195.53885838 161.68510048 200.55009947 169.2657466 199.05664062 184.96484375 C197.45682049 193.24270094 192.08582538 198.79213788 186.69726562 204.921875 C184.6204677 207.29149852 182.65013653 209.67238135 180.86914062 212.27734375 C180.50433594 212.80972656 180.13953125 213.34210938 179.76367188 213.890625 C177.72294138 219.87751945 179.34036213 225.73781083 181.05664062 231.58984375 C183.78015569 241.69863966 185.01487301 251.98595904 180.34960938 261.73046875 C174.9390092 271.08050893 167.61032309 274.64964598 158.0925293 279.02441406 C155.96450909 280.00740169 153.84575931 281.00502721 151.73632812 282.02734375 C151.10065918 282.33285156 150.46499023 282.63835937 149.81005859 282.953125 C146.57569685 284.81934542 145.07368977 286.78646328 143.05664062 289.96484375 C141.0196481 297.56793929 143.42912474 301.8703897 147.18164062 308.52734375 C147.99665039 310.02974609 147.99665039 310.02974609 148.828125 311.5625 C150.54610887 314.71115314 152.29534633 317.84023522 154.05664062 320.96484375 C154.60288086 321.93534668 155.14912109 322.90584961 155.71191406 323.90576172 C157.8648208 327.72109704 160.02389653 331.53273972 162.19775391 335.33618164 C166.51055504 342.90573183 170.54916265 350.59544061 174.53710938 358.33984375 C178.05727646 365.13995655 181.75499759 371.81846843 185.55664062 378.46484375 C191.61746039 389.06443871 197.33913039 399.82329811 202.89331055 410.6965332 C203.87623745 412.61308596 204.88366196 414.51704516 205.89648438 416.41796875 C207.41321276 419.74762164 207.20478517 421.52041011 206.05664062 424.96484375 C203.81576599 427.45470446 202.59846255 427.92782616 199.25259399 428.15641785 C195.92933473 427.95721269 193.67354826 427.29038014 190.60888672 426.0246582 C189.5669516 425.60034012 188.52501648 425.17602203 187.45150757 424.73884583 C186.33893585 424.27330795 185.22636414 423.80777008 184.08007812 423.328125 C182.91844147 422.85167038 181.75680481 422.37521576 180.55996704 421.88432312 C177.47402106 420.61634464 174.39211058 419.33939865 171.31176758 418.05792236 C168.21555856 416.77245888 165.11436138 415.49922787 162.01367188 414.22460938 C151.34869949 409.83503261 140.70115756 405.40375406 130.05664062 400.96484375 C129.94122421 401.81952744 129.8258078 402.67421112 129.70689392 403.55479431 C128.5528831 411.89024324 127.1651237 420.14654769 125.56054688 428.40625 C125.20922951 430.22321632 125.20922951 430.22321632 124.85081482 432.07688904 C124.35944632 434.60901222 123.86610622 437.14075356 123.37084961 439.67211914 C122.61526782 443.54720585 121.87395789 447.42486414 121.1328125 451.30273438 C120.65126404 453.77490987 120.16887239 456.24692131 119.68554688 458.71875 C119.46669327 459.87395645 119.24783966 461.0291629 119.02235413 462.21937561 C118.80880783 463.29497238 118.59526154 464.37056915 118.37524414 465.47875977 C118.10116478 466.89101585 118.10116478 466.89101585 117.82154846 468.33180237 C116.96061811 471.29538196 115.88004918 473.47523083 114.05664062 475.96484375 C110.68164062 477.02734375 110.68164062 477.02734375 107.05664062 476.96484375 C102.97478398 474.29744485 100.93748412 471.51167322 98.70898438 467.22265625 C98.10908691 466.08401123 97.50918945 464.94536621 96.89111328 463.7722168 C96.2584714 462.54492281 95.62615396 461.31746153 94.99414062 460.08984375 C94.00445444 458.19451063 93.01134392 456.30099853 92.01800537 454.40757751 C91.3472628 453.12838725 90.67787392 451.84848628 90.00982666 450.56788635 C87.88256311 446.49891728 85.69104134 442.47299761 83.44335938 438.46875 C82.89107666 437.48181152 82.33879395 436.49487305 81.76977539 435.47802734 C80.73778726 433.64186583 79.6983101 431.80988625 78.65014648 429.98291016 C76.01002071 425.2503222 74.15375748 421.43807198 74.05664062 415.96484375 C74.71664063 414.97484375 75.37664062 413.98484375 76.05664062 412.96484375 C75.41427911 408.02280432 72.92942911 402.9793815 70.05664062 398.96484375 C66.57986247 398.13481132 66.57986247 398.13481132 63.05664062 397.96484375 C57.97584041 393.050771 54.97838202 386.7057046 51.69799805 380.51367188 C50.73683004 378.70105711 49.76378775 376.89519805 48.7890625 375.08984375 C44.05664062 366.23595817 44.05664062 366.23595817 44.05664062 363.96484375 C42.82042969 363.91585938 41.58421875 363.866875 40.31054688 363.81640625 C32.83518366 362.98857303 26.46149247 359.10692176 19.8515625 355.73828125 C13.61540369 352.70126795 9.82378164 350.98065117 3.05664062 352.96484375 C0.05947528 354.27608172 -2.77506269 355.81022621 -5.63085938 357.40234375 C-13.09420546 361.37581991 -19.41504306 363.49774515 -27.94335938 363.96484375 C-28.2135791 364.83737793 -28.48379883 365.70991211 -28.76220703 366.60888672 C-30.68573497 372.07412341 -33.55628332 377.00981401 -36.31835938 382.08984375 C-36.89585937 383.17394531 -37.47335938 384.25804687 -38.06835938 385.375 C-38.91527344 386.93927734 -38.91527344 386.93927734 -39.77929688 388.53515625 C-40.29024902 389.48148926 -40.80120117 390.42782227 -41.32763672 391.40283203 C-42.98273122 394.02727471 -44.54968504 395.9903382 -46.94335938 397.96484375 C-48.05710938 397.96484375 -49.17085937 397.96484375 -50.31835938 397.96484375 C-54.08058715 398.59794494 -54.08058715 398.59794494 -55.79882812 401.51171875 C-57.4838131 404.67347544 -58.96662369 407.51341899 -59.94335938 410.96484375 C-59.31895103 412.64779843 -58.6495496 414.31453542 -57.94335938 415.96484375 C-58.29236351 421.48384141 -60.01558068 425.70464016 -62.62695312 430.48828125 C-62.99835922 431.18796524 -63.36976532 431.88764923 -63.75242615 432.60853577 C-64.9509113 434.85839481 -66.16497672 437.09934592 -67.38085938 439.33984375 C-68.20760915 440.87876468 -69.03394314 442.41790905 -69.85986328 443.95727539 C-74.09138656 451.8195598 -78.35003636 459.67167496 -82.81835938 467.40234375 C-83.1914624 468.0557373 -83.56456543 468.70913086 -83.94897461 469.38232422 C-85.87356757 472.6223767 -87.61151587 475.11676356 -90.94335938 476.96484375 C-94.50585938 476.96484375 -94.50585938 476.96484375 -97.94335938 475.96484375 C-100.71713404 472.28880345 -101.61884165 468.77305377 -102.47729492 464.29443359 C-102.60452942 463.64503311 -102.73176392 462.99563263 -102.862854 462.32655334 C-103.27804833 460.19466625 -103.67924156 458.06041034 -104.08007812 455.92578125 C-104.36647852 454.43780836 -104.65366598 452.94998678 -104.94160461 451.46231079 C-105.5416372 448.35162775 -106.13530733 445.23982511 -106.72387695 442.12695312 C-107.47852456 438.13604787 -108.24411028 434.14734615 -109.01382732 430.15932274 C-109.74799738 426.35302637 -110.47675255 422.54569949 -111.20507812 418.73828125 C-111.41418099 417.64881258 -111.41418099 417.64881258 -111.62750816 416.53733444 C-112.02053238 414.48426567 -112.4097014 412.430506 -112.79760742 410.37646484 C-113.01950241 409.2079599 -113.2413974 408.03945496 -113.47001648 406.83554077 C-113.94335938 403.96484375 -113.94335938 403.96484375 -113.94335938 400.96484375 C-114.72839844 401.33738281 -115.5134375 401.70992188 -116.32226562 402.09375 C-126.89530469 406.85486084 -126.89530469 406.85486084 -132.94335938 404.96484375 C-133.53890625 404.56652344 -134.13445312 404.16820312 -134.74804688 403.7578125 C-138.08998111 402.55067255 -139.92106682 403.8783246 -143.06835938 405.33984375 C-148.80966954 407.96484375 -148.80966954 407.96484375 -150.94335938 407.96484375 C-150.86085937 408.87234375 -150.77835938 409.77984375 -150.69335938 410.71484375 C-150.94335938 413.96484375 -150.94335938 413.96484375 -152.60595703 416.00683594 C-155.18259358 418.16524675 -157.47797702 419.28891119 -160.59179688 420.54296875 C-161.67976563 420.98125 -162.76773438 421.41953125 -163.88867188 421.87109375 C-165.02046875 422.31453125 -166.15226562 422.75796875 -167.31835938 423.21484375 C-168.44242188 423.67375 -169.56648438 424.13265625 -170.72460938 424.60546875 C-171.81515625 425.03859375 -172.90570313 425.47171875 -174.02929688 425.91796875 C-175.51502197 426.50819824 -175.51502197 426.50819824 -177.03076172 427.11035156 C-181.049117 428.28924875 -184.4333499 428.69944296 -188.25585938 426.83984375 C-190.61355526 424.22018165 -190.73699446 422.4730473 -190.94335938 418.96484375 C-190.00139381 416.42901265 -189.04110388 414.31314714 -187.75585938 411.96484375 C-187.39709717 411.27970703 -187.03833496 410.59457031 -186.66870117 409.88867188 C-185.44596374 407.57001463 -184.1970051 405.26692534 -182.94335938 402.96484375 C-182.27433594 401.72541016 -182.27433594 401.72541016 -181.59179688 400.4609375 C-179.12779538 395.89771686 -176.64435738 391.34554397 -174.14648438 386.80078125 C-170.90888249 380.91008945 -167.70412506 375.0019645 -164.50585938 369.08984375 C-163.96687012 368.0942041 -163.42788086 367.09856445 -162.87255859 366.07275391 C-161.22916852 363.0369589 -159.58620247 360.00093479 -157.94335938 356.96484375 C-153.61350107 348.96295724 -149.28113057 340.96244389 -144.94335938 332.96484375 C-144.41291016 331.98644531 -143.88246094 331.00804687 -143.3359375 330 C-142.28125113 328.05586577 -141.22560385 326.11225249 -140.16894531 324.16918945 C-139.15667951 322.30710241 -138.14684632 320.44369056 -137.13964844 318.57885742 C-134.97508197 314.59063275 -132.78414136 310.64682009 -130.38085938 306.796875 C-125.3781573 298.95930209 -125.3781573 298.95930209 -124.95507812 289.9296875 C-127.88821151 284.09820097 -133.12895401 281.57876778 -138.75585938 278.96484375 C-140.18934736 278.26938758 -141.62165633 277.57149558 -143.05273438 276.87109375 C-143.73013672 276.54109375 -144.40753906 276.21109375 -145.10546875 275.87109375 C-153.37815277 271.79189568 -159.22702402 266.76370287 -163.81835938 258.65234375 C-167.16670155 247.67722218 -165.01827537 238.83294087 -162.41699219 227.99267578 C-160.8697743 221.36835013 -159.92382896 216.10312627 -163.43945312 210.02734375 C-165.94815614 206.58683676 -168.85506712 203.52868676 -171.75585938 200.41796875 C-179.06344302 192.22303567 -181.44750765 184.38464729 -181.25195312 173.43359375 C-180.46407071 164.57739649 -175.46159379 158.60223815 -169.94335938 151.96484375 C-168.48062511 150.17676824 -167.02227811 148.38509467 -165.56835938 146.58984375 C-164.900625 145.77773437 -164.23289062 144.965625 -163.54492188 144.12890625 C-160.32714809 139.78098752 -160.40657628 135.15839449 -160.94335938 129.96484375 C-161.57344549 127.36470671 -162.23589248 124.79320149 -162.94335938 122.21484375 C-165.86727239 111.29388185 -166.69338026 101.13519318 -160.94335938 90.96484375 C-154.85393201 81.41205458 -144.2983297 77.47824214 -134.14257812 73.5546875 C-130.09016332 71.54085011 -127.11389205 69.13283423 -124.93945312 65.10546875 C-124.75511719 64.4815625 -124.57078125 63.85765625 -124.38085938 63.21484375 C-124.14882812 62.44527344 -123.91679688 61.67570312 -123.67773438 60.8828125 C-123.09727324 58.57640576 -122.57502077 56.27905839 -122.08398438 53.953125 C-119.67628193 42.651948 -117.06559657 33.32620622 -107.26367188 26.21875 C-97.78854972 21.09835571 -88.97664772 21.53065304 -78.38867188 21.52539062 C-69.37611197 21.58069606 -69.37611197 21.58069606 -61.94335938 16.96484375 C-59.36674264 14.24275322 -59.36674264 14.24275322 -57.00585938 11.21484375 C-56.13238413 10.14565138 -55.25868563 9.07664137 -54.38476562 8.0078125 C-52.94140208 6.20880418 -51.50759213 4.40193933 -50.09570312 2.578125 C-36.04865782 -14.85615108 -16.96064684 -9.15513176 0 0 Z M-43.94335938 17.96484375 C-45.13415286 19.52483522 -46.32166877 21.08733413 -47.50585938 22.65234375 C-53.20592674 29.97560911 -58.98705205 33.65775366 -67.94335938 35.96484375 C-74.16931409 36.55735964 -80.39656422 36.42485837 -86.64453125 36.36523438 C-94.14322216 36.17245995 -94.14322216 36.17245995 -100.69335938 39.2578125 C-106.40892763 46.13435556 -107.54987258 53.65450698 -109.17773438 62.3046875 C-110.97019705 70.8737565 -113.71866779 77.69277151 -120.94335938 82.96484375 C-124.83894024 85.20297053 -128.86053886 87.09500147 -132.94335938 88.96484375 C-135.11605991 89.9727711 -137.28296254 90.99330766 -139.44335938 92.02734375 C-140.40242188 92.47207031 -141.36148438 92.91679688 -142.34960938 93.375 C-145.89767549 95.54979354 -148.08932783 98.25678066 -149.94335938 101.96484375 C-150.43953096 107.90936103 -150.31211265 113.40425006 -148.44335938 119.08984375 C-145.77099117 127.94206344 -144.88598704 139.66511878 -148.75585938 148.27734375 C-151.60523869 153.0181214 -155.35715881 157.11874895 -158.97680664 161.28149414 C-163.63846632 166.66586696 -167.38890547 171.13932289 -166.94335938 178.58984375 C-166.16232036 185.15545298 -161.19378761 189.93970216 -157.00585938 194.71484375 C-148.84887118 204.42654251 -145.6226336 212.2262707 -146.67333984 224.93652344 C-147.26187791 229.35747666 -148.68811283 233.53855193 -150.03710938 237.7734375 C-151.77731786 243.90167171 -151.75656423 248.74701234 -149.56835938 254.71484375 C-144.95740661 261.60700472 -135.71775255 264.60882414 -128.42773438 267.80078125 C-125.34331026 269.24599884 -122.72842997 271.01529433 -119.94335938 272.96484375 C-118.95335937 273.29484375 -117.96335938 273.62484375 -116.94335938 273.96484375 C-115.87890625 275.80517578 -115.87890625 275.80517578 -114.94335938 277.96484375 C-114.45706055 278.83085205 -114.45706055 278.83085205 -113.9609375 279.71435547 C-110.43994787 286.15846371 -109.26462397 292.85891513 -107.87695312 300.0078125 C-106.4554092 306.85193459 -104.64443951 311.3210459 -99.54882812 316.30859375 C-92.96565183 319.33271807 -85.70360126 318.47580636 -78.5703125 318.453125 C-70.69319037 318.54614523 -61.27831379 318.73290691 -55.26879883 324.59960938 C-54.83140381 325.05013672 -54.39400879 325.50066406 -53.94335938 325.96484375 C-53.28335938 325.96484375 -52.62335938 325.96484375 -51.94335938 325.96484375 C-51.71132812 326.49207031 -51.47929687 327.01929688 -51.24023438 327.5625 C-49.52398185 330.74170273 -47.38753888 333.54533918 -45.19335938 336.40234375 C-44.77570313 336.96244141 -44.35804688 337.52253906 -43.92773438 338.09960938 C-40.43493514 342.66261081 -35.94699496 348.37856198 -29.95605469 349.25585938 C-22.29803799 349.61833269 -17.30247335 347.07476592 -10.69335938 343.46484375 C-0.49289645 338.27205873 6.77912894 335.43240655 18.14648438 338.91015625 C22.31131273 340.52891837 26.19756187 342.49695264 30.11914062 344.6328125 C36.36909655 347.98897506 41.87251357 350.72936619 49.05664062 348.96484375 C55.43419507 346.11404752 58.54125009 342.23544446 62.49414062 336.58984375 C68.60721344 327.88494896 75.17532712 320.92843682 86.05664062 318.96484375 C91.34904045 318.67607106 96.61543108 318.940433 101.90625 319.16992188 C108.55749517 319.33549628 113.60030211 319.0202867 119.05664062 314.96484375 C122.92007601 311.26716631 124.06947273 307.31058393 125.18164062 302.21484375 C125.35066895 301.50255615 125.51969727 300.79026855 125.69384766 300.05639648 C126.55433052 296.39454529 127.27606855 292.731326 127.93164062 289.02734375 C129.55384655 281.69944803 134.32081473 275.73695492 140.38867188 271.48828125 C144.71701993 269.01675015 149.27904154 267.05446255 153.81958008 265.00683594 C159.27615081 262.4872108 164.20824653 259.71520522 168.05664062 254.96484375 C170.26078452 248.35241205 169.156133 242.91169489 167.05664062 236.46484375 C164.19681513 226.99359371 162.79093338 215.82402089 166.99414062 206.52734375 C169.70857867 201.97234657 173.27144962 198.20000423 176.90039062 194.359375 C181.27854624 189.49740146 184.55851753 184.45170539 185.49414062 177.90234375 C184.49719166 168.92980304 178.04050304 162.70387826 172.11132812 156.35546875 C165.73571498 148.93745497 164.72633605 141.29917656 164.75585938 131.83203125 C165.15626817 126.68391822 166.61209152 122.13263786 168.15039062 117.2265625 C169.78343398 111.34901423 170.25379958 105.76339765 167.55664062 100.15234375 C163.43027195 94.06239274 156.77220244 91.82957751 150.18164062 89.21484375 C141.9155928 85.73813694 134.50189395 81.02378763 130.68164062 72.58984375 C128.73448403 66.82116488 127.66945303 60.73140145 126.62548828 54.74072266 C125.41272141 48.22326812 123.44705559 43.76985097 117.99414062 39.65234375 C113.75690358 37.2181863 110.8032065 36.84549155 105.99023438 36.82421875 C104.17749023 36.79521484 104.17749023 36.79521484 102.328125 36.765625 C99.79963524 36.73213507 97.27089767 36.7135702 94.7421875 36.7109375 C84.54751111 36.50585666 77.4536677 34.31998511 69.93164062 27.33984375 C66.1750679 23.34848523 63.0990687 18.93100906 59.94335938 14.4609375 C56.5400392 9.95840832 52.96525148 6.5729179 47.18603516 5.67382812 C39.9892754 5.28293392 35.12814934 8.10127643 28.93164062 11.46484375 C11.87835094 20.01311953 11.87835094 20.01311953 2.05664062 16.96484375 C-4.49159402 14.43334745 -10.73611823 11.32115227 -16.91308594 7.99633789 C-28.87243433 1.92031012 -36.56230107 8.81104219 -43.94335938 17.96484375 Z " fill="#020100" transform="translate(247.943359375,22.03515625)"/>
<path d="M0 0 C3.52729303 1.56619842 6.91353318 3.34071958 10.30859375 5.17578125 C18.82645133 9.6449996 27.20110606 13.05665223 36.93359375 10.3515625 C42.02014905 8.30288613 46.90992206 5.88318683 51.7265625 3.26611328 C57.63103465 0.11277399 62.1983335 -1.67094937 68.93359375 -0.6484375 C76.59897983 1.69810926 81.43536612 9.20593539 85.93359375 15.4765625 C90.5084191 21.68791074 96.27028136 27.39829751 103.93359375 29.3515625 C109.81726552 29.86030633 115.71736739 29.78794018 121.61914062 29.79101562 C130.17988502 29.92370488 136.12835169 30.58956183 142.33984375 36.73046875 C144.10554469 39.63435436 144.79502097 41.9575611 145.43359375 45.2890625 C146.45833684 50.16351611 147.56237018 54.98192224 148.87109375 59.7890625 C149.16886719 60.90152344 149.46664063 62.01398438 149.7734375 63.16015625 C152.47602915 70.59455821 157.68160089 76.69621752 164.76855469 80.27929688 C167.52688776 81.54380901 170.30590239 82.7370776 173.12207031 83.86694336 C179.36481281 86.3830268 185.06345671 89.01458847 188.23828125 95.32421875 C190.46590815 101.81937808 188.92782987 107.74137372 186.93359375 114.1015625 C183.960158 123.87142282 183.22039531 133.60516305 187.60546875 143.0546875 C189.97886379 147.1592648 192.89284759 150.72800666 195.93359375 154.3515625 C197.21206358 155.94964978 198.48308584 157.55372742 199.74609375 159.1640625 C200.30941406 159.87175781 200.87273437 160.57945312 201.453125 161.30859375 C204.66775445 165.74461275 205.48818688 168.8056312 204.93359375 174.3515625 C202.84630818 180.11644647 199.49478666 184.14735003 195.49609375 188.7265625 C187.40943676 198.11243115 183.94077522 205.38702247 184.4921875 218.0234375 C184.90590467 223.32750381 186.40285778 228.20646986 188.03125 233.25390625 C189.53570007 238.41853355 189.84546315 242.90091349 187.93359375 248.0390625 C182.75836732 254.02291806 176.53454224 257.0903475 169.43359375 260.2890625 C160.26820298 264.46580852 153.37135591 268.66978439 149.01953125 278.1328125 C147.31899967 283.17323703 146.30392969 288.344011 145.36425781 293.57519531 C144.28580332 299.44304458 143.03347585 304.36220051 138.55859375 308.6015625 C134.12107088 311.55991108 130.69251374 312.60757455 125.36328125 312.40625 C124.30109375 312.38175781 123.23890625 312.35726563 122.14453125 312.33203125 C119.94372367 312.26245068 117.74316251 312.184506 115.54296875 312.09765625 C105.3001286 311.88786314 96.49152814 313.96035985 88.90625 321.15625 C85.69634679 324.72845912 82.88874188 328.5719207 80.109375 332.484375 C76.43486526 337.32654762 72.97344365 341.39640419 66.91796875 342.828125 C59.13410698 343.3452347 53.49027283 340.00910354 46.86328125 336.39453125 C38.69769432 332.01234993 30.2557173 329.03444546 20.93359375 331.3515625 C15.88362084 333.37734479 11.05307334 335.82978789 6.28100586 338.43798828 C0.06145284 341.74857715 -4.97633727 343.49716622 -12.06640625 342.3515625 C-17.65275663 339.72269173 -21.23715231 335.0638556 -25.06640625 330.3515625 C-26.05640625 329.13919922 -26.05640625 329.13919922 -27.06640625 327.90234375 C-32.06640625 321.6422631 -32.06640625 321.6422631 -32.06640625 319.3515625 C-32.64390625 319.06410156 -33.22140625 318.77664063 -33.81640625 318.48046875 C-35.23733128 317.76753935 -36.65455876 317.04714762 -38.06640625 316.31640625 C-38.72640625 315.97738281 -39.38640625 315.63835937 -40.06640625 315.2890625 C-40.72640625 314.94746094 -41.38640625 314.60585938 -42.06640625 314.25390625 C-46.1720064 312.40157493 -49.8858203 312.22087405 -54.37109375 312.17578125 C-55.59441406 312.15193359 -56.81773437 312.12808594 -58.078125 312.10351562 C-60.64566619 312.06068 -63.21342625 312.02935736 -65.78125 312.00976562 C-77.6094189 311.74235697 -77.6094189 311.74235697 -82.06640625 307.3515625 C-87.42270406 301.3078254 -88.12140914 293.23100707 -89.68945312 285.56054688 C-91.14148097 278.94135728 -92.79120945 274.61056093 -97.06640625 269.3515625 C-97.06640625 268.6915625 -97.06640625 268.0315625 -97.06640625 267.3515625 C-97.64648438 267.06667969 -98.2265625 266.78179687 -98.82421875 266.48828125 C-100.90154752 265.43514071 -102.91838352 264.31726417 -104.94140625 263.1640625 C-110.11484597 260.25078 -115.46374192 257.72437325 -120.83203125 255.1953125 C-125.41326537 252.58378773 -129.22998377 249.41685966 -131.06640625 244.3515625 C-132.01497389 238.46161926 -130.87263092 233.33738808 -129.06640625 227.7265625 C-126.30730016 218.64821341 -124.88742407 208.20288882 -128.81640625 199.2265625 C-131.78915077 194.14883993 -135.80733902 189.74570839 -139.78808594 185.43505859 C-143.73421242 181.09632639 -146.629973 176.98053483 -147.3515625 170.98046875 C-146.6637499 164.59708515 -144.14853077 161.16030519 -140.06640625 156.3515625 C-138.3145808 154.18152752 -136.59601021 151.98660457 -134.87890625 149.7890625 C-134.45101807 149.25893555 -134.02312988 148.72880859 -133.58227539 148.18261719 C-128.37803523 141.56441403 -126.54425951 135.82951791 -126.69140625 127.6015625 C-126.69720703 126.80733887 -126.70300781 126.01311523 -126.70898438 125.19482422 C-126.82804539 119.78085524 -127.72001854 115.10481907 -129.3828125 109.94140625 C-130.99242862 103.84326061 -131.09503119 97.70882798 -128.56640625 91.9140625 C-123.49808249 86.71903065 -117.89484281 84.25379175 -111.19140625 81.6015625 C-102.8958036 78.11242491 -95.48690541 73.39554332 -91.69140625 64.9140625 C-89.8186967 59.36561605 -88.8196133 53.5660047 -87.63525391 47.83984375 C-86.21206478 41.28957775 -84.30835147 36.42527024 -79.30688477 31.68334961 C-76.32292524 29.9096219 -74.17798826 29.98270036 -70.71875 29.98046875 C-69.47287109 29.96306641 -68.22699219 29.94566406 -66.94335938 29.92773438 C-64.34441147 29.91871472 -61.74544759 29.91342531 -59.14648438 29.91210938 C-48.42000409 29.75234156 -39.11468537 28.19859879 -31.1015625 20.61328125 C-28.09092341 17.26748464 -25.36949597 13.71216821 -22.74194336 10.05883789 C-16.87126981 2.01527629 -10.24419316 -3.21462394 0 0 Z M-23.06640625 55.3515625 C-24.26523438 55.898125 -25.4640625 56.4446875 -26.69921875 57.0078125 C-34.47801387 60.64857278 -41.37178067 64.98114857 -48.06640625 70.3515625 C-48.61296875 70.78597656 -49.15953125 71.22039062 -49.72265625 71.66796875 C-75.29718174 92.16184074 -92.19136177 120.92647975 -96.65844727 153.53857422 C-97.3297805 159.81318966 -97.395157 166.04627311 -97.37890625 172.3515625 C-97.39501953 173.60195312 -97.41113281 174.85234375 -97.42773438 176.140625 C-97.44232248 204.32484509 -85.21852675 232.15680084 -67.06640625 253.3515625 C-66.37933594 254.17269531 -65.69226563 254.99382812 -64.984375 255.83984375 C-47.51060716 276.08422704 -22.88606317 289.18839581 2.93359375 295.3515625 C3.76375 295.55910156 4.59390625 295.76664063 5.44921875 295.98046875 C37.64925503 302.71234768 72.05544095 294.01624829 99.24609375 276.4140625 C128.15911274 256.36717959 146.81211645 227.84988151 154.05859375 193.375 C155.21533986 186.66841357 155.2701018 179.9751197 155.24926758 173.19165039 C155.24611338 171.05237495 155.26963462 168.91449582 155.29492188 166.77539062 C155.33662218 157.61168358 154.22492676 149.26918287 151.93359375 140.3515625 C151.51424561 138.60673584 151.51424561 138.60673584 151.08642578 136.82666016 C143.48236505 105.90920796 121.6057891 78.97928111 94.8125 62.47705078 C59.27643137 41.19050239 14.63752944 37.58804545 -23.06640625 55.3515625 Z " fill="#FAC44E" transform="translate(228.06640625,28.6484375)"/>
<path d="M0 0 C26.67580125 21.02098803 45.12208298 50.71621062 49.43359375 84.7421875 C50.28921156 101.84628252 50.76041646 119.31271516 45.43359375 135.7421875 C45.12010986 136.78270264 45.12010986 136.78270264 44.80029297 137.84423828 C34.82098348 170.78717231 12.58655096 196.77424254 -17.25390625 213.50976562 C-45.62373846 228.629161 -80.12792695 232.415057 -110.98046875 223.48828125 C-145.28048278 213.03703766 -172.28987067 190.53125471 -189.35546875 159.1015625 C-204.8409385 129.42444814 -207.16291654 94.01438321 -197.37890625 62.1171875 C-185.8737757 29.93716564 -163.47207999 2.3824055 -132.44091797 -12.56396484 C-130.48919417 -13.47683014 -128.52962671 -14.36999656 -126.56640625 -15.2578125 C-125.55707031 -15.72960937 -124.54773438 -16.20140625 -123.5078125 -16.6875 C-83.54479307 -33.77659994 -34.32869334 -26.12379865 0 0 Z M-159.56640625 24.7421875 C-182.26845483 49.83594919 -190.16458465 79.4783094 -188.56640625 112.7421875 C-186.6203281 134.78467899 -177.65427803 155.79309563 -163.56640625 172.7421875 C-162.86902344 173.59167969 -162.17164063 174.44117188 -161.453125 175.31640625 C-143.08185352 196.71037322 -116.33013733 211.04348167 -88.1328125 213.55688477 C-67.53774005 215.04391483 -48.33567675 212.57358006 -29.56640625 203.7421875 C-28.94958984 203.45359863 -28.33277344 203.16500977 -27.69726562 202.86767578 C-1.2682047 190.28597299 18.51571009 168.20182338 28.9296875 140.92578125 C30.23050133 137.2240588 31.37278555 133.51930761 32.43359375 129.7421875 C32.75328125 128.63359375 33.07296875 127.525 33.40234375 126.3828125 C37.61136929 109.15698577 37.52105331 87.7387986 32.37109375 70.6796875 C32.15412842 69.95998779 31.93716309 69.24028809 31.71362305 68.4987793 C22.72587049 40.02055817 2.96843202 15.78854396 -23.47265625 1.78125 C-33.05796858 -3.09796554 -43.0757552 -6.85038346 -53.56640625 -9.2578125 C-54.35273438 -9.46277344 -55.1390625 -9.66773437 -55.94921875 -9.87890625 C-93.36091254 -18.38156393 -133.78839849 -2.43183635 -159.56640625 24.7421875 Z " fill="#040301" transform="translate(333.56640625,98.2578125)"/>
<path d="M0 0 C0.66 0 1.32 0 2 0 C2.88164859 1.17354576 3.70509427 2.3910475 4.5 3.625 C8.60633896 9.3333181 14.37517121 12.79172374 21 15 C23.04376079 15.10413269 25.09041164 15.15506934 27.13671875 15.17578125 C28.35423828 15.19962891 29.57175781 15.22347656 30.82617188 15.24804688 C33.38069465 15.29068686 35.93543157 15.32211426 38.49023438 15.34179688 C51.69998001 15.64091171 51.69998001 15.64091171 57 20 C59.4554281 22.61947383 61.51558727 25.42987463 63.5625 28.375 C67.59585561 34.07613578 71.5132836 38.6410702 77 43 C75.07869028 50.21099155 70.9041196 56.46663753 67.16796875 62.85742188 C63.0902847 70.01176141 63.0902847 70.01176141 63 78 C63.66 78.66 64.32 79.32 65 80 C64.5695494 84.80805193 62.23858004 88.40244953 59.86328125 92.5 C58.73105264 95.7788521 59.70453011 96.8571994 61 100 C60.65067665 105.51914021 58.92793654 109.73950725 56.31640625 114.5234375 C55.94500015 115.22312149 55.57359406 115.92280548 55.19093323 116.64369202 C53.99244807 118.89355106 52.77838266 121.13450217 51.5625 123.375 C50.73575023 124.91392093 49.90941623 126.4530653 49.08349609 127.99243164 C44.85197282 135.85471605 40.59332301 143.70683121 36.125 151.4375 C35.75189697 152.09089355 35.37879395 152.74428711 34.99438477 153.41748047 C33.0697918 156.65753295 31.3318435 159.15191981 28 161 C24.4375 161 24.4375 161 21 160 C18.22622533 156.3239597 17.32451773 152.80821002 16.46606445 148.32958984 C16.33882996 147.68018936 16.21159546 147.03078888 16.08050537 146.36170959 C15.66531104 144.2298225 15.26411781 142.09556659 14.86328125 139.9609375 C14.57688086 138.47296461 14.28969339 136.98514303 14.00175476 135.49746704 C13.40172218 132.386784 12.80805204 129.27498136 12.21948242 126.16210938 C11.46483481 122.17120412 10.69924909 118.1825024 9.92953205 114.19447899 C9.195362 110.38818262 8.46660683 106.58085574 7.73828125 102.7734375 C7.59887934 102.04712505 7.45947742 101.32081261 7.31585121 100.57249069 C6.92282699 98.51942192 6.53365797 96.46566225 6.14575195 94.41162109 C5.92385696 93.24311615 5.70196198 92.07461121 5.4733429 90.87069702 C5 88 5 88 5 85 C4.21496094 85.37253906 3.42992187 85.74507813 2.62109375 86.12890625 C-7.95194531 90.89001709 -7.95194531 90.89001709 -14 89 C-14.59683594 88.60167969 -15.19367188 88.20335937 -15.80859375 87.79296875 C-19.1362674 86.58883729 -20.93191617 87.90862988 -24.0625 89.375 C-29.74064171 92 -29.74064171 92 -33 92 C-33.598125 91.319375 -34.19625 90.63875 -34.8125 89.9375 C-35.534375 89.298125 -36.25625 88.65875 -37 88 C-39.99032674 88.09533679 -39.99032674 88.09533679 -43 89 C-44.66516283 89.34076627 -46.33161875 89.67535729 -48 90 C-42.75075108 79.3989538 -37.37151061 68.87936271 -31.8125 58.4375 C-31.44760468 57.75056061 -31.08270935 57.06362122 -30.70675659 56.35586548 C-25.44873727 46.46414799 -20.0521382 36.66409939 -14.49072266 26.93896484 C-9.43413634 18.07662348 -4.68492693 9.06316564 0 0 Z " fill="#EE5F82" transform="translate(129,338)"/>
<path d="M0 0 C6.21609692 3.22738922 10.83699042 7.49359422 13.52734375 14.08984375 C13.78181934 16.74891376 13.78181934 16.74891376 13.78804016 19.83869934 C13.79512497 21.01206345 13.80220978 22.18542755 13.80950928 23.39434814 C13.80703186 24.67807312 13.80455444 25.9617981 13.80200195 27.28442383 C13.80635024 28.65295184 13.81153378 30.02147742 13.81748962 31.38999939 C13.8308808 35.10501752 13.831458 38.81993391 13.82892632 42.53497148 C13.82785633 45.63869567 13.83274089 48.74239931 13.83753175 51.84611911 C13.84862811 59.17127278 13.84906412 66.49637519 13.84301758 73.8215332 C13.83698167 81.37076499 13.84927868 88.91981022 13.87058765 96.46901017 C13.88822247 102.95578281 13.8942019 109.44249618 13.8909499 115.9292919 C13.88913933 119.80110125 13.89175026 123.67277762 13.90566444 127.5445652 C13.91826826 131.18816198 13.91627478 134.83146893 13.90325356 138.47506142 C13.89977164 140.44296656 13.91104796 142.41088065 13.92282104 144.37875366 C13.86597924 153.95588397 12.54241523 160.07477227 5.52734375 167.08984375 C-0.61948318 170.93161058 -7.38383486 171.13559491 -14.47265625 170.08984375 C-21.01302712 167.42069095 -24.56526439 163.38919279 -27.47265625 157.08984375 C-27.80265625 156.42984375 -28.13265625 155.76984375 -28.47265625 155.08984375 C-28.56609941 152.12999219 -28.5983886 149.19381699 -28.58618164 146.23388672 C-28.58632767 145.31675903 -28.58647369 144.39963135 -28.58662415 143.45471191 C-28.58592573 140.41379456 -28.57813665 137.37293795 -28.5703125 134.33203125 C-28.56844807 132.22738682 -28.56702428 130.12274195 -28.56602478 128.01809692 C-28.5622016 122.471281 -28.55237299 116.92449115 -28.5413208 111.37768555 C-28.53110241 105.72054395 -28.52652624 100.06339816 -28.52148438 94.40625 C-28.51075056 83.30076978 -28.49367651 72.19530893 -28.47265625 61.08984375 C-29.23545898 61.41146484 -29.99826172 61.73308594 -30.78417969 62.06445312 C-36.56402484 64.26889824 -43.43806173 64.32032147 -49.1796875 61.9921875 C-55.27799723 58.19970633 -58.20814657 53.88337278 -60.47265625 47.08984375 C-61.09962627 40.97688602 -60.60018546 35.44789411 -57.47265625 30.08984375 C-51.99072759 24.31677861 -45.18217307 19.98254067 -38.59765625 15.58984375 C-36.7248438 14.3300462 -34.85244563 13.06963257 -32.98046875 11.80859375 C-32.0668457 11.19628906 -31.15322266 10.58398438 -30.21191406 9.953125 C-26.68031111 7.55087957 -23.21360078 5.06191736 -19.75732422 2.55273438 C-13.62452739 -1.37414302 -6.93358573 -2.55217295 0 0 Z " fill="#030201" transform="translate(268.47265625,114.91015625)"/>
<path d="M0 0 C2.71656346 2.42339826 4.23567083 5.0012576 5.93359375 8.20703125 C6.77386108 9.78218506 6.77386108 9.78218506 7.63110352 11.38916016 C8.22721436 12.5188623 8.8233252 13.64856445 9.4375 14.8125 C10.06568078 15.99301874 10.69451401 17.17319051 11.32397461 18.35302734 C12.28607336 20.15636996 13.24785369 21.95987113 14.2077179 23.7644043 C17.12060653 29.23930063 20.0844848 34.6853392 23.0625 40.125 C24.03664429 41.90875263 25.0106012 43.6926076 25.984375 45.4765625 C26.47228516 46.37020508 26.96019531 47.26384766 27.46289062 48.18457031 C28.22375977 49.57820801 28.22375977 49.57820801 29 51 C29.82661133 52.51352051 29.82661133 52.51352051 30.66992188 54.05761719 C36.97455779 65.61134555 43.26334858 77.15120726 49 89 C41.93467977 87.02516352 35.19720052 84.58178046 28.42578125 81.76953125 C26.4396327 80.95854444 24.45329906 80.14801081 22.46679688 79.33789062 C19.37730286 78.07229399 16.28949339 76.80297311 13.20483398 75.52563477 C10.19948248 74.28354344 7.18823409 73.05677973 4.17578125 71.83203125 C3.25896072 71.44771439 2.3421402 71.06339752 1.39753723 70.66743469 C-3.49824318 68.6897274 -7.63272568 67.13902032 -13 68 C-15.6374317 70.80655666 -16.51987767 73.26747554 -17.22680664 77.00878906 C-17.42033218 78.00372375 -17.61385773 78.99865845 -17.81324768 80.02374268 C-18.10871742 81.62847443 -18.10871742 81.62847443 -18.41015625 83.265625 C-18.72961464 84.92667267 -18.72961464 84.92667267 -19.05552673 86.62127686 C-19.73460731 90.1623472 -20.39904674 93.70597167 -21.0625 97.25 C-21.73243304 100.77913307 -22.40537977 104.30767191 -23.08018494 107.83587646 C-23.49883911 110.03007971 -23.91417605 112.22491929 -24.32569885 114.42047119 C-25.38039026 120.00238229 -26.55567793 125.50557356 -28 131 C-30.48842494 127.87555591 -32.3564397 124.62969469 -34.21484375 121.09765625 C-34.81876953 119.96005859 -35.42269531 118.82246094 -36.04492188 117.65039062 C-36.99227064 115.85648532 -37.93791558 114.06170914 -38.8815918 112.26586914 C-39.80067539 110.51992171 -40.72644639 108.77749984 -41.65234375 107.03515625 C-42.19882568 105.9975415 -42.74530762 104.95992676 -43.30834961 103.89086914 C-45.01537275 100.97372944 -46.66875919 98.45155752 -49 96 C-51.02364541 95.8267154 -53.04765163 95.65490468 -55.07421875 95.52001953 C-57.63485782 94.82856907 -58.19013048 93.87415151 -59.53125 91.62109375 C-60.21786569 90.2412603 -60.87357195 88.84567945 -61.5 87.4375 C-61.84546875 86.72658203 -62.1909375 86.01566406 -62.546875 85.28320312 C-63.39166189 83.53496358 -64.19958786 81.76899598 -65 80 C-64.505 79.649375 -64.01 79.29875 -63.5 78.9375 C-61.20723295 75.97600923 -61.72302072 73.66878971 -62 70 C-63.23474731 66.75387347 -63.23474731 66.75387347 -65.0625 63.62890625 C-66.00996094 61.90317383 -66.00996094 61.90317383 -66.9765625 60.14257812 C-67.65072307 58.94903874 -68.32520627 57.75568153 -69 56.5625 C-69.67582794 55.34254309 -70.35032081 54.12184557 -71.0234375 52.90039062 C-72.66931684 49.92605154 -74.32839019 46.95993067 -76 44 C-75.22060059 43.22366211 -74.44120117 42.44732422 -73.63818359 41.64746094 C-68.1341072 36.1240291 -62.95251825 30.3471093 -58.25 24.125 C-55.0396347 19.91882694 -52.12400552 16.70800184 -47 15 C-45.2086465 14.9635687 -43.41581182 14.9858056 -41.625 15.04296875 C-40.55636719 15.06423828 -39.48773438 15.08550781 -38.38671875 15.10742188 C-36.15982705 15.16007618 -33.93318272 15.22483228 -31.70703125 15.30273438 C-20.70642129 15.48016357 -11.08759976 12.75061644 -3 5 C-1.0250123 2.33182641 -1.0250123 2.33182641 0 0 Z " fill="#EE5F81" transform="translate(382,339)"/>
<path d="M0 0 C2.94949539 0.98316513 3.96980185 1.50153153 5.8125 3.9375 C6.19281673 6.40381527 6.19281673 6.40381527 6.20018005 9.39646912 C6.21008469 10.53072327 6.21998932 11.66497742 6.23019409 12.83360291 C6.22569244 14.0788826 6.2211908 15.32416229 6.21655273 16.60717773 C6.22341599 17.91792267 6.23027924 19.2286676 6.23735046 20.57913208 C6.2553176 24.17628641 6.25410685 27.77319727 6.24840808 31.37038302 C6.24532115 34.37245098 6.25140317 37.37447183 6.25744683 40.37653309 C6.27150227 47.45849994 6.26992251 54.54034618 6.25854492 61.62231445 C6.24706382 68.9302349 6.26113664 76.23778836 6.2879414 83.54566044 C6.31008844 89.8183693 6.31673802 96.09096289 6.31086498 102.36370808 C6.30749163 106.11083674 6.30993521 109.85773016 6.32711601 113.60482597 C6.34543624 117.78293012 6.33140845 121.96031893 6.31420898 126.13842773 C6.32387695 127.3816832 6.33354492 128.62493866 6.34350586 129.90586853 C6.33367172 131.0429425 6.32383759 132.18001648 6.31370544 133.35154724 C6.31349616 134.33950004 6.31328688 135.32745283 6.31307125 136.34534359 C5.66884434 139.68140595 4.46118547 140.87114241 1.8125 142.9375 C-1.64933063 143.51447177 -3.38049859 143.45855998 -6.34484863 141.54455566 C-9.21137893 137.48887579 -8.72592803 133.57486228 -8.66992188 128.72460938 C-8.67383438 127.68681839 -8.67774689 126.6490274 -8.68177795 125.57978821 C-8.68775581 123.32682401 -8.68457785 121.07382125 -8.6733551 118.82087708 C-8.65613313 115.25706475 -8.66357945 111.69406643 -8.6776123 108.13024902 C-8.70730295 99.28016908 -8.69405703 90.43024339 -8.68243408 81.58013916 C-8.67424336 74.10153414 -8.68211562 66.62328399 -8.71156311 59.14472961 C-8.71867615 55.63024042 -8.70195497 52.11636918 -8.68444824 48.60192871 C-8.69015427 46.45141259 -8.69697064 44.30089903 -8.70507812 42.15039062 C-8.69376358 41.17052689 -8.68244904 40.19066315 -8.67079163 39.18110657 C-8.67369921 33.89855592 -8.67369921 33.89855592 -11.03356934 29.29748535 C-13.17805059 27.67147198 -13.17805059 27.67147198 -16.1328125 27.96484375 C-19.43508138 29.01633346 -21.3837022 30.32622146 -24.0625 32.5 C-27.28419584 34.8616051 -29.58149386 36.46117471 -33.625 36.625 C-37.1875 35.9375 -37.1875 35.9375 -39.1875 34.3125 C-40.5467411 31.08430238 -40.88266149 29.41330743 -40.1875 25.9375 C-34.44001004 20.39153493 -27.78366777 16.18136419 -21.125 11.8125 C-20.06216797 11.10996094 -18.99933594 10.40742188 -17.90429688 9.68359375 C-15.87453372 8.3422512 -13.84235922 7.00454782 -11.80737305 5.67114258 C-9.72514469 4.29327439 -7.6807769 2.87971176 -5.640625 1.44140625 C-3.1875 -0.0625 -3.1875 -0.0625 0 0 Z " fill="#DD9053" transform="translate(262.1875,128.0625)"/>
<path d="M0 0 C4.9436659 4.34041056 5.41823589 10.23813065 6.54296875 16.3984375 C6.75689774 17.50675934 6.97082672 18.61508118 7.1912384 19.75698853 C7.87034605 23.29387334 8.52895994 26.8342344 9.1875 30.375 C9.64127744 32.75024886 10.09634164 35.12525227 10.55273438 37.5 C14.05041315 55.80999954 14.05041315 55.80999954 15 63 C15.91463192 61.3739877 16.82922439 59.74795319 17.74365234 58.12182617 C18.54671576 56.69454108 19.35043831 55.26762666 20.15478516 53.84106445 C22.28400543 50.06254734 24.40203046 46.27859778 26.49609375 42.48046875 C26.89513916 41.76052734 27.29418457 41.04058594 27.70532227 40.29882812 C28.4715995 38.91565854 29.23395951 37.53030987 29.99194336 36.14257812 C33.52278569 29.78981976 33.52278569 29.78981976 36 28 C38.72593699 27.38996168 41.25772153 27.49829417 44 28 C46.0625 29.5625 46.0625 29.5625 47 32 C46.63374046 37.51887489 44.92918438 41.7372214 42.31640625 46.5234375 C41.94500015 47.22312149 41.57359406 47.92280548 41.19093323 48.64369202 C39.99244807 50.89355106 38.77838266 53.13450217 37.5625 55.375 C36.73575023 56.91392093 35.90941623 58.4530653 35.08349609 59.99243164 C30.85197282 67.85471605 26.59332301 75.70683121 22.125 83.4375 C21.75189697 84.09089355 21.37879395 84.74428711 20.99438477 85.41748047 C19.0697918 88.65753295 17.3318435 91.15191981 14 93 C10.4375 93 10.4375 93 7 92 C4.22622533 88.3239597 3.32451773 84.80821002 2.46606445 80.32958984 C2.33882996 79.68018936 2.21159546 79.03078888 2.08050537 78.36170959 C1.66531104 76.2298225 1.26411781 74.09556659 0.86328125 71.9609375 C0.57688086 70.47296461 0.28969339 68.98514303 0.00175476 67.49746704 C-0.59827782 64.386784 -1.19194796 61.27498136 -1.78051758 58.16210938 C-2.53516519 54.17120412 -3.30075091 50.1825024 -4.07046795 46.19447899 C-4.804638 42.38818262 -5.53339317 38.58085574 -6.26171875 34.7734375 C-6.40112066 34.04712505 -6.54052258 33.32081261 -6.68414879 32.57249069 C-7.07717301 30.51942192 -7.46634203 28.46566225 -7.85424805 26.41162109 C-8.07614304 25.24311615 -8.29803802 24.07461121 -8.5266571 22.87069702 C-9 20 -9 20 -9 17 C-9.78503906 17.37253906 -10.57007813 17.74507813 -11.37890625 18.12890625 C-22.05778679 22.93767822 -22.05778679 22.93767822 -28 21 C-30.54731042 18.45268958 -30.35323144 16.55484721 -30.55859375 13.0703125 C-29.67320427 9.78879904 -27.79997591 8.84959244 -25 7 C-22.28671002 5.59656197 -19.51298708 4.40802724 -16.6875 3.25 C-15.96626953 2.93417969 -15.24503906 2.61835938 -14.50195312 2.29296875 C-9.45561608 0.20202013 -5.46147306 -0.75965695 0 0 Z " fill="#020001" transform="translate(143,406)"/>
</svg>
