<?xml version="1.0" encoding="UTF-8"?>
<svg version="1.1" xmlns="http://www.w3.org/2000/svg" width="937" height="313">
<path d="M0 0 C309.21 0 618.42 0 937 0 C937 103.29 937 206.58 937 313 C627.79 313 318.58 313 0 313 C0 209.71 0 106.42 0 0 Z " fill="#FEFEFD" transform="translate(0,0)"/>
<path d="M0 0 C6.6450011 3.70687858 13.98482096 3.40399744 21.375 2.5 C23.71460835 1.51477047 26.04862644 0.51608588 28.375 -0.5 C31.10546875 -0.64453125 31.10546875 -0.64453125 33.5625 -0.3125 C34.38105469 -0.21582031 35.19960938 -0.11914062 36.04296875 -0.01953125 C38.375 0.5 38.375 0.5 40.10841191 1.5163914 C43.15523235 2.83858964 45.6525612 2.75332532 48.97244072 2.75726891 C49.96943114 2.76252802 49.96943114 2.76252802 50.98656279 2.76789337 C53.22361762 2.77723005 55.46041342 2.77227831 57.69747925 2.76742554 C59.31357922 2.77116066 60.92967739 2.77576162 62.54577267 2.78115618 C66.99458916 2.79341865 71.44333063 2.79312191 75.89216018 2.79076743 C80.68708064 2.79036009 85.48197679 2.80139051 90.27688599 2.81088257 C99.67380239 2.82751111 109.0706937 2.83299294 118.46762358 2.83410732 C126.10382753 2.83505688 133.74002319 2.83916254 141.37622452 2.84550858 C163.01451329 2.8631257 184.6527822 2.87234666 206.29107819 2.87084763 C207.45814251 2.87076772 208.62520682 2.8706878 209.82763672 2.87060547 C210.99612184 2.87052371 212.16460696 2.87044195 213.36850072 2.87035771 C232.3111497 2.86954458 251.25371921 2.88868786 270.1963452 2.9168822 C289.63497979 2.9455871 309.0735756 2.95942383 328.51223195 2.95769465 C339.43021507 2.95702994 350.34811488 2.96255767 361.26607895 2.98405075 C370.56095721 3.00223102 379.85571438 3.00663586 389.15060268 2.9930319 C393.89463281 2.9864864 398.63843042 2.98644193 403.38243866 3.0037384 C407.72382806 3.01940443 412.06479933 3.01667214 416.40617813 2.99917014 C417.97816214 2.99608592 419.55017685 2.99978587 421.12212466 3.01089029 C423.25721691 3.02497597 425.39083526 3.0144554 427.525877 2.99777794 C429.30541151 2.99843004 429.30541151 2.99843004 431.12089622 2.99909532 C435.05831416 2.39519729 437.19677593 0.83968952 440.375 -1.5 C446.30853187 -3.47784396 453.01353119 -3.50831235 458.75 -0.875 C464.14841297 2.25563703 467.39149971 6.5757128 469.375 12.5 C470.07166765 18.71572304 470.02234724 24.21763503 466.375 29.5 C461.92244483 34.84306621 456.74763555 38.14498573 449.8125 38.875 C446.375 38.5 446.375 38.5 443.3125 37.515625 C438.58595475 36.1226302 433.83525229 36.04425278 428.9375 35.875 C427.55401367 35.81699219 427.55401367 35.81699219 426.14257812 35.7578125 C423.88689857 35.66431283 421.63118486 35.58003432 419.375 35.5 C419.10852378 36.51259227 419.10852378 36.51259227 418.8366642 37.54564095 C417.10375945 44.02820386 415.16501093 50.4000671 413.02099609 56.75732422 C412.70029648 57.71650253 412.37959686 58.67568085 412.04917908 59.66392517 C411.35976998 61.7246016 410.6689764 63.78481529 409.97690964 65.84460068 C408.88134186 69.10557289 407.78963505 72.36781567 406.69888306 75.63040161 C404.38596955 82.54640213 402.06832282 89.46081118 399.75 96.375 C397.05537126 104.41164372 394.36269976 112.44893223 391.6750679 120.48791885 C390.60007082 123.69995783 389.52146501 126.91077017 388.44271851 130.12155151 C387.78504017 132.08732275 387.12752981 134.0531502 386.47021484 136.01904297 C386.16994888 136.90950821 385.86968292 137.79997345 385.56031799 138.71742249 C382.82570383 146.84654251 382.82570383 146.84654251 383 155.3125 C383.7413998 161.87779038 382.02575712 166.59228755 378.0625 171.8125 C373.23170891 176.64329109 369.61987352 177.6910489 362.875 177.875 C356.98290349 177.70780089 353.0941599 177.16648852 348.76171875 172.91796875 C343.48689931 167.13958659 341.84477225 162.10207081 341.9921875 154.2890625 C342.59416792 149.90320514 344.43482175 146.75960502 347.375 143.5 C348.17462158 142.95118164 348.97424316 142.40236328 349.7980957 141.83691406 C352.91558081 139.00976414 353.95447825 136.25580692 355.1875 132.35546875 C355.43438568 131.62148865 355.68127136 130.88750854 355.93563843 130.13128662 C356.76434118 127.6549128 357.56941174 125.17148034 358.375 122.6875 C358.96021886 120.92405125 359.54701786 119.16112624 360.13525391 117.39868164 C361.46130376 113.41643732 362.77707115 109.43096306 364.08691406 105.44335938 C366.68550737 97.54204844 369.32315942 89.6539167 371.9609375 81.765625 C372.92725516 78.87481327 373.89337284 75.98393475 374.859375 73.09301758 C375.09830349 72.37800488 375.33723198 71.66299219 375.58340073 70.92631245 C379.52692272 59.12186598 383.44940954 47.3104193 387.375 35.5 C374.505 35.5 361.635 35.5 348.375 35.5 C347.715 38.47 347.055 41.44 346.375 44.5 C345.89902715 46.12835854 345.3949588 47.74922535 344.84371948 49.35366821 C344.41047363 50.62707565 344.41047363 50.62707565 343.96847534 51.9262085 C343.5023735 53.27298676 343.5023735 53.27298676 343.02685547 54.64697266 C342.69494202 55.6190567 342.36302856 56.59114075 342.02105713 57.59268188 C341.30480792 59.69009891 340.58668858 61.78687807 339.86687851 63.88307571 C338.33256868 68.35901643 336.81540829 72.84070742 335.29716682 77.32211876 C332.4764317 85.64763576 329.64912108 93.97075238 326.79150391 102.28369141 C324.79831609 108.08411409 322.82768952 113.89178757 320.87131119 119.70472336 C320.12598884 121.90568459 319.37255079 124.10391631 318.61053085 126.29915237 C313.12292299 142.08089571 313.12292299 142.08089571 312.21975708 158.59799194 C312.46090909 163.10592751 311.59316876 165.5645393 309.375 169.5 C305.43734955 173.73249867 301.25011745 177.17678418 295.38671875 177.8359375 C287.54695057 177.92806169 282.74647843 177.67224215 276.91796875 172.109375 C272.21889863 166.96341925 270.87237316 161.59193935 271.06640625 154.80078125 C271.60145436 150.81162506 273.0557233 147.76200178 275.375 144.5 C276.46500453 143.67619206 277.57898698 142.88344294 278.71118164 142.11865234 C284.04279863 137.65287129 285.42532768 131.2096127 287.43359375 124.7890625 C287.87001499 123.45177562 288.30844885 122.11514405 288.74879456 120.77914429 C289.8949442 117.28378892 291.01376978 113.78028202 292.12689209 110.27429199 C293.27051101 106.6891948 294.43983801 103.11250576 295.60742188 99.53515625 C297.89110214 92.5318701 300.13157706 85.51679872 302.375 78.5 C288.845 78.5 275.315 78.5 261.375 78.5 C263.025 80.81 264.675 83.12 266.375 85.5 C270.29988571 94.47116734 267.79024387 102.83978205 264.6015625 111.6328125 C259.69628951 122.7484311 249.24615824 131.64885045 238.25 136.4375 C237.30125 136.788125 236.3525 137.13875 235.375 137.5 C238.63836664 139.67557776 240.86932777 140.12633878 244.6875 140.875 C251.83340988 142.48501077 256.13209515 144.32517311 260.1875 150.5625 C262.99682192 155.29925315 263.7382641 158.9602224 263.375 164.5 C261.67644295 171.08190858 258.84657462 176.26417305 252.875 179.8125 C247.08098418 182.46583435 240.3445926 182.74003909 234.26171875 180.83984375 C229.79184263 178.55039501 225.80289095 174.89799774 223.375 170.5 C223.19818374 168.77536138 223.07736384 167.04445185 223 165.3125 C222.47283714 160.93159484 221.10169906 158.98001232 217.80859375 156.23046875 C214.35847904 153.59263259 210.79405407 151.13336562 207.15258789 148.76757812 C205.375 147.5 205.375 147.5 203.83447266 145.85131836 C202.32966979 144.1678784 202.32966979 144.1678784 199.30078125 144.34765625 C198.10839844 144.41855469 196.91601562 144.48945313 195.6875 144.5625 C189.59992108 144.66907965 185.14691426 144.48582166 180.375 140.5 C175.90333973 135.70402151 173.62923002 131.8049902 173.125 125.25 C173.61217097 117.94243541 176.22362457 112.65137543 181.375 107.5 C187.03406949 104.15075479 191.79933325 102.86364515 198.375 103.5 C204.4920338 105.54566383 208.5542082 108.3857504 212.625 113.375 C215.2980453 116.84205623 215.2980453 116.84205623 219.375 117.875 C226.00627689 114.83566476 230.77497284 112.12404997 234.375 105.5 C235.89410761 100.94267716 236.3403845 96.80111047 234.46875 92.33984375 C231.80277166 87.76837448 229.16594095 84.97522782 224.375 82.5 C221.2442491 82.17697457 218.19637133 82.41036815 215.0625 82.625 C208.31114572 82.85221213 203.37567435 82.82884742 197.97265625 78.28515625 C193.67299082 73.48088461 191.75990144 68.707512 191 62.375 C191.6058693 56.11435057 193.89531677 51.10340962 198.25390625 46.52734375 C203.68249335 42.29844441 208.65312673 41.75910256 215.421875 42.11328125 C220.78192607 42.8151927 223.60532469 44.58603282 227.02786255 48.57461548 C229.89461092 51.45509769 232.10230852 52.19678424 236.2618866 52.246521 C236.99772476 52.22494934 237.73356293 52.20337769 238.49169922 52.18115234 C239.28261459 52.1820285 240.07352997 52.18290466 240.88841248 52.18380737 C243.48653085 52.17964774 246.08202382 52.13307785 248.6796875 52.0859375 C250.48713775 52.07473946 252.29460629 52.06620214 254.1020813 52.06021118 C258.8470739 52.0373605 263.59095515 51.97847037 268.33551025 51.9119873 C273.18185392 51.85048316 278.02837811 51.82317885 282.875 51.79296875 C292.37556552 51.72872241 301.87501625 51.62322869 311.375 51.5 C313.025 46.22 314.675 40.94 316.375 35.5 C267.205 35.5 218.035 35.5 167.375 35.5 C167.43637607 68.94539288 167.43637607 68.94539288 167.53515625 102.390625 C167.58374248 116.02636573 167.62816791 129.66203129 167.64599609 143.29785156 C167.65899821 153.22806062 167.68592608 163.15811727 167.72961307 173.0882405 C167.75226021 178.34673545 167.76790873 183.60504219 167.76688385 188.86359024 C167.76613917 193.81306196 167.78401297 198.76211713 167.81616783 203.71148109 C167.82468677 205.52790617 167.82640326 207.34437787 167.82080269 209.16081429 C167.81417116 211.642131 167.8320619 214.12211907 167.85601807 216.603302 C167.84825765 217.32121418 167.84049723 218.03912636 167.83250165 218.77879345 C167.91862993 223.82199331 169.37965546 226.5250864 172.375 230.5 C174.26840495 236.18021484 174.29631907 242.24101669 171.8125 247.75 C168.70771797 253.15057156 164.64920048 256.6065641 158.875 258.875 C151.46277435 260.19861172 146.69448086 259.48054656 140.375 255.5 C139.715 254.84 139.055 254.18 138.375 253.5 C136.41457904 253.19435254 136.41457904 253.19435254 134.13199997 253.23993778 C133.2364854 253.23287219 132.34097084 253.2258066 131.41831946 253.2185269 C129.9332365 253.22214953 129.9332365 253.22214953 128.41815186 253.22584534 C127.37120344 253.22060866 126.32425503 253.21537198 125.24558091 253.20997661 C121.71413841 253.19489546 118.18283976 253.19426968 114.65136719 253.19360352 C112.12881727 253.18598741 109.60626969 253.17756087 107.08372498 253.16838074 C100.21381831 253.1463729 93.34396189 253.13760685 86.47402477 253.13255429 C82.18537878 253.12930006 77.8967418 253.12277918 73.60810089 253.1155529 C61.73730126 253.09598196 49.86651001 253.07958109 37.99569321 253.07667637 C37.23559673 253.0764888 36.47550025 253.07630123 35.69237055 253.07610798 C34.15141281 253.07574172 32.61045506 253.07537802 31.06949732 253.07501686 C29.92207124 253.07474265 29.92207124 253.07474265 28.75146484 253.07446289 C27.60264015 253.07419207 27.60264015 253.07419207 26.43060687 253.07391577 C14.02221195 253.07037461 1.61399062 253.04335814 -10.7943441 253.005965 C-23.52968546 252.96789322 -36.26494068 252.94851897 -49.00034022 252.94821686 C-56.15244622 252.94763197 -63.30434524 252.93912026 -70.45639801 252.91021919 C-77.18366252 252.88316016 -83.91044773 252.88179083 -90.6377697 252.89787483 C-93.10892313 252.89969549 -95.58009974 252.89294341 -98.05120277 252.87705612 C-101.42136458 252.85670746 -104.79007523 252.86708307 -108.16021729 252.88526917 C-109.63191592 252.86546921 -109.63191592 252.86546921 -111.13334584 252.84526926 C-117.47867027 252.92363551 -120.1523193 253.98851487 -124.625 258.5 C-130.06047088 261.03655308 -136.04975224 261.62767671 -141.8046875 259.8125 C-147.42256533 257.26855532 -151.05382604 253.80890347 -153.73046875 248.171875 C-155.5519856 242.73118712 -155.78524576 236.46773604 -153.6796875 231.08203125 C-150.36841434 225.53200422 -145.988819 221.1970184 -139.625 219.5 C-132.65025415 218.70357573 -127.52843285 219.66199796 -121.625 223.5 C-121.295 223.83 -120.965 224.16 -120.625 224.5 C-119.24383807 224.60143046 -117.85754396 224.63396616 -116.47267056 224.6386652 C-115.57196345 224.64413964 -114.67125634 224.64961409 -113.74325508 224.65525442 C-112.74230326 224.65623253 -111.74135144 224.65721064 -110.71006775 224.65821838 C-109.65565682 224.66315636 -108.60124588 224.66809434 -107.5148831 224.67318195 C-103.95255071 224.68864095 -100.39023644 224.69694019 -96.82788086 224.70532227 C-94.28589211 224.7148942 -91.74390498 224.72490386 -89.20191956 224.73532104 C-83.71419245 224.75681874 -78.22646844 224.77524855 -72.73872185 224.79092598 C-64.80427609 224.8135984 -56.86985725 224.84174481 -48.93543429 224.87124526 C-36.06365751 224.91895347 -23.19186975 224.96220887 -10.32006836 225.00268555 C2.18677628 225.04202407 14.69361114 225.08344632 27.20043945 225.12768555 C27.97082159 225.13040982 28.74120372 225.13313409 29.53493077 225.13594092 C33.39955064 225.14962012 37.26417037 225.16334045 41.12879002 225.17708123 C73.21084086 225.29109672 105.29291118 225.39707839 137.375 225.5 C137.375 207.35 137.375 189.2 137.375 170.5 C132.755 173.14 128.135 175.78 123.375 178.5 C118.89453125 180.5234375 118.89453125 180.5234375 115.1875 181.875 C113.95644531 182.33648437 112.72539063 182.79796875 111.45703125 183.2734375 C92.70045647 189.33662029 69.86070805 188.86448677 52.125 180.25 C37.12066725 172.24104276 27.50417438 160.89720313 22.375 144.5 C18.6805979 129.66030079 18.23257105 115.33072847 18.27734375 100.1484375 C18.27921176 98.2794295 18.28063385 96.41042102 18.28163147 94.54141235 C18.28542653 89.65230935 18.2952307 84.76323665 18.30633545 79.87414551 C18.31661471 74.87313242 18.32114298 69.87211438 18.32617188 64.87109375 C18.33685602 55.08071595 18.35389575 45.29036051 18.375 35.5 C16.12428094 35.5872605 13.87436612 35.69544115 11.625 35.8125 C10.37203125 35.87050781 9.1190625 35.92851563 7.828125 35.98828125 C4.26060576 36.51695209 3.01099966 37.17724693 0.375 39.5 C-5.93948351 42.0257934 -12.2578936 42.13027376 -18.64453125 39.74609375 C-23.95959773 36.97855369 -27.3270987 33.15760743 -29.9375 27.8125 C-31.4245712 20.64752057 -31.71376697 13.76610643 -27.9609375 7.28515625 C-21.11551972 -1.8620833 -10.3485119 -6.16024402 0 0 Z " fill="#04A836" transform="translate(467.625,3.5)"/>
<path d="M0 0 C309.21 0 618.42 0 937 0 C937 5.28 937 10.56 937 16 C935.70152744 14.05229116 934.44806155 12.07353188 933.25 10.0625 C930.18512392 5.89086311 926.89403909 3.63134636 922 2 C914.50055482 1.26095936 909.43268279 2.06891607 903 6 C902.67 6.33 902.34 6.66 902 7 C899.92774276 7.10063679 897.8519877 7.1292474 895.77728939 7.13142776 C895.11668983 7.1334804 894.45609028 7.13553303 893.77547255 7.13764787 C891.53421102 7.14335843 889.29301015 7.14185566 887.05174255 7.14044189 C885.43965857 7.14302323 883.82757523 7.14603574 882.21549278 7.1494453 C877.76377692 7.15754614 873.31207715 7.15930658 868.86035478 7.16004276 C864.06739578 7.16188805 859.27444523 7.16943284 854.48149109 7.17617798 C843.98961337 7.18978502 833.49773945 7.19579007 823.00585437 7.20018864 C816.4576635 7.2029478 809.90947412 7.20718462 803.36128426 7.21169281 C785.24119249 7.22388997 767.12110191 7.23418749 749.00100613 7.2375679 C747.84025013 7.23778747 746.67949414 7.23800703 745.48356372 7.23823325 C743.73818197 7.23856067 743.73818197 7.23856067 741.95753998 7.2388947 C739.59954162 7.23933817 737.24154327 7.23978474 734.88354492 7.24023438 C733.12905941 7.24056652 733.12905941 7.24056652 731.33912975 7.24090537 C712.39119103 7.24485241 693.44329079 7.26230155 674.49536692 7.2855939 C655.05456176 7.30929966 635.6137759 7.32176945 616.17295605 7.32293582 C605.25264172 7.32385317 594.33237749 7.32962021 583.41207695 7.34775543 C574.1113461 7.36314615 564.81068082 7.36828306 555.50993966 7.36001733 C550.76369271 7.35610681 546.01757781 7.35705996 541.27134705 7.37107468 C536.92548118 7.38378983 532.57984693 7.38263707 528.2339815 7.37048396 C526.66254481 7.36852279 525.09109186 7.3716248 523.51967805 7.38032833 C515.7747391 7.42050549 509.12267045 7.33560301 502 4 C499.46055601 3.76874026 499.46055601 3.76874026 497.25 4.1875 C496.53328125 4.28417969 495.8165625 4.38085938 495.078125 4.48046875 C492.97662987 4.90604127 492.97662987 4.90604127 491.2109375 6.0234375 C487.99641399 7.44328004 484.83149281 7.42459361 481.375 7.4375 C480.30258057 7.44330078 480.30258057 7.44330078 479.20849609 7.44921875 C473.6967555 7.32969603 470.06005518 5.93406773 465.296875 3.12890625 C460.57341781 0.80734311 455.70450791 1.15217703 450.76953125 2.69921875 C445.16632582 5.19070034 441.52066151 8.76056262 438.890625 14.36328125 C436.83417929 20.4514429 437.24291067 26.93962742 439.625 32.875 C442.35901389 38.23750443 445.59802211 41.02997047 451.25 43.3125 C455.88554665 44.16235022 460.30340122 44.17009814 465 44 C464.01 44.66 463.02 45.32 462 46 C464.31 46.66 466.62 47.32 469 48 C466.40601996 48.83007361 464.44802727 48.98958542 461.6875 48.9375 C458.02319242 48.83068804 458.02319242 48.83068804 454.75699997 49.98650169 C450.82043528 51.04843986 447.23964651 51.28973213 443.20050049 51.2784729 C442.44306889 51.28426601 441.6856373 51.29005912 440.90525323 51.29602778 C438.37331514 51.31298269 435.84156056 51.31590527 433.30957031 51.31884766 C431.47725969 51.32815382 429.64495323 51.33831358 427.81265163 51.34925461 C422.79336307 51.37667852 417.77410266 51.39174435 412.7547586 51.40466642 C407.37039486 51.42059268 401.98608573 51.44770694 396.60176086 51.47329712 C386.12335903 51.52115473 375.64494654 51.5579766 365.16648668 51.59042275 C356.69210407 51.61673761 348.21774031 51.64649337 339.74337769 51.67858887 C312.48510986 51.78133475 285.22683077 51.86854574 257.96846485 51.94069672 C245.98045271 51.97244673 233.99244895 52.00532379 222.00445557 52.0435791 C220.87167376 52.04719157 219.73889195 52.05080404 218.57178342 52.05452597 C216.88399383 52.05991293 216.88399383 52.05991293 215.16210747 52.06540871 C193.85789682 52.13339843 172.55371736 52.19011774 151.24941826 52.22139931 C149.26690546 52.22431653 147.28439267 52.22723793 145.30187988 52.23016357 C143.84241934 52.2323001 143.84241934 52.2323001 142.35347474 52.23447978 C135.51732535 52.24515809 128.68121787 52.26310839 121.84509277 52.28399658 C113.56678557 52.30910631 105.28854461 52.32356894 97.01019782 52.32393897 C92.82372026 52.32436204 88.63739405 52.3294379 84.45095253 52.34758377 C80.6418016 52.36393808 76.83290631 52.36633411 73.02373266 52.35757709 C71.00418656 52.35648647 68.98464897 52.37014343 66.96515274 52.38437843 C60.19224343 52.35308263 55.18128206 51.7713246 49 49 C42.13839712 48.26482826 36.60749405 49.92585701 31.25 54.1875 C27.67939236 58.65075955 25.29074278 62.71559242 24.5625 68.4375 C25.37321918 75.03907044 27.04815098 81.3158185 32 86 C37.63735386 89.97623103 43.20543696 91.14450529 50 90 C51.34889471 89.20391979 52.67060561 88.36077774 53.96875 87.484375 C62.38227978 83.10255617 72.41039044 84.48377302 81.625 84.6875 C83.60283637 84.7126159 85.58070349 84.73542325 87.55859375 84.75585938 C92.37316282 84.8105897 97.18623854 84.89667993 102 85 C103.15082685 87.24756784 104.29576858 89.49781748 105.4375 91.75 C105.76298828 92.38421875 106.08847656 93.0184375 106.42382812 93.671875 C111.42526899 103.57163423 111.90373925 116.04626539 108.9765625 126.73828125 C105.78923747 133.66763153 101.48003637 138.07815091 95 142 C94.26136719 142.44730469 93.52273437 142.89460937 92.76171875 143.35546875 C84.75610499 147.72828299 74.17343355 152 65 152 C70.39441183 179.13071833 79.43266573 205.4187121 102.98828125 222.09765625 C116.73631189 230.78156147 130.72725667 233.17837465 146.6875 233.1875 C147.79544922 233.19974609 148.90339844 233.21199219 150.04492188 233.22460938 C160.24744773 233.24249808 169.90959662 232.26544306 179.375 228.3125 C179.99149414 228.05702393 180.60798828 227.80154785 181.24316406 227.53833008 C187.01789282 225.09794204 192.605335 222.29655622 198.171875 219.41796875 C201 218 201 218 204 217 C204.09291886 224.96284098 204.16387495 232.92545323 204.20724869 240.88870335 C204.22807214 244.58688652 204.25629224 248.28469719 204.30175781 251.98266602 C204.34540511 255.55533924 204.36917649 259.12765548 204.37950897 262.70057487 C204.38686674 264.05968783 204.40123472 265.41878253 204.42292023 266.77774239 C204.53910815 274.36459873 204.59011089 279.79359825 200 286 C198.32489545 290.46694548 198.2972397 295.03408864 199.90625 299.53515625 C202.44832241 305.0674228 204.59837622 308.1817615 210 311 C210.99 311.66 211.98 312.32 213 313 C142.71 313 72.42 313 0 313 C0 209.71 0 106.42 0 0 Z " fill="#FEFEFD" transform="translate(0,0)"/>
<path d="M0 0 C6.02337698 2.31468088 12.20846796 1.90407402 18.57582092 1.85919189 C19.99611408 1.8599589 21.41640702 1.86203598 22.83669662 1.86530113 C26.73909027 1.87039782 30.64122356 1.85664811 34.54357553 1.8397336 C38.78716129 1.82458897 43.03074508 1.82675828 47.27435303 1.8265686 C55.65068006 1.82331854 64.02689151 1.80344499 72.40317696 1.77785075 C79.25202183 1.75725635 86.10085404 1.74293631 92.94972229 1.73291016 C93.92834288 1.73146598 94.90696346 1.7300218 95.91523921 1.72853386 C97.90877199 1.72560043 99.90230476 1.72267016 101.89583755 1.71974301 C123.33717105 1.68711095 144.77838102 1.62570703 166.21962583 1.55727255 C167.35240764 1.55366009 168.48518945 1.55004762 169.65229797 1.54632568 C170.79251549 1.5426871 171.93273301 1.53904851 173.10750258 1.53529966 C185.18569493 1.49717171 197.26390324 1.46555152 209.34211314 1.43358135 C236.5692639 1.36118462 263.79631966 1.27069792 291.02337068 1.16757917 C299.49259699 1.13581171 307.96183097 1.1081949 316.43107605 1.08197021 C326.8040969 1.04958977 337.17705831 1.00965751 347.55001301 0.96035779 C352.88026024 0.93515339 358.2104717 0.91305654 363.54076195 0.89933395 C368.44373326 0.88657343 373.34657469 0.86462381 378.24947441 0.83534765 C380.02897944 0.82630968 381.80850511 0.8206052 383.58803189 0.81853724 C386.00828328 0.81520882 388.42816679 0.79972986 390.8483429 0.78121948 C391.8894036 0.78412147 391.8894036 0.78412147 392.95149583 0.78708208 C397.48986959 0.73515761 401.32932185 -0.156317 405.64784241 -1.49725342 C411.187308 -2.0008412 415.85284564 -1.32724171 420.64784241 1.50274658 C426.49915862 6.70009216 429.2662369 11.55948971 430.02284241 19.37774658 C429.8441013 24.88717821 427.74233348 29.25935804 423.99940491 33.26837158 C418.52763276 38.1905771 413.92322917 39.98300664 406.5450592 39.82452393 C403.36597764 39.47144147 400.794871 38.62104951 397.81190491 37.47930908 C396.83946838 37.11144287 395.86703186 36.74357666 394.86512756 36.36456299 C394.13342346 36.08016357 393.40171936 35.79576416 392.64784241 35.50274658 C392.73218834 48.97640557 392.82704951 62.44994542 392.93536949 75.92343426 C392.9853346 82.17958543 393.0316648 88.4357197 393.06971741 94.69195557 C393.10656723 100.72853497 393.1529267 106.76497302 393.20590591 112.80143166 C393.22445141 115.10550268 393.23955878 117.409604 393.25118637 119.71372032 C393.26804588 122.93870928 393.29708086 126.16337442 393.32899475 129.38824463 C393.33115494 130.34274506 393.33331512 131.29724548 393.33554077 132.28067017 C393.39305306 136.82429627 393.58289338 140.35572001 395.64784241 144.50274658 C396.67222528 152.03262585 394.73293522 157.57234587 390.33534241 163.75274658 C385.60954382 168.58844746 381.94303021 169.71005936 375.27284241 170.00274658 C367.60956403 169.81924733 363.50967087 167.43988632 358.27284241 162.06524658 C354.76803397 156.53843328 353.7255807 150.94772841 354.64784241 144.50274658 C355.83430371 141.3137963 357.20818797 137.94240102 359.64784241 135.50274658 C359.73575216 133.21123241 359.75478279 130.91702134 359.74549866 128.62384033 C359.74408371 127.93717789 359.74266876 127.25051544 359.74121094 126.54304504 C359.7355972 124.34206857 359.72304248 122.14119249 359.71034241 119.94024658 C359.70532917 118.45131576 359.70076596 116.96238334 359.69667053 115.47344971 C359.68562334 111.81651583 359.66834954 108.159641 359.64784241 104.50274658 C351.06663982 109.57005652 342.49624451 114.65484422 333.94041443 119.76489258 C329.64303835 122.32750766 325.32576628 124.84955685 320.98768616 127.34259033 C319.12404735 128.43703379 317.26073657 129.53203612 315.39784241 130.62774658 C314.55519836 131.09785156 313.71255432 131.56795654 312.84437561 132.05230713 C307.74413502 135.09817315 305.47353639 137.74820488 303.54481506 143.40484619 C301.52386039 148.13159185 297.21315108 150.7700489 292.71034241 152.87774658 C285.25515611 154.39921317 280.58793448 153.6691463 273.92127991 150.06915283 C269.63653097 147.11694609 267.29651544 143.44876568 265.64784241 138.50274658 C264.94364319 131.35685612 265.29402462 125.39714605 269.64784241 119.50274658 C272.80656393 116.11036621 276.23294405 113.91654227 280.64784241 112.50274658 C282.64826867 112.50830332 284.64875899 112.55425087 286.64784241 112.62774658 C296.737587 112.01879217 304.31469772 106.47893778 312.72303772 101.28009033 C317.89303053 98.13839186 323.18264201 95.20855422 328.46034241 92.25274658 C330.42555673 91.14402816 332.3904344 90.03471268 334.35487366 88.92462158 C335.7858217 88.11725628 337.21679407 87.30993409 338.64784241 86.50274658 C335.57802136 80.05926837 330.17094543 76.25694564 323.64784241 73.50274658 C313.97493534 70.58029381 303.72516145 72.56712574 294.64784241 76.50274658 C292.44910923 78.03762242 291.3093662 79.34276565 289.64784241 81.50274658 C286.54183551 85.173482 282.33113268 87.15972171 277.59220886 87.76553345 C275.34567669 87.8473662 273.118047 87.84072397 270.87049866 87.79571533 C269.65347511 87.78934807 269.65347511 87.78934807 268.41186523 87.78285217 C265.84433984 87.76618526 263.27762677 87.72855707 260.71034241 87.69024658 C258.95970278 87.67518418 257.20905073 87.66149851 255.45838928 87.64923096 C251.18789849 87.61632126 246.91800772 87.56462384 242.64784241 87.50274658 C242.66234436 88.17386475 242.67684631 88.84498291 242.69178772 89.53643799 C242.70870667 90.86940918 242.70870667 90.86940918 242.72596741 92.22930908 C242.74046936 93.10667725 242.75497131 93.98404541 242.76991272 94.88800049 C242.53434375 99.93388779 240.88088368 103.9408943 237.77284241 107.87774658 C233.70486729 110.98855108 230.04370919 111.98187529 224.87831116 111.80743408 C213.80212523 110.29439993 205.23201805 102.85182055 198.27284241 94.56524658 C193.03950275 87.64749193 189.52930298 81.31124455 190.64784241 72.50274658 C192.4838108 67.04393146 194.4126311 64.13282108 199.64784241 61.50274658 C202.64515686 61.13093567 202.64515686 61.13093567 206.01112366 61.1338501 C207.90834167 61.12352501 207.90834167 61.12352501 209.84388733 61.11299133 C210.51455231 61.1161693 211.18521729 61.11934727 211.87620544 61.12262154 C213.98699819 61.13176834 216.09690955 61.12146913 218.20765686 61.10600281 C224.20560929 61.06599701 230.20348963 61.06470126 236.20155334 61.06695557 C239.87740524 61.06700673 243.55277946 61.04781126 247.22850037 61.01762199 C249.30324952 61.00681992 251.37707822 61.01891071 253.45179749 61.03144836 C255.3490155 61.01639503 255.3490155 61.01639503 257.28456116 61.0010376 C258.95071472 61.00128685 258.95071472 61.00128685 260.65052795 61.00154114 C264.32039948 60.39082379 265.92258129 58.96810441 268.64784241 56.50274658 C271.19642639 55.27008057 271.19642639 55.27008057 273.89393616 54.24884033 C274.88909241 53.87041992 275.88424866 53.49199951 276.90956116 53.10211182 C277.95756897 52.71869629 279.00557678 52.33528076 280.08534241 51.94024658 C281.16557678 51.5432959 282.24581116 51.14634521 283.35877991 50.73736572 C301.83013513 44.083631 319.32373279 41.08356108 337.64784241 49.50274658 C346.08960913 54.38168893 352.89925489 62.61208354 359.64784241 69.50274658 C359.97784241 58.28274658 360.30784241 47.06274658 360.64784241 35.50274658 C301.57784241 35.50274658 242.50784241 35.50274658 181.64784241 35.50274658 C181.73830915 70.06335524 181.73830915 70.06335524 181.85682678 104.62384033 C181.91137511 118.71188171 181.96278501 132.79988619 181.99427795 146.88800049 C182.0172254 157.14704663 182.05058688 167.40599651 182.09654397 177.66496634 C182.12052012 183.09886599 182.13922008 188.53267003 182.14545631 193.9666214 C182.15148732 199.07853747 182.17141508 204.19020877 182.20211792 209.30203438 C182.21093005 211.18057877 182.21461419 213.05915511 182.21285057 214.93771935 C182.21120526 217.4983563 182.227833 220.05824046 182.24911499 222.61877441 C182.24426741 223.36585797 182.23941984 224.11294152 182.23442537 224.88266397 C182.29263779 229.11308078 182.80150663 231.36545684 185.64784241 234.50274658 C187.62568636 240.43627845 187.65615476 247.14127777 185.02284241 252.87774658 C181.89220538 258.27615955 177.57212961 261.51924629 171.64784241 263.50274658 C165.43211936 264.19941423 159.93020737 264.15009382 154.64784241 260.50274658 C149.31366266 256.05759679 146.07230482 250.89844585 145.21034241 244.00274658 C145.89443249 238.53002589 147.59399755 234.08351387 150.64784241 229.50274658 C150.97720971 226.69292059 150.97720971 226.69292059 150.96669006 223.47076416 C150.98655975 222.22970413 151.00642944 220.9886441 151.02690125 219.7099762 C151.03877758 218.35574522 151.05044045 217.00151236 151.06190491 215.64727783 C151.08061558 214.26149846 151.10018892 212.87573049 151.12059021 211.48997498 C151.17192834 207.84535443 151.21154485 204.20069693 151.24873352 200.5559082 C151.28876277 196.83562061 151.33986 193.11548692 151.39002991 189.39532471 C151.48680902 182.09790424 151.57120724 174.80040934 151.64784241 167.50274658 C150.97636169 167.9125325 150.30488098 168.32231842 149.61305237 168.74452209 C148.72412292 169.28324448 147.83519348 169.82196686 146.91932678 170.37701416 C145.60273071 171.17731804 145.60273071 171.17731804 144.25953674 171.99378967 C140.67507085 174.06478416 136.99226494 175.67211863 133.14784241 177.19024658 C132.41517151 177.4849585 131.68250061 177.77967041 130.92762756 178.08331299 C108.86236822 186.83627222 83.7281308 187.77425462 61.39784241 179.25274658 C55.60692376 176.68500236 50.64023045 173.37600035 45.64784241 169.50274658 C45.04585022 169.06575439 44.44385803 168.62876221 43.82362366 168.17852783 C27.08814164 155.18804878 16.49670572 131.40609225 13.5282135 110.90509033 C13.17600419 108.1089659 12.88804174 105.310594 12.64784241 102.50274658 C13.75901428 102.18821533 14.87018616 101.87368408 16.01502991 101.54962158 C38.20741269 95.6825121 38.20741269 95.6825121 54.33534241 80.25274658 C58.93456644 69.70394494 58.31751159 56.69004922 54.27284241 46.06524658 C53.42312936 44.19935624 52.55049459 42.34360998 51.64784241 40.50274658 C50.97319405 38.83929481 50.3053481 37.1730485 49.64784241 35.50274658 C43.84882716 35.52227833 38.05130593 35.57433401 32.25282288 35.65533447 C30.28415588 35.67839849 28.31536751 35.69288271 26.34657288 35.69830322 C12.32468639 35.34361772 12.32468639 35.34361772 -0.42442322 40.38262939 C-4.15472636 42.55013583 -8.21617374 42.22705145 -12.35215759 41.50274658 C-18.18862754 39.67310013 -21.95810183 36.64231673 -25.35215759 31.50274658 C-28.08788176 25.45767866 -29.81539155 19.47348829 -27.43809509 13.02227783 C-24.2784352 6.12198832 -21.17863285 1.96376441 -13.91465759 -0.80975342 C-8.68656894 -1.81868281 -4.94327961 -2.20793387 0 0 Z " fill="#FA0303" transform="translate(52.35215759277344,49.49725341796875)"/>
<path d="M0 0 C29.37 0 58.74 0 89 0 C89.28076167 25.17496266 89.28076167 25.17496266 89.34179688 35.91601562 C89.38362351 43.24197936 89.43307329 50.56732999 89.52807617 57.89282227 C89.60420106 63.79971465 89.64600467 69.7059495 89.6641407 75.6132946 C89.67706293 77.86560352 89.70229782 80.11787691 89.7401104 82.36990547 C89.79102274 85.5280714 89.79791966 88.68352995 89.79467773 91.84204102 C89.83242813 93.23495361 89.83242813 93.23495361 89.87094116 94.65600586 C89.81572299 99.63613047 89.23126766 102.33787956 85.69203186 105.96421814 C82.10899372 109.11979106 78.21032704 111.73158085 74.125 114.1875 C73.42246094 114.61675781 72.71992187 115.04601562 71.99609375 115.48828125 C61.13123093 122.03531504 51.3742065 125.35869278 38.625 125.3125 C37.74328125 125.32861328 36.8615625 125.34472656 35.953125 125.36132812 C26.02405965 125.3686075 17.21570457 123.09156341 10 116 C1.04174866 105.57917701 -0.1733828 92.24962963 -0.11352539 79.01367188 C-0.11370619 77.70381695 -0.11370619 77.70381695 -0.11389065 76.36750031 C-0.11315001 73.56789008 -0.10556085 70.76834817 -0.09765625 67.96875 C-0.0961842 66.22949251 -0.09516511 64.49023458 -0.09460449 62.75097656 C-0.08938214 56.33397758 -0.07542088 49.9169881 -0.0625 43.5 C-0.041875 29.145 -0.02125 14.79 0 0 Z " fill="#FEFEFE" transform="translate(516,39)"/>
<path d="M0 0 C23.43 0 46.86 0 71 0 C71.32087047 23.88702423 71.32087047 23.88702423 71.390625 34.08984375 C71.43840122 41.04493186 71.49484297 47.99917535 71.60351562 54.95361328 C71.69060763 60.56227858 71.73830951 66.17003795 71.75901794 71.77932739 C71.7737701 73.91641499 71.80257909 76.05345443 71.84584045 78.19015503 C72.1711769 94.92837499 72.1711769 94.92837499 69.27714539 100.04745483 C67.27943582 102.0835403 65.43351163 103.53345668 63 105 C61.93996542 105.84128239 60.88360628 106.68722958 59.83203125 107.5390625 C41.48283504 120.2149626 21.68092382 126.3458371 -0.6640625 122.34375 C-16.71292315 117.5332388 -25.32132576 105.45576465 -33.00390625 91.27734375 C-34 89 -34 89 -34 86 C-33.17757812 85.63648438 -32.35515625 85.27296875 -31.5078125 84.8984375 C-17.20776928 78.45846423 -4.75956181 71.79042234 2.00390625 56.8125 C9.02008842 37.00210329 5.54218547 19.39764915 0 0 Z " fill="#FEFCFC" transform="translate(133,85)"/>
<path d="M0 0 C59.07 0 118.14 0 179 0 C179 11.55 179 23.1 179 35 C177.35 33.35 175.7 31.7 174 30 C174.99 29.67 175.98 29.34 177 29 C177 20.09 177 11.18 177 2 C118.92 2 60.84 2 1 2 C1.0721875 15.82519531 1.144375 29.65039062 1.21875 43.89453125 C1.2643315 52.63085933 1.30990907 61.36718743 1.35546875 70.10351562 C1.42785137 83.98315454 1.50025047 97.86279336 1.57275391 111.74243164 C1.62554999 121.84942316 1.67829156 131.95641497 1.73096704 142.06340712 C1.7588725 147.41733584 1.78680567 152.77126441 1.81480408 158.12519264 C1.84113624 163.16066135 1.86739571 168.19613043 1.89359856 173.23159981 C1.90324645 175.08316817 1.91292129 176.9347364 1.92262459 178.78630447 C1.93583365 181.30759393 1.94894721 183.82888387 1.96203613 186.35017395 C1.96592708 187.0884975 1.96981803 187.82682105 1.97382689 188.58751804 C1.98830284 191.39172422 2 194.1957501 2 197 C-0.49417855 194.50582145 -0.23832961 193.04100817 -0.25816262 189.63808 C-0.25233693 188.88517077 -0.24651125 188.13226153 -0.24050903 187.35653687 C-0.24221788 186.55853531 -0.24392673 185.76053375 -0.24568737 184.93835032 C-0.24899605 182.2496633 -0.23795602 179.56122283 -0.22705078 176.87255859 C-0.22648696 174.95110581 -0.22680265 173.0296526 -0.22793579 171.10820007 C-0.22851146 165.87910898 -0.21672261 160.65010896 -0.20278788 155.4210391 C-0.19031609 149.96108679 -0.18911283 144.50113257 -0.18673706 139.04116821 C-0.18051182 128.69621055 -0.16408692 118.35129498 -0.14403808 108.00635588 C-0.11753976 94.0312948 -0.10671487 80.05622228 -0.09503365 66.08114243 C-0.07620704 44.0540634 -0.03636831 22.02707321 0 0 Z " fill="#FEF1F1" transform="translate(234,85)"/>
<path d="M0 0 C49.17 0 98.34 0 149 0 C148.67 1.32 148.34 2.64 148 4 C148 3.01 148 2.02 148 1 C146.73135101 1.01252808 145.46270203 1.02505615 144.15560913 1.03796387 C132.01192726 1.15763745 119.86822724 1.27530075 107.72450829 1.39115143 C101.48608815 1.45072617 95.24767565 1.51093306 89.00927734 1.57275391 C82.95319717 1.63274193 76.89710127 1.69084894 70.84099197 1.74781799 C68.56695575 1.76950827 66.29292515 1.79180078 64.01890182 1.81480408 C43.34423056 2.02318603 22.67783891 2 2 2 C2.33 64.37 2.66 126.74 3 191 C2.01 190.34 1.02 189.68 0 189 C-0.29458261 186.44811968 -0.39135587 184.13841729 -0.36076355 181.58432007 C-0.36332682 180.81081982 -0.3658901 180.03731958 -0.36853105 179.24037993 C-0.37349375 176.63449143 -0.35693551 174.02917544 -0.34057617 171.42333984 C-0.33973043 169.56099969 -0.340204 167.69865854 -0.34190369 165.83631897 C-0.34276715 160.76833028 -0.3250847 155.70055305 -0.30418181 150.63261366 C-0.28547338 145.34083079 -0.28366919 140.0490435 -0.28010559 134.75723267 C-0.27076793 124.73099199 -0.24613092 114.70484903 -0.21605712 104.67865145 C-0.17630877 91.13410849 -0.16007214 77.58953894 -0.14255047 64.04495239 C-0.11431102 42.69656168 -0.05455292 21.34837722 0 0 Z " fill="#DCFEEA" transform="translate(635,39)"/>
<path d="M0 0 C29.37 0 58.74 0 89 0 C89 33.66 89 67.32 89 102 C88.01 102.495 88.01 102.495 87 103 C87 69.67 87 36.34 87 2 C58.62 2 30.24 2 1 2 C1 30.38 1 58.76 1 88 C0.67 88 0.34 88 0 88 C0 58.96 0 29.92 0 0 Z " fill="#DAFDE7" transform="translate(516,39)"/>
<path d="M0 0 C3.27247743 0.70358265 5.10709574 2.05080158 7.34375 4.50390625 C9.07500121 7.96640868 8.82190224 11.71798854 8.34375 15.50390625 C6.27362161 18.97876463 4.22740688 21.24742903 0.34375 22.50390625 C-4.29874233 22.99778841 -6.96971236 22.39335467 -10.65625 19.50390625 C-12.94482333 16.66291866 -13.61713363 14.73860446 -14.21875 11.12890625 C-13.56985051 6.94710954 -12.51924451 4.87203466 -9.63671875 1.83203125 C-6.47971037 -0.28509469 -3.71584491 -0.26301914 0 0 Z " fill="#FEF6F6" transform="translate(428.65625,57.49609375)"/>
<path d="M0 0 C0 18.15 0 36.3 0 55 C-85.14 55 -170.28 55 -258 55 C-258 54.67 -258 54.34 -258 54 C-173.19 54 -88.38 54 -1 54 C-1.33 37.17 -1.66 20.34 -2 3 C-3.32 3.33 -4.64 3.66 -6 4 C-2.25 0 -2.25 0 0 0 Z " fill="#D5FEE9" transform="translate(605,174)"/>
<path d="M0 0 C4.21809905 0.2723607 7.23384463 0.54297026 10.171875 3.77734375 C12.29673145 7.41016284 12.80966354 8.97564858 12.109375 13.08984375 C10.44175178 16.58391144 9.36931478 17.91655056 6.109375 20.08984375 C-0.83740371 20.76211266 -0.83740371 20.76211266 -4.828125 18.21484375 C-7.96242905 14.98556079 -8.27851497 12.64050495 -8.25390625 8.12890625 C-7.65027897 4.74080475 -5.4750302 3.16997476 -2.890625 1.08984375 C-1.890625 0.08984375 -1.890625 0.08984375 0 0 Z " fill="#F1FDF6" transform="translate(497.890625,10.91015625)"/>
<path d="M0 0 C3.125 0.1875 3.125 0.1875 6.125 2.1875 C6.125 2.8475 6.125 3.5075 6.125 4.1875 C3.485 3.5275 0.845 2.8675 -1.875 2.1875 C-1.79065407 15.66115898 -1.69579289 29.13469884 -1.58747292 42.60818768 C-1.53750781 48.86433885 -1.4911776 55.12047311 -1.453125 61.37670898 C-1.41627518 67.41328838 -1.3699157 73.44972643 -1.31693649 79.48618507 C-1.298391 81.7902561 -1.28328362 84.09435742 -1.27165604 86.39847374 C-1.25479653 89.6234627 -1.22576154 92.84812784 -1.19384766 96.07299805 C-1.19168747 97.02749847 -1.18952728 97.9819989 -1.18730164 98.96542358 C-1.1296621 103.51910257 -0.91891962 107.02375631 1.125 111.1875 C1.3203125 113.64453125 1.3203125 113.64453125 1.25 116 C1.23195313 116.79019531 1.21390625 117.58039063 1.1953125 118.39453125 C1.17210937 118.98621094 1.14890625 119.57789063 1.125 120.1875 C0.795 120.1875 0.465 120.1875 0.125 120.1875 C-0.03776042 118.29947917 -0.20052083 116.41145833 -0.36328125 114.5234375 C-0.77331238 112.05299486 -0.77331238 112.05299486 -2.38470459 109.6855011 C-4.38834868 104.98257498 -4.28006324 100.94164266 -4.23144531 95.88354492 C-4.23348969 94.86015015 -4.23553406 93.83675537 -4.23764038 92.78234863 C-4.24064078 89.41070503 -4.22219789 86.03955395 -4.203125 82.66796875 C-4.2000669 80.32481507 -4.19819117 77.98165958 -4.19744873 75.63850403 C-4.19285084 70.73524997 -4.17844048 65.83216062 -4.15625 60.92895508 C-4.12789003 54.62916566 -4.11703018 48.32950551 -4.1125679 42.02965832 C-4.10842225 37.19571123 -4.09861324 32.36179051 -4.08669281 27.52785683 C-4.08097875 25.20371017 -4.07622383 22.87956096 -4.07242584 20.55541039 C-4.06558992 17.31838841 -4.05197237 14.08147124 -4.03613281 10.84448242 C-4.03501495 9.87567642 -4.03389709 8.90687042 -4.03274536 7.90870667 C-4.02703522 7.03251678 -4.02132507 6.1563269 -4.01544189 5.25358582 C-4.01246723 4.48799441 -4.00949257 3.72240301 -4.00642776 2.93361187 C-3.77972332 -0.07831879 -3.0477685 0.19876751 0 0 Z " fill="#D51312" transform="translate(446.875,82.8125)"/>
<path d="M0 0 C4.14182881 0.862881 5.56226471 2.18349135 8 5.625 C8.70902876 8.46111504 8.70209782 10.78806814 8 13.625 C5.9375 16.6875 5.9375 16.6875 3 18.625 C-1.27460254 18.77498605 -3.20361287 18.31928622 -6.4375 15.5 C-8.43514338 11.82433618 -8.66350721 9.75348931 -8 5.625 C-5.55401113 2.24378009 -4.10703441 0.85563217 0 0 Z " fill="#F0FCF4" transform="translate(458,13.375)"/>
<path d="M0 0 C59.07 0 118.14 0 179 0 C179 11.55 179 23.1 179 35 C177.35 33.35 175.7 31.7 174 30 C174.99 30 175.98 30 177 30 C177.33 20.43 177.66 10.86 178 1 C119.26 1 60.52 1 0 1 C0 0.67 0 0.34 0 0 Z " fill="#FFD9D8" transform="translate(234,85)"/>
<path d="M0 0 C1.47118538 0.0001133 1.47118538 0.0001133 2.97209167 0.00022888 C4.028423 0.00539017 5.08475433 0.01055145 6.1730957 0.01586914 C7.79813774 0.01799156 7.79813774 0.01799156 9.45600891 0.02015686 C12.9203262 0.0257598 16.38457915 0.03831281 19.84887695 0.05102539 C22.19588123 0.05604001 24.54288652 0.06060298 26.88989258 0.06469727 C32.64707603 0.07573018 38.4042219 0.09247119 44.16137695 0.11352539 C44.16137695 0.77352539 44.16137695 1.43352539 44.16137695 2.11352539 C46.63637695 2.60852539 46.63637695 2.60852539 49.16137695 3.11352539 C45.57234759 4.10050847 42.08008711 4.43684837 38.38012695 4.73461914 C36.14932327 4.98860983 36.14932327 4.98860983 34.35668945 6.12133789 C31.15341576 7.56908081 27.99167886 7.53812345 24.53637695 7.55102539 C23.82143066 7.55489258 23.10648437 7.55875977 22.36987305 7.56274414 C16.86340985 7.44333586 13.21797722 6.06755663 8.47387695 3.23071289 C3.34405715 0.75245535 -2.50146654 1.62692015 -7.83862305 3.11352539 C-7.83862305 2.45352539 -7.83862305 1.79352539 -7.83862305 1.11352539 C-4.90944012 0.13713108 -3.04836566 -0.00783642 0 0 Z " fill="#EDFDF3" transform="translate(456.838623046875,-0.113525390625)"/>
<path d="M0 0 C3.63525215 2.60789828 4.83397068 4.0702358 5.625 8.5 C4.83397068 12.9297642 3.63525215 14.39210172 0 17 C-3 17.6875 -3 17.6875 -6 17 C-8.43661087 14.87444584 -9.66706406 13.79427397 -11 11 C-11.06932688 6.97904121 -10.59948073 4.86591661 -8.3125 1.5625 C-5.22266708 -0.52522494 -3.6619192 -0.6725974 0 0 Z " fill="#FEEDED" transform="translate(48,61)"/>
<path d="M0 0 C2.4375 1.625 2.4375 1.625 4 4 C4.5625 6.9375 4.5625 6.9375 4 10 C1.9375 12.9375 1.9375 12.9375 -1 15 C-4.8427383 15.06625411 -6.99200716 14.81899419 -10 12.375 C-11.45635054 8.91616747 -10.91305869 6.58701629 -10 3 C-7.67133148 -1.01048467 -4.26353269 -0.52359173 0 0 Z " fill="#E9FBF0" transform="translate(624,235)"/>
<path d="M0 0 C3.0099077 2.29014716 4.69783903 3.79135614 5.625 7.5 C4.68500224 11.25999106 3.11394311 12.7473603 0 15 C-3.54361243 15 -5.86591591 14.65850044 -8.9375 12.875 C-10.6712306 9.81547541 -10.42145216 7.43182475 -10 4 C-7.27238925 -0.09141613 -4.79563536 -0.88083098 0 0 Z " fill="#FEECEC" transform="translate(341,175)"/>
<path d="M0 0 C3.75999106 0.93999776 5.2473603 2.51105689 7.5 5.625 C7.56641554 9.47710127 7.37229157 11.62348005 4.8125 14.5625 C1.76397123 15.96317538 -0.17926952 16.1092732 -3.5 15.625 C-6.55623277 13.53389337 -7.36463014 12.33193151 -8.0625 8.6875 C-7.19282262 3.95258981 -4.72210792 1.18052698 0 0 Z " fill="#FEF2F2" transform="translate(271.5,124.375)"/>
<path d="M0 0 C3.375 1.0625 3.375 1.0625 5.3125 2.75 C6.71317538 5.79852877 6.8592732 7.74176952 6.375 11.0625 C4.8125 13.4375 4.8125 13.4375 2.375 15.0625 C-1.125 15.625 -1.125 15.625 -4.625 15.0625 C-7.28606976 12.67436047 -8.40349624 11.04696115 -9.1875 7.5625 C-8.02278297 2.38597987 -5.22100249 0.09001728 0 0 Z " fill="#E9FBF0" transform="translate(662.625,119.9375)"/>
<path d="M0 0 C2.4375 1.625 2.4375 1.625 4 4 C4.5625 6.9375 4.5625 6.9375 4 10 C1.70985284 13.0099077 0.20864386 14.69783903 -3.5 15.625 C-7.25999106 14.68500224 -8.7473603 13.11394311 -11 10 C-11 6.45638757 -10.65850044 4.13408409 -8.875 1.0625 C-5.81547541 -0.6712306 -3.43182475 -0.42145216 0 0 Z " fill="#F1FDF5" transform="translate(920,14)"/>
<path d="M0 0 C3.4375 0.9375 3.4375 0.9375 5.375 2.0625 C7.1087306 5.12202459 6.85895216 7.50567525 6.4375 10.9375 C4.875 13.375 4.875 13.375 2.4375 14.9375 C-1.0625 15.5 -1.0625 15.5 -4.5625 14.9375 C-7.0625 12.8125 -7.0625 12.8125 -8.5625 9.9375 C-8.5625 6.32790487 -7.93414354 4.49496532 -5.9375 1.5 C-3.5625 -0.0625 -3.5625 -0.0625 0 0 Z " fill="#FEEDED" transform="translate(219.5625,285.0625)"/>
<path d="M0 0 C2.375 1 2.375 1 4 3 C4.56559975 7.454098 4.77198078 9.73395152 2.4375 13.5625 C0 15 0 15 -3.5625 14.9375 C-7 14 -7 14 -8.9375 12.875 C-10.6712306 9.81547541 -10.42145216 7.43182475 -10 4 C-7.24846472 -0.12730291 -4.82246105 -0.70327557 0 0 Z " fill="#F3FDF7" transform="translate(336,236)"/>
<path d="M0 0 C1.9453125 0.44921875 1.9453125 0.44921875 4.5078125 2.57421875 C6.28727688 6.13314751 6.168076 7.69941069 4.9453125 11.44921875 C3.8203125 13.32421875 3.8203125 13.32421875 1.9453125 14.44921875 C-1.98563457 14.9495211 -4.1552662 15.04883295 -7.4921875 12.82421875 C-9.51401063 9.7510476 -9.58224267 8.06673994 -9.0546875 4.44921875 C-7.22344303 0.10001312 -4.57281875 -0.24467111 0 0 Z " fill="#EEFCF3" transform="translate(712.0546875,157.55078125)"/>
<path d="M0 0 C2.375 1.5625 2.375 1.5625 4 4 C4.56783945 7.97487617 4.62340519 10.06489221 2.375 13.4375 C-0.71685231 15.47161336 -2.36367425 15.60605429 -6 15 C-8.375 13.4375 -8.375 13.4375 -10 11 C-10.56783945 7.02512383 -10.62340519 4.93510779 -8.375 1.5625 C-5.28314769 -0.47161336 -3.63632575 -0.60605429 0 0 Z " fill="#FEF5F5" transform="translate(464,61)"/>
<path d="M0 0 C2.5 2.125 2.5 2.125 4 5 C3.936318 8.18409977 3.51040601 10.14932332 1.875 12.875 C-1.16832808 14.70099685 -3.54249555 14.42460581 -7 14 C-9.4375 12.375 -9.4375 12.375 -11 10 C-11.60605429 6.36367425 -11.47161336 4.71685231 -9.4375 1.625 C-6.04129157 -0.63913895 -3.99900698 -0.64269755 0 0 Z " fill="#EFFDF4" transform="translate(834,154)"/>
<path d="M0 0 C2.4375 1.625 2.4375 1.625 4 4 C4.60605429 7.63632575 4.47161336 9.28314769 2.4375 12.375 C-0.93510779 14.62340519 -3.02512383 14.56783945 -7 14 C-9.4375 12.375 -9.4375 12.375 -11 10 C-11.60605429 6.36367425 -11.47161336 4.71685231 -9.4375 1.625 C-6.06489221 -0.62340519 -3.97487617 -0.56783945 0 0 Z " fill="#EEFDF4" transform="translate(763,154)"/>
<path d="M0 0 C2.4375 1.625 2.4375 1.625 4 4 C4.60605429 7.63632575 4.47161336 9.28314769 2.4375 12.375 C-0.93510779 14.62340519 -3.02512383 14.56783945 -7 14 C-9.4375 12.375 -9.4375 12.375 -11 10 C-11.60605429 6.36367425 -11.47161336 4.71685231 -9.4375 1.625 C-6.06489221 -0.62340519 -3.97487617 -0.56783945 0 0 Z " fill="#FEF5F5" transform="translate(431,192)"/>
<path d="M0 0 C2.4375 1.0625 2.4375 1.0625 4 3 C4.56988508 6.91795996 4.59460908 9.07240983 2.4375 12.4375 C-0.90506283 14.58016848 -3.10495209 14.49573337 -7 14 C-8.9375 13 -8.9375 13 -10 11 C-10.52960415 7.41957756 -10.65886567 4.24021772 -8.9375 1 C-5.85873258 -0.58904125 -3.39844421 -0.35773097 0 0 Z " fill="#EFFEF5" transform="translate(683,59)"/>
<path d="M0 0 C1.27685165 0.00222061 2.55370331 0.00444122 3.86924744 0.00672913 C4.57165054 0.0065831 5.27405365 0.00643707 5.9977417 0.00628662 C8.32985983 0.00698579 10.66189904 0.01477835 12.9940033 0.02259827 C14.60683142 0.02446243 16.21966012 0.02588634 17.83248901 0.02688599 C22.08550062 0.03071129 26.33847828 0.04054167 30.59147644 0.05158997 C34.92812135 0.06180383 39.26477171 0.06638355 43.60142517 0.07142639 C52.11641474 0.08216393 60.63137667 0.09924049 69.14634705 0.12025452 C69.14634705 0.78025452 69.14634705 1.44025452 69.14634705 2.12025452 C45.71634705 2.12025452 22.28634705 2.12025452 -1.85365295 2.12025452 C-1.19365295 4.43025452 -0.53365295 6.74025452 0.14634705 9.12025452 C-0.51365295 9.12025452 -1.17365295 9.12025452 -1.85365295 9.12025452 C-2.21488176 7.80968059 -2.56745607 6.49671828 -2.91615295 5.18275452 C-3.2119928 4.08640686 -3.2119928 4.08640686 -3.5138092 2.96791077 C-3.62595764 2.3581842 -3.73810608 1.74845764 -3.85365295 1.12025452 C-2.85365295 0.12025452 -2.85365295 0.12025452 0 0 Z " fill="#D31211" transform="translate(134.85365295410156,82.87974548339844)"/>
<path d="M0 0 C2.31 0 4.62 0 7 0 C6.01 0.66 5.02 1.32 4 2 C3.45311523 2.36722168 2.90623047 2.73444336 2.34277344 3.11279297 C-1.20590295 4.45667479 -4.74386034 4.24426962 -8.484375 4.1953125 C-9.29996887 4.1924826 -10.11556274 4.18965271 -10.95587158 4.18673706 C-13.55406528 4.17556558 -16.15191095 4.15046675 -18.75 4.125 C-20.51431793 4.11496627 -22.27864128 4.10584111 -24.04296875 4.09765625 C-28.36211273 4.07563619 -32.68099741 4.04112733 -37 4 C-36.98259766 4.66821777 -36.96519531 5.33643555 -36.94726562 6.02490234 C-36.93373047 6.91129395 -36.92019531 7.79768555 -36.90625 8.7109375 C-36.88884766 9.58540527 -36.87144531 10.45987305 -36.85351562 11.36083984 C-37.07465319 15.34500156 -38.38730148 18.37142833 -40 22 C-40.5625 20.0625 -40.5625 20.0625 -41 18 C-40.67 17.67 -40.34 17.34 -40 17 C-39.79031249 14.67013877 -39.63184611 12.33555964 -39.5 10 C-39.11111111 3.11111111 -39.11111111 3.11111111 -38 2 C-35.1883662 1.91138008 -32.40141745 1.88477645 -29.58984375 1.90234375 C-28.74780899 1.9037587 -27.90577423 1.90517365 -27.03822327 1.90663147 C-24.33794665 1.91224737 -21.63775172 1.92480252 -18.9375 1.9375 C-17.11132932 1.94251295 -15.28515734 1.94707621 -13.45898438 1.95117188 C-8.97262458 1.96222196 -4.48632616 1.97949721 0 2 C0 1.34 0 0.68 0 0 Z " fill="#E43B3B" transform="translate(332,133)"/>
<path d="M0 0 C1.20849609 0.00322266 2.41699219 0.00644531 3.66210938 0.00976562 C5.55606445 0.02233398 5.55606445 0.02233398 7.48828125 0.03515625 C9.39963867 0.04192383 9.39963867 0.04192383 11.34960938 0.04882812 C14.50001995 0.06062742 17.65040644 0.07856307 20.80078125 0.09765625 C20.80078125 5.37765625 20.80078125 10.65765625 20.80078125 16.09765625 C19.50230869 14.14994741 18.2488428 12.17118813 17.05078125 10.16015625 C13.98590517 5.98851936 10.69482034 3.72900261 5.80078125 2.09765625 C3.99023998 2.00367396 2.17625344 1.96773638 0.36328125 1.97265625 C-1.05791016 1.96878906 -1.05791016 1.96878906 -2.5078125 1.96484375 C-4.90062334 2.0829215 -6.91258028 2.4165299 -9.19921875 3.09765625 C-9.19921875 2.43765625 -9.19921875 1.77765625 -9.19921875 1.09765625 C-5.90187229 -0.00145924 -3.4696313 -0.01628935 0 0 Z " fill="#E9FDF1" transform="translate(916.19921875,-0.09765625)"/>
<path d="M0 0 C15.42327876 -0.07853438 30.83063327 0.1679934 46.25 0.5 C48.56770438 0.54836666 50.88541271 0.59654481 53.203125 0.64453125 C58.80213047 0.76085564 64.40108342 0.87947651 70 1 C70 1.33 70 1.66 70 2 C47.56 2 25.12 2 2 2 C1.67 2.99 1.34 3.98 1 5 C0.67 3.35 0.34 1.7 0 0 Z " fill="#FFECEB" transform="translate(133,85)"/>
<path d="M0 0 C13.86 0.33 27.72 0.66 42 1 C39.75 11.125 39.75 11.125 38.2734375 15.47265625 C37.9640625 16.39111328 37.6546875 17.30957031 37.3359375 18.25585938 C37.01882813 19.18205078 36.70171875 20.10824219 36.375 21.0625 C36.05015625 22.02349609 35.7253125 22.98449219 35.390625 23.97460938 C34.59788808 26.31784644 33.80095424 28.65956176 33 31 C30.87502978 23.59697298 34.95537273 15.75113004 38 9 C38.67980985 7.00442915 39.34845258 5.00497641 40 3 C38.85934082 3.01571045 37.71868164 3.0314209 36.54345703 3.04760742 C32.3205468 3.10181524 28.09766744 3.13631653 23.87451172 3.16479492 C22.04503207 3.17990251 20.21558875 3.20038968 18.38623047 3.22631836 C15.76000008 3.26261585 13.13424751 3.27970615 10.5078125 3.29296875 C9.68693146 3.30845261 8.86605042 3.32393646 8.02029419 3.33988953 C5.71533203 3.34057617 5.71533203 3.34057617 2 3 C1.34 2.01 0.68 1.02 0 0 Z " fill="#DAFCE8" transform="translate(728,81)"/>
<path d="M0 0 C0 0.66 0 1.32 0 2 C-0.99 2.33 -1.98 2.66 -3 3 C-7.00636755 6.2788431 -9.03661075 9.97571094 -9.609375 15.08984375 C-9.90546049 19.05959891 -9.99033995 23.0200585 -10 27 C-13.1336087 22.29958695 -12.68290036 17.49804475 -12 12 C-10.12035929 7.17662445 -5.74529999 0 0 0 Z " fill="#20A047" transform="translate(325,225)"/>
<path d="M0 0 C0.33 0 0.66 0 1 0 C1 11.22 1 22.44 1 34 C-0.65 32.35 -2.3 30.7 -4 29 C-3.01 29 -2.02 29 -1 29 C-0.67 19.43 -0.34 9.86 0 0 Z " fill="#FFE4E5" transform="translate(412,86)"/>
<path d="M0 0 C0 0.33 0 0.66 0 1 C-2.97 1 -5.94 1 -9 1 C-9.66 2.32 -10.32 3.64 -11 5 C-11.66 5.66 -12.32 6.32 -13 7 C-13.46006346 9.20250992 -13.46006346 9.20250992 -13.625 11.625 C-13.69976562 12.44226563 -13.77453125 13.25953125 -13.8515625 14.1015625 C-13.90054687 14.72804688 -13.94953125 15.35453125 -14 16 C-16 14 -16 14 -16.5 10.8125 C-15.92996289 6.46596705 -14.93860881 4.47715564 -12 1.3125 C-8.28946266 -1.12254013 -4.25103281 -0.52927879 0 0 Z " fill="#FED4D4" transform="translate(431,58)"/>
<path d="M0 0 C6.875 1.875 6.875 1.875 8 3 C10.34987262 3.23527773 12.70556039 3.41386417 15.0625 3.5625 C16.35285156 3.64628906 17.64320312 3.73007813 18.97265625 3.81640625 C20.47119141 3.90728516 20.47119141 3.90728516 22 4 C17.72499106 6.85000596 14.01926063 6.6218553 9 6 C1.7480315 3.49606299 1.7480315 3.49606299 0 0 Z " fill="#D81E1E" transform="translate(31,85)"/>
<path d="M0 0 C0.33 0 0.66 0 1 0 C2.852405 7.29384468 4.43589932 13.91345764 1 21 C0.34 21 -0.32 21 -1 21 C-0.91621094 20.21496094 -0.83242188 19.42992187 -0.74609375 18.62109375 C-0.18305449 12.81252419 -0.00248682 7.73570079 -1 2 C-0.67 1.34 -0.34 0.68 0 0 Z " fill="#CEF5DD" transform="translate(850,149)"/>
<path d="M0 0 C0.91644287 0.00523682 1.83288574 0.01047363 2.77709961 0.01586914 C3.76645508 0.0190918 4.75581055 0.02231445 5.77514648 0.02563477 C6.81606445 0.03401367 7.85698242 0.04239258 8.92944336 0.05102539 C10.49662109 0.05779297 10.49662109 0.05779297 12.09545898 0.06469727 C14.68600996 0.07652627 17.27644895 0.0930085 19.86694336 0.11352539 C19.86694336 0.44352539 19.86694336 0.77352539 19.86694336 1.11352539 C13.26694336 1.44352539 6.66694336 1.77352539 -0.13305664 2.11352539 C0.19694336 4.42352539 0.52694336 6.73352539 0.86694336 9.11352539 C0.20694336 9.11352539 -0.45305664 9.11352539 -1.13305664 9.11352539 C-1.49428545 7.80295146 -1.84685976 6.48998915 -2.19555664 5.17602539 C-2.49139648 4.07967773 -2.49139648 4.07967773 -2.79321289 2.96118164 C-2.90536133 2.35145508 -3.01750977 1.74172852 -3.13305664 1.11352539 C-2.13305664 0.11352539 -2.13305664 0.11352539 0 0 Z " fill="#E50E0E" transform="translate(134.133056640625,82.886474609375)"/>
<path d="M0 0 C0 0.99 0 1.98 0 3 C-1.96185416 4.71140469 -3.96302383 6.37873325 -6 8 C-6.33 8.66 -6.66 9.32 -7 10 C-10.28324906 12.28003407 -13.04628701 13.43518386 -17 14 C-16.29359375 13.43667969 -15.5871875 12.87335938 -14.859375 12.29296875 C-11.97681178 9.98140508 -9.11057228 7.65121112 -6.25 5.3125 C-4.80367187 4.13107422 -4.80367187 4.13107422 -3.328125 2.92578125 C-1.61720807 1.51438576 -1.61720807 1.51438576 0 0 Z " fill="#DC1919" transform="translate(200,185)"/>
<path d="M0 0 C0.66 0.33 1.32 0.66 2 1 C0.90344712 2.31886772 -0.20253423 3.62990057 -1.3125 4.9375 C-1.92738281 5.66839844 -2.54226563 6.39929688 -3.17578125 7.15234375 C-5 9 -5 9 -8 10 C-6.5682479 4.98886765 -4.01554307 3.05530451 0 0 Z " fill="#E41717" transform="translate(328,164)"/>
<path d="M0 0 C0.33 0.66 0.66 1.32 1 2 C-0.670625 2.433125 -0.670625 2.433125 -2.375 2.875 C-6.00291092 3.69241329 -6.00291092 3.69241329 -8 6 C-8.64767793 8.57061311 -8.64767793 8.57061311 -9 11 C-9.33 11 -9.66 11 -10 11 C-10.48275862 4.72413793 -10.48275862 4.72413793 -8.375 1.5625 C-5.397402 -0.39644605 -3.49644963 -0.31785906 0 0 Z " fill="#FED6D6" transform="translate(464,61)"/>
<path d="M0 0 C0.721875 0.103125 1.44375 0.20625 2.1875 0.3125 C2.5175 0.9725 2.8475 1.6325 3.1875 2.3125 C1.516875 2.745625 1.516875 2.745625 -0.1875 3.1875 C-3.81541092 4.00491329 -3.81541092 4.00491329 -5.8125 6.3125 C-6.46017793 8.88311311 -6.46017793 8.88311311 -6.8125 11.3125 C-7.1425 11.3125 -7.4725 11.3125 -7.8125 11.3125 C-8.28433746 7.25469787 -8.14579645 5.75054676 -5.625 2.4375 C-2.8125 0.3125 -2.8125 0.3125 0 0 Z " fill="#FECCCD" transform="translate(271.8125,124.6875)"/>
<path d="M0 0 C0 0.33 0 0.66 0 1 C-0.94875 1.103125 -1.8975 1.20625 -2.875 1.3125 C-6.29107501 1.68539295 -6.29107501 1.68539295 -8 5 C-8.39013716 6.9896995 -8.73202649 8.99019869 -9 11 C-9.66 10.67 -10.32 10.34 -11 10 C-10.40550688 3.69837297 -10.40550688 3.69837297 -8.875 1.0625 C-5.96905769 -0.58420065 -3.26178195 -0.18462917 0 0 Z " fill="#C4F4D5" transform="translate(920,14)"/>
<path d="M0 0 C0.66 0.66 1.32 1.32 2 2 C0.906875 1.9175 -0.18625 1.835 -1.3125 1.75 C-4.96159801 1.6163598 -4.96159801 1.6163598 -6.875 3.6875 C-8.06820046 6.14018982 -8.62571253 8.30513023 -9 11 C-9.33 11 -9.66 11 -10 11 C-10.48275862 4.72413793 -10.48275862 4.72413793 -8.375 1.5625 C-5.34990088 -0.42769679 -3.55600891 -0.46382725 0 0 Z " fill="#CFF7DE" transform="translate(336,236)"/>
<path d="M0 0 C0 0.66 0 1.32 0 2 C-0.99 2 -1.98 2 -3 2 C-3 2.66 -3 3.32 -3 4 C-4.26418246 4.69965443 -5.53665402 5.38434763 -6.8125 6.0625 C-7.52019531 6.44535156 -8.22789062 6.82820312 -8.95703125 7.22265625 C-11 8 -11 8 -14 7 C-12.04480616 5.82807953 -10.0857461 4.6626071 -8.125 3.5 C-7.03445313 2.8503125 -5.94390625 2.200625 -4.8203125 1.53125 C-2 0 -2 0 0 0 Z " fill="#DD1A1A" transform="translate(384,141)"/>
<path d="M0 0 C0 0.33 0 0.66 0 1 C-1.36125 1.433125 -1.36125 1.433125 -2.75 1.875 C-5.32202908 2.76531776 -7.61346766 3.71494413 -10 5 C-10 6.65 -10 8.3 -10 10 C-10.33 10 -10.66 10 -11 10 C-11.31785906 6.50355037 -11.39644605 4.602598 -9.4375 1.625 C-6.18317497 -0.54455002 -3.82869586 -0.29451507 0 0 Z " fill="#FEDBDB" transform="translate(431,192)"/>
<path d="M0 0 C-6.435 2.97 -6.435 2.97 -13 6 C-11 2 -11 2 -7.625 0.1875 C-4 -1 -4 -1 0 0 Z " fill="#FED8D9" transform="translate(356,124)"/>
<path d="M0 0 C-1.5277867 3.43752007 -3.50181056 6.18953688 -6 9 C-6.66 9 -7.32 9 -8 9 C-6.68994234 5.06982701 -4.75047804 0 0 0 Z " fill="#1EA246" transform="translate(749,144)"/>
<path d="M0 0 C0.495 0.495 0.99 0.99 1.5 1.5 C5.11630158 3.66978095 7.82231616 3.20888419 12 3 C12 3.66 12 4.32 12 5 C8.7 5 5.4 5 2 5 C1.34 3.35 0.68 1.7 0 0 Z " fill="#E01B1B" transform="translate(454,72)"/>
<path d="M0 0 C0.495 0.495 0.99 0.99 1.5 1.5 C5.11630158 3.66978095 7.82231616 3.20888419 12 3 C11.67 3.66 11.34 4.32 11 5 C8.03 5 5.06 5 2 5 C1.34 3.35 0.68 1.7 0 0 Z " fill="#E12625" transform="translate(264,136)"/>
<path d="M0 0 C0.33 1.32 0.66 2.64 1 4 C-3.43076923 7.07692308 -3.43076923 7.07692308 -6.3125 6.6875 C-6.869375 6.460625 -7.42625 6.23375 -8 6 C-6.20963542 5.0234375 -4.41927083 4.046875 -2.62890625 3.0703125 C-0.83381685 2.08589976 -0.83381685 2.08589976 0 0 Z " fill="#E32422" transform="translate(392,134)"/>
<path d="M0 0 C3.5786304 1.65167557 6.74820188 3.78286492 10 6 C9.01 6.33 8.02 6.66 7 7 C5.17578125 6.07421875 5.17578125 6.07421875 3.3125 4.6875 C2.37857422 4.01267578 2.37857422 4.01267578 1.42578125 3.32421875 C0.95527344 2.88722656 0.48476562 2.45023437 0 2 C0 1.34 0 0.68 0 0 Z " fill="#DF2424" transform="translate(203,305)"/>
<path d="M0 0 C0.33 0 0.66 0 1 0 C1.16682272 4.92127034 1.24828052 8.50343896 -1 13 C-1.33 13 -1.66 13 -2 13 C-2.23509196 8.18061476 -1.45184478 4.53701494 0 0 Z " fill="#E53C3C" transform="translate(481,65)"/>
<path d="M0 0 C3.76488042 1.72154788 6.15063897 3.99234114 9 7 C6 7 6 7 4.39453125 5.46875 C3.87246094 4.8190625 3.35039062 4.169375 2.8125 3.5 C2.28269531 2.8503125 1.75289063 2.200625 1.20703125 1.53125 C0.80871094 1.0259375 0.41039062 0.520625 0 0 Z " fill="#DF2928" transform="translate(384,126)"/>
</svg>
